<svg id="svg" version="1.1" xmlns="http://www.w3.org/2000/svg" xmlns:xlink="http://www.w3.org/1999/xlink" width="400" height="400" viewBox="0, 0, 400,400"><g id="svgg"><path id="path0" d="M200.500 99.398 C 200.225 99.711,200.000 100.233,200.000 100.560 C 200.000 100.886,199.820 101.264,199.600 101.400 C 199.342 101.559,199.200 108.772,199.200 121.728 L 199.200 141.808 198.200 142.887 C 197.650 143.480,197.200 144.212,197.200 144.513 C 197.200 144.814,196.750 145.483,196.200 146.000 C 195.650 146.517,195.200 147.147,195.200 147.400 C 195.200 147.653,194.750 148.283,194.200 148.800 C 193.650 149.317,193.200 149.986,193.200 150.288 C 193.200 150.590,192.750 151.286,192.200 151.836 C 191.650 152.386,191.200 153.065,191.200 153.343 C 191.200 153.622,190.647 154.379,189.972 155.025 C 189.297 155.671,188.466 156.785,188.127 157.500 C 187.787 158.215,187.349 158.800,187.154 158.800 C 186.959 158.800,186.800 159.056,186.800 159.369 C 186.800 159.682,186.350 160.473,185.800 161.127 C 185.250 161.781,184.800 162.483,184.800 162.688 C 184.800 162.893,184.350 163.483,183.800 164.000 C 183.250 164.517,182.800 165.187,182.800 165.489 C 182.800 165.791,182.350 166.455,181.800 166.965 C 181.250 167.475,180.800 168.155,180.800 168.476 C 180.800 168.798,180.350 169.483,179.800 170.000 C 179.250 170.517,178.800 171.143,178.800 171.391 C 178.800 171.640,178.170 172.454,177.400 173.200 C 176.630 173.946,176.000 174.850,176.000 175.209 C 176.000 175.567,175.550 176.283,175.000 176.800 C 174.450 177.317,174.000 177.950,174.000 178.208 C 174.000 178.465,173.640 179.002,173.200 179.400 C 172.760 179.798,172.400 180.323,172.400 180.566 C 172.400 180.809,171.950 181.493,171.400 182.087 C 170.850 182.680,170.400 183.412,170.400 183.713 C 170.400 184.014,169.950 184.683,169.400 185.200 C 168.850 185.717,168.400 186.347,168.400 186.600 C 168.400 186.853,167.950 187.483,167.400 188.000 C 166.850 188.517,166.400 189.190,166.400 189.496 C 166.400 189.803,165.772 190.716,165.003 191.527 C 164.235 192.337,163.605 193.197,163.603 193.438 C 163.602 193.679,163.232 194.209,162.781 194.617 C 162.331 195.024,161.681 195.952,161.336 196.679 C 160.991 197.406,160.549 198.000,160.354 198.000 C 160.159 198.000,160.000 198.256,160.000 198.569 C 160.000 198.882,159.550 199.673,159.000 200.327 C 158.450 200.981,158.000 201.683,158.000 201.888 C 158.000 202.093,157.550 202.683,157.000 203.200 C 156.450 203.717,156.000 204.387,156.000 204.690 C 156.000 204.992,155.370 205.888,154.600 206.681 C 153.830 207.474,153.200 208.334,153.200 208.592 C 153.200 208.850,152.750 209.483,152.200 210.000 C 151.650 210.517,151.200 211.147,151.200 211.400 C 151.200 211.653,150.750 212.283,150.200 212.800 C 149.650 213.317,149.200 214.037,149.200 214.400 C 149.200 214.763,148.750 215.483,148.200 216.000 C 147.650 216.517,147.200 217.150,147.200 217.408 C 147.200 217.665,146.840 218.202,146.400 218.600 C 145.960 218.998,145.600 219.631,145.600 220.006 C 145.600 220.381,145.150 221.026,144.600 221.439 C 144.050 221.852,143.600 222.472,143.600 222.816 C 143.600 223.161,142.970 224.054,142.200 224.800 C 141.430 225.546,140.800 226.348,140.800 226.583 C 140.800 226.817,140.350 227.493,139.800 228.087 C 139.250 228.680,138.800 229.412,138.800 229.713 C 138.800 230.014,138.350 230.683,137.800 231.200 C 137.250 231.717,136.800 232.347,136.800 232.600 C 136.800 232.853,136.350 233.483,135.800 234.000 C 135.250 234.517,134.800 235.202,134.800 235.523 C 134.800 235.844,134.485 236.400,134.100 236.759 C 132.067 238.657,131.563 241.050,132.926 242.330 L 133.852 243.200 202.456 243.200 L 271.061 243.200 271.930 242.274 C 272.942 241.197,273.055 239.909,272.200 239.200 C 271.870 238.926,271.600 238.404,271.600 238.039 C 271.600 237.675,271.240 237.117,270.800 236.800 C 270.360 236.483,270.000 235.935,270.000 235.581 C 270.000 235.228,269.550 234.517,269.000 234.000 C 268.450 233.483,268.000 232.853,268.000 232.600 C 268.000 232.347,267.550 231.717,267.000 231.200 C 266.450 230.683,266.000 230.014,266.000 229.713 C 266.000 229.412,265.550 228.680,265.000 228.087 C 264.450 227.493,264.000 226.817,264.000 226.583 C 264.000 226.348,263.370 225.546,262.600 224.800 C 261.830 224.054,261.200 223.161,261.200 222.816 C 261.200 222.472,260.750 221.852,260.200 221.439 C 259.650 221.026,259.200 220.381,259.200 220.006 C 259.200 219.631,258.840 218.998,258.400 218.600 C 257.960 218.202,257.600 217.665,257.600 217.408 C 257.600 217.150,257.150 216.517,256.600 216.000 C 256.050 215.483,255.600 214.757,255.600 214.386 C 255.600 214.015,255.150 213.374,254.600 212.961 C 254.050 212.548,253.600 211.924,253.600 211.575 C 253.600 211.225,253.150 210.517,252.600 210.000 C 252.050 209.483,251.598 208.867,251.597 208.630 C 251.595 208.394,250.965 207.537,250.197 206.727 C 249.428 205.916,248.800 205.003,248.800 204.696 C 248.800 204.390,248.350 203.717,247.800 203.200 C 247.250 202.683,246.800 202.093,246.800 201.888 C 246.800 201.683,246.350 200.981,245.800 200.327 C 245.250 199.673,244.800 198.922,244.800 198.658 C 244.800 198.393,244.440 197.917,244.000 197.600 C 243.560 197.283,243.200 196.735,243.200 196.381 C 243.200 196.028,242.750 195.317,242.200 194.800 C 241.650 194.283,241.198 193.667,241.197 193.430 C 241.195 193.194,240.565 192.337,239.797 191.527 C 239.028 190.716,238.400 189.803,238.400 189.496 C 238.400 189.190,237.950 188.517,237.400 188.000 C 236.850 187.483,236.400 186.853,236.400 186.600 C 236.400 186.347,235.950 185.717,235.400 185.200 C 234.850 184.683,234.400 184.014,234.400 183.713 C 234.400 183.412,233.950 182.680,233.400 182.087 C 232.850 181.493,232.400 180.809,232.400 180.566 C 232.400 180.323,232.040 179.798,231.600 179.400 C 231.160 179.002,230.800 178.465,230.800 178.208 C 230.800 177.950,230.350 177.317,229.800 176.800 C 229.250 176.283,228.800 175.567,228.800 175.209 C 228.800 174.850,228.170 173.946,227.400 173.200 C 226.630 172.454,226.000 171.640,226.000 171.391 C 226.000 171.143,225.550 170.517,225.000 170.000 C 224.450 169.483,224.000 168.813,224.000 168.511 C 224.000 168.209,223.550 167.545,223.000 167.035 C 222.450 166.525,222.000 165.845,222.000 165.524 C 222.000 165.202,221.550 164.517,221.000 164.000 C 220.450 163.483,220.000 162.893,220.000 162.688 C 220.000 162.483,219.550 161.781,219.000 161.127 C 218.450 160.473,218.000 159.682,218.000 159.369 C 218.000 159.056,217.841 158.800,217.646 158.800 C 217.451 158.800,217.013 158.215,216.673 157.500 C 216.334 156.785,215.503 155.671,214.828 155.025 C 214.153 154.379,213.600 153.622,213.600 153.343 C 213.600 153.065,213.150 152.386,212.600 151.836 C 212.050 151.286,211.600 150.590,211.600 150.288 C 211.600 149.986,211.150 149.317,210.600 148.800 C 210.050 148.283,209.600 147.653,209.600 147.400 C 209.600 147.147,209.150 146.517,208.600 146.000 C 208.050 145.483,207.600 144.814,207.600 144.514 C 207.600 144.213,207.228 143.569,206.774 143.083 C 204.933 141.116,204.775 140.202,204.891 132.177 L 205.000 124.600 219.495 124.400 L 233.990 124.200 235.195 123.204 C 236.834 121.850,236.775 120.520,235.000 118.800 C 234.230 118.054,233.600 117.190,233.600 116.882 C 233.600 116.573,232.970 115.690,232.200 114.920 C 230.805 113.525,230.303 111.555,231.200 111.000 C 231.420 110.864,231.600 110.486,231.600 110.160 C 231.600 109.833,231.974 109.169,232.431 108.683 C 232.887 108.197,233.593 107.076,234.000 106.190 C 234.406 105.305,235.112 104.242,235.569 103.828 C 236.741 102.767,236.623 101.164,235.278 99.875 L 234.156 98.800 217.578 98.815 C 203.774 98.828,200.916 98.925,200.500 99.398 M94.757 292.925 C 80.619 298.846,81.222 319.313,95.665 323.756 C 98.186 324.531,103.997 324.686,105.739 324.023 C 109.523 322.585,113.607 319.801,113.595 318.669 C 113.591 318.211,110.134 314.400,109.723 314.400 C 109.609 314.400,108.950 314.878,108.258 315.462 C 99.721 322.669,87.709 313.761,92.569 303.827 C 95.470 297.898,103.728 296.412,108.483 300.964 C 109.918 302.338,110.065 302.303,111.966 300.144 C 113.962 297.876,113.995 297.230,112.199 295.653 C 108.132 292.082,99.859 290.788,94.757 292.925 M125.105 300.206 C 111.977 305.028,115.422 324.400,129.407 324.400 C 137.352 324.400,142.400 319.582,142.400 312.000 C 142.400 303.106,133.582 297.092,125.105 300.206 M158.515 300.573 C 155.760 302.148,155.200 302.225,155.200 301.027 C 155.200 300.015,155.155 300.000,152.194 300.000 L 149.188 300.000 149.294 312.100 L 149.400 324.200 152.200 324.200 L 155.000 324.200 155.201 316.600 C 155.438 307.627,155.758 306.576,158.672 305.165 C 160.269 304.392,160.638 304.350,161.975 304.792 C 164.609 305.661,164.800 306.400,164.800 315.719 C 164.800 325.015,164.551 324.404,168.333 324.394 C 171.863 324.384,171.686 324.917,171.532 314.755 C 171.371 304.061,171.166 303.418,167.044 300.646 C 164.887 299.196,160.983 299.162,158.515 300.573 M182.800 300.633 C 169.636 308.120,178.650 329.805,192.344 323.591 C 193.303 323.156,194.158 322.800,194.244 322.800 C 194.330 322.800,194.400 324.954,194.400 327.586 C 194.400 333.114,194.459 333.204,198.074 333.194 C 201.455 333.184,201.222 334.477,201.105 316.374 L 201.000 300.200 197.971 300.084 C 195.085 299.974,194.921 300.015,194.491 300.960 L 194.039 301.952 191.920 300.783 C 189.026 299.188,185.445 299.129,182.800 300.633 M243.630 300.679 C 229.026 307.740,238.942 329.596,254.092 323.740 C 258.445 322.057,259.095 320.841,256.827 318.626 L 255.253 317.090 253.758 317.972 C 250.646 319.808,246.838 319.462,244.450 317.127 C 242.016 314.748,242.370 314.624,252.205 314.400 L 261.000 314.200 261.128 312.643 C 261.907 303.133,252.234 296.518,243.630 300.679 M277.000 300.465 C 276.120 300.922,275.092 301.566,274.715 301.896 C 273.784 302.713,272.800 302.250,272.800 300.995 C 272.800 299.972,272.780 299.966,269.900 300.082 L 267.000 300.200 267.000 312.200 L 267.000 324.200 269.800 324.200 L 272.600 324.200 272.853 318.000 C 273.220 309.010,274.354 306.459,278.304 305.740 L 280.200 305.395 280.318 302.497 C 280.453 299.149,280.033 298.892,277.000 300.465 M290.442 300.673 C 280.831 305.321,281.248 319.843,291.104 323.722 C 294.983 325.249,301.318 324.294,304.728 321.669 L 305.656 320.954 304.328 319.303 C 302.600 317.154,302.288 317.057,300.501 318.113 C 297.210 320.058,291.968 318.930,290.364 315.933 C 289.627 314.555,290.480 314.413,299.500 314.406 L 308.000 314.400 308.000 311.962 C 308.000 302.430,298.903 296.581,290.442 300.673 M323.028 301.000 C 320.204 302.701,320.161 302.703,319.856 301.182 L 319.613 299.965 316.706 300.082 L 313.800 300.200 313.800 312.200 L 313.800 324.200 315.979 324.324 C 320.121 324.559,319.874 324.994,320.078 317.105 C 320.305 308.339,321.127 306.512,325.200 305.725 L 327.000 305.377 327.118 302.489 C 327.261 298.965,326.729 298.771,323.028 301.000 M208.000 308.437 C 208.000 317.716,208.231 319.128,210.128 321.429 C 212.874 324.760,218.480 325.513,221.780 322.995 C 223.640 321.575,223.792 321.601,224.082 323.400 C 224.198 324.122,224.521 324.200,227.405 324.200 L 230.600 324.200 230.712 313.000 C 230.854 298.835,231.147 299.938,227.288 300.083 L 224.200 300.200 224.091 307.728 C 223.976 315.704,223.835 316.341,221.800 318.087 C 220.552 319.158,217.161 319.046,216.129 317.900 C 214.757 316.375,214.631 315.638,214.412 307.800 L 214.200 300.200 211.100 300.083 L 208.000 299.966 208.000 308.437 M190.404 305.200 C 191.626 305.200,193.876 307.655,194.385 309.544 C 196.696 318.125,186.912 322.849,183.393 314.851 C 181.437 310.404,185.194 303.993,189.133 305.056 C 189.426 305.135,189.998 305.200,190.404 305.200 M251.597 305.543 C 256.034 307.922,254.737 310.000,248.814 310.000 C 242.768 310.000,241.762 308.927,245.305 306.257 C 247.432 304.655,249.503 304.420,251.597 305.543 M299.312 305.901 C 302.509 308.794,301.417 310.000,295.600 310.000 C 290.389 310.000,289.429 309.525,290.786 307.620 C 292.731 304.889,297.198 303.988,299.312 305.901 M133.084 305.986 C 135.813 307.650,136.855 312.355,135.209 315.582 C 132.873 320.162,126.100 320.008,124.146 315.332 C 121.465 308.916,127.515 302.590,133.084 305.986 " stroke="none" fill="#f9f9f9" fill-rule="evenodd"></path><path id="path1" d="M181.200 1.000 C 181.200 1.495,180.467 1.600,177.000 1.600 C 174.467 1.600,172.800 1.759,172.800 2.000 C 172.800 2.239,171.267 2.400,169.000 2.400 C 166.733 2.400,165.200 2.561,165.200 2.800 C 165.200 3.020,164.300 3.200,163.200 3.200 C 161.689 3.200,161.200 3.347,161.200 3.800 C 161.200 4.244,160.733 4.400,159.400 4.400 C 158.410 4.400,157.600 4.580,157.600 4.800 C 157.600 5.022,156.533 5.200,155.200 5.200 C 153.333 5.200,152.800 5.333,152.800 5.800 C 152.800 6.253,152.311 6.400,150.800 6.400 C 149.700 6.400,148.800 6.580,148.800 6.800 C 148.800 7.020,148.170 7.200,147.400 7.200 C 146.630 7.200,146.000 7.380,146.000 7.600 C 146.000 7.820,145.100 8.000,144.000 8.000 C 142.489 8.000,142.000 8.147,142.000 8.600 C 142.000 9.019,141.578 9.200,140.600 9.200 C 139.830 9.200,139.200 9.380,139.200 9.600 C 139.200 9.820,138.570 10.000,137.800 10.000 C 136.822 10.000,136.400 10.181,136.400 10.600 C 136.400 11.019,135.978 11.200,135.000 11.200 C 134.230 11.200,133.600 11.380,133.600 11.600 C 133.600 11.820,132.970 12.000,132.200 12.000 C 131.430 12.000,130.800 12.180,130.800 12.400 C 130.800 12.620,130.350 12.800,129.800 12.800 C 129.178 12.800,128.800 13.027,128.800 13.400 C 128.800 13.819,128.378 14.000,127.400 14.000 C 126.630 14.000,126.000 14.180,126.000 14.400 C 126.000 14.620,125.550 14.800,125.000 14.800 C 124.450 14.800,124.000 14.980,124.000 15.200 C 124.000 15.420,123.370 15.600,122.600 15.600 C 121.622 15.600,121.200 15.781,121.200 16.200 C 121.200 16.573,120.822 16.800,120.200 16.800 C 119.650 16.800,119.200 16.980,119.200 17.200 C 119.200 17.420,118.834 17.600,118.387 17.600 C 117.941 17.600,117.471 17.870,117.345 18.200 C 117.218 18.530,116.684 18.800,116.157 18.800 C 115.631 18.800,115.200 18.980,115.200 19.200 C 115.200 19.420,114.840 19.600,114.400 19.600 C 113.960 19.600,113.600 19.780,113.600 20.000 C 113.600 20.220,113.150 20.400,112.600 20.400 C 111.978 20.400,111.600 20.627,111.600 21.000 C 111.600 21.373,111.222 21.600,110.600 21.600 C 110.050 21.600,109.600 21.780,109.600 22.000 C 109.600 22.220,109.234 22.400,108.787 22.400 C 108.341 22.400,107.871 22.670,107.745 23.000 C 107.618 23.330,107.084 23.600,106.557 23.600 C 106.031 23.600,105.600 23.780,105.600 24.000 C 105.600 24.220,105.240 24.400,104.800 24.400 C 104.360 24.400,104.000 24.580,104.000 24.800 C 104.000 25.020,103.550 25.200,103.000 25.200 C 102.378 25.200,102.000 25.427,102.000 25.800 C 102.000 26.140,101.641 26.400,101.171 26.400 C 100.286 26.400,99.200 27.266,99.200 27.971 C 99.200 28.207,98.750 28.400,98.200 28.400 C 97.650 28.400,97.200 28.580,97.200 28.800 C 97.200 29.020,96.827 29.200,96.371 29.200 C 95.486 29.200,94.400 30.066,94.400 30.771 C 94.400 31.007,93.950 31.200,93.400 31.200 C 92.850 31.200,92.400 31.380,92.400 31.600 C 92.400 31.820,92.065 32.000,91.656 32.000 C 91.247 32.000,90.574 32.450,90.161 33.000 C 89.748 33.550,89.080 34.000,88.676 34.000 C 87.871 34.000,86.800 34.897,86.800 35.571 C 86.800 35.807,86.530 36.000,86.200 36.000 C 85.870 36.000,85.600 36.180,85.600 36.400 C 85.600 36.620,85.265 36.800,84.856 36.800 C 84.447 36.800,83.774 37.250,83.361 37.800 C 82.948 38.350,82.280 38.800,81.876 38.800 C 81.152 38.800,80.000 39.676,80.000 40.227 C 80.000 40.653,78.679 41.573,78.047 41.587 C 77.743 41.594,76.900 42.230,76.174 43.000 C 75.448 43.770,74.662 44.400,74.427 44.400 C 74.192 44.400,74.000 44.670,74.000 45.000 C 74.000 45.333,73.644 45.600,73.200 45.600 C 72.760 45.600,72.400 45.780,72.400 46.000 C 72.400 46.220,72.207 46.400,71.971 46.400 C 71.418 46.400,70.400 47.418,70.400 47.971 C 70.400 48.207,70.207 48.400,69.971 48.400 C 69.505 48.400,68.400 49.385,68.400 49.800 C 68.400 50.293,67.252 51.200,66.629 51.200 C 65.942 51.200,62.800 54.154,62.800 54.800 C 62.800 55.020,62.612 55.200,62.382 55.200 C 61.839 55.200,60.000 57.039,60.000 57.582 C 60.000 57.812,59.807 58.000,59.571 58.000 C 59.018 58.000,58.000 59.018,58.000 59.571 C 58.000 59.807,57.812 60.000,57.582 60.000 C 57.039 60.000,55.200 61.839,55.200 62.382 C 55.200 62.612,55.020 62.800,54.800 62.800 C 54.154 62.800,51.200 65.942,51.200 66.629 C 51.200 67.252,50.293 68.400,49.800 68.400 C 49.385 68.400,48.400 69.505,48.400 69.971 C 48.400 70.207,48.207 70.400,47.971 70.400 C 47.418 70.400,46.400 71.418,46.400 71.971 C 46.400 72.207,46.220 72.400,46.000 72.400 C 45.780 72.400,45.600 72.760,45.600 73.200 C 45.600 73.644,45.333 74.000,45.000 74.000 C 44.670 74.000,44.400 74.192,44.400 74.427 C 44.400 74.662,43.770 75.448,43.000 76.174 C 42.230 76.900,41.594 77.743,41.587 78.047 C 41.573 78.679,40.653 80.000,40.227 80.000 C 39.676 80.000,38.800 81.152,38.800 81.876 C 38.800 82.280,38.350 82.948,37.800 83.361 C 37.250 83.774,36.800 84.447,36.800 84.856 C 36.800 85.265,36.620 85.600,36.400 85.600 C 36.180 85.600,36.000 85.870,36.000 86.200 C 36.000 86.530,35.730 86.800,35.400 86.800 C 35.067 86.800,34.800 87.156,34.800 87.600 C 34.800 88.040,34.620 88.400,34.400 88.400 C 34.180 88.400,34.000 88.670,34.000 89.000 C 34.000 89.330,33.820 89.600,33.600 89.600 C 33.380 89.600,33.200 90.061,33.200 90.624 C 33.200 91.187,33.052 91.556,32.871 91.444 C 32.388 91.145,31.200 92.681,31.200 93.605 C 31.200 94.042,31.007 94.400,30.771 94.400 C 30.066 94.400,29.200 95.486,29.200 96.371 C 29.200 96.827,29.020 97.200,28.800 97.200 C 28.580 97.200,28.400 97.650,28.400 98.200 C 28.400 98.750,28.207 99.200,27.971 99.200 C 27.266 99.200,26.400 100.286,26.400 101.171 C 26.400 101.641,26.140 102.000,25.800 102.000 C 25.427 102.000,25.200 102.378,25.200 103.000 C 25.200 103.550,25.020 104.000,24.800 104.000 C 24.580 104.000,24.400 104.360,24.400 104.800 C 24.400 105.240,24.220 105.600,24.000 105.600 C 23.780 105.600,23.600 106.031,23.600 106.557 C 23.600 107.084,23.330 107.618,23.000 107.745 C 22.670 107.871,22.400 108.341,22.400 108.787 C 22.400 109.234,22.220 109.600,22.000 109.600 C 21.780 109.600,21.600 110.050,21.600 110.600 C 21.600 111.222,21.373 111.600,21.000 111.600 C 20.627 111.600,20.400 111.978,20.400 112.600 C 20.400 113.150,20.220 113.600,20.000 113.600 C 19.780 113.600,19.600 113.960,19.600 114.400 C 19.600 114.840,19.420 115.200,19.200 115.200 C 18.980 115.200,18.800 115.631,18.800 116.157 C 18.800 116.684,18.530 117.218,18.200 117.345 C 17.870 117.471,17.600 117.941,17.600 118.387 C 17.600 118.834,17.420 119.200,17.200 119.200 C 16.980 119.200,16.800 119.650,16.800 120.200 C 16.800 120.822,16.573 121.200,16.200 121.200 C 15.867 121.200,15.600 121.556,15.600 122.000 C 15.600 122.440,15.420 122.800,15.200 122.800 C 14.980 122.800,14.800 123.520,14.800 124.400 C 14.800 125.280,14.620 126.000,14.400 126.000 C 14.180 126.000,14.000 126.630,14.000 127.400 C 14.000 128.378,13.819 128.800,13.400 128.800 C 13.027 128.800,12.800 129.178,12.800 129.800 C 12.800 130.350,12.620 130.800,12.400 130.800 C 12.180 130.800,12.000 131.430,12.000 132.200 C 12.000 132.970,11.820 133.600,11.600 133.600 C 11.380 133.600,11.200 134.230,11.200 135.000 C 11.200 135.978,11.019 136.400,10.600 136.400 C 10.181 136.400,10.000 136.822,10.000 137.800 C 10.000 138.570,9.820 139.200,9.600 139.200 C 9.380 139.200,9.200 139.830,9.200 140.600 C 9.200 141.578,9.019 142.000,8.600 142.000 C 8.147 142.000,8.000 142.489,8.000 144.000 C 8.000 145.100,7.820 146.000,7.600 146.000 C 7.380 146.000,7.200 146.630,7.200 147.400 C 7.200 148.170,7.020 148.800,6.800 148.800 C 6.580 148.800,6.400 149.700,6.400 150.800 C 6.400 152.311,6.253 152.800,5.800 152.800 C 5.356 152.800,5.200 153.267,5.200 154.600 C 5.200 155.590,5.020 156.400,4.800 156.400 C 4.578 156.400,4.400 157.467,4.400 158.800 C 4.400 160.667,4.267 161.200,3.800 161.200 C 3.320 161.200,3.200 161.800,3.200 164.200 C 3.200 165.933,3.031 167.200,2.800 167.200 C 2.571 167.200,2.400 168.400,2.400 170.000 C 2.400 171.600,2.229 172.800,2.000 172.800 C 1.761 172.800,1.600 174.333,1.600 176.600 C 1.600 179.711,1.491 180.400,1.000 180.400 C 0.475 180.400,0.400 182.889,0.400 200.400 C 0.400 217.911,0.475 220.400,1.000 220.400 C 1.497 220.400,1.600 221.156,1.600 224.800 C 1.600 227.467,1.758 229.200,2.000 229.200 C 2.229 229.200,2.400 230.400,2.400 232.000 C 2.400 233.600,2.571 234.800,2.800 234.800 C 3.031 234.800,3.200 236.067,3.200 237.800 C 3.200 240.200,3.320 240.800,3.800 240.800 C 4.260 240.800,4.400 241.308,4.400 242.976 C 4.400 244.173,4.580 245.264,4.800 245.400 C 5.020 245.536,5.200 246.447,5.200 247.424 C 5.200 248.736,5.357 249.200,5.800 249.200 C 6.253 249.200,6.400 249.689,6.400 251.200 C 6.400 252.300,6.580 253.200,6.800 253.200 C 7.020 253.200,7.200 253.830,7.200 254.600 C 7.200 255.370,7.380 256.000,7.600 256.000 C 7.820 256.000,8.000 256.791,8.000 257.757 C 8.000 258.950,8.193 259.588,8.600 259.745 C 8.977 259.889,9.200 260.501,9.200 261.387 C 9.200 262.164,9.380 262.800,9.600 262.800 C 9.820 262.800,10.000 263.430,10.000 264.200 C 10.000 265.178,10.181 265.600,10.600 265.600 C 11.019 265.600,11.200 266.022,11.200 267.000 C 11.200 267.770,11.380 268.400,11.600 268.400 C 11.820 268.400,12.000 269.030,12.000 269.800 C 12.000 270.570,12.180 271.200,12.400 271.200 C 12.620 271.200,12.800 271.566,12.800 272.013 C 12.800 272.459,13.070 272.929,13.400 273.055 C 13.770 273.197,14.000 273.805,14.000 274.643 C 14.000 275.389,14.180 276.000,14.400 276.000 C 14.620 276.000,14.800 276.630,14.800 277.400 C 14.800 278.170,14.980 278.800,15.200 278.800 C 15.420 278.800,15.600 279.166,15.600 279.613 C 15.600 280.059,15.870 280.529,16.200 280.655 C 16.530 280.782,16.800 281.316,16.800 281.843 C 16.800 282.369,16.980 282.800,17.200 282.800 C 17.420 282.800,17.600 283.250,17.600 283.800 C 17.600 284.422,17.827 284.800,18.200 284.800 C 18.619 284.800,18.800 285.222,18.800 286.200 C 18.800 286.970,18.980 287.600,19.200 287.600 C 19.420 287.600,19.600 288.050,19.600 288.600 C 19.600 289.150,19.780 289.600,20.000 289.600 C 20.220 289.600,20.400 289.876,20.400 290.213 C 20.400 290.549,20.670 290.929,21.000 291.055 C 21.330 291.182,21.600 291.716,21.600 292.243 C 21.600 292.769,21.780 293.200,22.000 293.200 C 22.220 293.200,22.400 293.650,22.400 294.200 C 22.400 294.822,22.627 295.200,23.000 295.200 C 23.358 295.200,23.600 295.568,23.600 296.112 C 23.600 296.613,23.960 297.283,24.400 297.600 C 24.840 297.917,25.200 298.587,25.200 299.088 L 25.200 300.000 15.800 300.000 C 6.646 300.000,6.400 300.021,6.400 300.805 C 6.400 301.612,10.064 305.600,10.805 305.600 C 11.022 305.600,11.200 305.788,11.200 306.018 C 11.200 306.560,13.273 308.631,13.685 308.500 C 13.858 308.445,14.000 308.593,14.000 308.829 C 14.000 309.382,15.018 310.400,15.571 310.400 C 15.807 310.400,15.955 310.542,15.900 310.715 C 15.769 311.127,17.840 313.200,18.382 313.200 C 18.612 313.200,18.800 313.378,18.800 313.595 C 18.800 314.117,22.674 318.000,23.195 318.000 C 23.418 318.000,23.600 318.189,23.600 318.419 C 23.600 318.965,27.435 322.800,27.981 322.800 C 28.211 322.800,28.400 322.982,28.400 323.205 C 28.400 323.726,32.283 327.600,32.805 327.600 C 33.022 327.600,33.200 327.792,33.200 328.027 C 33.200 328.262,34.055 329.279,35.100 330.287 C 36.248 331.395,36.802 332.188,36.500 332.293 C 36.225 332.389,36.000 332.722,36.000 333.033 C 36.000 333.345,35.807 333.600,35.571 333.600 C 35.105 333.600,34.000 334.585,34.000 335.000 C 34.000 335.334,32.934 336.400,32.600 336.400 C 32.185 336.400,31.200 337.505,31.200 337.971 C 31.200 338.207,30.996 338.400,30.747 338.400 C 30.268 338.400,28.401 340.389,28.400 340.900 C 28.400 341.065,28.207 341.200,27.971 341.200 C 27.418 341.200,26.400 342.218,26.400 342.771 C 26.400 343.007,26.207 343.200,25.971 343.200 C 25.407 343.200,24.400 344.222,24.400 344.795 C 24.400 345.044,24.220 345.136,24.000 345.000 C 23.780 344.864,23.600 345.033,23.600 345.376 C 23.600 345.719,23.407 346.000,23.171 346.000 C 22.618 346.000,21.600 347.018,21.600 347.571 C 21.600 347.807,21.465 348.000,21.300 348.000 C 20.789 348.001,18.800 349.868,18.800 350.347 C 18.800 350.596,18.607 350.800,18.371 350.800 C 17.818 350.800,16.800 351.818,16.800 352.371 C 16.800 352.607,16.665 352.800,16.500 352.800 C 15.989 352.801,14.000 354.668,14.000 355.147 C 14.000 355.396,13.807 355.600,13.571 355.600 C 13.105 355.600,12.000 356.585,12.000 357.000 C 12.000 357.334,10.934 358.400,10.600 358.400 C 10.185 358.400,9.200 359.505,9.200 359.971 C 9.200 360.207,9.007 360.400,8.771 360.400 C 8.218 360.400,7.200 361.418,7.200 361.971 C 7.200 362.207,7.020 362.400,6.800 362.400 C 6.580 362.400,6.400 362.760,6.400 363.200 C 6.400 363.992,6.667 364.000,34.000 364.000 C 58.810 364.000,61.600 364.063,61.600 364.628 C 61.600 365.050,61.895 365.214,62.500 365.128 C 63.395 365.001,63.401 364.958,63.508 356.900 C 63.568 352.445,63.748 348.806,63.908 348.813 C 64.444 348.836,65.600 349.882,65.600 350.344 C 65.600 350.595,65.962 350.800,66.405 350.800 C 67.212 350.800,71.200 354.464,71.200 355.205 C 71.200 355.422,71.470 355.600,71.800 355.600 C 72.130 355.600,72.400 355.780,72.400 356.000 C 72.400 356.220,72.741 356.400,73.157 356.400 C 73.574 356.400,74.022 356.681,74.154 357.025 C 74.286 357.369,74.576 357.539,74.797 357.402 C 75.019 357.265,75.200 357.356,75.200 357.605 C 75.200 358.178,76.207 359.200,76.771 359.200 C 77.007 359.200,77.200 359.470,77.200 359.800 C 77.200 360.133,77.556 360.400,78.000 360.400 C 78.440 360.400,78.800 360.580,78.800 360.800 C 78.800 361.020,78.993 361.200,79.229 361.200 C 79.782 361.200,80.800 362.218,80.800 362.771 C 80.800 363.007,81.207 363.200,81.705 363.200 C 82.204 363.200,82.947 363.649,83.361 364.200 C 83.774 364.750,84.447 365.200,84.856 365.200 C 85.265 365.200,85.600 365.380,85.600 365.600 C 85.600 365.820,85.793 366.000,86.029 366.000 C 86.582 366.000,87.600 367.018,87.600 367.571 C 87.600 367.807,87.973 368.000,88.429 368.000 C 89.314 368.000,90.400 368.866,90.400 369.571 C 90.400 369.807,90.850 370.000,91.400 370.000 C 91.950 370.000,92.400 370.180,92.400 370.400 C 92.400 370.620,92.773 370.800,93.229 370.800 C 94.114 370.800,95.200 371.666,95.200 372.371 C 95.200 372.607,95.650 372.800,96.200 372.800 C 96.750 372.800,97.200 372.980,97.200 373.200 C 97.200 373.420,97.650 373.600,98.200 373.600 C 98.750 373.600,99.200 373.793,99.200 374.029 C 99.200 374.734,100.286 375.600,101.171 375.600 C 101.627 375.600,102.000 375.780,102.000 376.000 C 102.000 376.220,102.450 376.400,103.000 376.400 C 103.622 376.400,104.000 376.627,104.000 377.000 C 104.000 377.333,104.356 377.600,104.800 377.600 C 105.240 377.600,105.600 377.780,105.600 378.000 C 105.600 378.220,106.050 378.400,106.600 378.400 C 107.222 378.400,107.600 378.627,107.600 379.000 C 107.600 379.337,107.957 379.600,108.417 379.600 C 108.866 379.600,109.620 379.960,110.092 380.400 C 110.564 380.840,111.277 381.200,111.675 381.200 C 112.074 381.200,112.400 381.470,112.400 381.800 C 112.400 382.173,112.778 382.400,113.400 382.400 C 113.950 382.400,114.400 382.580,114.400 382.800 C 114.400 383.020,115.011 383.200,115.757 383.200 C 116.595 383.200,117.203 383.430,117.345 383.800 C 117.471 384.130,117.941 384.400,118.387 384.400 C 118.834 384.400,119.200 384.580,119.200 384.800 C 119.200 385.020,119.650 385.200,120.200 385.200 C 120.750 385.200,121.200 385.380,121.200 385.600 C 121.200 385.820,121.830 386.000,122.600 386.000 C 123.578 386.000,124.000 386.181,124.000 386.600 C 124.000 386.973,124.378 387.200,125.000 387.200 C 125.550 387.200,126.000 387.380,126.000 387.600 C 126.000 387.820,126.630 388.000,127.400 388.000 C 128.170 388.000,128.800 388.180,128.800 388.400 C 128.800 388.620,129.250 388.800,129.800 388.800 C 130.422 388.800,130.800 389.027,130.800 389.400 C 130.800 389.819,131.222 390.000,132.200 390.000 C 132.970 390.000,133.600 390.180,133.600 390.400 C 133.600 390.620,134.230 390.800,135.000 390.800 C 135.978 390.800,136.400 390.981,136.400 391.400 C 136.400 391.819,136.822 392.000,137.800 392.000 C 138.570 392.000,139.200 392.180,139.200 392.400 C 139.200 392.620,139.830 392.800,140.600 392.800 C 141.370 392.800,142.000 392.980,142.000 393.200 C 142.000 393.420,142.900 393.600,144.000 393.600 C 145.511 393.600,146.000 393.747,146.000 394.200 C 146.000 394.644,146.467 394.800,147.800 394.800 C 148.790 394.800,149.600 394.980,149.600 395.200 C 149.600 395.420,150.320 395.600,151.200 395.600 C 152.356 395.600,152.800 395.767,152.800 396.200 C 152.800 396.667,153.333 396.800,155.200 396.800 C 156.533 396.800,157.600 396.978,157.600 397.200 C 157.600 397.420,158.410 397.600,159.400 397.600 C 160.390 397.600,161.200 397.780,161.200 398.000 C 161.200 398.227,162.352 398.400,163.856 398.400 C 165.924 398.400,166.625 398.555,167.023 399.100 C 168.035 400.483,234.800 400.344,234.800 398.958 C 234.800 398.530,235.499 398.400,237.800 398.400 C 239.533 398.400,240.800 398.231,240.800 398.000 C 240.800 397.780,241.610 397.600,242.600 397.600 C 243.590 397.600,244.400 397.420,244.400 397.200 C 244.400 396.980,245.300 396.800,246.400 396.800 C 247.911 396.800,248.400 396.653,248.400 396.200 C 248.400 395.733,248.933 395.600,250.800 395.600 C 252.133 395.600,253.200 395.422,253.200 395.200 C 253.200 394.980,253.830 394.800,254.600 394.800 C 255.578 394.800,256.000 394.619,256.000 394.200 C 256.000 393.781,256.422 393.600,257.400 393.600 C 258.170 393.600,258.800 393.420,258.800 393.200 C 258.800 392.980,259.599 392.800,260.576 392.800 C 261.553 392.800,262.464 392.620,262.600 392.400 C 262.736 392.180,263.382 392.000,264.036 392.000 C 264.724 392.000,265.322 391.747,265.455 391.400 C 265.597 391.030,266.205 390.800,267.043 390.800 C 267.789 390.800,268.400 390.620,268.400 390.400 C 268.400 390.180,269.030 390.000,269.800 390.000 C 270.778 390.000,271.200 389.819,271.200 389.400 C 271.200 389.027,271.578 388.800,272.200 388.800 C 272.750 388.800,273.200 388.620,273.200 388.400 C 273.200 388.180,273.830 388.000,274.600 388.000 C 275.370 388.000,276.000 387.820,276.000 387.600 C 276.000 387.380,276.450 387.200,277.000 387.200 C 277.622 387.200,278.000 386.973,278.000 386.600 C 278.000 386.181,278.422 386.000,279.400 386.000 C 280.170 386.000,280.800 385.820,280.800 385.600 C 280.800 385.380,281.173 385.200,281.629 385.200 C 282.084 385.200,282.729 384.928,283.061 384.596 C 283.393 384.264,283.831 384.096,284.035 384.222 C 284.239 384.348,284.514 384.169,284.646 383.825 C 284.798 383.428,285.381 383.200,286.243 383.200 C 286.989 383.200,287.600 383.020,287.600 382.800 C 287.600 382.580,287.966 382.400,288.413 382.400 C 288.859 382.400,289.329 382.130,289.455 381.800 C 289.582 381.470,290.026 381.200,290.443 381.200 C 290.859 381.200,291.200 381.020,291.200 380.800 C 291.200 380.580,291.470 380.400,291.800 380.400 C 292.130 380.400,292.400 380.220,292.400 380.000 C 292.400 379.780,292.766 379.600,293.213 379.600 C 293.659 379.600,294.129 379.330,294.255 379.000 C 294.382 378.670,294.826 378.400,295.243 378.400 C 295.659 378.400,296.000 378.220,296.000 378.000 C 296.000 377.780,296.450 377.600,297.000 377.600 C 297.622 377.600,298.000 377.373,298.000 377.000 C 298.000 376.627,298.378 376.400,299.000 376.400 C 299.550 376.400,300.000 376.220,300.000 376.000 C 300.000 375.780,300.373 375.600,300.829 375.600 C 301.714 375.600,302.800 374.734,302.800 374.029 C 302.800 373.793,303.250 373.600,303.800 373.600 C 304.350 373.600,304.800 373.420,304.800 373.200 C 304.800 372.980,305.135 372.800,305.544 372.800 C 305.953 372.800,306.626 372.350,307.039 371.800 C 307.453 371.249,308.196 370.800,308.695 370.800 C 309.193 370.800,309.600 370.620,309.600 370.400 C 309.600 370.180,309.935 370.000,310.344 370.000 C 310.753 370.000,311.426 369.550,311.839 369.000 C 312.253 368.449,312.996 368.000,313.495 368.000 C 313.993 368.000,314.400 367.807,314.400 367.571 C 314.400 367.018,315.418 366.000,315.971 366.000 C 316.207 366.000,316.400 365.820,316.400 365.600 C 316.400 365.380,316.760 365.200,317.200 365.200 C 317.644 365.200,318.000 364.933,318.000 364.600 C 318.000 364.270,318.270 364.000,318.600 364.000 C 318.930 364.000,319.200 363.820,319.200 363.600 C 319.200 363.380,319.650 363.200,320.200 363.200 C 320.750 363.200,321.200 363.012,321.200 362.782 C 321.200 362.191,323.060 360.401,323.682 360.393 C 323.967 360.389,324.624 359.939,325.142 359.393 C 325.660 358.847,326.215 358.400,326.374 358.400 C 326.534 358.400,326.906 357.950,327.200 357.400 C 327.494 356.850,328.081 356.400,328.503 356.400 C 328.926 356.400,330.512 355.140,332.027 353.600 C 335.740 349.828,335.600 349.655,335.600 358.000 C 335.600 364.933,335.630 365.200,336.400 365.200 C 336.844 365.200,337.200 364.933,337.200 364.600 C 337.200 364.072,340.600 364.000,365.400 364.000 C 393.333 364.000,393.600 363.992,393.600 363.200 C 393.600 362.760,393.420 362.400,393.200 362.400 C 392.980 362.400,392.800 362.207,392.800 361.971 C 392.800 361.418,391.782 360.400,391.229 360.400 C 390.993 360.400,390.800 360.207,390.800 359.971 C 390.800 359.505,389.815 358.400,389.400 358.400 C 389.066 358.400,388.000 357.334,388.000 357.000 C 388.000 356.585,386.895 355.600,386.429 355.600 C 386.193 355.600,386.000 355.396,386.000 355.147 C 386.000 354.668,384.011 352.801,383.500 352.800 C 383.335 352.800,383.200 352.607,383.200 352.371 C 383.200 351.818,382.182 350.800,381.629 350.800 C 381.393 350.800,381.200 350.596,381.200 350.347 C 381.200 349.868,379.211 348.001,378.700 348.000 C 378.535 348.000,378.400 347.807,378.400 347.571 C 378.400 347.018,377.382 346.000,376.829 346.000 C 376.593 346.000,376.400 345.719,376.400 345.376 C 376.400 345.033,376.220 344.864,376.000 345.000 C 375.780 345.136,375.600 345.044,375.600 344.795 C 375.600 344.222,374.593 343.200,374.029 343.200 C 373.793 343.200,373.600 343.007,373.600 342.771 C 373.600 342.218,372.582 341.200,372.029 341.200 C 371.793 341.200,371.600 341.065,371.600 340.900 C 371.599 340.389,369.732 338.400,369.253 338.400 C 369.004 338.400,368.800 338.207,368.800 337.971 C 368.800 337.505,367.815 336.400,367.400 336.400 C 367.066 336.400,366.000 335.334,366.000 335.000 C 366.000 334.585,364.895 333.600,364.429 333.600 C 364.193 333.600,364.000 333.345,364.000 333.033 C 364.000 332.722,363.775 332.389,363.500 332.293 C 363.198 332.188,363.752 331.395,364.900 330.287 C 365.945 329.279,366.800 328.262,366.800 328.027 C 366.800 327.792,366.978 327.600,367.195 327.600 C 367.717 327.600,371.600 323.726,371.600 323.205 C 371.600 322.982,371.789 322.800,372.019 322.800 C 372.565 322.800,376.400 318.965,376.400 318.419 C 376.400 318.189,376.582 318.000,376.805 318.000 C 377.326 318.000,381.200 314.117,381.200 313.595 C 381.200 313.378,381.388 313.200,381.618 313.200 C 382.160 313.200,384.231 311.127,384.100 310.715 C 384.045 310.542,384.193 310.400,384.429 310.400 C 384.982 310.400,386.000 309.382,386.000 308.829 C 386.000 308.593,386.142 308.445,386.315 308.500 C 386.727 308.631,388.800 306.560,388.800 306.018 C 388.800 305.788,388.978 305.600,389.195 305.600 C 389.936 305.600,393.600 301.612,393.600 300.805 C 393.600 300.023,393.352 300.000,385.000 300.000 L 376.400 300.000 376.400 299.000 C 376.400 298.378,376.627 298.000,377.000 298.000 C 377.373 298.000,377.600 297.622,377.600 297.000 C 377.600 296.450,377.780 296.000,378.000 296.000 C 378.220 296.000,378.400 295.659,378.400 295.243 C 378.400 294.826,378.670 294.382,379.000 294.255 C 379.330 294.129,379.600 293.659,379.600 293.213 C 379.600 292.766,379.780 292.400,380.000 292.400 C 380.220 292.400,380.400 292.130,380.400 291.800 C 380.400 291.470,380.580 291.200,380.800 291.200 C 381.020 291.200,381.200 290.840,381.200 290.400 C 381.200 289.956,381.467 289.600,381.800 289.600 C 382.173 289.600,382.400 289.222,382.400 288.600 C 382.400 288.050,382.580 287.600,382.800 287.600 C 383.020 287.600,383.200 286.989,383.200 286.243 C 383.200 285.381,383.428 284.798,383.825 284.646 C 384.169 284.514,384.348 284.239,384.222 284.035 C 384.096 283.831,384.264 283.393,384.596 283.061 C 384.928 282.729,385.200 282.084,385.200 281.629 C 385.200 281.173,385.380 280.800,385.600 280.800 C 385.820 280.800,386.000 280.350,386.000 279.800 C 386.000 279.178,386.227 278.800,386.600 278.800 C 387.019 278.800,387.200 278.378,387.200 277.400 C 387.200 276.630,387.380 276.000,387.600 276.000 C 387.820 276.000,388.000 275.370,388.000 274.600 C 388.000 273.830,388.180 273.200,388.400 273.200 C 388.620 273.200,388.800 272.750,388.800 272.200 C 388.800 271.578,389.027 271.200,389.400 271.200 C 389.819 271.200,390.000 270.778,390.000 269.800 C 390.000 269.030,390.180 268.400,390.400 268.400 C 390.620 268.400,390.800 267.789,390.800 267.043 C 390.800 266.205,391.030 265.597,391.400 265.455 C 391.747 265.322,392.000 264.724,392.000 264.036 C 392.000 263.382,392.180 262.736,392.400 262.600 C 392.620 262.464,392.800 261.834,392.800 261.200 C 392.800 260.566,392.980 259.936,393.200 259.800 C 393.420 259.664,393.600 258.753,393.600 257.776 C 393.600 256.464,393.757 256.000,394.200 256.000 C 394.619 256.000,394.800 255.578,394.800 254.600 C 394.800 253.830,394.980 253.200,395.200 253.200 C 395.420 253.200,395.600 252.300,395.600 251.200 C 395.600 249.689,395.747 249.200,396.200 249.200 C 396.644 249.200,396.800 248.733,396.800 247.400 C 396.800 246.410,396.980 245.600,397.200 245.600 C 397.422 245.600,397.600 244.533,397.600 243.200 C 397.600 241.867,397.778 240.800,398.000 240.800 C 398.231 240.800,398.400 239.533,398.400 237.800 C 398.400 235.499,398.530 234.800,398.958 234.800 C 400.344 234.800,400.483 168.035,399.100 167.023 C 398.555 166.625,398.400 165.924,398.400 163.856 C 398.400 162.352,398.227 161.200,398.000 161.200 C 397.780 161.200,397.600 160.390,397.600 159.400 C 397.600 158.410,397.420 157.600,397.200 157.600 C 396.978 157.600,396.800 156.533,396.800 155.200 C 396.800 153.333,396.667 152.800,396.200 152.800 C 395.747 152.800,395.600 152.311,395.600 150.800 C 395.600 149.700,395.420 148.800,395.200 148.800 C 394.980 148.800,394.800 148.170,394.800 147.400 C 394.800 146.422,394.619 146.000,394.200 146.000 C 393.747 146.000,393.600 145.511,393.600 144.000 C 393.600 142.900,393.420 142.000,393.200 142.000 C 392.980 142.000,392.800 141.370,392.800 140.600 C 392.800 139.830,392.620 139.200,392.400 139.200 C 392.180 139.200,392.000 138.570,392.000 137.800 C 392.000 136.822,391.819 136.400,391.400 136.400 C 390.981 136.400,390.800 135.978,390.800 135.000 C 390.800 134.230,390.620 133.600,390.400 133.600 C 390.180 133.600,390.000 132.970,390.000 132.200 C 390.000 131.222,389.819 130.800,389.400 130.800 C 389.027 130.800,388.800 130.422,388.800 129.800 C 388.800 129.250,388.620 128.800,388.400 128.800 C 388.180 128.800,388.000 128.170,388.000 127.400 C 388.000 126.630,387.820 126.000,387.600 126.000 C 387.380 126.000,387.200 125.364,387.200 124.587 C 387.200 123.701,386.977 123.089,386.600 122.945 C 386.270 122.818,386.000 122.374,386.000 121.957 C 386.000 121.541,385.820 121.200,385.600 121.200 C 385.380 121.200,385.200 120.750,385.200 120.200 C 385.200 119.650,385.020 119.200,384.800 119.200 C 384.580 119.200,384.400 118.834,384.400 118.387 C 384.400 117.941,384.130 117.471,383.800 117.345 C 383.430 117.203,383.200 116.595,383.200 115.757 C 383.200 115.011,383.020 114.400,382.800 114.400 C 382.580 114.400,382.400 113.950,382.400 113.400 C 382.400 112.778,382.173 112.400,381.800 112.400 C 381.470 112.400,381.200 112.051,381.200 111.624 C 381.200 111.197,381.020 110.736,380.800 110.600 C 380.580 110.464,380.400 110.003,380.400 109.576 C 380.400 109.149,380.240 108.800,380.043 108.800 C 379.847 108.800,379.574 108.350,379.436 107.800 C 379.298 107.250,379.008 106.800,378.792 106.800 C 378.577 106.800,378.400 106.530,378.400 106.200 C 378.400 105.870,378.220 105.600,378.000 105.600 C 377.780 105.600,377.600 105.240,377.600 104.800 C 377.600 104.356,377.333 104.000,377.000 104.000 C 376.627 104.000,376.400 103.622,376.400 103.000 C 376.400 102.450,376.220 102.000,376.000 102.000 C 375.780 102.000,375.600 101.627,375.600 101.171 C 375.600 100.286,374.734 99.200,374.029 99.200 C 373.793 99.200,373.600 98.750,373.600 98.200 C 373.600 97.650,373.420 97.200,373.200 97.200 C 372.980 97.200,372.800 96.750,372.800 96.200 C 372.800 95.650,372.607 95.200,372.371 95.200 C 371.724 95.200,370.800 94.142,370.800 93.400 C 370.800 92.658,369.876 91.600,369.229 91.600 C 368.993 91.600,368.800 91.150,368.800 90.600 C 368.800 90.050,368.620 89.600,368.400 89.600 C 368.180 89.600,368.000 89.330,368.000 89.000 C 368.000 88.670,367.730 88.400,367.400 88.400 C 367.067 88.400,366.800 88.044,366.800 87.600 C 366.800 87.160,366.620 86.800,366.400 86.800 C 366.180 86.800,366.000 86.530,366.000 86.200 C 366.000 85.870,365.820 85.600,365.600 85.600 C 365.380 85.600,365.200 85.265,365.200 84.856 C 365.200 84.447,364.750 83.774,364.200 83.361 C 363.649 82.947,363.200 82.204,363.200 81.705 C 363.200 81.207,363.007 80.800,362.771 80.800 C 362.305 80.800,361.200 79.815,361.200 79.400 C 361.200 78.985,360.095 78.000,359.629 78.000 C 359.393 78.000,359.200 77.627,359.200 77.171 C 359.200 76.273,358.332 75.200,357.605 75.200 C 357.356 75.200,357.265 75.019,357.402 74.797 C 357.539 74.576,357.369 74.286,357.025 74.154 C 356.681 74.022,356.400 73.574,356.400 73.157 C 356.400 72.741,356.220 72.400,356.000 72.400 C 355.780 72.400,355.600 72.130,355.600 71.800 C 355.600 71.470,355.422 71.200,355.205 71.200 C 354.464 71.200,350.800 67.212,350.800 66.405 C 350.800 65.956,350.535 65.600,350.200 65.600 C 349.870 65.600,349.600 65.465,349.600 65.300 C 349.599 64.789,347.732 62.800,347.253 62.800 C 347.004 62.800,346.800 62.607,346.800 62.371 C 346.800 61.905,345.815 60.800,345.400 60.800 C 345.066 60.800,344.000 59.734,344.000 59.400 C 344.000 58.985,342.895 58.000,342.429 58.000 C 342.193 58.000,342.000 57.807,342.000 57.571 C 342.000 57.105,341.015 56.000,340.600 56.000 C 340.266 56.000,339.200 54.934,339.200 54.600 C 339.200 54.185,338.095 53.200,337.629 53.200 C 337.393 53.200,337.200 53.007,337.200 52.771 C 337.200 52.124,336.142 51.200,335.400 51.200 C 334.658 51.200,333.600 50.276,333.600 49.629 C 333.600 49.393,333.408 49.200,333.173 49.200 C 332.938 49.200,331.969 48.390,331.021 47.400 C 330.039 46.375,328.931 45.600,328.448 45.600 C 327.982 45.600,327.600 45.412,327.600 45.182 C 327.600 44.640,325.527 42.569,325.115 42.700 C 324.942 42.755,324.800 42.530,324.800 42.200 C 324.800 41.860,324.441 41.600,323.971 41.600 C 323.187 41.600,322.000 40.757,322.000 40.200 C 322.000 39.643,320.813 38.800,320.029 38.800 C 319.573 38.800,319.200 38.620,319.200 38.400 C 319.200 38.180,318.930 38.000,318.600 38.000 C 318.270 38.000,318.000 37.730,318.000 37.400 C 318.000 37.067,317.644 36.800,317.200 36.800 C 316.760 36.800,316.400 36.620,316.400 36.400 C 316.400 36.180,316.130 36.000,315.800 36.000 C 315.470 36.000,315.200 35.807,315.200 35.571 C 315.200 34.924,314.142 34.000,313.400 34.000 C 312.658 34.000,311.600 33.076,311.600 32.429 C 311.600 32.193,311.150 32.000,310.600 32.000 C 310.050 32.000,309.600 31.820,309.600 31.600 C 309.600 31.380,309.150 31.200,308.600 31.200 C 308.050 31.200,307.600 31.007,307.600 30.771 C 307.600 30.066,306.514 29.200,305.629 29.200 C 305.173 29.200,304.800 29.020,304.800 28.800 C 304.800 28.580,304.350 28.400,303.800 28.400 C 303.250 28.400,302.800 28.207,302.800 27.971 C 302.800 27.266,301.714 26.400,300.829 26.400 C 300.359 26.400,300.000 26.140,300.000 25.800 C 300.000 25.427,299.622 25.200,299.000 25.200 C 298.450 25.200,298.000 25.020,298.000 24.800 C 298.000 24.580,297.550 24.400,297.000 24.400 C 296.450 24.400,296.000 24.220,296.000 24.000 C 296.000 23.780,295.640 23.600,295.200 23.600 C 294.756 23.600,294.400 23.333,294.400 23.000 C 294.400 22.627,294.022 22.400,293.400 22.400 C 292.850 22.400,292.400 22.220,292.400 22.000 C 292.400 21.780,291.950 21.600,291.400 21.600 C 290.850 21.600,290.400 21.368,290.400 21.085 C 290.400 20.802,289.998 20.540,289.506 20.503 C 289.014 20.466,288.549 20.248,288.473 20.018 C 288.396 19.788,287.898 19.600,287.367 19.600 C 286.835 19.600,286.400 19.420,286.400 19.200 C 286.400 18.980,286.040 18.800,285.600 18.800 C 285.156 18.800,284.800 18.533,284.800 18.200 C 284.800 17.827,284.422 17.600,283.800 17.600 C 283.250 17.600,282.800 17.420,282.800 17.200 C 282.800 16.980,282.369 16.800,281.843 16.800 C 281.316 16.800,280.782 16.530,280.655 16.200 C 280.521 15.849,279.921 15.600,279.213 15.600 C 278.546 15.600,278.000 15.420,278.000 15.200 C 278.000 14.980,277.550 14.800,277.000 14.800 C 276.450 14.800,276.000 14.620,276.000 14.400 C 276.000 14.180,275.389 14.000,274.643 14.000 C 273.805 14.000,273.197 13.770,273.055 13.400 C 272.929 13.070,272.459 12.800,272.013 12.800 C 271.566 12.800,271.200 12.620,271.200 12.400 C 271.200 12.180,270.570 12.000,269.800 12.000 C 269.030 12.000,268.400 11.820,268.400 11.600 C 268.400 11.380,267.770 11.200,267.000 11.200 C 266.022 11.200,265.600 11.019,265.600 10.600 C 265.600 10.181,265.178 10.000,264.200 10.000 C 263.430 10.000,262.800 9.820,262.800 9.600 C 262.800 9.380,262.164 9.200,261.387 9.200 C 260.501 9.200,259.889 8.977,259.745 8.600 C 259.588 8.193,258.950 8.000,257.757 8.000 C 256.791 8.000,256.000 7.820,256.000 7.600 C 256.000 7.380,255.370 7.200,254.600 7.200 C 253.830 7.200,253.200 7.020,253.200 6.800 C 253.200 6.580,252.300 6.400,251.200 6.400 C 249.689 6.400,249.200 6.253,249.200 5.800 C 249.200 5.333,248.667 5.200,246.800 5.200 C 245.467 5.200,244.400 5.022,244.400 4.800 C 244.400 4.580,243.590 4.400,242.600 4.400 C 241.267 4.400,240.800 4.244,240.800 3.800 C 240.800 3.347,240.311 3.200,238.800 3.200 C 237.700 3.200,236.800 3.020,236.800 2.800 C 236.800 2.561,235.267 2.400,233.000 2.400 C 230.733 2.400,229.200 2.239,229.200 2.000 C 229.200 1.758,227.467 1.600,224.800 1.600 C 221.156 1.600,220.400 1.497,220.400 1.000 C 220.400 0.475,217.956 0.400,200.800 0.400 C 183.644 0.400,181.200 0.475,181.200 1.000 M236.235 99.322 C 237.910 101.270,237.555 102.363,232.943 109.468 C 231.143 112.239,231.188 112.459,234.406 116.564 C 237.458 120.457,237.829 121.757,236.414 123.600 L 235.646 124.600 221.147 124.715 C 211.466 124.791,206.473 124.974,206.123 125.264 C 205.728 125.592,205.600 127.442,205.600 132.826 L 205.600 139.955 209.632 145.877 C 211.850 149.135,215.892 155.040,218.615 159.000 C 221.337 162.960,225.102 168.450,226.982 171.200 C 228.861 173.950,232.552 179.350,235.185 183.200 C 237.818 187.050,242.247 193.530,245.029 197.600 C 247.810 201.670,251.281 206.737,252.743 208.861 C 254.204 210.984,257.165 215.304,259.322 218.461 C 261.479 221.617,265.300 227.170,267.812 230.800 C 274.468 240.414,274.845 241.660,271.591 243.302 C 269.369 244.423,133.710 244.186,132.465 243.059 C 130.213 241.020,130.575 240.074,137.395 230.200 C 140.130 226.240,144.264 220.210,146.580 216.800 C 148.897 213.390,151.863 209.070,153.171 207.200 C 154.479 205.330,157.440 201.010,159.751 197.600 C 162.062 194.190,164.649 190.410,165.500 189.200 C 166.351 187.990,168.746 184.502,170.823 181.448 C 172.901 178.395,176.130 173.669,178.000 170.948 C 179.870 168.226,183.709 162.624,186.530 158.499 C 189.352 154.375,193.222 148.750,195.130 146.000 L 198.600 141.000 198.800 120.465 L 199.000 99.930 200.137 98.953 L 201.273 97.975 218.272 98.088 L 235.270 98.200 236.235 99.322 M351.400 311.000 L 351.400 341.800 199.500 341.901 L 47.600 342.001 47.600 311.267 C 47.600 294.364,47.720 280.413,47.867 280.266 C 48.014 280.119,116.369 280.044,199.767 280.099 L 351.400 280.200 351.400 311.000 M98.262 291.100 C 98.160 291.265,99.392 291.400,101.000 291.400 C 102.608 291.400,103.840 291.265,103.738 291.100 C 103.636 290.935,102.404 290.800,101.000 290.800 C 99.596 290.800,98.364 290.935,98.262 291.100 M113.500 296.026 C 114.583 297.260,114.625 297.870,113.700 298.969 C 113.001 299.799,113.001 299.799,113.900 299.038 C 115.093 298.028,115.035 297.147,113.700 295.970 L 112.600 295.000 113.500 296.026 M127.862 298.700 C 127.760 298.865,128.632 299.000,129.800 299.000 C 130.968 299.000,131.840 298.865,131.738 298.700 C 131.636 298.535,130.764 298.400,129.800 298.400 C 128.836 298.400,127.964 298.535,127.862 298.700 M161.052 298.716 C 160.944 298.890,161.518 298.967,162.328 298.887 C 164.542 298.669,164.805 298.467,162.924 298.432 C 162.002 298.414,161.159 298.542,161.052 298.716 M186.000 298.556 C 186.000 298.642,186.617 298.785,187.372 298.873 C 188.127 298.961,188.656 298.890,188.548 298.716 C 188.355 298.403,186.000 298.255,186.000 298.556 M247.062 298.700 C 246.960 298.865,247.832 299.000,249.000 299.000 C 250.168 299.000,251.040 298.865,250.938 298.700 C 250.836 298.535,249.964 298.400,249.000 298.400 C 248.036 298.400,247.164 298.535,247.062 298.700 M279.362 298.862 C 279.181 299.154,279.252 299.215,279.556 299.027 C 279.819 298.864,280.297 298.949,280.618 299.215 C 281.307 299.787,281.457 305.806,280.790 306.137 C 280.565 306.249,280.610 306.294,280.890 306.238 C 281.748 306.066,281.804 300.088,280.956 299.151 C 280.172 298.285,279.764 298.211,279.362 298.862 M293.862 298.700 C 293.760 298.865,294.632 299.000,295.800 299.000 C 296.968 299.000,297.840 298.865,297.738 298.700 C 297.636 298.535,296.764 298.400,295.800 298.400 C 294.836 298.400,293.964 298.535,293.862 298.700 M327.111 299.023 C 327.833 299.529,328.014 300.072,328.074 301.923 L 328.148 304.200 328.296 302.056 C 328.444 299.920,327.759 298.400,326.649 298.400 C 326.414 298.400,326.622 298.680,327.111 299.023 M148.181 299.704 C 147.703 300.951,148.203 324.534,148.710 324.637 C 148.990 324.694,149.036 324.649,148.810 324.537 C 148.165 324.217,148.253 299.726,148.900 299.465 C 149.292 299.307,149.289 299.256,148.887 299.232 C 148.606 299.214,148.288 299.427,148.181 299.704 M265.778 312.000 C 265.778 318.710,265.832 321.455,265.899 318.100 C 265.966 314.745,265.966 309.255,265.899 305.900 C 265.832 302.545,265.778 305.290,265.778 312.000 M215.365 307.200 C 215.365 311.050,215.425 312.625,215.498 310.700 C 215.571 308.775,215.571 305.625,215.498 303.700 C 215.425 301.775,215.365 303.350,215.365 307.200 M139.200 302.600 C 139.946 303.370,140.647 304.000,140.757 304.000 C 140.867 304.000,140.346 303.370,139.600 302.600 C 138.854 301.830,138.153 301.200,138.043 301.200 C 137.933 301.200,138.454 301.830,139.200 302.600 M44.304 324.300 L 44.407 345.200 52.433 345.200 C 59.861 345.200,60.449 345.252,60.324 345.900 C 60.203 346.529,59.493 346.611,53.295 346.709 L 46.400 346.819 46.400 347.810 C 46.400 348.553,47.814 350.207,52.039 354.411 C 55.758 358.110,57.601 360.221,57.451 360.610 C 57.107 361.508,15.690 361.499,15.345 360.601 C 15.189 360.193,19.404 355.719,28.558 346.574 C 39.550 335.593,42.000 332.950,42.000 332.071 C 42.000 331.192,39.555 328.551,28.600 317.600 C 21.230 310.232,15.200 303.976,15.200 303.697 C 15.200 303.295,18.201 303.212,29.700 303.295 L 44.200 303.400 44.304 324.300 M384.967 303.546 C 385.084 303.736,379.155 309.928,371.790 317.306 C 359.388 329.730,358.400 330.821,358.400 332.098 C 358.400 333.375,359.385 334.463,371.741 346.839 C 379.078 354.187,385.003 360.425,384.907 360.700 C 384.620 361.524,342.859 361.420,342.542 360.594 C 342.385 360.184,344.009 358.302,347.555 354.785 C 352.279 350.099,352.800 349.443,352.800 348.191 L 352.800 346.800 346.243 346.800 C 340.986 346.800,339.643 346.689,339.470 346.239 C 339.098 345.268,339.571 345.200,346.667 345.200 L 353.600 345.200 353.600 324.200 L 353.600 303.200 369.176 303.200 C 377.743 303.200,384.849 303.356,384.967 303.546 M322.604 307.596 C 321.974 308.254,321.535 308.856,321.629 308.934 C 321.723 309.012,322.313 308.474,322.939 307.738 C 324.354 306.077,324.145 305.988,322.604 307.596 M175.693 309.200 C 175.693 309.970,175.775 310.285,175.876 309.900 C 175.976 309.515,175.976 308.885,175.876 308.500 C 175.775 308.115,175.693 308.430,175.693 309.200 M156.166 316.800 C 156.166 320.870,156.225 322.535,156.298 320.500 C 156.371 318.465,156.371 315.135,156.298 313.100 C 156.225 311.065,156.166 312.730,156.166 316.800 M183.709 312.000 C 183.709 312.990,183.787 313.395,183.882 312.900 C 183.978 312.405,183.978 311.595,183.882 311.100 C 183.787 310.605,183.709 311.010,183.709 312.000 M207.309 316.800 C 207.309 317.790,207.387 318.195,207.482 317.700 C 207.578 317.205,207.578 316.395,207.482 315.900 C 207.387 315.405,207.309 315.810,207.309 316.800 M99.891 317.489 C 100.601 317.577,101.861 317.579,102.691 317.492 C 103.521 317.405,102.940 317.333,101.400 317.331 C 99.860 317.329,99.181 317.400,99.891 317.489 M256.800 317.725 C 256.800 317.794,257.385 318.379,258.100 319.025 L 259.400 320.200 258.225 318.900 C 257.130 317.688,256.800 317.416,256.800 317.725 M239.200 321.400 C 239.946 322.170,240.647 322.800,240.757 322.800 C 240.867 322.800,240.346 322.170,239.600 321.400 C 238.854 320.630,238.153 320.000,238.043 320.000 C 237.933 320.000,238.454 320.630,239.200 321.400 M103.000 325.200 L 101.800 325.505 102.876 325.553 C 103.468 325.579,104.064 325.420,104.200 325.200 C 104.336 324.980,104.392 324.821,104.324 324.847 C 104.256 324.873,103.660 325.032,103.000 325.200 M131.200 325.200 C 130.376 325.464,130.341 325.526,131.000 325.554 C 131.440 325.573,132.070 325.413,132.400 325.200 C 133.101 324.747,132.614 324.747,131.200 325.200 M246.741 325.301 C 246.943 325.503,247.533 325.601,248.054 325.519 C 248.855 325.393,248.798 325.337,247.687 325.152 C 246.893 325.021,246.519 325.079,246.741 325.301 M250.600 325.200 L 249.400 325.505 250.476 325.553 C 251.068 325.579,251.664 325.420,251.800 325.200 C 251.936 324.980,251.992 324.821,251.924 324.847 C 251.856 324.873,251.260 325.032,250.600 325.200 M297.400 325.200 L 296.200 325.505 297.276 325.553 C 297.868 325.579,298.464 325.420,298.600 325.200 C 298.736 324.980,298.792 324.821,298.724 324.847 C 298.656 324.873,298.060 325.032,297.400 325.200 " stroke="none" fill="#548374" fill-rule="evenodd"></path><path id="path2" d="M47.867 280.266 C 47.720 280.413,47.600 294.364,47.600 311.267 L 47.600 342.001 199.500 341.901 L 351.400 341.800 351.400 311.000 L 351.400 280.200 199.767 280.099 C 116.369 280.044,48.014 280.119,47.867 280.266 M103.800 291.200 C 103.936 291.420,104.678 291.600,105.449 291.600 C 108.123 291.600,114.800 295.845,114.800 297.544 C 114.799 299.442,109.510 303.672,108.953 302.221 C 108.573 301.233,103.305 298.800,101.543 298.800 C 95.258 298.800,90.930 305.032,92.815 311.369 C 93.442 313.479,95.814 316.400,96.900 316.400 C 97.259 316.400,97.664 316.580,97.800 316.800 C 98.777 318.380,105.437 316.905,108.179 314.500 C 108.744 314.005,109.435 313.600,109.715 313.600 C 110.465 313.600,114.400 317.849,114.400 318.659 C 114.400 320.219,107.758 324.800,105.496 324.800 C 104.981 324.800,104.364 324.996,104.124 325.236 C 103.651 325.709,99.851 325.537,96.800 324.904 C 92.778 324.069,87.677 320.456,86.236 317.420 C 85.874 316.658,85.403 315.926,85.189 315.793 C 84.975 315.661,84.800 315.124,84.800 314.600 C 84.800 314.076,84.620 313.536,84.400 313.400 C 83.903 313.093,83.861 303.862,84.352 302.895 C 84.546 302.513,85.118 301.307,85.622 300.216 C 86.567 298.173,90.814 293.600,91.766 293.600 C 92.061 293.600,92.526 293.330,92.800 293.000 C 93.074 292.670,93.636 292.400,94.049 292.400 C 94.462 292.400,94.800 292.220,94.800 292.000 C 94.800 291.780,95.509 291.600,96.376 291.600 C 97.243 291.600,98.064 291.420,98.200 291.200 C 98.336 290.980,99.596 290.800,101.000 290.800 C 102.404 290.800,103.664 290.980,103.800 291.200 M131.800 298.800 C 131.936 299.020,132.570 299.200,133.210 299.200 C 134.470 299.200,137.200 300.345,137.200 300.874 C 137.200 301.053,137.455 301.200,137.766 301.200 C 138.480 301.200,141.455 304.551,142.184 306.176 C 143.192 308.425,143.944 314.000,143.239 314.000 C 142.997 314.000,142.800 314.625,142.800 315.389 C 142.800 318.887,137.788 324.110,133.600 324.977 C 130.841 325.548,127.521 325.681,127.078 325.238 C 126.837 324.997,126.217 324.800,125.701 324.800 C 123.508 324.800,118.870 320.873,117.202 317.605 C 115.722 314.702,116.391 305.200,118.077 305.200 C 118.255 305.200,118.400 304.930,118.400 304.600 C 118.400 304.270,118.568 304.000,118.773 304.000 C 118.978 304.000,119.248 303.678,119.373 303.285 C 119.755 302.081,124.527 299.200,126.139 299.200 C 126.917 299.200,127.664 299.020,127.800 298.800 C 127.936 298.580,128.836 298.400,129.800 298.400 C 130.764 298.400,131.664 298.580,131.800 298.800 M164.400 298.800 C 164.400 299.020,164.866 299.200,165.436 299.200 C 167.437 299.200,171.600 303.173,171.600 305.084 C 171.600 305.500,171.784 306.024,172.008 306.248 C 172.267 306.507,172.376 309.919,172.308 315.628 L 172.200 324.600 168.400 324.600 L 164.600 324.600 164.400 316.200 C 164.164 306.304,163.941 305.600,161.034 305.600 C 156.790 305.600,156.400 306.496,156.400 316.231 C 156.400 325.354,156.662 324.878,151.740 324.716 L 148.200 324.600 148.200 312.000 L 148.200 299.400 151.988 299.400 C 155.627 299.400,155.796 299.439,156.282 300.400 C 156.561 300.950,156.792 301.220,156.797 301.000 C 156.808 300.468,159.070 299.200,160.009 299.200 C 160.418 299.200,160.864 299.020,161.000 298.800 C 161.136 298.580,161.957 298.400,162.824 298.400 C 163.691 298.400,164.400 298.580,164.400 298.800 M188.600 298.800 C 188.736 299.020,189.226 299.200,189.689 299.200 C 190.818 299.200,193.590 300.447,193.640 300.977 C 193.662 301.210,193.805 300.950,193.958 300.400 C 194.230 299.423,194.325 299.400,198.018 299.400 L 201.800 299.400 201.904 316.491 L 202.009 333.583 201.100 333.811 C 200.600 333.936,198.843 333.985,197.195 333.919 L 194.200 333.800 194.088 328.685 L 193.976 323.569 192.888 324.134 C 189.455 325.915,185.997 325.992,183.200 324.350 C 182.870 324.157,182.215 323.831,181.745 323.626 C 180.181 322.946,177.764 320.228,176.639 317.887 C 175.399 315.305,175.152 307.281,176.300 306.900 C 176.575 306.808,176.800 306.472,176.800 306.153 C 176.800 304.791,180.359 300.721,182.007 300.198 C 182.443 300.059,182.800 299.778,182.800 299.573 C 182.800 299.368,183.419 299.200,184.176 299.200 C 184.933 299.200,185.664 299.020,185.800 298.800 C 185.936 298.580,186.566 298.400,187.200 298.400 C 187.834 298.400,188.464 298.580,188.600 298.800 M251.000 298.800 C 251.136 299.020,251.870 299.200,252.632 299.200 C 257.450 299.200,261.713 305.039,261.514 311.366 L 261.400 315.000 252.900 315.108 C 244.082 315.220,243.301 315.393,245.100 316.838 C 247.498 318.763,250.690 318.985,253.200 317.400 C 254.071 316.850,255.103 316.403,255.492 316.407 C 256.228 316.415,259.601 320.137,259.599 320.941 C 259.598 321.863,254.613 324.800,253.050 324.800 C 252.498 324.800,251.936 324.980,251.800 325.200 C 251.664 325.420,250.494 325.600,249.200 325.600 C 247.906 325.600,246.736 325.420,246.600 325.200 C 246.464 324.980,245.912 324.800,245.373 324.800 C 238.111 324.800,233.181 312.554,237.500 305.243 C 239.411 302.007,243.184 299.200,245.622 299.200 C 246.244 299.200,246.864 299.020,247.000 298.800 C 247.136 298.580,248.036 298.400,249.000 298.400 C 249.964 298.400,250.864 298.580,251.000 298.800 M280.956 299.151 C 281.499 299.752,281.612 300.534,281.518 303.051 L 281.400 306.200 279.310 306.321 C 277.201 306.442,274.800 308.055,274.800 309.351 C 274.800 309.620,274.624 310.016,274.410 310.230 C 274.195 310.445,273.970 313.762,273.910 317.610 L 273.800 324.600 270.260 324.716 C 265.217 324.882,265.600 325.927,265.600 312.000 C 265.600 298.073,265.217 299.118,270.260 299.284 C 273.540 299.391,273.809 299.464,273.923 300.264 L 274.046 301.127 275.723 300.169 C 276.645 299.641,277.794 299.207,278.276 299.205 C 278.758 299.202,279.264 299.020,279.400 298.800 C 279.764 298.211,280.193 298.308,280.956 299.151 M297.800 298.800 C 297.936 299.020,298.670 299.200,299.432 299.200 C 301.777 299.200,307.600 303.770,307.600 305.611 C 307.600 305.957,307.787 306.427,308.015 306.655 C 308.263 306.903,308.384 308.669,308.315 311.035 L 308.200 315.000 299.700 315.108 C 291.031 315.218,290.475 315.332,291.860 316.717 C 293.301 318.158,299.193 319.268,299.203 318.100 C 299.206 317.687,301.527 316.400,302.267 316.400 C 302.970 316.400,306.361 319.955,306.384 320.717 C 306.420 321.895,301.826 324.800,299.926 324.800 C 299.395 324.800,298.762 324.998,298.521 325.239 C 297.475 326.285,288.416 324.369,288.403 323.100 C 288.401 322.935,288.194 322.800,287.943 322.800 C 284.180 322.800,281.234 311.293,283.735 306.363 C 285.653 302.585,289.731 299.200,292.367 299.200 C 293.019 299.200,293.664 299.020,293.800 298.800 C 293.936 298.580,294.836 298.400,295.800 298.400 C 296.764 298.400,297.664 298.580,297.800 298.800 M327.756 299.151 C 328.299 299.752,328.412 300.534,328.318 303.051 L 328.200 306.200 326.203 306.326 C 321.907 306.597,320.850 308.780,320.710 317.677 L 320.600 324.600 316.800 324.600 L 313.000 324.600 313.000 312.000 L 313.000 299.400 316.800 299.400 C 320.436 299.400,320.606 299.439,320.728 300.300 C 320.845 301.124,321.600 301.624,321.600 300.877 C 321.600 300.428,324.482 299.200,325.534 299.200 C 326.010 299.200,326.400 299.020,326.400 298.800 C 326.400 298.171,327.013 298.330,327.756 299.151 M215.186 299.974 C 215.430 300.431,215.600 303.921,215.600 308.499 L 215.600 316.250 216.722 317.325 C 218.581 319.106,222.800 317.894,222.800 315.580 C 222.800 315.151,222.976 314.800,223.191 314.800 C 223.429 314.800,223.625 311.779,223.691 307.100 L 223.800 299.400 226.795 299.281 C 228.443 299.215,230.198 299.263,230.695 299.388 L 231.600 299.615 231.600 312.000 L 231.600 324.385 230.695 324.612 C 228.284 325.217,223.805 324.636,223.672 323.701 L 223.545 322.802 222.272 323.721 C 219.306 325.864,215.779 326.098,212.800 324.350 C 212.470 324.157,211.840 323.839,211.400 323.645 C 210.333 323.174,209.492 322.183,208.240 319.923 C 207.214 318.071,206.546 300.388,207.467 299.467 C 208.175 298.758,214.767 299.191,215.186 299.974 M15.200 303.697 C 15.200 303.976,21.230 310.232,28.600 317.600 C 39.555 328.551,42.000 331.192,42.000 332.071 C 42.000 332.950,39.550 335.593,28.558 346.574 C 19.404 355.719,15.189 360.193,15.345 360.601 C 15.690 361.499,57.107 361.508,57.451 360.610 C 57.601 360.221,55.758 358.110,52.039 354.411 C 47.814 350.207,46.400 348.553,46.400 347.810 L 46.400 346.819 53.295 346.709 C 59.493 346.611,60.203 346.529,60.324 345.900 C 60.449 345.252,59.861 345.200,52.433 345.200 L 44.407 345.200 44.304 324.300 L 44.200 303.400 29.700 303.295 C 18.201 303.212,15.200 303.295,15.200 303.697 M353.600 324.200 L 353.600 345.200 346.667 345.200 C 339.571 345.200,339.098 345.268,339.470 346.239 C 339.643 346.689,340.986 346.800,346.243 346.800 L 352.800 346.800 352.800 348.191 C 352.800 349.443,352.279 350.099,347.555 354.785 C 344.009 358.302,342.385 360.184,342.542 360.594 C 342.859 361.420,384.620 361.524,384.907 360.700 C 385.003 360.425,379.078 354.187,371.741 346.839 C 359.385 334.463,358.400 333.375,358.400 332.098 C 358.400 330.821,359.388 329.730,371.790 317.306 C 379.155 309.928,385.084 303.736,384.967 303.546 C 384.849 303.356,377.743 303.200,369.176 303.200 L 353.600 303.200 353.600 324.200 M127.590 306.221 C 125.189 307.496,124.622 308.596,124.611 312.004 L 124.600 315.166 126.334 316.783 C 129.240 319.494,134.800 317.944,134.800 314.424 C 134.800 313.997,134.980 313.536,135.200 313.400 C 135.420 313.264,135.600 312.634,135.600 312.000 C 135.600 311.366,135.420 310.736,135.200 310.600 C 134.980 310.464,134.800 310.086,134.800 309.760 C 134.800 307.046,130.246 304.811,127.590 306.221 M185.634 307.123 L 184.000 308.647 184.000 311.941 C 184.000 316.053,185.873 318.400,189.155 318.400 C 190.344 318.400,193.200 316.262,193.200 315.371 C 193.200 315.057,193.380 314.800,193.600 314.800 C 193.829 314.800,194.000 313.600,194.000 312.000 C 194.000 310.460,193.861 309.200,193.691 309.200 C 193.521 309.200,193.066 308.615,192.680 307.900 C 191.201 305.163,188.102 304.822,185.634 307.123 M246.738 306.113 C 246.375 306.381,245.700 306.865,245.238 307.188 C 243.431 308.457,244.190 308.800,248.800 308.800 C 253.336 308.800,253.831 308.596,252.679 307.200 C 251.403 305.654,248.166 305.061,246.738 306.113 M292.710 306.715 C 290.248 308.509,290.651 308.800,295.600 308.800 C 298.860 308.800,299.997 308.670,299.987 308.300 C 299.969 307.600,299.003 306.400,298.456 306.400 C 298.205 306.400,298.000 306.220,298.000 306.000 C 298.000 305.098,294.231 305.607,292.710 306.715 " stroke="none" fill="#646464" fill-rule="evenodd"></path><path id="path3" d="M200.137 98.953 L 199.000 99.930 198.800 120.465 L 198.600 141.000 195.130 146.000 C 193.222 148.750,189.352 154.375,186.530 158.499 C 183.709 162.624,179.870 168.226,178.000 170.948 C 176.130 173.669,172.901 178.395,170.823 181.448 C 168.746 184.502,166.351 187.990,165.500 189.200 C 164.649 190.410,162.062 194.190,159.751 197.600 C 157.440 201.010,154.479 205.330,153.171 207.200 C 151.863 209.070,148.897 213.390,146.580 216.800 C 144.264 220.210,140.130 226.240,137.395 230.200 C 130.575 240.074,130.213 241.020,132.465 243.059 C 133.710 244.186,269.369 244.423,271.591 243.302 C 274.845 241.660,274.468 240.414,267.812 230.800 C 265.300 227.170,261.479 221.617,259.322 218.461 C 257.165 215.304,254.204 210.984,252.743 208.861 C 251.281 206.737,247.810 201.670,245.029 197.600 C 242.247 193.530,237.818 187.050,235.185 183.200 C 232.552 179.350,228.861 173.950,226.982 171.200 C 225.102 168.450,221.337 162.960,218.615 159.000 C 215.892 155.040,211.850 149.135,209.632 145.877 L 205.600 139.955 205.600 132.826 C 205.600 127.442,205.728 125.592,206.123 125.264 C 206.473 124.974,211.466 124.791,221.147 124.715 L 235.646 124.600 236.414 123.600 C 237.829 121.757,237.458 120.457,234.406 116.564 C 231.188 112.459,231.143 112.239,232.943 109.468 C 237.555 102.363,237.910 101.270,236.235 99.322 L 235.270 98.200 218.272 98.088 L 201.273 97.975 200.137 98.953 M235.278 99.875 C 236.623 101.164,236.741 102.767,235.569 103.828 C 235.112 104.242,234.406 105.305,234.000 106.190 C 233.593 107.076,232.887 108.197,232.431 108.683 C 231.974 109.169,231.600 109.833,231.600 110.160 C 231.600 110.486,231.420 110.864,231.200 111.000 C 230.303 111.555,230.805 113.525,232.200 114.920 C 232.970 115.690,233.600 116.573,233.600 116.882 C 233.600 117.190,234.230 118.054,235.000 118.800 C 236.775 120.520,236.834 121.850,235.195 123.204 L 233.990 124.200 219.495 124.400 L 205.000 124.600 204.891 132.177 C 204.775 140.202,204.933 141.116,206.774 143.083 C 207.228 143.569,207.600 144.213,207.600 144.514 C 207.600 144.814,208.050 145.483,208.600 146.000 C 209.150 146.517,209.600 147.147,209.600 147.400 C 209.600 147.653,210.050 148.283,210.600 148.800 C 211.150 149.317,211.600 149.986,211.600 150.288 C 211.600 150.590,212.050 151.286,212.600 151.836 C 213.150 152.386,213.600 153.065,213.600 153.343 C 213.600 153.622,214.153 154.379,214.828 155.025 C 215.503 155.671,216.334 156.785,216.673 157.500 C 217.013 158.215,217.451 158.800,217.646 158.800 C 217.841 158.800,218.000 159.056,218.000 159.369 C 218.000 159.682,218.450 160.473,219.000 161.127 C 219.550 161.781,220.000 162.483,220.000 162.688 C 220.000 162.893,220.450 163.483,221.000 164.000 C 221.550 164.517,222.000 165.202,222.000 165.524 C 222.000 165.845,222.450 166.525,223.000 167.035 C 223.550 167.545,224.000 168.209,224.000 168.511 C 224.000 168.813,224.450 169.483,225.000 170.000 C 225.550 170.517,226.000 171.143,226.000 171.391 C 226.000 171.640,226.630 172.454,227.400 173.200 C 228.170 173.946,228.800 174.850,228.800 175.209 C 228.800 175.567,229.250 176.283,229.800 176.800 C 230.350 177.317,230.800 177.950,230.800 178.208 C 230.800 178.465,231.160 179.002,231.600 179.400 C 232.040 179.798,232.400 180.323,232.400 180.566 C 232.400 180.809,232.850 181.493,233.400 182.087 C 233.950 182.680,234.400 183.412,234.400 183.713 C 234.400 184.014,234.850 184.683,235.400 185.200 C 235.950 185.717,236.400 186.347,236.400 186.600 C 236.400 186.853,236.850 187.483,237.400 188.000 C 237.950 188.517,238.400 189.190,238.400 189.496 C 238.400 189.803,239.028 190.716,239.797 191.527 C 240.565 192.337,241.195 193.194,241.197 193.430 C 241.198 193.667,241.650 194.283,242.200 194.800 C 242.750 195.317,243.200 196.028,243.200 196.381 C 243.200 196.735,243.560 197.283,244.000 197.600 C 244.440 197.917,244.800 198.393,244.800 198.658 C 244.800 198.922,245.250 199.673,245.800 200.327 C 246.350 200.981,246.800 201.683,246.800 201.888 C 246.800 202.093,247.250 202.683,247.800 203.200 C 248.350 203.717,248.800 204.390,248.800 204.696 C 248.800 205.003,249.428 205.916,250.197 206.727 C 250.965 207.537,251.595 208.394,251.597 208.630 C 251.598 208.867,252.050 209.483,252.600 210.000 C 253.150 210.517,253.600 211.225,253.600 211.575 C 253.600 211.924,254.050 212.548,254.600 212.961 C 255.150 213.374,255.600 214.015,255.600 214.386 C 255.600 214.757,256.050 215.483,256.600 216.000 C 257.150 216.517,257.600 217.150,257.600 217.408 C 257.600 217.665,257.960 218.202,258.400 218.600 C 258.840 218.998,259.200 219.631,259.200 220.006 C 259.200 220.381,259.650 221.026,260.200 221.439 C 260.750 221.852,261.200 222.472,261.200 222.816 C 261.200 223.161,261.830 224.054,262.600 224.800 C 263.370 225.546,264.000 226.348,264.000 226.583 C 264.000 226.817,264.450 227.493,265.000 228.087 C 265.550 228.680,266.000 229.412,266.000 229.713 C 266.000 230.014,266.450 230.683,267.000 231.200 C 267.550 231.717,268.000 232.347,268.000 232.600 C 268.000 232.853,268.450 233.483,269.000 234.000 C 269.550 234.517,270.000 235.228,270.000 235.581 C 270.000 235.935,270.360 236.483,270.800 236.800 C 271.240 237.117,271.600 237.675,271.600 238.039 C 271.600 238.404,271.870 238.926,272.200 239.200 C 273.055 239.909,272.942 241.197,271.930 242.274 L 271.061 243.200 202.456 243.200 L 133.852 243.200 132.926 242.330 C 131.563 241.050,132.067 238.657,134.100 236.759 C 134.485 236.400,134.800 235.844,134.800 235.523 C 134.800 235.202,135.250 234.517,135.800 234.000 C 136.350 233.483,136.800 232.853,136.800 232.600 C 136.800 232.347,137.250 231.717,137.800 231.200 C 138.350 230.683,138.800 230.014,138.800 229.713 C 138.800 229.412,139.250 228.680,139.800 228.087 C 140.350 227.493,140.800 226.817,140.800 226.583 C 140.800 226.348,141.430 225.546,142.200 224.800 C 142.970 224.054,143.600 223.161,143.600 222.816 C 143.600 222.472,144.050 221.852,144.600 221.439 C 145.150 221.026,145.600 220.381,145.600 220.006 C 145.600 219.631,145.960 218.998,146.400 218.600 C 146.840 218.202,147.200 217.665,147.200 217.408 C 147.200 217.150,147.650 216.517,148.200 216.000 C 148.750 215.483,149.200 214.763,149.200 214.400 C 149.200 214.037,149.650 213.317,150.200 212.800 C 150.750 212.283,151.200 211.653,151.200 211.400 C 151.200 211.147,151.650 210.517,152.200 210.000 C 152.750 209.483,153.200 208.850,153.200 208.592 C 153.200 208.334,153.830 207.474,154.600 206.681 C 155.370 205.888,156.000 204.992,156.000 204.690 C 156.000 204.387,156.450 203.717,157.000 203.200 C 157.550 202.683,158.000 202.093,158.000 201.888 C 158.000 201.683,158.450 200.981,159.000 200.327 C 159.550 199.673,160.000 198.882,160.000 198.569 C 160.000 198.256,160.159 198.000,160.354 198.000 C 160.549 198.000,160.991 197.406,161.336 196.679 C 161.681 195.952,162.331 195.024,162.781 194.617 C 163.232 194.209,163.602 193.679,163.603 193.438 C 163.605 193.197,164.235 192.337,165.003 191.527 C 165.772 190.716,166.400 189.803,166.400 189.496 C 166.400 189.190,166.850 188.517,167.400 188.000 C 167.950 187.483,168.400 186.853,168.400 186.600 C 168.400 186.347,168.850 185.717,169.400 185.200 C 169.950 184.683,170.400 184.014,170.400 183.713 C 170.400 183.412,170.850 182.680,171.400 182.087 C 171.950 181.493,172.400 180.809,172.400 180.566 C 172.400 180.323,172.760 179.798,173.200 179.400 C 173.640 179.002,174.000 178.465,174.000 178.208 C 174.000 177.950,174.450 177.317,175.000 176.800 C 175.550 176.283,176.000 175.567,176.000 175.209 C 176.000 174.850,176.630 173.946,177.400 173.200 C 178.170 172.454,178.800 171.640,178.800 171.391 C 178.800 171.143,179.250 170.517,179.800 170.000 C 180.350 169.483,180.800 168.798,180.800 168.476 C 180.800 168.155,181.250 167.475,181.800 166.965 C 182.350 166.455,182.800 165.791,182.800 165.489 C 182.800 165.187,183.250 164.517,183.800 164.000 C 184.350 163.483,184.800 162.893,184.800 162.688 C 184.800 162.483,185.250 161.781,185.800 161.127 C 186.350 160.473,186.800 159.682,186.800 159.369 C 186.800 159.056,186.959 158.800,187.154 158.800 C 187.349 158.800,187.787 158.215,188.127 157.500 C 188.466 156.785,189.297 155.671,189.972 155.025 C 190.647 154.379,191.200 153.622,191.200 153.343 C 191.200 153.065,191.650 152.386,192.200 151.836 C 192.750 151.286,193.200 150.590,193.200 150.288 C 193.200 149.986,193.650 149.317,194.200 148.800 C 194.750 148.283,195.200 147.653,195.200 147.400 C 195.200 147.147,195.650 146.517,196.200 146.000 C 196.750 145.483,197.200 144.814,197.200 144.513 C 197.200 144.212,197.650 143.480,198.200 142.887 L 199.200 141.808 199.200 121.728 C 199.200 108.772,199.342 101.559,199.600 101.400 C 199.820 101.264,200.000 100.886,200.000 100.560 C 200.000 98.849,200.181 98.831,217.578 98.815 L 234.156 98.800 235.278 99.875 M97.000 291.567 C 91.493 292.670,86.609 297.146,84.591 302.937 C 83.951 304.775,83.777 311.961,84.345 313.105 C 84.534 313.487,85.209 314.874,85.845 316.186 C 88.956 322.613,96.992 326.474,104.129 324.973 C 105.702 324.642,107.162 324.198,107.374 323.986 C 107.586 323.774,108.084 323.600,108.480 323.600 C 108.876 323.600,109.200 323.420,109.200 323.200 C 109.200 322.980,109.442 322.800,109.739 322.800 C 110.613 322.800,114.407 319.402,114.391 318.633 C 114.382 318.217,111.665 315.200,110.253 314.039 C 109.654 313.546,109.439 313.603,108.486 314.505 C 100.452 322.109,88.392 314.042,93.058 304.187 C 95.001 300.083,101.001 297.407,104.305 299.171 C 104.687 299.375,105.270 299.644,105.600 299.768 C 106.626 300.156,107.754 300.961,108.644 301.943 C 109.789 303.206,110.602 302.864,112.700 300.238 C 114.792 297.619,114.801 297.255,112.812 295.458 C 109.045 292.055,102.546 290.456,97.000 291.567 M108.499 293.311 C 113.686 295.819,114.449 297.322,111.966 300.144 C 110.065 302.303,109.918 302.338,108.483 300.964 C 103.728 296.412,95.470 297.898,92.569 303.827 C 87.709 313.761,99.721 322.669,108.258 315.462 C 108.950 314.878,109.609 314.400,109.723 314.400 C 110.134 314.400,113.591 318.211,113.595 318.669 C 113.607 319.801,109.523 322.585,105.739 324.023 C 103.997 324.686,98.186 324.531,95.665 323.756 C 81.222 319.313,80.619 298.846,94.757 292.925 C 98.139 291.508,105.179 291.706,108.499 293.311 M127.000 299.050 C 123.124 299.616,119.418 302.512,117.469 306.496 C 115.759 309.990,116.166 317.874,118.100 318.733 C 118.265 318.807,118.400 319.053,118.400 319.280 C 118.400 319.838,121.390 322.800,121.953 322.800 C 122.199 322.800,122.400 322.936,122.400 323.102 C 122.400 325.247,131.652 325.832,135.800 323.950 C 139.115 322.446,142.800 317.935,142.800 315.380 C 142.800 314.835,143.019 314.038,143.287 313.609 C 143.670 312.997,143.670 312.440,143.287 311.009 C 143.019 310.008,142.800 308.859,142.800 308.456 C 142.800 303.214,134.069 298.016,127.000 299.050 M160.054 299.176 C 159.313 299.364,158.196 299.896,157.570 300.359 C 156.173 301.392,156.000 301.401,156.000 300.443 C 156.000 299.445,155.251 299.200,152.200 299.200 C 148.042 299.200,148.400 297.994,148.400 312.000 C 148.400 326.037,148.021 324.804,152.333 324.794 C 156.129 324.785,155.918 325.259,156.068 316.396 C 156.223 307.263,156.622 306.059,159.700 305.441 C 163.784 304.621,164.371 305.960,164.499 316.400 L 164.600 324.600 167.595 324.719 C 169.243 324.785,170.998 324.737,171.495 324.612 L 172.400 324.385 172.400 315.616 C 172.400 310.202,172.247 306.753,172.000 306.600 C 171.780 306.464,171.600 306.000,171.600 305.568 C 171.600 304.012,169.626 301.520,167.105 299.894 C 165.833 299.074,161.998 298.683,160.054 299.176 M184.546 299.161 C 181.821 299.855,178.402 302.900,176.900 305.969 C 175.697 308.427,175.300 315.860,176.317 316.877 C 176.583 317.142,176.800 317.659,176.800 318.024 C 176.800 322.758,189.443 327.404,192.980 323.969 C 193.841 323.133,194.000 323.822,194.000 328.386 C 194.000 333.971,194.020 334.000,198.000 334.000 C 202.371 334.000,202.000 335.630,202.000 316.429 C 202.000 297.354,202.429 299.200,198.000 299.200 C 194.768 299.200,194.000 299.433,194.000 300.415 C 194.000 301.086,193.866 301.069,192.300 300.199 C 190.426 299.157,186.581 298.643,184.546 299.161 M245.777 299.144 C 242.963 299.646,238.000 303.176,238.000 304.676 C 238.000 304.964,237.856 305.200,237.679 305.200 C 236.930 305.200,235.996 309.116,235.998 312.249 C 236.004 322.648,246.635 328.468,256.347 323.390 C 259.785 321.592,259.920 321.221,257.965 318.947 C 255.635 316.237,255.409 316.156,253.581 317.365 C 250.498 319.405,244.132 318.165,244.013 315.500 C 244.006 315.335,247.744 315.200,252.320 315.200 C 261.989 315.200,261.599 315.359,261.602 311.420 C 261.608 302.884,254.728 297.547,245.777 299.144 M278.529 299.185 C 277.829 299.351,276.600 299.875,275.798 300.348 C 274.315 301.223,273.600 301.181,273.600 300.219 C 273.600 299.449,272.671 299.200,269.800 299.200 C 265.642 299.200,266.000 297.994,266.000 312.000 C 266.000 326.020,265.632 324.800,269.859 324.800 C 274.145 324.800,274.000 325.067,274.000 317.180 C 274.000 310.055,274.087 309.631,275.975 307.500 C 276.710 306.671,277.317 306.400,278.442 306.400 C 281.085 306.400,281.200 306.251,281.200 302.837 C 281.200 300.086,280.790 298.698,280.020 298.841 C 279.899 298.863,279.228 299.018,278.529 299.185 M293.200 299.056 C 291.511 299.381,288.800 300.489,288.800 300.854 C 288.800 301.044,288.585 301.200,288.323 301.200 C 284.996 301.200,280.960 314.320,283.505 316.865 C 283.777 317.137,284.000 317.665,284.000 318.037 C 284.000 320.235,289.251 324.088,293.446 324.967 C 296.607 325.630,303.600 324.352,303.600 323.112 C 303.600 322.941,303.839 322.800,304.130 322.800 C 305.255 322.800,306.571 320.889,305.959 320.146 C 302.881 316.414,302.365 316.159,300.400 317.400 C 297.741 319.079,294.126 318.860,292.128 316.900 L 290.600 315.400 299.400 315.200 L 308.200 315.000 308.324 311.800 C 308.657 303.249,301.731 297.413,293.200 299.056 M325.400 299.180 C 324.740 299.343,323.504 299.874,322.653 300.358 C 321.802 300.843,321.082 301.185,321.053 301.120 C 320.295 299.408,316.858 298.597,313.708 299.387 L 312.800 299.615 312.800 311.965 C 312.800 326.025,312.432 324.800,316.659 324.800 C 320.945 324.800,320.800 325.067,320.800 317.180 C 320.800 310.055,320.887 309.631,322.775 307.500 C 323.573 306.600,324.085 306.400,325.595 306.400 C 326.610 306.400,327.644 306.196,327.892 305.948 C 328.427 305.413,328.110 300.076,327.497 299.300 C 327.064 298.752,327.113 298.755,325.400 299.180 M207.563 300.069 C 206.606 301.856,207.316 317.886,208.444 319.953 C 211.242 325.081,217.201 326.733,222.074 323.731 L 223.547 322.823 223.674 323.712 C 223.790 324.530,224.044 324.609,226.895 324.717 C 231.974 324.908,231.600 325.901,231.600 312.214 C 231.600 298.233,231.909 299.112,227.056 299.285 L 223.800 299.400 223.694 306.800 C 223.580 314.743,223.350 315.830,221.423 317.505 C 220.004 318.739,217.885 318.697,216.493 317.406 L 215.422 316.413 215.268 308.306 C 215.179 303.666,214.940 299.986,214.708 299.700 C 213.929 298.741,208.113 299.041,207.563 300.069 M134.526 300.237 C 141.005 302.444,144.416 310.989,141.380 317.406 C 135.917 328.953,117.931 325.683,116.898 312.955 C 116.153 303.779,125.381 297.121,134.526 300.237 M167.044 300.646 C 171.166 303.418,171.371 304.061,171.532 314.755 C 171.686 324.917,171.863 324.384,168.333 324.394 C 164.551 324.404,164.800 325.015,164.800 315.719 C 164.800 306.400,164.609 305.661,161.975 304.792 C 160.638 304.350,160.269 304.392,158.672 305.165 C 155.758 306.576,155.438 307.627,155.201 316.600 L 155.000 324.200 152.200 324.200 L 149.400 324.200 149.294 312.100 L 149.188 300.000 152.194 300.000 C 155.155 300.000,155.200 300.015,155.200 301.027 C 155.200 302.225,155.760 302.148,158.515 300.573 C 160.983 299.162,164.887 299.196,167.044 300.646 M191.920 300.783 L 194.039 301.952 194.491 300.960 C 194.921 300.015,195.085 299.974,197.971 300.084 L 201.000 300.200 201.105 316.374 C 201.222 334.477,201.455 333.184,198.074 333.194 C 194.459 333.204,194.400 333.114,194.400 327.586 C 194.400 324.954,194.330 322.800,194.244 322.800 C 194.158 322.800,193.303 323.156,192.344 323.591 C 182.499 328.058,172.745 316.735,177.510 306.371 C 180.328 300.241,186.555 297.826,191.920 300.783 M253.800 300.298 C 258.407 301.915,261.570 307.244,261.128 312.643 L 261.000 314.200 252.205 314.400 C 242.370 314.624,242.016 314.748,244.450 317.127 C 246.838 319.462,250.646 319.808,253.758 317.972 L 255.253 317.090 256.827 318.626 C 258.736 320.491,258.767 320.888,257.100 322.119 C 250.812 326.763,240.540 324.346,237.609 317.533 C 233.018 306.859,242.806 296.439,253.800 300.298 M280.318 302.497 L 280.200 305.395 278.304 305.740 C 274.354 306.459,273.220 309.010,272.853 318.000 L 272.600 324.200 269.800 324.200 L 267.000 324.200 267.000 312.200 L 267.000 300.200 269.900 300.082 C 272.780 299.966,272.800 299.972,272.800 300.995 C 272.800 302.250,273.784 302.713,274.715 301.896 C 278.346 298.712,280.462 298.939,280.318 302.497 M301.410 300.622 C 305.663 302.634,308.000 306.655,308.000 311.962 L 308.000 314.400 299.500 314.406 C 290.480 314.413,289.627 314.555,290.364 315.933 C 291.968 318.930,297.210 320.058,300.501 318.113 C 302.288 317.057,302.600 317.154,304.328 319.303 L 305.656 320.954 304.728 321.669 C 298.338 326.589,288.184 324.802,284.800 318.162 C 283.452 315.517,283.331 308.746,284.587 306.213 C 287.435 300.469,295.453 297.804,301.410 300.622 M327.118 302.489 L 327.000 305.377 325.200 305.725 C 321.127 306.512,320.305 308.339,320.078 317.105 C 319.874 324.994,320.121 324.559,315.979 324.324 L 313.800 324.200 313.800 312.200 L 313.800 300.200 316.706 300.082 L 319.613 299.965 319.856 301.182 C 320.161 302.703,320.204 302.701,323.028 301.000 C 326.729 298.771,327.261 298.965,327.118 302.489 M214.412 307.800 C 214.631 315.638,214.757 316.375,216.129 317.900 C 217.161 319.046,220.552 319.158,221.800 318.087 C 223.835 316.341,223.976 315.704,224.091 307.728 L 224.200 300.200 227.288 300.083 C 231.147 299.938,230.854 298.835,230.712 313.000 L 230.600 324.200 227.405 324.200 C 224.521 324.200,224.198 324.122,224.082 323.400 C 223.792 321.601,223.640 321.575,221.780 322.995 C 218.480 325.513,212.874 324.760,210.128 321.429 C 208.231 319.128,208.000 317.716,208.000 308.437 L 208.000 299.966 211.100 300.083 L 214.200 300.200 214.412 307.800 M187.605 305.096 C 184.031 305.758,181.734 311.078,183.393 314.851 C 186.912 322.849,196.696 318.125,194.385 309.544 C 193.876 307.655,191.626 305.200,190.404 305.200 C 189.998 305.200,189.426 305.135,189.133 305.056 C 188.840 304.977,188.152 304.995,187.605 305.096 M247.400 305.087 C 245.002 305.670,242.622 308.588,243.826 309.468 C 245.013 310.337,252.900 310.202,253.687 309.300 C 255.453 307.276,250.913 304.234,247.400 305.087 M294.217 305.072 C 291.804 305.746,289.618 308.361,290.625 309.367 C 291.539 310.281,299.656 310.287,300.568 309.374 C 302.509 307.434,297.618 304.121,294.217 305.072 M126.052 306.271 C 123.718 308.110,122.851 312.233,124.146 315.332 C 126.100 320.008,132.873 320.162,135.209 315.582 C 138.496 309.139,131.474 301.999,126.052 306.271 M133.128 307.031 C 134.048 307.818,134.800 308.798,134.800 309.208 C 134.800 309.617,134.980 310.064,135.200 310.200 C 135.420 310.336,135.600 311.146,135.600 312.000 C 135.600 312.854,135.420 313.664,135.200 313.800 C 134.980 313.936,134.794 314.352,134.787 314.724 C 134.706 318.828,127.540 319.586,125.164 315.742 C 121.500 309.813,128.032 302.669,133.128 307.031 M191.172 306.185 C 194.778 308.050,195.053 315.141,191.614 317.590 C 189.721 318.938,187.620 318.681,185.557 316.850 L 183.811 315.301 183.811 312.037 L 183.811 308.773 185.405 307.206 C 187.192 305.450,189.098 305.113,191.172 306.185 M251.630 306.113 C 251.977 306.381,252.582 307.095,252.976 307.700 L 253.692 308.800 248.832 308.800 C 244.176 308.800,243.989 308.768,244.380 308.038 C 245.515 305.916,249.878 304.757,251.630 306.113 M299.158 306.760 C 301.155 308.626,300.868 308.800,295.800 308.800 C 290.651 308.800,290.160 308.477,292.500 306.633 C 294.432 305.111,297.454 305.169,299.158 306.760 " stroke="none" fill="#8cac9c" fill-rule="evenodd"></path></g></svg>