<svg id="svg" version="1.1" xmlns="http://www.w3.org/2000/svg" xmlns:xlink="http://www.w3.org/1999/xlink" width="400" height="400" viewBox="0, 0, 400,400"><g id="svgg"><path id="path0" d="M181.200 1.000 C 181.200 1.495,180.467 1.600,177.000 1.600 C 174.467 1.600,172.800 1.759,172.800 2.000 C 172.800 2.239,171.267 2.400,169.000 2.400 C 166.733 2.400,165.200 2.561,165.200 2.800 C 165.200 3.020,164.300 3.200,163.200 3.200 C 161.689 3.200,161.200 3.347,161.200 3.800 C 161.200 4.244,160.733 4.400,159.400 4.400 C 158.410 4.400,157.600 4.580,157.600 4.800 C 157.600 5.022,156.533 5.200,155.200 5.200 C 153.333 5.200,152.800 5.333,152.800 5.800 C 152.800 6.253,152.311 6.400,150.800 6.400 C 149.700 6.400,148.800 6.580,148.800 6.800 C 148.800 7.020,148.170 7.200,147.400 7.200 C 146.630 7.200,146.000 7.380,146.000 7.600 C 146.000 7.820,145.100 8.000,144.000 8.000 C 142.489 8.000,142.000 8.147,142.000 8.600 C 142.000 9.019,141.578 9.200,140.600 9.200 C 139.830 9.200,139.200 9.380,139.200 9.600 C 139.200 9.820,138.570 10.000,137.800 10.000 C 136.822 10.000,136.400 10.181,136.400 10.600 C 136.400 11.019,135.978 11.200,135.000 11.200 C 134.230 11.200,133.600 11.380,133.600 11.600 C 133.600 11.820,132.970 12.000,132.200 12.000 C 131.430 12.000,130.800 12.180,130.800 12.400 C 130.800 12.620,130.350 12.800,129.800 12.800 C 129.178 12.800,128.800 13.027,128.800 13.400 C 128.800 13.819,128.378 14.000,127.400 14.000 C 126.630 14.000,126.000 14.180,126.000 14.400 C 126.000 14.620,125.550 14.800,125.000 14.800 C 124.450 14.800,124.000 14.980,124.000 15.200 C 124.000 15.420,123.370 15.600,122.600 15.600 C 121.622 15.600,121.200 15.781,121.200 16.200 C 121.200 16.573,120.822 16.800,120.200 16.800 C 119.650 16.800,119.200 16.980,119.200 17.200 C 119.200 17.420,118.834 17.600,118.387 17.600 C 117.941 17.600,117.471 17.870,117.345 18.200 C 117.218 18.530,116.684 18.800,116.157 18.800 C 115.631 18.800,115.200 18.980,115.200 19.200 C 115.200 19.420,114.840 19.600,114.400 19.600 C 113.960 19.600,113.600 19.780,113.600 20.000 C 113.600 20.220,113.150 20.400,112.600 20.400 C 111.978 20.400,111.600 20.627,111.600 21.000 C 111.600 21.373,111.222 21.600,110.600 21.600 C 110.050 21.600,109.600 21.780,109.600 22.000 C 109.600 22.220,109.234 22.400,108.787 22.400 C 108.341 22.400,107.871 22.670,107.745 23.000 C 107.618 23.330,107.084 23.600,106.557 23.600 C 106.031 23.600,105.600 23.780,105.600 24.000 C 105.600 24.220,105.240 24.400,104.800 24.400 C 104.360 24.400,104.000 24.580,104.000 24.800 C 104.000 25.020,103.550 25.200,103.000 25.200 C 102.378 25.200,102.000 25.427,102.000 25.800 C 102.000 26.140,101.641 26.400,101.171 26.400 C 100.286 26.400,99.200 27.266,99.200 27.971 C 99.200 28.207,98.750 28.400,98.200 28.400 C 97.650 28.400,97.200 28.580,97.200 28.800 C 97.200 29.020,96.827 29.200,96.371 29.200 C 95.486 29.200,94.400 30.066,94.400 30.771 C 94.400 31.007,93.950 31.200,93.400 31.200 C 92.850 31.200,92.400 31.380,92.400 31.600 C 92.400 31.820,92.065 32.000,91.656 32.000 C 91.247 32.000,90.574 32.450,90.161 33.000 C 89.748 33.550,89.080 34.000,88.676 34.000 C 87.871 34.000,86.800 34.897,86.800 35.571 C 86.800 35.807,86.530 36.000,86.200 36.000 C 85.870 36.000,85.600 36.180,85.600 36.400 C 85.600 36.620,85.265 36.800,84.856 36.800 C 84.447 36.800,83.774 37.250,83.361 37.800 C 82.948 38.350,82.280 38.800,81.876 38.800 C 81.152 38.800,80.000 39.676,80.000 40.227 C 80.000 40.653,78.679 41.573,78.047 41.587 C 77.743 41.594,76.900 42.230,76.174 43.000 C 75.448 43.770,74.662 44.400,74.427 44.400 C 74.192 44.400,74.000 44.670,74.000 45.000 C 74.000 45.333,73.644 45.600,73.200 45.600 C 72.760 45.600,72.400 45.780,72.400 46.000 C 72.400 46.220,72.207 46.400,71.971 46.400 C 71.418 46.400,70.400 47.418,70.400 47.971 C 70.400 48.207,70.207 48.400,69.971 48.400 C 69.505 48.400,68.400 49.385,68.400 49.800 C 68.400 50.293,67.252 51.200,66.629 51.200 C 65.942 51.200,62.800 54.154,62.800 54.800 C 62.800 55.020,62.612 55.200,62.382 55.200 C 61.839 55.200,60.000 57.039,60.000 57.582 C 60.000 57.812,59.807 58.000,59.571 58.000 C 59.018 58.000,58.000 59.018,58.000 59.571 C 58.000 59.807,57.812 60.000,57.582 60.000 C 57.039 60.000,55.200 61.839,55.200 62.382 C 55.200 62.612,55.020 62.800,54.800 62.800 C 54.154 62.800,51.200 65.942,51.200 66.629 C 51.200 67.252,50.293 68.400,49.800 68.400 C 49.385 68.400,48.400 69.505,48.400 69.971 C 48.400 70.207,48.207 70.400,47.971 70.400 C 47.418 70.400,46.400 71.418,46.400 71.971 C 46.400 72.207,46.220 72.400,46.000 72.400 C 45.780 72.400,45.600 72.760,45.600 73.200 C 45.600 73.644,45.333 74.000,45.000 74.000 C 44.670 74.000,44.400 74.192,44.400 74.427 C 44.400 74.662,43.770 75.448,43.000 76.174 C 42.230 76.900,41.594 77.743,41.587 78.047 C 41.573 78.679,40.653 80.000,40.227 80.000 C 39.676 80.000,38.800 81.152,38.800 81.876 C 38.800 82.280,38.350 82.948,37.800 83.361 C 37.250 83.774,36.800 84.447,36.800 84.856 C 36.800 85.265,36.620 85.600,36.400 85.600 C 36.180 85.600,36.000 85.870,36.000 86.200 C 36.000 86.530,35.730 86.800,35.400 86.800 C 35.067 86.800,34.800 87.156,34.800 87.600 C 34.800 88.040,34.620 88.400,34.400 88.400 C 34.180 88.400,34.000 88.670,34.000 89.000 C 34.000 89.330,33.820 89.600,33.600 89.600 C 33.380 89.600,33.200 90.061,33.200 90.624 C 33.200 91.187,33.052 91.556,32.871 91.444 C 32.388 91.145,31.200 92.681,31.200 93.605 C 31.200 94.042,31.007 94.400,30.771 94.400 C 30.066 94.400,29.200 95.486,29.200 96.371 C 29.200 96.827,29.020 97.200,28.800 97.200 C 28.580 97.200,28.400 97.650,28.400 98.200 C 28.400 98.750,28.207 99.200,27.971 99.200 C 27.266 99.200,26.400 100.286,26.400 101.171 C 26.400 101.641,26.140 102.000,25.800 102.000 C 25.427 102.000,25.200 102.378,25.200 103.000 C 25.200 103.550,25.020 104.000,24.800 104.000 C 24.580 104.000,24.400 104.360,24.400 104.800 C 24.400 105.240,24.220 105.600,24.000 105.600 C 23.780 105.600,23.600 106.031,23.600 106.557 C 23.600 107.084,23.330 107.618,23.000 107.745 C 22.670 107.871,22.400 108.341,22.400 108.787 C 22.400 109.234,22.220 109.600,22.000 109.600 C 21.780 109.600,21.600 110.050,21.600 110.600 C 21.600 111.222,21.373 111.600,21.000 111.600 C 20.627 111.600,20.400 111.978,20.400 112.600 C 20.400 113.150,20.220 113.600,20.000 113.600 C 19.780 113.600,19.600 113.960,19.600 114.400 C 19.600 114.840,19.420 115.200,19.200 115.200 C 18.980 115.200,18.800 115.631,18.800 116.157 C 18.800 116.684,18.530 117.218,18.200 117.345 C 17.870 117.471,17.600 117.941,17.600 118.387 C 17.600 118.834,17.420 119.200,17.200 119.200 C 16.980 119.200,16.800 119.650,16.800 120.200 C 16.800 120.822,16.573 121.200,16.200 121.200 C 15.867 121.200,15.600 121.556,15.600 122.000 C 15.600 122.440,15.420 122.800,15.200 122.800 C 14.980 122.800,14.800 123.520,14.800 124.400 C 14.800 125.280,14.620 126.000,14.400 126.000 C 14.180 126.000,14.000 126.630,14.000 127.400 C 14.000 128.378,13.819 128.800,13.400 128.800 C 13.027 128.800,12.800 129.178,12.800 129.800 C 12.800 130.350,12.620 130.800,12.400 130.800 C 12.180 130.800,12.000 131.430,12.000 132.200 C 12.000 132.970,11.820 133.600,11.600 133.600 C 11.380 133.600,11.200 134.230,11.200 135.000 C 11.200 135.978,11.019 136.400,10.600 136.400 C 10.181 136.400,10.000 136.822,10.000 137.800 C 10.000 138.570,9.820 139.200,9.600 139.200 C 9.380 139.200,9.200 139.830,9.200 140.600 C 9.200 141.578,9.019 142.000,8.600 142.000 C 8.147 142.000,8.000 142.489,8.000 144.000 C 8.000 145.100,7.820 146.000,7.600 146.000 C 7.380 146.000,7.200 146.630,7.200 147.400 C 7.200 148.170,7.020 148.800,6.800 148.800 C 6.580 148.800,6.400 149.700,6.400 150.800 C 6.400 152.311,6.253 152.800,5.800 152.800 C 5.356 152.800,5.200 153.267,5.200 154.600 C 5.200 155.590,5.020 156.400,4.800 156.400 C 4.578 156.400,4.400 157.467,4.400 158.800 C 4.400 160.667,4.267 161.200,3.800 161.200 C 3.320 161.200,3.200 161.800,3.200 164.200 C 3.200 165.933,3.031 167.200,2.800 167.200 C 2.571 167.200,2.400 168.400,2.400 170.000 C 2.400 171.600,2.229 172.800,2.000 172.800 C 1.761 172.800,1.600 174.333,1.600 176.600 C 1.600 179.711,1.491 180.400,1.000 180.400 C 0.475 180.400,0.400 182.889,0.400 200.400 C 0.400 217.911,0.475 220.400,1.000 220.400 C 1.497 220.400,1.600 221.156,1.600 224.800 C 1.600 227.467,1.758 229.200,2.000 229.200 C 2.229 229.200,2.400 230.400,2.400 232.000 C 2.400 233.600,2.571 234.800,2.800 234.800 C 3.031 234.800,3.200 236.067,3.200 237.800 C 3.200 240.200,3.320 240.800,3.800 240.800 C 4.260 240.800,4.400 241.308,4.400 242.976 C 4.400 244.173,4.580 245.264,4.800 245.400 C 5.020 245.536,5.200 246.447,5.200 247.424 C 5.200 248.736,5.357 249.200,5.800 249.200 C 6.253 249.200,6.400 249.689,6.400 251.200 C 6.400 252.300,6.580 253.200,6.800 253.200 C 7.020 253.200,7.200 253.830,7.200 254.600 C 7.200 255.370,7.380 256.000,7.600 256.000 C 7.820 256.000,8.000 256.791,8.000 257.757 C 8.000 258.950,8.193 259.588,8.600 259.745 C 8.977 259.889,9.200 260.501,9.200 261.387 C 9.200 262.164,9.380 262.800,9.600 262.800 C 9.820 262.800,10.000 263.430,10.000 264.200 C 10.000 265.178,10.181 265.600,10.600 265.600 C 11.019 265.600,11.200 266.022,11.200 267.000 C 11.200 267.770,11.380 268.400,11.600 268.400 C 11.820 268.400,12.000 269.030,12.000 269.800 C 12.000 270.570,12.180 271.200,12.400 271.200 C 12.620 271.200,12.800 271.566,12.800 272.013 C 12.800 272.459,13.070 272.929,13.400 273.055 C 13.770 273.197,14.000 273.805,14.000 274.643 C 14.000 275.389,14.180 276.000,14.400 276.000 C 14.620 276.000,14.800 276.630,14.800 277.400 C 14.800 278.170,14.980 278.800,15.200 278.800 C 15.420 278.800,15.600 279.166,15.600 279.613 C 15.600 280.059,15.870 280.529,16.200 280.655 C 16.530 280.782,16.800 281.316,16.800 281.843 C 16.800 282.369,16.980 282.800,17.200 282.800 C 17.420 282.800,17.600 283.250,17.600 283.800 C 17.600 284.422,17.827 284.800,18.200 284.800 C 18.619 284.800,18.800 285.222,18.800 286.200 C 18.800 286.970,18.980 287.600,19.200 287.600 C 19.420 287.600,19.600 288.050,19.600 288.600 C 19.600 289.150,19.780 289.600,20.000 289.600 C 20.220 289.600,20.400 289.876,20.400 290.213 C 20.400 290.549,20.670 290.929,21.000 291.055 C 21.330 291.182,21.600 291.716,21.600 292.243 C 21.600 292.769,21.780 293.200,22.000 293.200 C 22.220 293.200,22.400 293.650,22.400 294.200 C 22.400 294.822,22.627 295.200,23.000 295.200 C 23.358 295.200,23.600 295.568,23.600 296.112 C 23.600 296.613,23.960 297.283,24.400 297.600 C 24.840 297.917,25.200 298.587,25.200 299.088 L 25.200 300.000 15.800 300.000 C 6.646 300.000,6.400 300.021,6.400 300.805 C 6.400 301.612,10.064 305.600,10.805 305.600 C 11.022 305.600,11.200 305.788,11.200 306.018 C 11.200 306.560,13.273 308.631,13.685 308.500 C 13.858 308.445,14.000 308.593,14.000 308.829 C 14.000 309.382,15.018 310.400,15.571 310.400 C 15.807 310.400,15.955 310.542,15.900 310.715 C 15.769 311.127,17.840 313.200,18.382 313.200 C 18.612 313.200,18.800 313.378,18.800 313.595 C 18.800 314.117,22.674 318.000,23.195 318.000 C 23.418 318.000,23.600 318.189,23.600 318.419 C 23.600 318.965,27.435 322.800,27.981 322.800 C 28.211 322.800,28.400 322.982,28.400 323.205 C 28.400 323.726,32.283 327.600,32.805 327.600 C 33.022 327.600,33.200 327.792,33.200 328.027 C 33.200 328.262,34.055 329.279,35.100 330.287 C 36.248 331.395,36.802 332.188,36.500 332.293 C 36.225 332.389,36.000 332.722,36.000 333.033 C 36.000 333.345,35.807 333.600,35.571 333.600 C 35.105 333.600,34.000 334.585,34.000 335.000 C 34.000 335.334,32.934 336.400,32.600 336.400 C 32.185 336.400,31.200 337.505,31.200 337.971 C 31.200 338.207,30.996 338.400,30.747 338.400 C 30.268 338.400,28.401 340.389,28.400 340.900 C 28.400 341.065,28.207 341.200,27.971 341.200 C 27.418 341.200,26.400 342.218,26.400 342.771 C 26.400 343.007,26.207 343.200,25.971 343.200 C 25.407 343.200,24.400 344.222,24.400 344.795 C 24.400 345.044,24.220 345.136,24.000 345.000 C 23.780 344.864,23.600 345.033,23.600 345.376 C 23.600 345.719,23.407 346.000,23.171 346.000 C 22.618 346.000,21.600 347.018,21.600 347.571 C 21.600 347.807,21.465 348.000,21.300 348.000 C 20.789 348.001,18.800 349.868,18.800 350.347 C 18.800 350.596,18.607 350.800,18.371 350.800 C 17.818 350.800,16.800 351.818,16.800 352.371 C 16.800 352.607,16.665 352.800,16.500 352.800 C 15.989 352.801,14.000 354.668,14.000 355.147 C 14.000 355.396,13.807 355.600,13.571 355.600 C 13.105 355.600,12.000 356.585,12.000 357.000 C 12.000 357.334,10.934 358.400,10.600 358.400 C 10.185 358.400,9.200 359.505,9.200 359.971 C 9.200 360.207,9.007 360.400,8.771 360.400 C 8.218 360.400,7.200 361.418,7.200 361.971 C 7.200 362.207,7.020 362.400,6.800 362.400 C 6.580 362.400,6.400 362.760,6.400 363.200 C 6.400 363.992,6.667 364.000,34.000 364.000 C 58.810 364.000,61.600 364.063,61.600 364.628 C 61.600 365.050,61.895 365.214,62.500 365.128 C 63.395 365.001,63.401 364.958,63.508 356.900 C 63.568 352.445,63.748 348.806,63.908 348.813 C 64.444 348.836,65.600 349.882,65.600 350.344 C 65.600 350.595,65.962 350.800,66.405 350.800 C 67.212 350.800,71.200 354.464,71.200 355.205 C 71.200 355.422,71.470 355.600,71.800 355.600 C 72.130 355.600,72.400 355.780,72.400 356.000 C 72.400 356.220,72.741 356.400,73.157 356.400 C 73.574 356.400,74.022 356.681,74.154 357.025 C 74.286 357.369,74.576 357.539,74.797 357.402 C 75.019 357.265,75.200 357.356,75.200 357.605 C 75.200 358.178,76.207 359.200,76.771 359.200 C 77.007 359.200,77.200 359.470,77.200 359.800 C 77.200 360.133,77.556 360.400,78.000 360.400 C 78.440 360.400,78.800 360.580,78.800 360.800 C 78.800 361.020,78.993 361.200,79.229 361.200 C 79.782 361.200,80.800 362.218,80.800 362.771 C 80.800 363.007,81.207 363.200,81.705 363.200 C 82.204 363.200,82.947 363.649,83.361 364.200 C 83.774 364.750,84.447 365.200,84.856 365.200 C 85.265 365.200,85.600 365.380,85.600 365.600 C 85.600 365.820,85.793 366.000,86.029 366.000 C 86.582 366.000,87.600 367.018,87.600 367.571 C 87.600 367.807,87.973 368.000,88.429 368.000 C 89.314 368.000,90.400 368.866,90.400 369.571 C 90.400 369.807,90.850 370.000,91.400 370.000 C 91.950 370.000,92.400 370.180,92.400 370.400 C 92.400 370.620,92.773 370.800,93.229 370.800 C 94.114 370.800,95.200 371.666,95.200 372.371 C 95.200 372.607,95.650 372.800,96.200 372.800 C 96.750 372.800,97.200 372.980,97.200 373.200 C 97.200 373.420,97.650 373.600,98.200 373.600 C 98.750 373.600,99.200 373.793,99.200 374.029 C 99.200 374.734,100.286 375.600,101.171 375.600 C 101.627 375.600,102.000 375.780,102.000 376.000 C 102.000 376.220,102.450 376.400,103.000 376.400 C 103.622 376.400,104.000 376.627,104.000 377.000 C 104.000 377.333,104.356 377.600,104.800 377.600 C 105.240 377.600,105.600 377.780,105.600 378.000 C 105.600 378.220,106.050 378.400,106.600 378.400 C 107.222 378.400,107.600 378.627,107.600 379.000 C 107.600 379.337,107.957 379.600,108.417 379.600 C 108.866 379.600,109.620 379.960,110.092 380.400 C 110.564 380.840,111.277 381.200,111.675 381.200 C 112.074 381.200,112.400 381.470,112.400 381.800 C 112.400 382.173,112.778 382.400,113.400 382.400 C 113.950 382.400,114.400 382.580,114.400 382.800 C 114.400 383.020,115.011 383.200,115.757 383.200 C 116.595 383.200,117.203 383.430,117.345 383.800 C 117.471 384.130,117.941 384.400,118.387 384.400 C 118.834 384.400,119.200 384.580,119.200 384.800 C 119.200 385.020,119.650 385.200,120.200 385.200 C 120.750 385.200,121.200 385.380,121.200 385.600 C 121.200 385.820,121.830 386.000,122.600 386.000 C 123.578 386.000,124.000 386.181,124.000 386.600 C 124.000 386.973,124.378 387.200,125.000 387.200 C 125.550 387.200,126.000 387.380,126.000 387.600 C 126.000 387.820,126.630 388.000,127.400 388.000 C 128.170 388.000,128.800 388.180,128.800 388.400 C 128.800 388.620,129.250 388.800,129.800 388.800 C 130.422 388.800,130.800 389.027,130.800 389.400 C 130.800 389.819,131.222 390.000,132.200 390.000 C 132.970 390.000,133.600 390.180,133.600 390.400 C 133.600 390.620,134.230 390.800,135.000 390.800 C 135.978 390.800,136.400 390.981,136.400 391.400 C 136.400 391.819,136.822 392.000,137.800 392.000 C 138.570 392.000,139.200 392.180,139.200 392.400 C 139.200 392.620,139.830 392.800,140.600 392.800 C 141.370 392.800,142.000 392.980,142.000 393.200 C 142.000 393.420,142.900 393.600,144.000 393.600 C 145.511 393.600,146.000 393.747,146.000 394.200 C 146.000 394.644,146.467 394.800,147.800 394.800 C 148.790 394.800,149.600 394.980,149.600 395.200 C 149.600 395.420,150.320 395.600,151.200 395.600 C 152.356 395.600,152.800 395.767,152.800 396.200 C 152.800 396.667,153.333 396.800,155.200 396.800 C 156.533 396.800,157.600 396.978,157.600 397.200 C 157.600 397.420,158.410 397.600,159.400 397.600 C 160.390 397.600,161.200 397.780,161.200 398.000 C 161.200 398.227,162.352 398.400,163.856 398.400 C 165.924 398.400,166.625 398.555,167.023 399.100 C 168.035 400.483,234.800 400.344,234.800 398.958 C 234.800 398.530,235.499 398.400,237.800 398.400 C 239.533 398.400,240.800 398.231,240.800 398.000 C 240.800 397.780,241.610 397.600,242.600 397.600 C 243.590 397.600,244.400 397.420,244.400 397.200 C 244.400 396.980,245.300 396.800,246.400 396.800 C 247.911 396.800,248.400 396.653,248.400 396.200 C 248.400 395.733,248.933 395.600,250.800 395.600 C 252.133 395.600,253.200 395.422,253.200 395.200 C 253.200 394.980,253.830 394.800,254.600 394.800 C 255.578 394.800,256.000 394.619,256.000 394.200 C 256.000 393.781,256.422 393.600,257.400 393.600 C 258.170 393.600,258.800 393.420,258.800 393.200 C 258.800 392.980,259.599 392.800,260.576 392.800 C 261.553 392.800,262.464 392.620,262.600 392.400 C 262.736 392.180,263.382 392.000,264.036 392.000 C 264.724 392.000,265.322 391.747,265.455 391.400 C 265.597 391.030,266.205 390.800,267.043 390.800 C 267.789 390.800,268.400 390.620,268.400 390.400 C 268.400 390.180,269.030 390.000,269.800 390.000 C 270.778 390.000,271.200 389.819,271.200 389.400 C 271.200 389.027,271.578 388.800,272.200 388.800 C 272.750 388.800,273.200 388.620,273.200 388.400 C 273.200 388.180,273.830 388.000,274.600 388.000 C 275.370 388.000,276.000 387.820,276.000 387.600 C 276.000 387.380,276.450 387.200,277.000 387.200 C 277.622 387.200,278.000 386.973,278.000 386.600 C 278.000 386.181,278.422 386.000,279.400 386.000 C 280.170 386.000,280.800 385.820,280.800 385.600 C 280.800 385.380,281.173 385.200,281.629 385.200 C 282.084 385.200,282.729 384.928,283.061 384.596 C 283.393 384.264,283.831 384.096,284.035 384.222 C 284.239 384.348,284.514 384.169,284.646 383.825 C 284.798 383.428,285.381 383.200,286.243 383.200 C 286.989 383.200,287.600 383.020,287.600 382.800 C 287.600 382.580,287.966 382.400,288.413 382.400 C 288.859 382.400,289.329 382.130,289.455 381.800 C 289.582 381.470,290.026 381.200,290.443 381.200 C 290.859 381.200,291.200 381.020,291.200 380.800 C 291.200 380.580,291.470 380.400,291.800 380.400 C 292.130 380.400,292.400 380.220,292.400 380.000 C 292.400 379.780,292.766 379.600,293.213 379.600 C 293.659 379.600,294.129 379.330,294.255 379.000 C 294.382 378.670,294.826 378.400,295.243 378.400 C 295.659 378.400,296.000 378.220,296.000 378.000 C 296.000 377.780,296.450 377.600,297.000 377.600 C 297.622 377.600,298.000 377.373,298.000 377.000 C 298.000 376.627,298.378 376.400,299.000 376.400 C 299.550 376.400,300.000 376.220,300.000 376.000 C 300.000 375.780,300.373 375.600,300.829 375.600 C 301.714 375.600,302.800 374.734,302.800 374.029 C 302.800 373.793,303.250 373.600,303.800 373.600 C 304.350 373.600,304.800 373.420,304.800 373.200 C 304.800 372.980,305.135 372.800,305.544 372.800 C 305.953 372.800,306.626 372.350,307.039 371.800 C 307.453 371.249,308.196 370.800,308.695 370.800 C 309.193 370.800,309.600 370.620,309.600 370.400 C 309.600 370.180,309.935 370.000,310.344 370.000 C 310.753 370.000,311.426 369.550,311.839 369.000 C 312.253 368.449,312.996 368.000,313.495 368.000 C 313.993 368.000,314.400 367.807,314.400 367.571 C 314.400 367.018,315.418 366.000,315.971 366.000 C 316.207 366.000,316.400 365.820,316.400 365.600 C 316.400 365.380,316.760 365.200,317.200 365.200 C 317.644 365.200,318.000 364.933,318.000 364.600 C 318.000 364.270,318.270 364.000,318.600 364.000 C 318.930 364.000,319.200 363.820,319.200 363.600 C 319.200 363.380,319.650 363.200,320.200 363.200 C 320.750 363.200,321.200 363.012,321.200 362.782 C 321.200 362.191,323.060 360.401,323.682 360.393 C 323.967 360.389,324.624 359.939,325.142 359.393 C 325.660 358.847,326.215 358.400,326.374 358.400 C 326.534 358.400,326.906 357.950,327.200 357.400 C 327.494 356.850,328.081 356.400,328.503 356.400 C 328.926 356.400,330.512 355.140,332.027 353.600 C 335.740 349.828,335.600 349.655,335.600 358.000 C 335.600 364.933,335.630 365.200,336.400 365.200 C 336.844 365.200,337.200 364.933,337.200 364.600 C 337.200 364.072,340.600 364.000,365.400 364.000 C 393.333 364.000,393.600 363.992,393.600 363.200 C 393.600 362.760,393.420 362.400,393.200 362.400 C 392.980 362.400,392.800 362.207,392.800 361.971 C 392.800 361.418,391.782 360.400,391.229 360.400 C 390.993 360.400,390.800 360.207,390.800 359.971 C 390.800 359.505,389.815 358.400,389.400 358.400 C 389.066 358.400,388.000 357.334,388.000 357.000 C 388.000 356.585,386.895 355.600,386.429 355.600 C 386.193 355.600,386.000 355.396,386.000 355.147 C 386.000 354.668,384.011 352.801,383.500 352.800 C 383.335 352.800,383.200 352.607,383.200 352.371 C 383.200 351.818,382.182 350.800,381.629 350.800 C 381.393 350.800,381.200 350.596,381.200 350.347 C 381.200 349.868,379.211 348.001,378.700 348.000 C 378.535 348.000,378.400 347.807,378.400 347.571 C 378.400 347.018,377.382 346.000,376.829 346.000 C 376.593 346.000,376.400 345.719,376.400 345.376 C 376.400 345.033,376.220 344.864,376.000 345.000 C 375.780 345.136,375.600 345.044,375.600 344.795 C 375.600 344.222,374.593 343.200,374.029 343.200 C 373.793 343.200,373.600 343.007,373.600 342.771 C 373.600 342.218,372.582 341.200,372.029 341.200 C 371.793 341.200,371.600 341.065,371.600 340.900 C 371.599 340.389,369.732 338.400,369.253 338.400 C 369.004 338.400,368.800 338.207,368.800 337.971 C 368.800 337.505,367.815 336.400,367.400 336.400 C 367.066 336.400,366.000 335.334,366.000 335.000 C 366.000 334.585,364.895 333.600,364.429 333.600 C 364.193 333.600,364.000 333.345,364.000 333.033 C 364.000 332.722,363.775 332.389,363.500 332.293 C 363.198 332.188,363.752 331.395,364.900 330.287 C 365.945 329.279,366.800 328.262,366.800 328.027 C 366.800 327.792,366.978 327.600,367.195 327.600 C 367.717 327.600,371.600 323.726,371.600 323.205 C 371.600 322.982,371.789 322.800,372.019 322.800 C 372.565 322.800,376.400 318.965,376.400 318.419 C 376.400 318.189,376.582 318.000,376.805 318.000 C 377.326 318.000,381.200 314.117,381.200 313.595 C 381.200 313.378,381.388 313.200,381.618 313.200 C 382.160 313.200,384.231 311.127,384.100 310.715 C 384.045 310.542,384.193 310.400,384.429 310.400 C 384.982 310.400,386.000 309.382,386.000 308.829 C 386.000 308.593,386.142 308.445,386.315 308.500 C 386.727 308.631,388.800 306.560,388.800 306.018 C 388.800 305.788,388.978 305.600,389.195 305.600 C 389.936 305.600,393.600 301.612,393.600 300.805 C 393.600 300.023,393.352 300.000,385.000 300.000 L 376.400 300.000 376.400 299.000 C 376.400 298.378,376.627 298.000,377.000 298.000 C 377.373 298.000,377.600 297.622,377.600 297.000 C 377.600 296.450,377.780 296.000,378.000 296.000 C 378.220 296.000,378.400 295.659,378.400 295.243 C 378.400 294.826,378.670 294.382,379.000 294.255 C 379.330 294.129,379.600 293.659,379.600 293.213 C 379.600 292.766,379.780 292.400,380.000 292.400 C 380.220 292.400,380.400 292.130,380.400 291.800 C 380.400 291.470,380.580 291.200,380.800 291.200 C 381.020 291.200,381.200 290.840,381.200 290.400 C 381.200 289.956,381.467 289.600,381.800 289.600 C 382.173 289.600,382.400 289.222,382.400 288.600 C 382.400 288.050,382.580 287.600,382.800 287.600 C 383.020 287.600,383.200 286.989,383.200 286.243 C 383.200 285.381,383.428 284.798,383.825 284.646 C 384.169 284.514,384.348 284.239,384.222 284.035 C 384.096 283.831,384.264 283.393,384.596 283.061 C 384.928 282.729,385.200 282.084,385.200 281.629 C 385.200 281.173,385.380 280.800,385.600 280.800 C 385.820 280.800,386.000 280.350,386.000 279.800 C 386.000 279.178,386.227 278.800,386.600 278.800 C 387.019 278.800,387.200 278.378,387.200 277.400 C 387.200 276.630,387.380 276.000,387.600 276.000 C 387.820 276.000,388.000 275.370,388.000 274.600 C 388.000 273.830,388.180 273.200,388.400 273.200 C 388.620 273.200,388.800 272.750,388.800 272.200 C 388.800 271.578,389.027 271.200,389.400 271.200 C 389.819 271.200,390.000 270.778,390.000 269.800 C 390.000 269.030,390.180 268.400,390.400 268.400 C 390.620 268.400,390.800 267.789,390.800 267.043 C 390.800 266.205,391.030 265.597,391.400 265.455 C 391.747 265.322,392.000 264.724,392.000 264.036 C 392.000 263.382,392.180 262.736,392.400 262.600 C 392.620 262.464,392.800 261.834,392.800 261.200 C 392.800 260.566,392.980 259.936,393.200 259.800 C 393.420 259.664,393.600 258.753,393.600 257.776 C 393.600 256.464,393.757 256.000,394.200 256.000 C 394.619 256.000,394.800 255.578,394.800 254.600 C 394.800 253.830,394.980 253.200,395.200 253.200 C 395.420 253.200,395.600 252.300,395.600 251.200 C 395.600 249.689,395.747 249.200,396.200 249.200 C 396.644 249.200,396.800 248.733,396.800 247.400 C 396.800 246.410,396.980 245.600,397.200 245.600 C 397.422 245.600,397.600 244.533,397.600 243.200 C 397.600 241.867,397.778 240.800,398.000 240.800 C 398.231 240.800,398.400 239.533,398.400 237.800 C 398.400 235.499,398.530 234.800,398.958 234.800 C 400.344 234.800,400.483 168.035,399.100 167.023 C 398.555 166.625,398.400 165.924,398.400 163.856 C 398.400 162.352,398.227 161.200,398.000 161.200 C 397.780 161.200,397.600 160.390,397.600 159.400 C 397.600 158.410,397.420 157.600,397.200 157.600 C 396.978 157.600,396.800 156.533,396.800 155.200 C 396.800 153.333,396.667 152.800,396.200 152.800 C 395.747 152.800,395.600 152.311,395.600 150.800 C 395.600 149.700,395.420 148.800,395.200 148.800 C 394.980 148.800,394.800 148.170,394.800 147.400 C 394.800 146.422,394.619 146.000,394.200 146.000 C 393.747 146.000,393.600 145.511,393.600 144.000 C 393.600 142.900,393.420 142.000,393.200 142.000 C 392.980 142.000,392.800 141.370,392.800 140.600 C 392.800 139.830,392.620 139.200,392.400 139.200 C 392.180 139.200,392.000 138.570,392.000 137.800 C 392.000 136.822,391.819 136.400,391.400 136.400 C 390.981 136.400,390.800 135.978,390.800 135.000 C 390.800 134.230,390.620 133.600,390.400 133.600 C 390.180 133.600,390.000 132.970,390.000 132.200 C 390.000 131.222,389.819 130.800,389.400 130.800 C 389.027 130.800,388.800 130.422,388.800 129.800 C 388.800 129.250,388.620 128.800,388.400 128.800 C 388.180 128.800,388.000 128.170,388.000 127.400 C 388.000 126.630,387.820 126.000,387.600 126.000 C 387.380 126.000,387.200 125.364,387.200 124.587 C 387.200 123.701,386.977 123.089,386.600 122.945 C 386.270 122.818,386.000 122.374,386.000 121.957 C 386.000 121.541,385.820 121.200,385.600 121.200 C 385.380 121.200,385.200 120.750,385.200 120.200 C 385.200 119.650,385.020 119.200,384.800 119.200 C 384.580 119.200,384.400 118.834,384.400 118.387 C 384.400 117.941,384.130 117.471,383.800 117.345 C 383.430 117.203,383.200 116.595,383.200 115.757 C 383.200 115.011,383.020 114.400,382.800 114.400 C 382.580 114.400,382.400 113.950,382.400 113.400 C 382.400 112.778,382.173 112.400,381.800 112.400 C 381.470 112.400,381.200 112.051,381.200 111.624 C 381.200 111.197,381.020 110.736,380.800 110.600 C 380.580 110.464,380.400 110.003,380.400 109.576 C 380.400 109.149,380.240 108.800,380.043 108.800 C 379.847 108.800,379.574 108.350,379.436 107.800 C 379.298 107.250,379.008 106.800,378.792 106.800 C 378.577 106.800,378.400 106.530,378.400 106.200 C 378.400 105.870,378.220 105.600,378.000 105.600 C 377.780 105.600,377.600 105.240,377.600 104.800 C 377.600 104.356,377.333 104.000,377.000 104.000 C 376.627 104.000,376.400 103.622,376.400 103.000 C 376.400 102.450,376.220 102.000,376.000 102.000 C 375.780 102.000,375.600 101.627,375.600 101.171 C 375.600 100.286,374.734 99.200,374.029 99.200 C 373.793 99.200,373.600 98.750,373.600 98.200 C 373.600 97.650,373.420 97.200,373.200 97.200 C 372.980 97.200,372.800 96.750,372.800 96.200 C 372.800 95.650,372.607 95.200,372.371 95.200 C 371.724 95.200,370.800 94.142,370.800 93.400 C 370.800 92.658,369.876 91.600,369.229 91.600 C 368.993 91.600,368.800 91.150,368.800 90.600 C 368.800 90.050,368.620 89.600,368.400 89.600 C 368.180 89.600,368.000 89.330,368.000 89.000 C 368.000 88.670,367.730 88.400,367.400 88.400 C 367.067 88.400,366.800 88.044,366.800 87.600 C 366.800 87.160,366.620 86.800,366.400 86.800 C 366.180 86.800,366.000 86.530,366.000 86.200 C 366.000 85.870,365.820 85.600,365.600 85.600 C 365.380 85.600,365.200 85.265,365.200 84.856 C 365.200 84.447,364.750 83.774,364.200 83.361 C 363.649 82.947,363.200 82.204,363.200 81.705 C 363.200 81.207,363.007 80.800,362.771 80.800 C 362.305 80.800,361.200 79.815,361.200 79.400 C 361.200 78.985,360.095 78.000,359.629 78.000 C 359.393 78.000,359.200 77.627,359.200 77.171 C 359.200 76.273,358.332 75.200,357.605 75.200 C 357.356 75.200,357.265 75.019,357.402 74.797 C 357.539 74.576,357.369 74.286,357.025 74.154 C 356.681 74.022,356.400 73.574,356.400 73.157 C 356.400 72.741,356.220 72.400,356.000 72.400 C 355.780 72.400,355.600 72.130,355.600 71.800 C 355.600 71.470,355.422 71.200,355.205 71.200 C 354.464 71.200,350.800 67.212,350.800 66.405 C 350.800 65.956,350.535 65.600,350.200 65.600 C 349.870 65.600,349.600 65.465,349.600 65.300 C 349.599 64.789,347.732 62.800,347.253 62.800 C 347.004 62.800,346.800 62.607,346.800 62.371 C 346.800 61.905,345.815 60.800,345.400 60.800 C 345.066 60.800,344.000 59.734,344.000 59.400 C 344.000 58.985,342.895 58.000,342.429 58.000 C 342.193 58.000,342.000 57.807,342.000 57.571 C 342.000 57.105,341.015 56.000,340.600 56.000 C 340.266 56.000,339.200 54.934,339.200 54.600 C 339.200 54.185,338.095 53.200,337.629 53.200 C 337.393 53.200,337.200 53.007,337.200 52.771 C 337.200 52.124,336.142 51.200,335.400 51.200 C 334.658 51.200,333.600 50.276,333.600 49.629 C 333.600 49.393,333.408 49.200,333.173 49.200 C 332.938 49.200,331.969 48.390,331.021 47.400 C 330.039 46.375,328.931 45.600,328.448 45.600 C 327.982 45.600,327.600 45.412,327.600 45.182 C 327.600 44.640,325.527 42.569,325.115 42.700 C 324.942 42.755,324.800 42.530,324.800 42.200 C 324.800 41.860,324.441 41.600,323.971 41.600 C 323.187 41.600,322.000 40.757,322.000 40.200 C 322.000 39.643,320.813 38.800,320.029 38.800 C 319.573 38.800,319.200 38.620,319.200 38.400 C 319.200 38.180,318.930 38.000,318.600 38.000 C 318.270 38.000,318.000 37.730,318.000 37.400 C 318.000 37.067,317.644 36.800,317.200 36.800 C 316.760 36.800,316.400 36.620,316.400 36.400 C 316.400 36.180,316.130 36.000,315.800 36.000 C 315.470 36.000,315.200 35.807,315.200 35.571 C 315.200 34.924,314.142 34.000,313.400 34.000 C 312.658 34.000,311.600 33.076,311.600 32.429 C 311.600 32.193,311.150 32.000,310.600 32.000 C 310.050 32.000,309.600 31.820,309.600 31.600 C 309.600 31.380,309.150 31.200,308.600 31.200 C 308.050 31.200,307.600 31.007,307.600 30.771 C 307.600 30.066,306.514 29.200,305.629 29.200 C 305.173 29.200,304.800 29.020,304.800 28.800 C 304.800 28.580,304.350 28.400,303.800 28.400 C 303.250 28.400,302.800 28.207,302.800 27.971 C 302.800 27.266,301.714 26.400,300.829 26.400 C 300.359 26.400,300.000 26.140,300.000 25.800 C 300.000 25.427,299.622 25.200,299.000 25.200 C 298.450 25.200,298.000 25.020,298.000 24.800 C 298.000 24.580,297.550 24.400,297.000 24.400 C 296.450 24.400,296.000 24.220,296.000 24.000 C 296.000 23.780,295.640 23.600,295.200 23.600 C 294.756 23.600,294.400 23.333,294.400 23.000 C 294.400 22.627,294.022 22.400,293.400 22.400 C 292.850 22.400,292.400 22.220,292.400 22.000 C 292.400 21.780,291.950 21.600,291.400 21.600 C 290.850 21.600,290.400 21.368,290.400 21.085 C 290.400 20.802,289.998 20.540,289.506 20.503 C 289.014 20.466,288.549 20.248,288.473 20.018 C 288.396 19.788,287.898 19.600,287.367 19.600 C 286.835 19.600,286.400 19.420,286.400 19.200 C 286.400 18.980,286.040 18.800,285.600 18.800 C 285.156 18.800,284.800 18.533,284.800 18.200 C 284.800 17.827,284.422 17.600,283.800 17.600 C 283.250 17.600,282.800 17.420,282.800 17.200 C 282.800 16.980,282.369 16.800,281.843 16.800 C 281.316 16.800,280.782 16.530,280.655 16.200 C 280.521 15.849,279.921 15.600,279.213 15.600 C 278.546 15.600,278.000 15.420,278.000 15.200 C 278.000 14.980,277.550 14.800,277.000 14.800 C 276.450 14.800,276.000 14.620,276.000 14.400 C 276.000 14.180,275.389 14.000,274.643 14.000 C 273.805 14.000,273.197 13.770,273.055 13.400 C 272.929 13.070,272.459 12.800,272.013 12.800 C 271.566 12.800,271.200 12.620,271.200 12.400 C 271.200 12.180,270.570 12.000,269.800 12.000 C 269.030 12.000,268.400 11.820,268.400 11.600 C 268.400 11.380,267.770 11.200,267.000 11.200 C 266.022 11.200,265.600 11.019,265.600 10.600 C 265.600 10.181,265.178 10.000,264.200 10.000 C 263.430 10.000,262.800 9.820,262.800 9.600 C 262.800 9.380,262.164 9.200,261.387 9.200 C 260.501 9.200,259.889 8.977,259.745 8.600 C 259.588 8.193,258.950 8.000,257.757 8.000 C 256.791 8.000,256.000 7.820,256.000 7.600 C 256.000 7.380,255.370 7.200,254.600 7.200 C 253.830 7.200,253.200 7.020,253.200 6.800 C 253.200 6.580,252.300 6.400,251.200 6.400 C 249.689 6.400,249.200 6.253,249.200 5.800 C 249.200 5.333,248.667 5.200,246.800 5.200 C 245.467 5.200,244.400 5.022,244.400 4.800 C 244.400 4.580,243.590 4.400,242.600 4.400 C 241.267 4.400,240.800 4.244,240.800 3.800 C 240.800 3.347,240.311 3.200,238.800 3.200 C 237.700 3.200,236.800 3.020,236.800 2.800 C 236.800 2.561,235.267 2.400,233.000 2.400 C 230.733 2.400,229.200 2.239,229.200 2.000 C 229.200 1.758,227.467 1.600,224.800 1.600 C 221.156 1.600,220.400 1.497,220.400 1.000 C 220.400 0.475,217.956 0.400,200.800 0.400 C 183.644 0.400,181.200 0.475,181.200 1.000 M203.127 136.015 C 223.654 138.588,235.505 162.890,225.553 182.000 C 222.608 187.654,217.258 193.028,212.400 195.212 C 208.333 197.041,208.628 196.523,208.367 202.273 C 208.055 209.123,206.934 211.415,203.000 213.240 C 194.866 217.014,189.220 206.846,192.050 193.520 C 193.335 187.468,197.775 182.219,203.731 179.710 C 209.499 177.281,211.800 173.714,211.800 167.200 C 211.800 153.106,195.881 148.544,188.975 160.659 C 185.616 166.552,180.779 168.016,176.165 164.535 C 166.382 157.157,179.908 138.194,196.600 135.886 C 198.820 135.579,199.807 135.598,203.127 136.015 M147.954 151.083 C 166.730 156.358,168.982 184.916,151.296 193.457 L 148.928 194.600 148.697 198.296 C 148.229 205.743,143.587 209.326,138.970 205.804 C 136.723 204.090,136.322 202.627,136.469 196.675 C 136.666 188.747,139.650 183.998,145.668 182.037 C 153.464 179.497,152.916 165.847,144.928 163.629 C 140.902 162.511,135.542 164.622,134.566 167.711 C 132.295 174.894,121.070 172.549,122.540 165.199 C 124.565 155.076,137.195 148.060,147.954 151.083 M264.017 151.212 C 282.493 156.579,284.667 184.604,267.285 193.357 L 264.400 194.810 264.398 197.705 C 264.392 204.895,260.480 208.790,255.723 206.342 C 253.044 204.964,252.236 203.206,252.065 198.391 C 251.763 189.834,254.371 185.364,261.729 181.831 C 272.019 176.890,266.558 160.644,255.601 163.599 C 253.687 164.115,250.934 166.607,249.400 169.212 C 245.037 176.620,235.550 170.002,239.431 162.258 C 244.284 152.576,253.875 148.267,264.017 151.212 M143.644 214.406 C 148.784 215.833,149.930 223.269,145.461 226.197 C 139.952 229.806,133.324 222.076,137.473 216.882 C 139.416 214.449,141.210 213.729,143.644 214.406 M261.500 215.454 C 266.368 219.148,263.475 227.817,257.636 227.034 C 253.127 226.430,250.802 221.926,252.834 217.729 C 254.607 214.066,258.370 213.079,261.500 215.454 M204.225 224.855 C 210.043 228.764,209.444 237.615,203.143 240.829 C 196.795 244.068,189.832 236.995,192.057 229.569 C 193.599 224.419,199.928 221.967,204.225 224.855 M351.400 311.000 L 351.400 341.800 199.500 341.901 L 47.600 342.001 47.600 311.267 C 47.600 294.364,47.720 280.413,47.867 280.266 C 48.014 280.119,116.369 280.044,199.767 280.099 L 351.400 280.200 351.400 311.000 M229.400 296.600 C 229.400 297.328,229.535 297.840,229.700 297.738 C 229.865 297.636,230.000 297.124,230.000 296.600 C 230.000 296.076,229.865 295.564,229.700 295.462 C 229.535 295.360,229.400 295.872,229.400 296.600 M117.285 307.476 C 117.238 314.118,117.335 319.636,117.500 319.739 C 117.665 319.841,117.754 316.297,117.698 311.862 C 117.507 296.821,117.370 295.363,117.285 307.476 M138.300 300.282 C 138.795 300.378,139.605 300.378,140.100 300.282 C 140.595 300.187,140.190 300.109,139.200 300.109 C 138.210 300.109,137.805 300.187,138.300 300.282 M157.505 300.283 C 158.002 300.379,158.722 300.375,159.105 300.275 C 159.487 300.175,159.080 300.096,158.200 300.101 C 157.320 300.105,157.007 300.187,157.505 300.283 M211.305 300.287 C 211.914 300.379,212.814 300.377,213.305 300.282 C 213.797 300.187,213.300 300.111,212.200 300.114 C 211.100 300.117,210.697 300.195,211.305 300.287 M256.105 300.287 C 256.714 300.379,257.614 300.377,258.105 300.282 C 258.597 300.187,258.100 300.111,257.000 300.114 C 255.900 300.117,255.497 300.195,256.105 300.287 M228.799 310.481 C 228.690 315.695,228.738 319.823,228.908 319.653 C 229.077 319.483,229.167 315.217,229.107 310.172 L 228.999 301.000 228.799 310.481 M194.971 310.400 C 194.971 315.350,195.028 317.375,195.099 314.900 C 195.169 312.425,195.169 308.375,195.099 305.900 C 195.028 303.425,194.971 305.450,194.971 310.400 M44.304 324.300 L 44.407 345.200 52.433 345.200 C 59.861 345.200,60.449 345.252,60.324 345.900 C 60.203 346.529,59.493 346.611,53.295 346.709 L 46.400 346.819 46.400 347.810 C 46.400 348.553,47.814 350.207,52.039 354.411 C 55.758 358.110,57.601 360.221,57.451 360.610 C 57.107 361.508,15.690 361.499,15.345 360.601 C 15.189 360.193,19.404 355.719,28.558 346.574 C 39.550 335.593,42.000 332.950,42.000 332.071 C 42.000 331.192,39.555 328.551,28.600 317.600 C 21.230 310.232,15.200 303.976,15.200 303.697 C 15.200 303.295,18.201 303.212,29.700 303.295 L 44.200 303.400 44.304 324.300 M384.967 303.546 C 385.084 303.736,379.155 309.928,371.790 317.306 C 359.388 329.730,358.400 330.821,358.400 332.098 C 358.400 333.375,359.385 334.463,371.741 346.839 C 379.078 354.187,385.003 360.425,384.907 360.700 C 384.620 361.524,342.859 361.420,342.542 360.594 C 342.385 360.184,344.009 358.302,347.555 354.785 C 352.279 350.099,352.800 349.443,352.800 348.191 L 352.800 346.800 346.243 346.800 C 340.986 346.800,339.643 346.689,339.470 346.239 C 339.098 345.268,339.571 345.200,346.667 345.200 L 353.600 345.200 353.600 324.200 L 353.600 303.200 369.176 303.200 C 377.743 303.200,384.849 303.356,384.967 303.546 M240.500 305.487 C 241.105 305.578,242.095 305.578,242.700 305.487 C 243.305 305.395,242.810 305.320,241.600 305.320 C 240.390 305.320,239.895 305.395,240.500 305.487 M260.914 310.200 C 260.917 311.300,260.995 311.703,261.087 311.095 C 261.179 310.486,261.177 309.586,261.082 309.095 C 260.987 308.603,260.911 309.100,260.914 310.200 M239.949 314.100 C 240.251 314.485,240.881 314.779,241.349 314.754 C 242.157 314.710,242.160 314.697,241.400 314.511 C 240.960 314.402,240.330 314.108,240.000 313.857 C 239.478 313.460,239.472 313.491,239.949 314.100 M157.152 320.512 C 157.345 320.705,158.019 320.798,158.651 320.719 C 159.709 320.587,159.681 320.559,158.300 320.368 C 157.440 320.249,156.950 320.310,157.152 320.512 M179.062 320.500 C 179.164 320.665,179.766 320.800,180.400 320.800 C 181.034 320.800,181.636 320.665,181.738 320.500 C 181.840 320.335,181.238 320.200,180.400 320.200 C 179.562 320.200,178.960 320.335,179.062 320.500 M238.922 320.484 C 239.541 320.877,241.499 320.888,241.736 320.500 C 241.838 320.335,241.138 320.196,240.182 320.190 C 239.226 320.185,238.659 320.317,238.922 320.484 M255.462 320.500 C 255.564 320.665,256.346 320.800,257.200 320.800 C 258.054 320.800,258.836 320.665,258.938 320.500 C 259.040 320.335,258.258 320.200,257.200 320.200 C 256.142 320.200,255.360 320.335,255.462 320.500 M211.300 320.676 C 211.685 320.776,212.315 320.776,212.700 320.676 C 213.085 320.575,212.770 320.493,212.000 320.493 C 211.230 320.493,210.915 320.575,211.300 320.676 " stroke="none" fill="#548374" fill-rule="evenodd"></path><path id="path1" d="M198.200 136.400 C 198.064 136.620,196.984 136.800,195.800 136.800 C 194.616 136.800,193.536 136.980,193.400 137.200 C 193.264 137.420,192.866 137.600,192.516 137.600 C 192.166 137.600,190.962 138.031,189.840 138.557 C 188.718 139.083,187.530 139.630,187.200 139.773 C 185.519 140.497,184.322 141.490,180.340 145.460 C 177.953 147.840,176.000 150.104,176.000 150.493 C 176.000 150.882,175.820 151.200,175.600 151.200 C 175.380 151.200,175.200 151.549,175.200 151.976 C 175.200 152.403,175.031 152.857,174.825 152.984 C 170.366 155.740,175.374 165.600,181.233 165.600 C 183.722 165.600,187.600 163.118,187.600 161.525 C 187.600 161.126,187.780 160.800,188.000 160.800 C 188.220 160.800,188.400 160.480,188.400 160.089 C 188.400 158.914,193.635 154.000,194.886 154.000 C 195.473 154.000,196.064 153.820,196.200 153.600 C 196.336 153.380,198.046 153.200,200.000 153.200 C 201.954 153.200,203.664 153.380,203.800 153.600 C 203.936 153.820,204.397 154.000,204.824 154.000 C 205.251 154.000,205.600 154.177,205.600 154.392 C 205.600 154.608,206.027 154.892,206.549 155.023 C 207.694 155.310,210.208 157.851,210.583 159.100 C 210.732 159.595,211.022 160.000,211.227 160.000 C 211.432 160.000,211.600 160.349,211.600 160.776 C 211.600 161.203,211.780 161.664,212.000 161.800 C 212.234 161.945,212.400 164.263,212.400 167.400 C 212.400 170.537,212.234 172.855,212.000 173.000 C 211.780 173.136,211.600 173.556,211.600 173.934 C 211.600 174.916,206.362 180.000,205.351 180.000 C 204.316 180.000,202.464 180.909,201.311 181.982 C 200.829 182.432,200.208 182.800,199.932 182.800 C 199.156 182.800,196.000 186.078,196.000 186.883 C 196.000 187.277,195.841 187.600,195.646 187.600 C 195.451 187.600,194.996 188.222,194.635 188.983 C 194.274 189.744,193.803 190.474,193.589 190.607 C 193.375 190.739,193.200 191.366,193.200 192.000 C 193.200 192.634,193.020 193.264,192.800 193.400 C 192.128 193.816,192.286 206.848,192.980 208.239 C 194.289 210.860,197.600 213.200,200.000 213.200 C 201.867 213.200,202.820 212.736,204.920 210.800 C 207.361 208.552,207.600 207.742,207.600 201.726 C 207.600 196.986,207.680 196.348,208.300 196.139 C 209.997 195.567,213.600 193.774,213.600 193.501 C 213.600 193.335,213.918 193.200,214.308 193.200 C 215.038 193.200,222.800 185.695,222.800 184.989 C 222.800 184.770,223.250 184.107,223.800 183.513 C 224.350 182.920,224.800 182.168,224.800 181.841 C 224.800 181.514,224.969 181.143,225.175 181.016 C 225.782 180.640,226.800 178.352,226.800 177.362 C 226.800 176.859,226.980 176.336,227.200 176.200 C 227.420 176.064,227.600 174.995,227.600 173.825 C 227.600 172.422,227.804 171.528,228.200 171.200 C 228.654 170.823,228.800 169.803,228.800 167.000 C 228.800 164.197,228.654 163.177,228.200 162.800 C 227.836 162.498,227.600 161.622,227.600 160.575 C 227.600 159.625,227.420 158.736,227.200 158.600 C 226.980 158.464,226.800 157.924,226.800 157.400 C 226.800 156.876,226.620 156.336,226.400 156.200 C 226.180 156.064,226.000 155.527,226.000 155.007 C 226.000 154.487,225.550 153.527,225.000 152.873 C 224.450 152.219,224.000 151.418,224.000 151.091 C 224.000 150.765,223.730 150.274,223.400 150.000 C 223.070 149.726,222.800 149.303,222.800 149.059 C 222.800 148.408,215.914 141.600,215.255 141.600 C 214.946 141.600,214.403 141.274,214.047 140.875 C 213.280 140.015,209.320 138.000,208.398 138.000 C 208.043 138.000,207.404 137.736,206.976 137.413 C 206.493 137.047,205.264 136.821,203.724 136.813 C 202.362 136.806,201.136 136.620,201.000 136.400 C 200.864 136.180,200.234 136.000,199.600 136.000 C 198.966 136.000,198.336 136.180,198.200 136.400 M141.400 150.800 C 141.264 151.020,140.351 151.200,139.371 151.200 C 138.391 151.200,137.277 151.367,136.895 151.571 C 136.513 151.775,135.930 152.047,135.600 152.175 C 135.270 152.304,134.460 152.754,133.800 153.175 C 133.140 153.597,132.369 153.955,132.087 153.971 C 131.142 154.025,125.704 159.935,124.646 162.058 C 122.689 165.985,124.167 171.200,127.237 171.200 C 127.569 171.200,128.031 171.391,128.264 171.624 C 129.063 172.423,133.948 168.804,133.988 167.383 C 134.002 166.881,137.042 163.998,138.295 163.299 C 139.379 162.694,146.400 162.608,146.400 163.200 C 146.400 163.420,146.725 163.600,147.122 163.600 C 147.988 163.600,150.035 165.733,150.766 167.400 C 151.056 168.060,151.452 168.913,151.647 169.295 C 152.132 170.249,152.094 175.895,151.600 176.200 C 151.380 176.336,151.196 176.932,151.191 177.524 C 151.179 178.959,147.345 182.800,145.925 182.800 C 145.383 182.800,144.517 183.250,144.000 183.800 C 143.483 184.350,142.820 184.800,142.527 184.800 C 141.788 184.800,139.600 186.954,139.600 187.681 C 139.600 188.008,139.240 188.602,138.800 189.000 C 138.360 189.398,137.999 190.011,137.998 190.362 C 137.996 190.713,137.726 191.516,137.398 192.146 C 135.415 195.947,137.605 205.600,140.450 205.600 C 140.718 205.600,141.259 205.892,141.654 206.249 C 142.048 206.605,142.602 206.783,142.885 206.644 C 146.504 204.866,147.279 203.422,148.019 197.075 C 148.456 193.331,148.523 193.200,150.024 193.200 C 150.671 193.200,151.200 193.059,151.200 192.886 C 151.200 192.714,151.785 192.240,152.500 191.833 C 154.075 190.938,158.800 186.399,158.800 185.781 C 158.800 185.538,159.250 184.917,159.800 184.400 C 160.350 183.883,160.800 183.143,160.800 182.754 C 160.800 182.365,160.980 181.936,161.200 181.800 C 161.420 181.664,161.606 181.068,161.613 180.476 C 161.620 179.884,161.890 179.051,162.213 178.624 C 163.069 177.492,163.058 168.312,162.200 167.600 C 161.870 167.326,161.600 166.595,161.600 165.975 C 161.600 165.355,161.420 164.736,161.200 164.600 C 160.980 164.464,160.800 164.090,160.800 163.768 C 160.800 163.447,160.305 162.442,159.700 161.535 C 159.095 160.628,158.398 159.540,158.150 159.117 C 157.460 157.938,155.504 156.000,155.004 156.000 C 154.758 156.000,153.946 155.370,153.200 154.600 C 152.454 153.830,151.596 153.200,151.293 153.200 C 150.990 153.200,150.473 152.930,150.143 152.600 C 149.813 152.270,149.116 152.000,148.595 152.000 C 148.074 152.000,147.536 151.820,147.400 151.600 C 147.264 151.380,146.184 151.200,145.000 151.200 C 143.816 151.200,142.736 151.020,142.600 150.800 C 142.464 150.580,142.194 150.400,142.000 150.400 C 141.806 150.400,141.536 150.580,141.400 150.800 M257.400 150.800 C 257.264 151.020,256.291 151.200,255.238 151.200 C 253.418 151.200,251.085 152.015,250.584 152.825 C 250.457 153.031,250.003 153.200,249.576 153.200 C 249.149 153.200,248.800 153.380,248.800 153.600 C 248.800 153.820,248.481 154.000,248.091 154.000 C 247.205 154.000,241.200 159.983,241.200 160.866 C 241.200 161.223,240.930 161.618,240.600 161.745 C 240.270 161.871,240.000 162.330,240.000 162.764 C 240.000 163.198,239.820 163.664,239.600 163.800 C 238.665 164.378,239.182 167.754,240.413 169.107 C 242.014 170.868,244.377 172.183,244.936 171.624 C 245.169 171.391,245.647 171.200,245.999 171.200 C 246.783 171.200,249.600 168.382,249.600 167.598 C 249.600 166.785,252.834 163.600,253.660 163.600 C 254.041 163.600,254.464 163.420,254.600 163.200 C 254.736 162.980,256.446 162.800,258.400 162.800 C 260.354 162.800,262.064 162.980,262.200 163.200 C 262.336 163.420,262.693 163.600,262.993 163.600 C 263.608 163.600,266.000 165.858,266.000 166.439 C 266.000 166.646,266.450 167.529,267.000 168.400 C 268.222 170.336,268.493 176.293,267.400 177.200 C 267.070 177.474,266.800 177.907,266.800 178.163 C 266.800 179.095,262.611 182.800,261.557 182.800 C 260.989 182.800,260.125 183.242,259.600 183.800 C 259.083 184.350,258.456 184.800,258.205 184.800 C 257.649 184.800,255.600 186.886,255.600 187.452 C 255.600 187.677,255.150 188.283,254.600 188.800 C 254.001 189.363,253.600 190.183,253.600 190.846 C 253.600 191.455,253.420 192.064,253.200 192.200 C 252.969 192.342,252.800 194.471,252.800 197.224 C 252.800 200.141,252.956 202.000,253.200 202.000 C 253.420 202.000,253.600 202.326,253.600 202.725 C 253.600 204.423,258.053 207.238,259.158 206.238 C 259.546 205.887,260.136 205.600,260.470 205.600 C 261.251 205.600,262.400 204.331,262.400 203.469 C 262.400 203.101,262.580 202.800,262.800 202.800 C 263.020 202.800,263.200 202.476,263.200 202.080 C 263.200 201.684,263.372 201.188,263.583 200.977 C 263.794 200.766,264.019 198.975,264.083 196.997 L 264.200 193.400 265.458 193.278 C 266.150 193.211,267.033 192.806,267.420 192.378 C 267.807 191.950,268.367 191.600,268.665 191.600 C 269.366 191.600,274.800 186.161,274.800 185.459 C 274.800 185.165,275.160 184.598,275.600 184.200 C 276.040 183.802,276.400 183.256,276.400 182.987 C 276.400 182.718,276.670 182.274,277.000 182.000 C 277.330 181.726,277.600 180.995,277.600 180.375 C 277.600 179.755,277.780 179.136,278.000 179.000 C 278.236 178.854,278.400 176.470,278.400 173.200 C 278.400 169.930,278.236 167.546,278.000 167.400 C 277.780 167.264,277.600 166.634,277.600 166.000 C 277.600 165.366,277.431 164.743,277.225 164.616 C 276.787 164.345,275.600 162.057,275.600 161.484 C 275.600 161.268,275.150 160.675,274.600 160.165 C 274.050 159.655,273.600 158.996,273.600 158.700 C 273.600 158.054,270.756 155.200,270.112 155.200 C 269.862 155.200,269.395 154.938,269.075 154.618 C 268.134 153.677,264.913 152.000,264.047 152.000 C 263.607 152.000,263.136 151.820,263.000 151.600 C 262.864 151.380,261.874 151.200,260.800 151.200 C 259.726 151.200,258.736 151.020,258.600 150.800 C 258.464 150.580,258.194 150.400,258.000 150.400 C 257.806 150.400,257.536 150.580,257.400 150.800 M141.780 214.832 C 141.655 215.035,141.241 215.200,140.860 215.200 C 139.249 215.200,136.800 218.477,136.800 220.632 C 136.800 222.725,139.262 226.000,140.835 226.000 C 141.168 226.000,141.645 226.205,141.897 226.457 C 142.724 227.284,146.400 225.158,146.400 223.852 C 146.400 223.519,146.580 223.136,146.800 223.000 C 147.891 222.326,147.236 218.516,145.779 217.059 C 144.141 215.421,142.114 214.292,141.780 214.832 M256.961 214.981 C 255.329 215.822,253.607 217.409,253.604 218.076 C 253.602 218.448,253.420 218.864,253.200 219.000 C 250.292 220.797,256.530 227.779,259.699 226.275 C 263.530 224.457,264.587 217.408,261.205 216.233 C 260.872 216.118,260.330 215.866,260.000 215.674 C 258.300 214.684,257.772 214.563,256.961 214.981 M198.200 224.400 C 198.064 224.620,197.641 224.800,197.260 224.800 C 196.383 224.800,193.200 228.008,193.200 228.892 C 193.200 229.255,193.020 229.664,192.800 229.800 C 192.188 230.178,192.324 234.528,192.989 235.839 C 194.950 239.710,200.365 242.571,202.000 240.600 C 202.274 240.270,202.728 240.000,203.009 240.000 C 205.618 240.000,209.280 231.086,207.200 229.800 C 206.980 229.664,206.800 229.241,206.800 228.860 C 206.800 227.748,203.538 224.800,202.308 224.800 C 201.725 224.800,201.136 224.620,201.000 224.400 C 200.864 224.180,200.234 224.000,199.600 224.000 C 198.966 224.000,198.336 224.180,198.200 224.400 M197.410 293.898 C 195.626 294.340,194.942 297.281,196.331 298.538 C 197.212 299.335,199.726 299.412,200.349 298.662 C 202.231 296.394,200.256 293.193,197.410 293.898 M225.200 293.884 C 222.154 295.003,222.773 299.200,225.984 299.200 C 227.792 299.200,228.800 298.233,228.800 296.497 C 228.800 295.328,227.951 294.000,227.204 294.000 C 227.018 294.000,226.626 293.924,226.333 293.832 C 226.040 293.739,225.530 293.763,225.200 293.884 M118.000 307.600 L 118.000 319.600 119.967 319.600 C 123.457 319.600,123.200 320.552,123.200 307.600 C 123.200 294.648,123.457 295.600,119.967 295.600 L 118.000 295.600 118.000 307.600 M234.685 295.849 C 234.528 296.005,234.398 296.868,234.395 297.767 C 234.386 300.220,234.009 301.182,232.952 301.448 C 231.868 301.720,231.492 304.400,232.538 304.400 C 234.029 304.400,234.400 305.715,234.400 311.000 L 234.400 316.137 236.207 317.869 C 238.968 320.514,244.800 320.052,244.800 317.188 C 244.800 315.587,243.576 314.646,242.268 315.242 C 239.831 316.352,239.160 315.056,239.288 309.483 L 239.400 304.600 241.500 304.479 C 243.597 304.358,243.600 304.356,243.600 303.000 C 243.600 301.644,243.597 301.642,241.500 301.521 L 239.400 301.400 239.200 298.600 L 239.000 295.800 236.985 295.682 C 235.876 295.617,234.841 295.692,234.685 295.849 M136.198 301.781 C 134.501 302.640,134.205 302.687,133.818 302.157 C 133.495 301.715,132.788 301.585,131.188 301.676 L 129.000 301.800 128.892 310.490 L 128.784 319.181 129.730 319.418 C 130.251 319.549,131.379 319.598,132.238 319.528 L 133.800 319.400 134.000 313.064 L 134.200 306.728 135.372 305.721 C 136.327 304.901,136.833 304.753,138.103 304.923 C 140.601 305.258,140.773 305.769,140.787 312.892 C 140.802 320.001,140.706 319.817,144.238 319.528 L 145.800 319.400 145.912 313.820 C 146.051 306.885,145.616 304.548,143.885 302.917 C 141.480 300.652,139.118 300.303,136.198 301.781 M155.669 301.328 C 149.893 303.302,148.165 312.128,152.574 317.139 C 154.567 319.404,159.882 320.481,161.824 319.013 C 163.396 317.823,163.600 318.188,163.600 322.200 L 163.600 326.000 166.206 326.000 L 168.812 326.000 168.706 313.900 L 168.600 301.800 166.412 301.676 C 164.808 301.585,164.106 301.714,163.780 302.160 C 163.388 302.696,163.142 302.671,161.678 301.947 C 159.660 300.948,157.447 300.720,155.669 301.328 M209.525 301.343 C 203.259 303.293,203.839 309.314,210.535 311.836 C 213.985 313.135,214.400 313.432,214.400 314.606 C 214.400 316.332,211.030 316.535,207.985 314.993 L 205.997 313.985 205.200 315.293 C 202.547 319.644,215.275 321.408,218.110 317.082 C 220.410 313.571,217.491 308.400,213.209 308.400 C 212.104 308.400,209.556 306.726,209.680 306.082 C 209.997 304.435,214.871 304.096,215.834 305.655 C 216.285 306.385,217.105 305.942,217.837 304.572 C 219.218 301.986,213.987 299.954,209.525 301.343 M254.456 301.259 C 243.980 304.273,246.040 319.600,256.921 319.600 C 263.943 319.600,268.454 313.589,266.209 307.224 C 264.538 302.490,259.342 299.853,254.456 301.259 M278.800 301.489 C 278.470 301.613,277.693 302.069,277.074 302.502 L 275.949 303.291 275.723 302.428 C 275.518 301.645,275.270 301.575,273.049 301.682 L 270.600 301.800 270.492 310.490 L 270.384 319.181 271.330 319.418 C 271.851 319.549,272.979 319.598,273.838 319.528 L 275.400 319.400 275.600 313.927 C 275.822 307.856,276.314 306.549,278.641 305.853 C 280.561 305.279,280.994 304.960,281.133 304.018 C 281.467 301.761,280.594 300.814,278.800 301.489 M173.673 308.080 C 173.848 317.060,174.972 319.116,179.930 319.527 C 182.088 319.706,184.800 318.821,184.800 317.937 C 184.800 317.180,185.554 317.666,185.672 318.500 C 185.810 319.467,187.874 319.919,189.870 319.418 L 190.816 319.181 190.708 310.490 L 190.600 301.800 188.200 301.800 L 185.800 301.800 185.689 307.673 L 185.579 313.547 184.359 314.573 C 180.663 317.683,178.849 315.533,178.710 307.879 L 178.600 301.800 176.073 301.680 L 173.546 301.560 173.673 308.080 M196.092 310.500 L 196.200 319.400 198.400 319.400 L 200.600 319.400 200.708 310.500 L 200.815 301.600 198.400 301.600 L 195.985 301.600 196.092 310.500 M223.779 302.110 C 223.671 302.391,223.632 306.396,223.692 311.010 L 223.800 319.400 226.100 319.520 L 228.400 319.640 228.400 310.620 L 228.400 301.600 226.187 301.600 C 224.762 301.600,223.905 301.782,223.779 302.110 M161.534 305.722 C 165.347 307.557,163.696 315.600,159.507 315.600 C 154.971 315.600,153.040 308.431,156.896 305.905 C 158.552 304.820,159.575 304.779,161.534 305.722 M260.320 306.570 C 264.782 311.652,258.700 318.794,253.953 314.047 C 250.604 310.698,252.656 305.207,257.259 305.202 C 258.875 305.200,259.274 305.378,260.320 306.570 " stroke="none" fill="#f7f7f7" fill-rule="evenodd"></path><path id="path2" d="M47.867 280.266 C 47.720 280.413,47.600 294.364,47.600 311.267 L 47.600 342.001 199.500 341.901 L 351.400 341.800 351.400 311.000 L 351.400 280.200 199.767 280.099 C 116.369 280.044,48.014 280.119,47.867 280.266 M199.726 293.247 C 201.528 294.168,203.038 298.000,201.600 298.000 C 201.380 298.000,201.200 298.264,201.200 298.586 C 201.200 300.153,197.507 300.500,195.862 299.087 C 192.918 296.558,196.276 291.482,199.726 293.247 M227.394 293.252 C 231.241 294.644,230.215 300.000,226.101 300.000 C 223.298 300.000,221.411 296.124,223.300 294.246 C 224.714 292.839,225.634 292.616,227.394 293.252 M123.506 307.517 L 123.611 320.034 120.506 319.917 L 117.400 319.800 117.288 308.200 C 117.147 293.646,116.884 294.735,120.512 294.883 L 123.400 295.000 123.506 307.517 M239.518 297.700 L 239.637 300.400 241.538 300.400 C 243.866 300.400,244.400 300.885,244.400 303.000 C 244.400 305.119,243.867 305.600,241.520 305.600 L 239.600 305.600 239.600 309.520 C 239.600 312.036,239.772 313.612,240.080 313.920 C 240.699 314.539,242.501 314.539,243.120 313.920 C 243.421 313.619,243.735 313.581,243.962 313.820 C 244.387 314.265,246.000 317.127,246.000 317.435 C 246.000 317.928,243.362 320.000,242.734 320.000 C 242.356 320.000,241.936 320.180,241.800 320.400 C 240.770 322.066,234.000 318.566,234.000 316.367 C 234.000 315.971,233.820 315.536,233.600 315.400 C 233.370 315.258,233.200 313.161,233.200 310.471 C 233.200 306.000,233.160 305.772,232.300 305.395 C 231.539 305.061,231.400 304.690,231.400 303.000 C 231.400 301.310,231.539 300.939,232.300 300.605 C 233.078 300.264,233.200 299.909,233.200 297.985 C 233.200 295.074,233.587 294.741,236.796 294.884 L 239.400 295.000 239.518 297.700 M141.940 300.684 C 146.086 302.626,146.846 304.590,146.710 313.002 L 146.600 319.800 143.600 319.800 L 140.600 319.800 140.489 313.670 C 140.361 306.553,140.034 305.600,137.725 305.600 C 135.051 305.600,134.427 307.167,134.301 314.200 L 134.200 319.800 131.200 319.800 L 128.200 319.800 128.092 310.650 C 127.968 300.046,127.854 300.400,131.388 300.400 C 133.575 300.400,133.931 300.510,134.312 301.300 C 134.551 301.795,134.758 301.975,134.773 301.700 C 134.788 301.425,135.160 301.200,135.600 301.200 C 136.040 301.200,136.400 301.033,136.400 300.829 C 136.400 299.885,140.030 299.790,141.940 300.684 M160.546 300.602 C 161.176 300.931,161.941 301.200,162.246 301.200 C 162.551 301.200,162.812 301.425,162.827 301.700 C 162.842 301.975,163.049 301.795,163.288 301.300 C 163.785 300.270,168.192 299.952,169.120 300.880 C 169.473 301.233,169.600 304.674,169.600 313.872 L 169.600 326.385 168.679 326.616 C 168.172 326.743,166.777 326.792,165.579 326.724 L 163.400 326.600 163.285 322.906 C 163.181 319.571,163.104 319.245,162.485 319.557 C 160.252 320.681,158.012 321.029,156.895 320.424 C 156.513 320.217,155.720 319.948,155.134 319.825 C 153.579 319.499,150.295 316.013,149.700 314.056 C 149.102 312.090,149.037 307.748,149.600 307.400 C 149.820 307.264,150.000 306.718,150.000 306.186 C 150.000 302.772,157.297 298.908,160.546 300.602 M215.835 300.696 C 218.627 302.095,219.008 302.404,219.127 303.371 C 219.196 303.937,219.061 304.400,218.827 304.400 C 218.592 304.400,218.400 304.642,218.400 304.938 C 218.400 306.257,216.939 306.928,215.562 306.241 C 214.000 305.462,210.800 305.371,210.800 306.106 C 210.800 306.623,213.547 308.000,214.579 308.000 C 214.895 308.000,215.264 308.180,215.400 308.400 C 215.536 308.620,215.961 308.800,216.345 308.800 C 219.185 308.800,220.790 314.414,218.785 317.340 C 217.228 319.612,211.448 321.773,210.600 320.400 C 210.464 320.180,209.748 320.000,209.009 320.000 C 207.731 320.000,205.152 318.941,204.867 318.300 C 204.793 318.135,204.478 318.000,204.167 318.000 C 203.804 318.000,203.600 317.569,203.600 316.800 C 203.600 316.140,203.737 315.600,203.905 315.600 C 204.073 315.600,204.388 315.195,204.605 314.700 C 205.167 313.420,206.532 313.379,209.042 314.568 C 211.550 315.755,212.604 315.853,213.477 314.980 C 214.188 314.269,213.264 313.237,211.895 313.213 C 211.507 313.206,210.877 313.046,210.495 312.859 C 210.113 312.671,209.112 312.186,208.270 311.780 C 204.074 309.756,203.072 306.096,205.831 302.872 C 206.618 301.952,207.498 301.200,207.785 301.200 C 208.073 301.200,208.824 300.919,209.454 300.577 C 210.684 299.907,214.401 299.977,215.835 300.696 M260.526 300.766 C 260.765 301.005,261.210 301.200,261.516 301.200 C 265.399 301.200,268.825 310.221,266.620 314.639 C 265.337 317.211,262.016 320.000,260.238 320.000 C 259.693 320.000,259.136 320.180,259.000 320.400 C 258.864 320.620,258.054 320.800,257.200 320.800 C 256.346 320.800,255.536 320.620,255.400 320.400 C 255.264 320.180,254.721 320.000,254.193 320.000 C 251.912 320.000,247.600 316.099,247.600 314.036 C 247.600 313.576,247.420 313.200,247.200 313.200 C 246.972 313.200,246.800 312.008,246.800 310.424 C 246.800 308.897,246.980 307.536,247.200 307.400 C 247.420 307.264,247.600 306.778,247.600 306.321 C 247.600 305.355,251.496 301.223,252.420 301.209 C 252.761 301.204,253.211 301.037,253.420 300.839 C 254.359 299.947,259.653 299.893,260.526 300.766 M281.517 303.349 L 281.400 306.200 279.802 306.330 C 278.088 306.469,276.800 307.487,276.800 308.703 C 276.800 309.108,276.626 309.614,276.414 309.826 C 276.201 310.039,275.976 312.370,275.914 315.006 L 275.800 319.800 272.800 319.800 L 269.800 319.800 269.692 310.650 C 269.617 304.237,269.721 301.336,270.041 300.950 C 270.526 300.366,275.595 300.138,275.606 300.700 C 275.633 302.030,277.387 302.055,278.400 300.740 C 278.667 300.393,280.469 300.122,281.117 300.331 C 281.490 300.452,281.601 301.289,281.517 303.349 M179.110 306.939 C 179.223 313.405,179.345 313.921,180.904 314.512 C 184.014 315.689,185.200 313.552,185.200 306.771 C 185.200 300.202,185.107 300.400,188.194 300.400 C 191.749 300.400,191.632 300.040,191.508 310.650 L 191.400 319.800 188.610 319.920 C 186.441 320.014,185.717 319.901,185.362 319.416 C 184.955 318.859,184.850 318.857,184.404 319.396 C 184.128 319.728,183.485 320.000,182.975 320.000 C 182.465 320.000,181.936 320.180,181.800 320.400 C 181.664 320.620,181.034 320.800,180.400 320.800 C 179.766 320.800,179.136 320.620,179.000 320.400 C 178.864 320.180,178.354 320.000,177.866 320.000 C 174.516 320.000,172.800 315.901,172.800 307.896 C 172.800 300.201,172.742 300.321,176.396 300.484 L 179.000 300.600 179.110 306.939 M201.107 310.300 L 201.214 320.000 198.487 320.000 C 194.644 320.000,194.800 320.407,194.800 310.349 C 194.800 300.078,194.716 300.298,198.546 300.482 L 201.000 300.600 201.107 310.300 M229.005 301.300 C 229.127 301.795,229.175 306.160,229.113 311.000 L 229.000 319.800 226.000 319.800 L 223.000 319.800 222.892 310.650 C 222.767 300.027,222.646 300.400,226.241 300.400 C 228.547 300.400,228.805 300.484,229.005 301.300 M15.200 303.697 C 15.200 303.976,21.230 310.232,28.600 317.600 C 39.555 328.551,42.000 331.192,42.000 332.071 C 42.000 332.950,39.550 335.593,28.558 346.574 C 19.404 355.719,15.189 360.193,15.345 360.601 C 15.690 361.499,57.107 361.508,57.451 360.610 C 57.601 360.221,55.758 358.110,52.039 354.411 C 47.814 350.207,46.400 348.553,46.400 347.810 L 46.400 346.819 53.295 346.709 C 59.493 346.611,60.203 346.529,60.324 345.900 C 60.449 345.252,59.861 345.200,52.433 345.200 L 44.407 345.200 44.304 324.300 L 44.200 303.400 29.700 303.295 C 18.201 303.212,15.200 303.295,15.200 303.697 M353.600 324.200 L 353.600 345.200 346.667 345.200 C 339.571 345.200,339.098 345.268,339.470 346.239 C 339.643 346.689,340.986 346.800,346.243 346.800 L 352.800 346.800 352.800 348.191 C 352.800 349.443,352.279 350.099,347.555 354.785 C 344.009 358.302,342.385 360.184,342.542 360.594 C 342.859 361.420,384.620 361.524,384.907 360.700 C 385.003 360.425,379.078 354.187,371.741 346.839 C 359.385 334.463,358.400 333.375,358.400 332.098 C 358.400 330.821,359.388 329.730,371.790 317.306 C 379.155 309.928,385.084 303.736,384.967 303.546 C 384.849 303.356,377.743 303.200,369.176 303.200 L 353.600 303.200 353.600 324.200 M156.908 307.056 C 155.415 308.734,154.844 310.889,155.639 311.847 C 155.930 312.198,156.356 312.859,156.584 313.315 C 157.620 315.382,162.400 314.818,162.400 312.629 C 162.400 312.283,162.580 312.000,162.800 312.000 C 163.389 312.000,163.286 309.905,162.619 308.307 C 161.395 305.377,158.891 304.828,156.908 307.056 M255.134 306.502 C 252.381 308.822,252.243 311.368,254.729 313.962 C 255.660 314.934,258.585 314.742,259.768 313.630 C 261.617 311.893,260.967 306.400,258.911 306.400 C 258.630 306.400,258.400 306.220,258.400 306.000 C 258.400 305.259,256.209 305.596,255.134 306.502 " stroke="none" fill="#646464" fill-rule="evenodd"></path><path id="path3" d="M196.600 135.886 C 179.908 138.194,166.382 157.157,176.165 164.535 C 180.779 168.016,185.616 166.552,188.975 160.659 C 191.609 156.039,195.038 153.915,199.833 153.934 C 213.807 153.988,216.860 174.181,203.731 179.710 C 197.775 182.219,193.335 187.468,192.050 193.520 C 189.220 206.846,194.866 217.014,203.000 213.240 C 206.934 211.415,208.055 209.123,208.367 202.273 C 208.628 196.523,208.333 197.041,212.400 195.212 C 221.574 191.088,228.470 180.137,229.082 168.719 C 230.090 149.913,213.852 133.500,196.600 135.886 M201.000 136.400 C 201.136 136.620,202.362 136.806,203.724 136.813 C 205.264 136.821,206.493 137.047,206.976 137.413 C 207.404 137.736,208.043 138.000,208.398 138.000 C 209.320 138.000,213.280 140.015,214.047 140.875 C 214.403 141.274,214.946 141.600,215.255 141.600 C 215.914 141.600,222.800 148.408,222.800 149.059 C 222.800 149.303,223.070 149.726,223.400 150.000 C 223.730 150.274,224.000 150.765,224.000 151.091 C 224.000 151.418,224.450 152.219,225.000 152.873 C 225.550 153.527,226.000 154.487,226.000 155.007 C 226.000 155.527,226.180 156.064,226.400 156.200 C 226.620 156.336,226.800 156.876,226.800 157.400 C 226.800 157.924,226.980 158.464,227.200 158.600 C 227.420 158.736,227.600 159.625,227.600 160.575 C 227.600 161.622,227.836 162.498,228.200 162.800 C 228.654 163.177,228.800 164.197,228.800 167.000 C 228.800 169.803,228.654 170.823,228.200 171.200 C 227.804 171.528,227.600 172.422,227.600 173.825 C 227.600 174.995,227.420 176.064,227.200 176.200 C 226.980 176.336,226.800 176.859,226.800 177.362 C 226.800 178.352,225.782 180.640,225.175 181.016 C 224.969 181.143,224.800 181.514,224.800 181.841 C 224.800 182.168,224.350 182.920,223.800 183.513 C 223.250 184.107,222.800 184.770,222.800 184.989 C 222.800 185.695,215.038 193.200,214.308 193.200 C 213.918 193.200,213.600 193.335,213.600 193.501 C 213.600 193.774,209.997 195.567,208.300 196.139 C 207.680 196.348,207.600 196.986,207.600 201.726 C 207.600 208.294,206.621 210.402,202.505 212.700 C 199.710 214.262,194.851 211.986,192.980 208.239 C 192.286 206.848,192.128 193.816,192.800 193.400 C 193.020 193.264,193.200 192.634,193.200 192.000 C 193.200 191.366,193.375 190.739,193.589 190.607 C 193.803 190.474,194.274 189.744,194.635 188.983 C 194.996 188.222,195.451 187.600,195.646 187.600 C 195.841 187.600,196.000 187.277,196.000 186.883 C 196.000 186.078,199.156 182.800,199.932 182.800 C 200.208 182.800,200.829 182.432,201.311 181.982 C 202.464 180.909,204.316 180.000,205.351 180.000 C 206.362 180.000,211.600 174.916,211.600 173.934 C 211.600 173.556,211.780 173.136,212.000 173.000 C 212.234 172.855,212.400 170.537,212.400 167.400 C 212.400 164.263,212.234 161.945,212.000 161.800 C 211.780 161.664,211.600 161.203,211.600 160.776 C 211.600 160.349,211.432 160.000,211.227 160.000 C 211.022 160.000,210.732 159.595,210.583 159.100 C 210.208 157.851,207.694 155.310,206.549 155.023 C 206.027 154.892,205.600 154.608,205.600 154.392 C 205.600 154.177,205.251 154.000,204.824 154.000 C 204.397 154.000,203.936 153.820,203.800 153.600 C 203.664 153.380,201.954 153.200,200.000 153.200 C 198.046 153.200,196.336 153.380,196.200 153.600 C 196.064 153.820,195.473 154.000,194.886 154.000 C 193.635 154.000,188.400 158.914,188.400 160.089 C 188.400 160.480,188.220 160.800,188.000 160.800 C 187.780 160.800,187.600 161.126,187.600 161.525 C 187.600 163.118,183.722 165.600,181.233 165.600 C 175.374 165.600,170.366 155.740,174.825 152.984 C 175.031 152.857,175.200 152.403,175.200 151.976 C 175.200 151.549,175.380 151.200,175.600 151.200 C 175.820 151.200,176.000 150.882,176.000 150.493 C 176.000 150.104,177.953 147.840,180.340 145.460 C 184.322 141.490,185.519 140.497,187.200 139.773 C 187.530 139.630,188.718 139.083,189.840 138.557 C 190.962 138.031,192.166 137.600,192.516 137.600 C 192.866 137.600,193.264 137.420,193.400 137.200 C 193.536 136.980,194.616 136.800,195.800 136.800 C 196.984 136.800,198.064 136.620,198.200 136.400 C 198.336 136.180,198.966 136.000,199.600 136.000 C 200.234 136.000,200.864 136.180,201.000 136.400 M139.014 150.437 C 130.005 151.779,120.669 162.152,122.993 168.237 C 125.135 173.847,132.735 173.502,134.566 167.711 C 135.542 164.622,140.902 162.511,144.928 163.629 C 152.916 165.847,153.464 179.497,145.668 182.037 C 139.650 183.998,136.666 188.747,136.469 196.675 C 136.322 202.627,136.723 204.090,138.970 205.804 C 143.587 209.326,148.229 205.743,148.697 198.296 L 148.928 194.600 151.296 193.457 C 173.302 182.830,163.034 146.860,139.014 150.437 M255.011 150.419 C 248.240 151.577,242.659 155.819,239.431 162.258 C 235.550 170.002,245.037 176.620,249.400 169.212 C 250.934 166.607,253.687 164.115,255.601 163.599 C 266.558 160.644,272.019 176.890,261.729 181.831 C 254.371 185.364,251.763 189.834,252.065 198.391 C 252.500 210.695,264.388 210.034,264.398 197.705 L 264.400 194.810 267.285 193.357 C 288.837 182.504,278.517 146.397,255.011 150.419 M142.600 150.800 C 142.736 151.020,143.816 151.200,145.000 151.200 C 146.184 151.200,147.264 151.380,147.400 151.600 C 147.536 151.820,148.074 152.000,148.595 152.000 C 149.116 152.000,149.813 152.270,150.143 152.600 C 150.473 152.930,150.990 153.200,151.293 153.200 C 151.596 153.200,152.454 153.830,153.200 154.600 C 153.946 155.370,154.758 156.000,155.004 156.000 C 155.504 156.000,157.460 157.938,158.150 159.117 C 158.398 159.540,159.095 160.628,159.700 161.535 C 160.305 162.442,160.800 163.447,160.800 163.768 C 160.800 164.090,160.980 164.464,161.200 164.600 C 161.420 164.736,161.600 165.355,161.600 165.975 C 161.600 166.595,161.870 167.326,162.200 167.600 C 163.058 168.312,163.069 177.492,162.213 178.624 C 161.890 179.051,161.620 179.884,161.613 180.476 C 161.606 181.068,161.420 181.664,161.200 181.800 C 160.980 181.936,160.800 182.365,160.800 182.754 C 160.800 183.143,160.350 183.883,159.800 184.400 C 159.250 184.917,158.800 185.538,158.800 185.781 C 158.800 186.399,154.075 190.938,152.500 191.833 C 151.785 192.240,151.200 192.714,151.200 192.886 C 151.200 193.059,150.671 193.200,150.024 193.200 C 148.523 193.200,148.456 193.331,148.019 197.075 C 147.279 203.422,146.504 204.866,142.885 206.644 C 142.602 206.783,142.048 206.605,141.654 206.249 C 141.259 205.892,140.718 205.600,140.450 205.600 C 137.605 205.600,135.415 195.947,137.398 192.146 C 137.726 191.516,137.996 190.713,137.998 190.362 C 137.999 190.011,138.360 189.398,138.800 189.000 C 139.240 188.602,139.600 188.008,139.600 187.681 C 139.600 186.954,141.788 184.800,142.527 184.800 C 142.820 184.800,143.483 184.350,144.000 183.800 C 144.517 183.250,145.383 182.800,145.925 182.800 C 147.345 182.800,151.179 178.959,151.191 177.524 C 151.196 176.932,151.380 176.336,151.600 176.200 C 152.094 175.895,152.132 170.249,151.647 169.295 C 151.452 168.913,151.056 168.060,150.766 167.400 C 150.035 165.733,147.988 163.600,147.122 163.600 C 146.725 163.600,146.400 163.420,146.400 163.200 C 146.400 162.608,139.379 162.694,138.295 163.299 C 137.042 163.998,134.002 166.881,133.988 167.383 C 133.948 168.804,129.063 172.423,128.264 171.624 C 128.031 171.391,127.569 171.200,127.237 171.200 C 124.167 171.200,122.689 165.985,124.646 162.058 C 125.704 159.935,131.142 154.025,132.087 153.971 C 132.369 153.955,133.140 153.597,133.800 153.175 C 134.460 152.754,135.270 152.304,135.600 152.175 C 135.930 152.047,136.513 151.775,136.895 151.571 C 137.277 151.367,138.391 151.200,139.371 151.200 C 140.351 151.200,141.264 151.020,141.400 150.800 C 141.536 150.580,141.806 150.400,142.000 150.400 C 142.194 150.400,142.464 150.580,142.600 150.800 M258.600 150.800 C 258.736 151.020,259.726 151.200,260.800 151.200 C 261.874 151.200,262.864 151.380,263.000 151.600 C 263.136 151.820,263.607 152.000,264.047 152.000 C 264.913 152.000,268.134 153.677,269.075 154.618 C 269.395 154.938,269.862 155.200,270.112 155.200 C 270.756 155.200,273.600 158.054,273.600 158.700 C 273.600 158.996,274.050 159.655,274.600 160.165 C 275.150 160.675,275.600 161.268,275.600 161.484 C 275.600 162.057,276.787 164.345,277.225 164.616 C 277.431 164.743,277.600 165.366,277.600 166.000 C 277.600 166.634,277.780 167.264,278.000 167.400 C 278.236 167.546,278.400 169.930,278.400 173.200 C 278.400 176.470,278.236 178.854,278.000 179.000 C 277.780 179.136,277.600 179.755,277.600 180.375 C 277.600 180.995,277.330 181.726,277.000 182.000 C 276.670 182.274,276.400 182.718,276.400 182.987 C 276.400 183.256,276.040 183.802,275.600 184.200 C 275.160 184.598,274.800 185.165,274.800 185.459 C 274.800 186.161,269.366 191.600,268.665 191.600 C 268.367 191.600,267.807 191.950,267.420 192.378 C 267.033 192.806,266.150 193.211,265.458 193.278 L 264.200 193.400 264.083 196.997 C 264.019 198.975,263.794 200.766,263.583 200.977 C 263.372 201.188,263.200 201.684,263.200 202.080 C 263.200 202.476,263.020 202.800,262.800 202.800 C 262.580 202.800,262.400 203.101,262.400 203.469 C 262.400 204.331,261.251 205.600,260.470 205.600 C 260.136 205.600,259.546 205.887,259.158 206.238 C 258.053 207.238,253.600 204.423,253.600 202.725 C 253.600 202.326,253.420 202.000,253.200 202.000 C 252.956 202.000,252.800 200.141,252.800 197.224 C 252.800 194.471,252.969 192.342,253.200 192.200 C 253.420 192.064,253.600 191.455,253.600 190.846 C 253.600 190.183,254.001 189.363,254.600 188.800 C 255.150 188.283,255.600 187.677,255.600 187.452 C 255.600 186.886,257.649 184.800,258.205 184.800 C 258.456 184.800,259.083 184.350,259.600 183.800 C 260.125 183.242,260.989 182.800,261.557 182.800 C 262.611 182.800,266.800 179.095,266.800 178.163 C 266.800 177.907,267.070 177.474,267.400 177.200 C 268.493 176.293,268.222 170.336,267.000 168.400 C 266.450 167.529,266.000 166.646,266.000 166.439 C 266.000 165.858,263.608 163.600,262.993 163.600 C 262.693 163.600,262.336 163.420,262.200 163.200 C 262.064 162.980,260.354 162.800,258.400 162.800 C 256.446 162.800,254.736 162.980,254.600 163.200 C 254.464 163.420,254.041 163.600,253.660 163.600 C 252.834 163.600,249.600 166.785,249.600 167.598 C 249.600 168.382,246.783 171.200,245.999 171.200 C 245.647 171.200,245.169 171.391,244.936 171.624 C 244.377 172.183,242.014 170.868,240.413 169.107 C 239.182 167.754,238.665 164.378,239.600 163.800 C 239.820 163.664,240.000 163.198,240.000 162.764 C 240.000 162.330,240.270 161.871,240.600 161.745 C 240.930 161.618,241.200 161.223,241.200 160.866 C 241.200 159.983,247.205 154.000,248.091 154.000 C 248.481 154.000,248.800 153.820,248.800 153.600 C 248.800 153.380,249.149 153.200,249.576 153.200 C 250.003 153.200,250.457 153.031,250.584 152.825 C 251.085 152.015,253.418 151.200,255.238 151.200 C 256.291 151.200,257.264 151.020,257.400 150.800 C 257.536 150.580,257.806 150.400,258.000 150.400 C 258.194 150.400,258.464 150.580,258.600 150.800 M140.028 214.701 C 133.686 217.935,136.205 228.180,143.068 227.066 C 149.628 226.002,150.075 216.192,143.644 214.406 C 141.739 213.876,141.627 213.886,140.028 214.701 M256.600 214.281 C 253.112 215.207,251.034 220.044,252.656 223.462 C 255.483 229.419,264.000 227.361,264.000 220.721 C 264.000 216.579,260.247 213.313,256.600 214.281 M145.779 217.059 C 147.236 218.516,147.891 222.326,146.800 223.000 C 146.580 223.136,146.400 223.519,146.400 223.852 C 146.400 225.158,142.724 227.284,141.897 226.457 C 141.645 226.205,141.168 226.000,140.835 226.000 C 139.262 226.000,136.800 222.725,136.800 220.632 C 136.800 218.477,139.249 215.200,140.860 215.200 C 141.241 215.200,141.655 215.035,141.780 214.832 C 142.114 214.292,144.141 215.421,145.779 217.059 M260.000 215.674 C 260.330 215.866,260.872 216.118,261.205 216.233 C 264.587 217.408,263.530 224.457,259.699 226.275 C 256.530 227.779,250.292 220.797,253.200 219.000 C 253.420 218.864,253.602 218.448,253.604 218.076 C 253.607 217.409,255.329 215.822,256.961 214.981 C 257.772 214.563,258.300 214.684,260.000 215.674 M196.337 224.382 C 189.804 227.950,190.224 238.195,197.020 241.034 C 204.405 244.120,211.418 234.442,206.798 227.541 C 204.408 223.972,199.694 222.549,196.337 224.382 M201.000 224.400 C 201.136 224.620,201.725 224.800,202.308 224.800 C 203.538 224.800,206.800 227.748,206.800 228.860 C 206.800 229.241,206.980 229.664,207.200 229.800 C 209.280 231.086,205.618 240.000,203.009 240.000 C 202.728 240.000,202.274 240.270,202.000 240.600 C 200.365 242.571,194.950 239.710,192.989 235.839 C 192.324 234.528,192.188 230.178,192.800 229.800 C 193.020 229.664,193.200 229.255,193.200 228.892 C 193.200 228.008,196.383 224.800,197.260 224.800 C 197.641 224.800,198.064 224.620,198.200 224.400 C 198.336 224.180,198.966 224.000,199.600 224.000 C 200.234 224.000,200.864 224.180,201.000 224.400 M197.200 293.320 C 193.502 295.043,194.384 299.782,198.403 299.782 C 201.916 299.782,203.277 294.421,200.005 293.467 C 199.672 293.370,199.130 293.192,198.800 293.072 C 198.470 292.952,197.750 293.063,197.200 293.320 M225.199 293.279 C 221.356 294.700,222.040 299.782,226.074 299.782 C 229.875 299.782,230.855 294.880,227.349 293.406 C 226.575 293.080,225.851 293.037,225.199 293.279 M200.533 294.920 C 201.994 296.615,200.755 299.200,198.483 299.200 C 196.679 299.200,195.596 298.233,195.613 296.638 C 195.642 293.791,198.653 292.739,200.533 294.920 M227.204 294.000 C 228.662 294.000,229.322 297.160,228.138 298.469 C 226.475 300.306,223.200 298.852,223.200 296.276 C 223.200 294.892,225.070 293.433,226.333 293.832 C 226.626 293.924,227.018 294.000,227.204 294.000 M117.781 295.304 C 117.675 295.582,117.636 301.207,117.694 307.804 L 117.800 319.800 120.600 319.800 L 123.400 319.800 123.506 307.848 C 123.581 299.363,123.480 295.737,123.157 295.348 C 122.558 294.626,118.056 294.590,117.781 295.304 M233.862 295.531 C 233.425 296.015,233.200 296.969,233.200 298.344 C 233.200 299.961,233.044 300.483,232.500 300.683 C 230.715 301.342,230.666 305.200,232.443 305.200 C 233.137 305.200,233.200 305.544,233.200 309.329 C 233.200 314.197,233.940 316.871,235.740 318.506 C 239.661 322.067,246.937 319.939,244.975 315.804 C 244.105 313.970,243.866 313.852,242.224 314.446 C 239.925 315.277,239.600 314.671,239.600 309.551 L 239.600 305.200 241.757 305.200 C 244.091 305.200,244.400 304.918,244.400 302.790 C 244.400 301.332,243.118 300.400,241.111 300.400 L 239.600 300.400 239.600 298.080 C 239.600 296.804,239.384 295.544,239.120 295.280 C 238.337 294.497,234.638 294.674,233.862 295.531 M122.567 295.843 C 123.124 296.056,123.200 297.469,123.200 307.600 C 123.200 320.552,123.457 319.600,119.967 319.600 L 118.000 319.600 118.000 307.600 L 118.000 295.600 119.967 295.600 C 121.049 295.600,122.219 295.709,122.567 295.843 M239.200 298.600 L 239.400 301.400 241.500 301.521 C 243.597 301.642,243.600 301.644,243.600 303.000 C 243.600 304.356,243.597 304.358,241.500 304.479 L 239.400 304.600 239.288 309.483 C 239.160 315.056,239.831 316.352,242.268 315.242 C 243.576 314.646,244.800 315.587,244.800 317.188 C 244.800 320.052,238.968 320.514,236.207 317.869 L 234.400 316.137 234.400 311.000 C 234.400 305.715,234.029 304.400,232.538 304.400 C 231.492 304.400,231.868 301.720,232.952 301.448 C 234.009 301.182,234.386 300.220,234.395 297.767 C 234.402 295.672,234.565 295.540,236.985 295.682 L 239.000 295.800 239.200 298.600 M128.889 301.023 C 128.017 301.634,128.000 301.809,128.000 310.343 C 128.000 320.331,127.882 320.000,131.437 320.000 C 134.499 320.000,134.400 320.223,134.400 313.329 C 134.400 306.714,134.884 305.600,137.760 305.600 C 140.175 305.600,140.381 306.200,140.500 313.600 L 140.600 319.800 143.135 319.920 C 146.813 320.094,146.800 320.117,146.800 313.365 C 146.800 302.601,142.263 297.570,135.820 301.189 C 134.423 301.974,134.414 301.974,133.994 301.189 C 133.460 300.191,130.226 300.086,128.889 301.023 M154.480 301.231 C 147.633 305.250,147.413 314.689,154.064 319.090 C 156.100 320.437,160.350 320.649,162.117 319.491 L 163.200 318.782 163.200 322.311 C 163.200 326.796,164.650 327.902,168.574 326.410 L 169.600 326.020 169.600 313.833 C 169.600 301.692,169.597 301.643,168.711 301.023 C 167.374 300.086,164.140 300.191,163.606 301.189 C 163.186 301.974,163.177 301.974,161.780 301.189 C 159.912 300.140,156.304 300.161,154.480 301.231 M173.649 301.051 C 172.530 301.835,172.496 313.408,173.607 315.800 C 175.439 319.748,180.588 321.496,183.967 319.317 C 184.847 318.750,184.976 318.753,185.411 319.347 C 185.990 320.139,190.368 320.272,191.120 319.520 C 191.464 319.176,191.600 316.574,191.600 310.343 C 191.600 300.362,191.614 300.400,187.925 300.400 C 185.369 300.400,185.200 300.829,185.200 307.315 C 185.200 313.501,184.629 314.800,181.908 314.800 C 179.482 314.800,179.200 314.006,179.200 307.186 L 179.200 301.180 178.174 300.790 C 176.639 300.206,174.694 300.318,173.649 301.051 M195.900 300.832 C 195.266 301.202,195.200 302.099,195.200 310.412 L 195.200 319.585 196.127 319.817 C 196.636 319.945,197.941 319.994,199.027 319.925 L 201.000 319.800 201.108 310.650 C 201.183 304.237,201.079 301.336,200.759 300.950 C 200.223 300.305,196.942 300.225,195.900 300.832 M209.200 300.777 C 208.870 300.959,208.136 301.322,207.570 301.584 C 205.823 302.392,204.311 305.115,204.519 307.079 C 204.791 309.647,206.701 311.250,211.400 312.854 C 213.572 313.595,214.229 314.242,213.591 315.011 C 212.854 315.899,210.668 315.720,208.562 314.600 C 206.130 313.307,205.900 313.331,204.620 315.009 C 203.155 316.930,203.405 317.553,206.201 318.944 C 213.043 322.348,220.186 319.203,219.463 313.103 C 219.215 311.008,217.401 308.820,215.900 308.806 C 215.515 308.803,215.200 308.620,215.200 308.400 C 215.200 308.180,214.760 308.000,214.223 308.000 C 213.194 308.000,210.400 306.543,210.400 306.007 C 210.400 305.162,214.907 305.203,215.432 306.053 C 215.946 306.883,217.435 306.336,218.300 305.001 C 219.522 303.114,219.444 302.701,217.700 301.847 C 216.875 301.442,215.887 300.951,215.505 300.756 C 214.642 300.314,210.014 300.330,209.200 300.777 M223.700 301.009 C 222.812 301.637,222.800 301.768,222.800 310.615 L 222.800 319.585 223.727 319.817 C 224.236 319.945,225.541 319.994,226.627 319.925 L 228.600 319.800 228.600 310.200 L 228.600 300.600 226.600 300.486 C 225.261 300.410,224.302 300.583,223.700 301.009 M253.800 300.800 C 253.664 301.020,253.223 301.200,252.820 301.200 C 249.586 301.200,245.498 309.774,247.143 313.105 C 249.578 318.039,251.427 319.581,255.652 320.204 C 264.027 321.437,270.166 312.585,265.988 305.300 C 264.826 303.273,262.319 301.200,261.032 301.200 C 260.710 301.200,260.336 301.020,260.200 300.800 C 260.064 300.580,258.624 300.400,257.000 300.400 C 255.376 300.400,253.936 300.580,253.800 300.800 M270.489 301.023 C 269.617 301.634,269.600 301.808,269.600 310.374 C 269.600 320.479,269.455 320.100,273.265 319.920 L 275.800 319.800 276.011 314.600 C 276.289 307.742,276.886 306.400,279.654 306.400 C 281.436 306.400,281.729 305.801,281.525 302.573 C 281.357 299.914,279.499 299.645,276.765 301.886 C 276.224 302.329,276.064 302.258,275.674 301.403 C 275.122 300.191,272.003 299.962,270.489 301.023 M141.240 301.254 C 145.120 302.548,146.086 305.146,145.912 313.820 L 145.800 319.400 144.238 319.528 C 140.706 319.817,140.802 320.001,140.787 312.892 C 140.773 305.769,140.601 305.258,138.103 304.923 C 136.833 304.753,136.327 304.901,135.372 305.721 L 134.200 306.728 134.000 313.064 L 133.800 319.400 132.238 319.528 C 131.379 319.598,130.251 319.549,129.730 319.418 L 128.784 319.181 128.892 310.490 L 129.000 301.800 131.188 301.676 C 132.788 301.585,133.495 301.715,133.818 302.157 C 134.205 302.687,134.501 302.640,136.198 301.781 C 138.361 300.686,139.257 300.592,141.240 301.254 M161.678 301.947 C 163.142 302.671,163.388 302.696,163.780 302.160 C 164.106 301.714,164.808 301.585,166.412 301.676 L 168.600 301.800 168.706 313.900 L 168.812 326.000 166.206 326.000 L 163.600 326.000 163.600 322.200 C 163.600 318.188,163.396 317.823,161.824 319.013 C 159.882 320.481,154.567 319.404,152.574 317.139 C 145.927 309.584,153.059 297.682,161.678 301.947 M215.034 301.388 C 218.340 302.370,218.759 302.845,217.837 304.572 C 217.105 305.942,216.285 306.385,215.834 305.655 C 214.871 304.096,209.997 304.435,209.680 306.082 C 209.556 306.726,212.104 308.400,213.209 308.400 C 214.655 308.400,217.965 310.519,218.596 311.849 C 221.308 317.562,213.397 321.880,206.613 318.388 C 204.272 317.184,204.176 316.973,205.200 315.293 L 205.997 313.985 207.985 314.993 C 211.030 316.535,214.400 316.332,214.400 314.606 C 214.400 313.432,213.985 313.135,210.535 311.836 C 201.201 308.321,205.417 298.532,215.034 301.388 M259.523 301.265 C 270.624 304.012,268.412 319.600,256.921 319.600 C 246.040 319.600,243.980 304.273,254.456 301.259 C 256.314 300.724,257.344 300.725,259.523 301.265 M281.026 302.159 C 281.579 304.363,281.090 305.121,278.641 305.853 C 276.314 306.549,275.822 307.856,275.600 313.927 L 275.400 319.400 273.838 319.528 C 272.979 319.598,271.851 319.549,271.330 319.418 L 270.384 319.181 270.492 310.490 L 270.600 301.800 273.049 301.682 C 275.270 301.575,275.518 301.645,275.723 302.428 L 275.949 303.291 277.074 302.502 C 279.319 300.930,280.687 300.811,281.026 302.159 M178.710 307.879 C 178.849 315.533,180.663 317.683,184.359 314.573 L 185.579 313.547 185.689 307.673 L 185.800 301.800 188.200 301.800 L 190.600 301.800 190.708 310.490 L 190.816 319.181 189.870 319.418 C 187.874 319.919,185.810 319.467,185.672 318.500 C 185.554 317.666,184.800 317.180,184.800 317.937 C 184.800 318.821,182.088 319.706,179.930 319.527 C 174.972 319.116,173.848 317.060,173.673 308.080 L 173.546 301.560 176.073 301.680 L 178.600 301.800 178.710 307.879 M200.708 310.500 L 200.600 319.400 198.400 319.400 L 196.200 319.400 196.092 310.500 L 195.985 301.600 198.400 301.600 L 200.815 301.600 200.708 310.500 M228.400 310.620 L 228.400 319.640 226.100 319.520 L 223.800 319.400 223.692 311.010 C 223.562 300.994,223.401 301.600,226.187 301.600 L 228.400 301.600 228.400 310.620 M158.617 305.119 C 154.397 306.043,153.439 311.927,157.046 314.765 C 160.894 317.792,165.497 312.028,163.034 307.266 C 162.269 305.786,160.188 304.775,158.617 305.119 M254.338 306.102 C 251.766 308.276,251.601 311.695,253.953 314.047 C 258.700 318.794,264.782 311.652,260.320 306.570 C 258.796 304.834,256.088 304.622,254.338 306.102 M161.400 306.313 C 163.336 307.975,163.734 311.087,162.287 313.241 C 159.455 317.457,153.185 312.417,155.874 308.086 C 157.393 305.640,159.739 304.887,161.400 306.313 M258.890 306.095 C 261.752 307.446,261.971 312.917,259.222 314.388 C 255.454 316.405,251.475 312.198,253.443 308.280 C 254.693 305.792,256.615 305.022,258.890 306.095 " stroke="none" fill="#8cac9c" fill-rule="evenodd"></path></g></svg>