<svg id="svg" version="1.1" xmlns="http://www.w3.org/2000/svg" xmlns:xlink="http://www.w3.org/1999/xlink" width="400" height="400" viewBox="0, 0, 400,400"><g id="svgg"><path id="path0" d="M171.312 133.500 C 169.357 135.348,168.079 137.839,168.743 138.503 C 168.995 138.755,169.200 139.290,169.200 139.693 C 169.200 140.095,169.470 140.529,169.800 140.655 C 170.130 140.782,170.401 141.181,170.403 141.543 C 170.409 143.328,172.190 143.600,183.892 143.600 L 194.919 143.600 197.060 145.882 C 198.237 147.136,199.200 148.361,199.200 148.603 C 199.200 148.845,199.830 149.654,200.600 150.400 C 202.379 152.124,202.535 154.158,201.000 155.600 C 200.450 156.117,200.000 156.735,200.000 156.973 C 200.000 157.212,195.950 161.454,191.000 166.400 C 186.050 171.346,182.000 175.593,182.000 175.837 C 182.000 176.082,180.022 178.243,177.605 180.641 C 175.187 183.038,173.207 185.304,173.205 185.676 C 173.202 186.048,173.020 186.464,172.800 186.600 C 172.580 186.736,172.400 187.366,172.400 188.000 C 172.400 188.634,172.242 189.251,172.048 189.370 C 171.386 189.779,171.288 191.148,171.844 192.220 C 172.150 192.809,172.400 193.603,172.400 193.984 C 172.400 195.461,173.769 197.198,179.185 202.595 C 182.273 205.672,184.800 208.416,184.800 208.694 C 184.800 208.972,186.970 211.376,189.622 214.038 C 195.270 219.707,196.006 221.653,192.605 221.930 C 191.728 222.001,190.819 222.218,190.585 222.412 C 190.352 222.606,189.400 222.886,188.471 223.035 C 187.542 223.184,186.686 223.461,186.568 223.653 C 186.449 223.844,185.834 224.000,185.200 224.000 C 184.566 224.000,183.936 224.180,183.800 224.400 C 183.664 224.620,182.865 224.800,182.025 224.800 C 181.156 224.800,180.284 225.058,180.000 225.400 C 179.696 225.766,178.820 226.000,177.751 226.000 C 176.788 226.000,176.000 226.180,176.000 226.400 C 176.000 226.620,175.201 226.800,174.224 226.800 C 173.247 226.800,172.349 226.960,172.228 227.155 C 172.107 227.350,171.377 227.628,170.604 227.773 C 169.832 227.918,169.200 228.208,169.200 228.418 C 169.200 228.628,168.688 228.800,168.062 228.800 C 167.004 228.800,165.600 229.826,165.600 230.600 C 165.600 230.785,165.343 231.221,165.030 231.569 C 164.443 232.219,164.229 233.374,164.338 235.309 C 164.497 238.141,170.171 241.589,171.400 239.600 C 171.536 239.380,172.346 239.200,173.200 239.200 C 174.054 239.200,174.864 239.020,175.000 238.800 C 175.136 238.580,175.755 238.400,176.375 238.400 C 176.995 238.400,177.726 238.130,178.000 237.800 C 178.284 237.458,179.156 237.200,180.025 237.200 C 180.865 237.200,181.664 237.020,181.800 236.800 C 181.936 236.580,182.746 236.400,183.600 236.400 C 184.454 236.400,185.261 236.225,185.393 236.012 C 185.525 235.798,186.525 235.505,187.616 235.360 C 188.707 235.215,189.600 234.940,189.600 234.748 C 189.600 234.557,190.129 234.400,190.776 234.400 C 191.423 234.400,192.064 234.220,192.200 234.000 C 192.336 233.780,193.144 233.600,193.995 233.600 C 194.846 233.600,195.813 233.330,196.143 233.000 C 196.477 232.666,197.455 232.400,198.348 232.400 C 199.231 232.400,200.064 232.220,200.200 232.000 C 200.336 231.780,201.046 231.600,201.778 231.600 C 202.510 231.600,203.624 231.331,204.254 231.002 C 204.884 230.674,205.704 230.404,206.076 230.402 C 206.448 230.401,206.864 230.220,207.000 230.000 C 207.136 229.780,207.651 229.600,208.145 229.600 C 209.190 229.600,211.600 227.281,211.600 226.276 C 211.600 225.898,211.810 225.252,212.067 224.841 C 212.523 224.111,212.224 223.143,210.818 220.800 C 210.620 220.470,210.355 219.930,210.229 219.600 C 210.103 219.270,209.370 218.190,208.600 217.200 C 207.830 216.210,207.097 215.130,206.971 214.800 C 206.845 214.470,206.575 213.930,206.370 213.600 C 206.166 213.270,205.837 212.633,205.641 212.184 C 205.444 211.735,204.995 211.127,204.642 210.835 C 204.289 210.542,204.000 210.076,204.000 209.800 C 204.000 209.524,203.730 209.074,203.400 208.800 C 203.070 208.526,202.800 207.995,202.800 207.621 C 202.800 207.246,202.350 206.517,201.800 206.000 C 201.250 205.483,200.800 204.850,200.800 204.592 C 200.800 204.335,200.440 203.798,200.000 203.400 C 199.560 203.002,199.200 202.338,199.200 201.925 C 199.200 201.513,198.930 201.071,198.600 200.945 C 198.270 200.818,198.000 200.402,198.000 200.019 C 198.000 199.637,197.639 198.997,197.197 198.597 C 194.806 196.433,194.709 192.400,197.048 192.400 C 197.260 192.400,198.101 191.770,198.918 191.000 C 199.734 190.230,200.633 189.600,200.916 189.600 C 201.199 189.600,202.317 188.700,203.400 187.600 C 204.483 186.500,205.564 185.600,205.802 185.600 C 206.039 185.600,207.028 184.790,208.000 183.800 C 208.972 182.810,210.017 182.000,210.323 182.000 C 210.629 182.000,211.528 181.352,212.321 180.559 C 213.113 179.767,214.130 178.959,214.581 178.763 C 215.031 178.567,215.873 178.027,216.452 177.561 C 217.562 176.668,219.200 176.790,219.200 177.765 C 219.200 178.432,220.343 180.718,220.825 181.016 C 221.031 181.143,221.200 181.766,221.200 182.400 C 221.200 183.034,221.380 183.664,221.600 183.800 C 221.820 183.936,222.000 184.459,222.000 184.962 C 222.000 185.952,223.018 188.240,223.625 188.616 C 223.831 188.743,224.000 189.354,224.000 189.973 C 224.000 190.793,224.485 191.545,225.791 192.749 L 227.582 194.400 239.629 194.400 C 250.323 194.400,251.818 194.322,252.938 193.704 C 254.887 192.630,255.600 191.942,255.600 191.138 C 255.600 190.732,255.780 190.400,256.000 190.400 C 256.570 190.400,256.496 187.361,255.900 186.295 C 254.019 182.930,253.517 182.800,242.401 182.800 C 233.856 182.800,232.869 182.731,232.362 182.100 C 231.549 181.087,230.800 179.680,230.800 179.166 C 230.800 178.732,229.902 176.500,229.166 175.105 C 228.965 174.723,228.800 174.070,228.800 173.654 C 228.800 173.238,228.530 172.674,228.200 172.400 C 227.870 172.126,227.600 171.472,227.600 170.946 C 227.600 170.420,227.435 169.677,227.234 169.295 C 227.032 168.913,226.594 167.970,226.260 167.200 C 225.926 166.430,225.011 165.180,224.226 164.422 C 223.442 163.663,222.800 162.793,222.800 162.488 C 222.800 162.183,222.170 161.321,221.400 160.574 C 220.630 159.826,220.000 158.976,220.000 158.686 C 220.000 158.395,219.370 157.546,218.600 156.800 C 217.830 156.054,217.200 155.244,217.200 155.000 C 217.200 154.756,216.570 153.946,215.800 153.200 C 215.030 152.454,214.400 151.558,214.400 151.210 C 214.400 150.861,213.770 149.982,213.000 149.256 C 212.230 148.529,211.600 147.711,211.600 147.437 C 211.600 147.163,211.128 146.503,210.552 145.970 C 209.976 145.436,209.051 144.290,208.498 143.422 C 207.944 142.554,206.886 141.273,206.146 140.575 C 205.406 139.877,204.800 139.065,204.800 138.772 C 204.800 138.478,204.239 137.659,203.553 136.952 C 202.867 136.244,202.099 135.249,201.845 134.740 C 201.592 134.232,200.968 133.608,200.458 133.354 C 199.949 133.100,199.332 132.692,199.086 132.446 C 198.776 132.136,194.707 132.000,185.769 132.000 L 172.899 132.000 171.312 133.500 M238.200 136.400 C 238.064 136.620,237.275 136.800,236.446 136.800 C 235.356 136.800,234.680 137.077,234.000 137.800 C 233.483 138.350,232.816 138.800,232.517 138.800 C 231.863 138.800,229.612 141.027,229.571 141.714 C 229.555 141.981,229.197 142.740,228.775 143.400 C 228.354 144.060,227.904 144.870,227.775 145.200 C 227.647 145.530,227.375 146.113,227.171 146.495 C 226.673 147.426,226.696 151.889,227.200 152.200 C 227.420 152.336,227.600 152.874,227.600 153.395 C 227.600 153.916,227.870 154.613,228.200 154.943 C 228.530 155.273,228.800 155.786,228.800 156.083 C 228.800 157.106,233.738 161.600,234.862 161.600 C 235.434 161.600,236.126 161.870,236.400 162.200 C 236.715 162.579,237.597 162.800,238.800 162.800 C 240.003 162.800,240.885 162.579,241.200 162.200 C 241.474 161.870,242.145 161.600,242.690 161.600 C 243.876 161.600,248.800 157.049,248.800 155.953 C 248.800 155.565,248.980 155.136,249.200 155.000 C 249.420 154.864,249.600 154.245,249.600 153.625 C 249.600 153.005,249.870 152.274,250.200 152.000 C 250.978 151.354,250.986 148.399,250.213 147.376 C 249.890 146.949,249.620 146.105,249.613 145.500 C 249.606 144.895,249.420 144.400,249.200 144.400 C 248.980 144.400,248.800 144.128,248.800 143.795 C 248.800 142.531,245.940 138.800,244.971 138.800 C 244.711 138.800,244.274 138.530,244.000 138.200 C 243.726 137.870,243.164 137.600,242.751 137.600 C 242.338 137.600,242.000 137.420,242.000 137.200 C 242.000 136.980,241.471 136.800,240.824 136.800 C 240.177 136.800,239.536 136.620,239.400 136.400 C 239.264 136.180,238.994 136.000,238.800 136.000 C 238.606 136.000,238.336 136.180,238.200 136.400 M143.400 157.600 C 143.264 157.820,142.668 158.004,142.076 158.010 C 140.956 158.020,139.600 159.961,139.600 161.554 C 139.600 162.423,140.813 163.600,141.708 163.600 C 142.063 163.600,142.464 163.780,142.600 164.000 C 142.758 164.256,148.444 164.400,158.342 164.400 L 173.838 164.400 175.399 162.801 C 176.615 161.556,176.855 161.095,176.481 160.721 C 176.216 160.456,176.000 159.993,176.000 159.691 C 176.000 158.961,175.007 158.000,174.252 158.000 C 173.919 158.000,173.536 157.820,173.400 157.600 C 173.242 157.345,167.804 157.200,158.400 157.200 C 148.996 157.200,143.558 157.345,143.400 157.600 M126.625 174.374 C 125.975 175.053,125.500 175.992,125.500 176.600 C 125.500 177.208,125.975 178.147,126.625 178.826 L 127.750 180.000 144.013 180.000 C 161.882 180.000,160.656 180.165,161.938 177.587 C 162.353 176.753,162.339 176.374,161.859 175.449 C 160.706 173.226,160.494 173.200,143.429 173.200 L 127.750 173.200 126.625 174.374 M112.259 190.650 C 110.896 192.013,110.868 193.705,112.186 195.023 L 113.172 196.009 129.883 195.904 L 146.594 195.800 147.300 194.300 C 147.975 192.866,147.975 192.734,147.300 191.300 L 146.594 189.800 129.956 189.696 L 113.318 189.591 112.259 190.650 M157.788 199.612 C 155.382 202.025,153.231 204.000,153.007 204.000 C 152.783 204.000,148.324 208.230,143.097 213.400 C 137.871 218.570,133.368 222.800,133.092 222.800 C 132.333 222.800,122.400 232.910,122.400 233.682 C 122.400 234.051,122.220 234.464,122.000 234.600 C 121.780 234.736,121.600 235.546,121.600 236.400 C 121.600 237.254,121.780 238.064,122.000 238.200 C 122.220 238.336,122.400 238.767,122.400 239.157 C 122.400 239.978,124.515 242.000,125.373 242.000 C 125.692 242.000,126.064 242.180,126.200 242.400 C 126.706 243.218,129.032 242.831,130.030 241.762 C 130.564 241.191,131.450 240.487,132.000 240.197 C 132.550 239.907,134.170 238.490,135.600 237.047 C 137.030 235.605,138.475 234.419,138.811 234.412 C 139.147 234.406,140.672 233.140,142.200 231.600 C 143.728 230.060,145.168 228.800,145.399 228.800 C 145.631 228.800,147.161 227.450,148.800 225.800 C 150.439 224.150,152.022 222.800,152.318 222.800 C 152.615 222.800,154.293 221.360,156.048 219.600 C 157.804 217.840,159.460 216.400,159.730 216.400 C 159.999 216.400,161.561 215.050,163.200 213.400 C 164.839 211.750,166.376 210.400,166.615 210.400 C 168.692 210.400,169.594 207.326,167.972 205.775 C 167.297 205.129,166.466 204.015,166.127 203.300 C 165.787 202.585,165.358 202.000,165.173 202.000 C 164.988 202.000,164.718 201.368,164.573 200.596 C 164.428 199.823,164.150 199.093,163.955 198.972 C 163.760 198.851,163.600 198.251,163.600 197.638 C 163.600 194.531,162.472 194.914,157.788 199.612 M180.000 299.376 C 180.000 303.562,179.718 304.506,178.797 303.397 C 176.145 300.201,169.252 302.310,167.028 306.998 C 163.454 314.530,172.073 324.100,178.213 319.417 C 179.564 318.387,180.000 318.447,180.000 319.667 C 180.000 320.296,180.339 320.400,182.400 320.400 L 184.800 320.400 184.800 307.800 L 184.800 295.200 182.400 295.200 L 180.000 295.200 180.000 299.376 M85.023 296.540 C 82.720 297.181,80.562 299.406,80.213 301.500 C 79.341 306.734,82.072 309.487,89.608 310.971 C 91.012 311.247,92.400 312.647,92.400 313.787 C 92.400 316.478,88.063 316.910,84.228 314.600 C 81.426 312.913,81.914 312.888,80.406 314.793 L 79.144 316.386 80.272 317.448 C 84.572 321.497,93.632 321.487,96.521 317.430 C 98.461 314.706,97.772 310.267,95.100 308.269 C 93.832 307.320,93.364 307.134,88.800 305.760 C 85.103 304.646,84.124 302.904,86.254 301.229 C 87.742 300.058,91.598 300.504,93.478 302.064 C 94.569 302.970,97.203 300.427,96.654 298.997 C 95.872 296.959,88.849 295.475,85.023 296.540 M200.181 297.305 C 200.074 297.583,200.035 302.848,200.094 309.005 L 200.200 320.200 202.800 320.200 L 205.400 320.200 205.515 316.500 L 205.630 312.800 207.529 312.800 C 209.248 312.800,209.500 312.923,210.191 314.100 C 210.611 314.815,211.147 315.594,211.381 315.832 C 211.615 316.070,212.435 317.190,213.203 318.322 L 214.600 320.379 217.734 320.390 L 220.868 320.400 219.434 318.400 C 218.645 317.300,217.343 315.484,216.540 314.364 L 215.080 312.329 216.755 310.751 C 220.775 306.965,220.152 299.957,215.596 297.716 C 213.434 296.653,200.563 296.310,200.181 297.305 M213.571 302.254 C 215.992 305.331,213.853 308.200,209.139 308.200 L 205.800 308.200 205.684 304.700 L 205.569 301.200 209.155 301.200 C 212.554 301.200,212.785 301.255,213.571 302.254 M110.957 302.199 C 110.101 302.454,108.999 302.913,108.510 303.221 C 107.724 303.714,107.559 303.696,107.098 303.066 C 106.684 302.500,106.121 302.378,104.388 302.476 L 102.200 302.600 102.200 314.800 L 102.200 327.000 104.600 327.000 L 107.000 327.000 107.114 322.900 C 107.177 320.645,107.307 318.800,107.404 318.800 C 107.501 318.800,108.170 319.159,108.890 319.599 C 112.128 321.572,117.051 320.205,119.323 316.702 C 123.645 310.036,117.930 300.129,110.957 302.199 M131.400 302.085 C 122.378 305.094,121.285 315.562,129.540 319.900 C 130.788 320.556,136.435 320.548,137.654 319.889 C 140.775 318.201,140.930 317.857,139.277 316.274 L 138.154 315.198 136.496 315.999 C 133.979 317.215,131.661 316.903,129.873 315.106 C 128.088 313.312,128.915 313.008,135.905 312.890 L 142.400 312.780 142.370 310.690 C 142.304 306.153,140.099 303.392,135.582 302.190 C 133.122 301.535,133.054 301.534,131.400 302.085 M151.731 302.362 C 146.474 304.154,144.078 308.799,145.571 314.305 C 147.024 319.662,154.281 322.256,159.646 319.336 C 161.935 318.091,161.918 318.149,160.500 316.457 L 159.400 315.145 157.600 315.964 C 154.347 317.444,150.766 316.400,150.473 313.887 L 150.347 312.800 157.029 312.800 L 163.711 312.800 163.495 310.413 C 163.088 305.932,160.903 303.304,156.668 302.201 C 153.945 301.492,154.318 301.479,151.731 302.362 M254.400 302.080 C 253.630 302.294,252.716 302.723,252.369 303.034 C 251.547 303.770,250.924 303.751,250.491 302.977 C 250.227 302.505,249.614 302.383,247.971 302.477 L 245.800 302.600 245.800 311.400 L 245.800 320.200 248.100 320.320 L 250.400 320.440 250.400 315.007 C 250.400 307.661,251.146 305.941,254.369 305.856 C 257.322 305.779,257.564 306.354,257.690 313.753 L 257.800 320.200 260.300 320.319 L 262.800 320.438 262.800 314.596 C 262.800 304.507,260.109 300.497,254.400 302.080 M276.400 302.080 C 275.630 302.294,274.716 302.723,274.369 303.034 C 273.547 303.771,272.944 303.752,272.648 302.980 C 272.463 302.498,271.895 302.387,270.105 302.480 L 267.800 302.600 267.800 311.400 L 267.800 320.200 270.100 320.320 L 272.400 320.440 272.400 315.007 C 272.400 307.661,273.146 305.941,276.369 305.856 C 279.322 305.779,279.564 306.354,279.690 313.753 L 279.800 320.200 282.300 320.319 L 284.800 320.438 284.800 314.596 C 284.800 304.473,282.128 300.492,276.400 302.080 M295.800 302.162 C 290.406 303.705,288.218 307.282,288.973 313.323 C 289.712 319.235,297.440 322.497,303.235 319.343 L 305.177 318.285 304.489 317.112 C 303.380 315.224,303.068 315.118,301.154 315.987 C 298.337 317.265,296.099 316.898,294.251 314.856 C 292.660 313.099,293.445 312.829,300.484 312.710 L 307.000 312.600 306.905 310.400 C 306.693 305.472,301.847 300.876,297.680 301.652 C 297.526 301.681,296.680 301.910,295.800 302.162 M318.981 302.992 C 317.891 303.544,316.976 303.997,316.947 303.998 C 316.917 303.999,316.797 303.631,316.679 303.179 C 316.488 302.451,316.201 302.372,314.132 302.479 L 311.800 302.600 311.800 311.400 L 311.800 320.200 314.100 320.320 L 316.400 320.440 316.410 316.320 C 316.425 309.527,317.329 307.303,320.352 306.619 L 322.036 306.239 321.918 304.251 C 321.774 301.831,321.500 301.713,318.981 302.992 M223.484 302.649 C 222.334 303.799,223.449 316.035,224.892 318.106 C 226.545 320.478,231.256 321.269,233.636 319.575 C 234.833 318.722,235.600 318.819,235.600 319.824 C 235.600 320.262,236.178 320.400,238.008 320.400 L 240.415 320.400 240.308 311.500 L 240.200 302.600 237.900 302.480 L 235.600 302.360 235.600 307.994 C 235.600 315.302,233.894 318.007,230.420 316.210 C 228.674 315.308,228.616 315.089,228.400 308.600 L 228.200 302.600 225.984 302.483 C 224.765 302.418,223.640 302.493,223.484 302.649 M113.592 306.659 C 117.052 308.703,116.639 314.654,112.929 316.204 C 108.352 318.116,104.863 311.057,108.560 307.360 C 110.110 305.810,111.764 305.579,113.592 306.659 M136.218 306.982 C 138.179 308.943,137.421 309.600,133.200 309.600 C 128.925 309.600,128.359 309.121,130.275 307.122 C 131.751 305.581,134.747 305.511,136.218 306.982 M157.376 307.245 C 158.919 309.078,158.266 309.600,154.427 309.600 C 150.231 309.600,149.434 309.028,151.188 307.274 C 153.024 305.438,155.845 305.425,157.376 307.245 M178.653 307.428 C 182.064 311.046,178.666 318.167,174.376 316.390 C 169.415 314.335,170.450 306.000,175.666 306.000 C 177.028 306.000,177.534 306.242,178.653 307.428 M300.766 306.964 C 302.449 308.755,301.814 309.385,298.192 309.515 C 293.845 309.670,292.968 309.093,294.788 307.274 C 296.469 305.592,299.338 305.444,300.766 306.964 " stroke="none" fill="#f9f9f9" fill-rule="evenodd"></path><path id="path1" d="M181.200 1.000 C 181.200 1.495,180.467 1.600,177.000 1.600 C 174.467 1.600,172.800 1.759,172.800 2.000 C 172.800 2.239,171.267 2.400,169.000 2.400 C 166.733 2.400,165.200 2.561,165.200 2.800 C 165.200 3.020,164.300 3.200,163.200 3.200 C 161.689 3.200,161.200 3.347,161.200 3.800 C 161.200 4.244,160.733 4.400,159.400 4.400 C 158.410 4.400,157.600 4.580,157.600 4.800 C 157.600 5.022,156.533 5.200,155.200 5.200 C 153.333 5.200,152.800 5.333,152.800 5.800 C 152.800 6.253,152.311 6.400,150.800 6.400 C 149.700 6.400,148.800 6.580,148.800 6.800 C 148.800 7.020,148.170 7.200,147.400 7.200 C 146.630 7.200,146.000 7.380,146.000 7.600 C 146.000 7.820,145.100 8.000,144.000 8.000 C 142.489 8.000,142.000 8.147,142.000 8.600 C 142.000 9.019,141.578 9.200,140.600 9.200 C 139.830 9.200,139.200 9.380,139.200 9.600 C 139.200 9.820,138.570 10.000,137.800 10.000 C 136.822 10.000,136.400 10.181,136.400 10.600 C 136.400 11.019,135.978 11.200,135.000 11.200 C 134.230 11.200,133.600 11.380,133.600 11.600 C 133.600 11.820,132.970 12.000,132.200 12.000 C 131.430 12.000,130.800 12.180,130.800 12.400 C 130.800 12.620,130.350 12.800,129.800 12.800 C 129.178 12.800,128.800 13.027,128.800 13.400 C 128.800 13.819,128.378 14.000,127.400 14.000 C 126.630 14.000,126.000 14.180,126.000 14.400 C 126.000 14.620,125.550 14.800,125.000 14.800 C 124.450 14.800,124.000 14.980,124.000 15.200 C 124.000 15.420,123.370 15.600,122.600 15.600 C 121.622 15.600,121.200 15.781,121.200 16.200 C 121.200 16.573,120.822 16.800,120.200 16.800 C 119.650 16.800,119.200 16.980,119.200 17.200 C 119.200 17.420,118.834 17.600,118.387 17.600 C 117.941 17.600,117.471 17.870,117.345 18.200 C 117.218 18.530,116.684 18.800,116.157 18.800 C 115.631 18.800,115.200 18.980,115.200 19.200 C 115.200 19.420,114.840 19.600,114.400 19.600 C 113.960 19.600,113.600 19.780,113.600 20.000 C 113.600 20.220,113.150 20.400,112.600 20.400 C 111.978 20.400,111.600 20.627,111.600 21.000 C 111.600 21.373,111.222 21.600,110.600 21.600 C 110.050 21.600,109.600 21.780,109.600 22.000 C 109.600 22.220,109.234 22.400,108.787 22.400 C 108.341 22.400,107.871 22.670,107.745 23.000 C 107.618 23.330,107.084 23.600,106.557 23.600 C 106.031 23.600,105.600 23.780,105.600 24.000 C 105.600 24.220,105.240 24.400,104.800 24.400 C 104.360 24.400,104.000 24.580,104.000 24.800 C 104.000 25.020,103.550 25.200,103.000 25.200 C 102.378 25.200,102.000 25.427,102.000 25.800 C 102.000 26.140,101.641 26.400,101.171 26.400 C 100.286 26.400,99.200 27.266,99.200 27.971 C 99.200 28.207,98.750 28.400,98.200 28.400 C 97.650 28.400,97.200 28.580,97.200 28.800 C 97.200 29.020,96.827 29.200,96.371 29.200 C 95.486 29.200,94.400 30.066,94.400 30.771 C 94.400 31.007,93.950 31.200,93.400 31.200 C 92.850 31.200,92.400 31.380,92.400 31.600 C 92.400 31.820,92.065 32.000,91.656 32.000 C 91.247 32.000,90.574 32.450,90.161 33.000 C 89.748 33.550,89.080 34.000,88.676 34.000 C 87.871 34.000,86.800 34.897,86.800 35.571 C 86.800 35.807,86.530 36.000,86.200 36.000 C 85.870 36.000,85.600 36.180,85.600 36.400 C 85.600 36.620,85.265 36.800,84.856 36.800 C 84.447 36.800,83.774 37.250,83.361 37.800 C 82.948 38.350,82.280 38.800,81.876 38.800 C 81.152 38.800,80.000 39.676,80.000 40.227 C 80.000 40.653,78.679 41.573,78.047 41.587 C 77.743 41.594,76.900 42.230,76.174 43.000 C 75.448 43.770,74.662 44.400,74.427 44.400 C 74.192 44.400,74.000 44.670,74.000 45.000 C 74.000 45.333,73.644 45.600,73.200 45.600 C 72.760 45.600,72.400 45.780,72.400 46.000 C 72.400 46.220,72.207 46.400,71.971 46.400 C 71.418 46.400,70.400 47.418,70.400 47.971 C 70.400 48.207,70.207 48.400,69.971 48.400 C 69.505 48.400,68.400 49.385,68.400 49.800 C 68.400 50.293,67.252 51.200,66.629 51.200 C 65.942 51.200,62.800 54.154,62.800 54.800 C 62.800 55.020,62.612 55.200,62.382 55.200 C 61.839 55.200,60.000 57.039,60.000 57.582 C 60.000 57.812,59.807 58.000,59.571 58.000 C 59.018 58.000,58.000 59.018,58.000 59.571 C 58.000 59.807,57.812 60.000,57.582 60.000 C 57.039 60.000,55.200 61.839,55.200 62.382 C 55.200 62.612,55.020 62.800,54.800 62.800 C 54.154 62.800,51.200 65.942,51.200 66.629 C 51.200 67.252,50.293 68.400,49.800 68.400 C 49.385 68.400,48.400 69.505,48.400 69.971 C 48.400 70.207,48.207 70.400,47.971 70.400 C 47.418 70.400,46.400 71.418,46.400 71.971 C 46.400 72.207,46.220 72.400,46.000 72.400 C 45.780 72.400,45.600 72.760,45.600 73.200 C 45.600 73.644,45.333 74.000,45.000 74.000 C 44.670 74.000,44.400 74.192,44.400 74.427 C 44.400 74.662,43.770 75.448,43.000 76.174 C 42.230 76.900,41.594 77.743,41.587 78.047 C 41.573 78.679,40.653 80.000,40.227 80.000 C 39.676 80.000,38.800 81.152,38.800 81.876 C 38.800 82.280,38.350 82.948,37.800 83.361 C 37.250 83.774,36.800 84.447,36.800 84.856 C 36.800 85.265,36.620 85.600,36.400 85.600 C 36.180 85.600,36.000 85.870,36.000 86.200 C 36.000 86.530,35.730 86.800,35.400 86.800 C 35.067 86.800,34.800 87.156,34.800 87.600 C 34.800 88.040,34.620 88.400,34.400 88.400 C 34.180 88.400,34.000 88.670,34.000 89.000 C 34.000 89.330,33.820 89.600,33.600 89.600 C 33.380 89.600,33.200 90.061,33.200 90.624 C 33.200 91.187,33.052 91.556,32.871 91.444 C 32.388 91.145,31.200 92.681,31.200 93.605 C 31.200 94.042,31.007 94.400,30.771 94.400 C 30.066 94.400,29.200 95.486,29.200 96.371 C 29.200 96.827,29.020 97.200,28.800 97.200 C 28.580 97.200,28.400 97.650,28.400 98.200 C 28.400 98.750,28.207 99.200,27.971 99.200 C 27.266 99.200,26.400 100.286,26.400 101.171 C 26.400 101.641,26.140 102.000,25.800 102.000 C 25.427 102.000,25.200 102.378,25.200 103.000 C 25.200 103.550,25.020 104.000,24.800 104.000 C 24.580 104.000,24.400 104.360,24.400 104.800 C 24.400 105.240,24.220 105.600,24.000 105.600 C 23.780 105.600,23.600 106.031,23.600 106.557 C 23.600 107.084,23.330 107.618,23.000 107.745 C 22.670 107.871,22.400 108.341,22.400 108.787 C 22.400 109.234,22.220 109.600,22.000 109.600 C 21.780 109.600,21.600 110.050,21.600 110.600 C 21.600 111.222,21.373 111.600,21.000 111.600 C 20.627 111.600,20.400 111.978,20.400 112.600 C 20.400 113.150,20.220 113.600,20.000 113.600 C 19.780 113.600,19.600 113.960,19.600 114.400 C 19.600 114.840,19.420 115.200,19.200 115.200 C 18.980 115.200,18.800 115.631,18.800 116.157 C 18.800 116.684,18.530 117.218,18.200 117.345 C 17.870 117.471,17.600 117.941,17.600 118.387 C 17.600 118.834,17.420 119.200,17.200 119.200 C 16.980 119.200,16.800 119.650,16.800 120.200 C 16.800 120.822,16.573 121.200,16.200 121.200 C 15.867 121.200,15.600 121.556,15.600 122.000 C 15.600 122.440,15.420 122.800,15.200 122.800 C 14.980 122.800,14.800 123.520,14.800 124.400 C 14.800 125.280,14.620 126.000,14.400 126.000 C 14.180 126.000,14.000 126.630,14.000 127.400 C 14.000 128.378,13.819 128.800,13.400 128.800 C 13.027 128.800,12.800 129.178,12.800 129.800 C 12.800 130.350,12.620 130.800,12.400 130.800 C 12.180 130.800,12.000 131.430,12.000 132.200 C 12.000 132.970,11.820 133.600,11.600 133.600 C 11.380 133.600,11.200 134.230,11.200 135.000 C 11.200 135.978,11.019 136.400,10.600 136.400 C 10.181 136.400,10.000 136.822,10.000 137.800 C 10.000 138.570,9.820 139.200,9.600 139.200 C 9.380 139.200,9.200 139.830,9.200 140.600 C 9.200 141.578,9.019 142.000,8.600 142.000 C 8.147 142.000,8.000 142.489,8.000 144.000 C 8.000 145.100,7.820 146.000,7.600 146.000 C 7.380 146.000,7.200 146.630,7.200 147.400 C 7.200 148.170,7.020 148.800,6.800 148.800 C 6.580 148.800,6.400 149.700,6.400 150.800 C 6.400 152.311,6.253 152.800,5.800 152.800 C 5.356 152.800,5.200 153.267,5.200 154.600 C 5.200 155.590,5.020 156.400,4.800 156.400 C 4.578 156.400,4.400 157.467,4.400 158.800 C 4.400 160.667,4.267 161.200,3.800 161.200 C 3.320 161.200,3.200 161.800,3.200 164.200 C 3.200 165.933,3.031 167.200,2.800 167.200 C 2.571 167.200,2.400 168.400,2.400 170.000 C 2.400 171.600,2.229 172.800,2.000 172.800 C 1.761 172.800,1.600 174.333,1.600 176.600 C 1.600 179.711,1.491 180.400,1.000 180.400 C 0.475 180.400,0.400 182.889,0.400 200.400 C 0.400 217.911,0.475 220.400,1.000 220.400 C 1.497 220.400,1.600 221.156,1.600 224.800 C 1.600 227.467,1.758 229.200,2.000 229.200 C 2.229 229.200,2.400 230.400,2.400 232.000 C 2.400 233.600,2.571 234.800,2.800 234.800 C 3.031 234.800,3.200 236.067,3.200 237.800 C 3.200 240.200,3.320 240.800,3.800 240.800 C 4.260 240.800,4.400 241.308,4.400 242.976 C 4.400 244.173,4.580 245.264,4.800 245.400 C 5.020 245.536,5.200 246.447,5.200 247.424 C 5.200 248.736,5.357 249.200,5.800 249.200 C 6.253 249.200,6.400 249.689,6.400 251.200 C 6.400 252.300,6.580 253.200,6.800 253.200 C 7.020 253.200,7.200 253.830,7.200 254.600 C 7.200 255.370,7.380 256.000,7.600 256.000 C 7.820 256.000,8.000 256.791,8.000 257.757 C 8.000 258.950,8.193 259.588,8.600 259.745 C 8.977 259.889,9.200 260.501,9.200 261.387 C 9.200 262.164,9.380 262.800,9.600 262.800 C 9.820 262.800,10.000 263.430,10.000 264.200 C 10.000 265.178,10.181 265.600,10.600 265.600 C 11.019 265.600,11.200 266.022,11.200 267.000 C 11.200 267.770,11.380 268.400,11.600 268.400 C 11.820 268.400,12.000 269.030,12.000 269.800 C 12.000 270.570,12.180 271.200,12.400 271.200 C 12.620 271.200,12.800 271.566,12.800 272.013 C 12.800 272.459,13.070 272.929,13.400 273.055 C 13.770 273.197,14.000 273.805,14.000 274.643 C 14.000 275.389,14.180 276.000,14.400 276.000 C 14.620 276.000,14.800 276.630,14.800 277.400 C 14.800 278.170,14.980 278.800,15.200 278.800 C 15.420 278.800,15.600 279.166,15.600 279.613 C 15.600 280.059,15.870 280.529,16.200 280.655 C 16.530 280.782,16.800 281.316,16.800 281.843 C 16.800 282.369,16.980 282.800,17.200 282.800 C 17.420 282.800,17.600 283.250,17.600 283.800 C 17.600 284.422,17.827 284.800,18.200 284.800 C 18.619 284.800,18.800 285.222,18.800 286.200 C 18.800 286.970,18.980 287.600,19.200 287.600 C 19.420 287.600,19.600 288.050,19.600 288.600 C 19.600 289.150,19.780 289.600,20.000 289.600 C 20.220 289.600,20.400 289.876,20.400 290.213 C 20.400 290.549,20.670 290.929,21.000 291.055 C 21.330 291.182,21.600 291.716,21.600 292.243 C 21.600 292.769,21.780 293.200,22.000 293.200 C 22.220 293.200,22.400 293.650,22.400 294.200 C 22.400 294.822,22.627 295.200,23.000 295.200 C 23.358 295.200,23.600 295.568,23.600 296.112 C 23.600 296.613,23.960 297.283,24.400 297.600 C 24.840 297.917,25.200 298.587,25.200 299.088 L 25.200 300.000 15.800 300.000 C 6.646 300.000,6.400 300.021,6.400 300.805 C 6.400 301.612,10.064 305.600,10.805 305.600 C 11.022 305.600,11.200 305.788,11.200 306.018 C 11.200 306.560,13.273 308.631,13.685 308.500 C 13.858 308.445,14.000 308.593,14.000 308.829 C 14.000 309.382,15.018 310.400,15.571 310.400 C 15.807 310.400,15.955 310.542,15.900 310.715 C 15.769 311.127,17.840 313.200,18.382 313.200 C 18.612 313.200,18.800 313.378,18.800 313.595 C 18.800 314.117,22.674 318.000,23.195 318.000 C 23.418 318.000,23.600 318.189,23.600 318.419 C 23.600 318.965,27.435 322.800,27.981 322.800 C 28.211 322.800,28.400 322.982,28.400 323.205 C 28.400 323.726,32.283 327.600,32.805 327.600 C 33.022 327.600,33.200 327.792,33.200 328.027 C 33.200 328.262,34.055 329.279,35.100 330.287 C 36.248 331.395,36.802 332.188,36.500 332.293 C 36.225 332.389,36.000 332.722,36.000 333.033 C 36.000 333.345,35.807 333.600,35.571 333.600 C 35.105 333.600,34.000 334.585,34.000 335.000 C 34.000 335.334,32.934 336.400,32.600 336.400 C 32.185 336.400,31.200 337.505,31.200 337.971 C 31.200 338.207,30.996 338.400,30.747 338.400 C 30.268 338.400,28.401 340.389,28.400 340.900 C 28.400 341.065,28.207 341.200,27.971 341.200 C 27.418 341.200,26.400 342.218,26.400 342.771 C 26.400 343.007,26.207 343.200,25.971 343.200 C 25.407 343.200,24.400 344.222,24.400 344.795 C 24.400 345.044,24.220 345.136,24.000 345.000 C 23.780 344.864,23.600 345.033,23.600 345.376 C 23.600 345.719,23.407 346.000,23.171 346.000 C 22.618 346.000,21.600 347.018,21.600 347.571 C 21.600 347.807,21.465 348.000,21.300 348.000 C 20.789 348.001,18.800 349.868,18.800 350.347 C 18.800 350.596,18.607 350.800,18.371 350.800 C 17.818 350.800,16.800 351.818,16.800 352.371 C 16.800 352.607,16.665 352.800,16.500 352.800 C 15.989 352.801,14.000 354.668,14.000 355.147 C 14.000 355.396,13.807 355.600,13.571 355.600 C 13.105 355.600,12.000 356.585,12.000 357.000 C 12.000 357.334,10.934 358.400,10.600 358.400 C 10.185 358.400,9.200 359.505,9.200 359.971 C 9.200 360.207,9.007 360.400,8.771 360.400 C 8.218 360.400,7.200 361.418,7.200 361.971 C 7.200 362.207,7.020 362.400,6.800 362.400 C 6.580 362.400,6.400 362.760,6.400 363.200 C 6.400 363.992,6.667 364.000,34.000 364.000 C 58.810 364.000,61.600 364.063,61.600 364.628 C 61.600 365.050,61.895 365.214,62.500 365.128 C 63.395 365.001,63.401 364.958,63.508 356.900 C 63.568 352.445,63.748 348.806,63.908 348.813 C 64.444 348.836,65.600 349.882,65.600 350.344 C 65.600 350.595,65.962 350.800,66.405 350.800 C 67.212 350.800,71.200 354.464,71.200 355.205 C 71.200 355.422,71.470 355.600,71.800 355.600 C 72.130 355.600,72.400 355.780,72.400 356.000 C 72.400 356.220,72.741 356.400,73.157 356.400 C 73.574 356.400,74.022 356.681,74.154 357.025 C 74.286 357.369,74.576 357.539,74.797 357.402 C 75.019 357.265,75.200 357.356,75.200 357.605 C 75.200 358.178,76.207 359.200,76.771 359.200 C 77.007 359.200,77.200 359.470,77.200 359.800 C 77.200 360.133,77.556 360.400,78.000 360.400 C 78.440 360.400,78.800 360.580,78.800 360.800 C 78.800 361.020,78.993 361.200,79.229 361.200 C 79.782 361.200,80.800 362.218,80.800 362.771 C 80.800 363.007,81.207 363.200,81.705 363.200 C 82.204 363.200,82.947 363.649,83.361 364.200 C 83.774 364.750,84.447 365.200,84.856 365.200 C 85.265 365.200,85.600 365.380,85.600 365.600 C 85.600 365.820,85.793 366.000,86.029 366.000 C 86.582 366.000,87.600 367.018,87.600 367.571 C 87.600 367.807,87.973 368.000,88.429 368.000 C 89.314 368.000,90.400 368.866,90.400 369.571 C 90.400 369.807,90.850 370.000,91.400 370.000 C 91.950 370.000,92.400 370.180,92.400 370.400 C 92.400 370.620,92.773 370.800,93.229 370.800 C 94.114 370.800,95.200 371.666,95.200 372.371 C 95.200 372.607,95.650 372.800,96.200 372.800 C 96.750 372.800,97.200 372.980,97.200 373.200 C 97.200 373.420,97.650 373.600,98.200 373.600 C 98.750 373.600,99.200 373.793,99.200 374.029 C 99.200 374.734,100.286 375.600,101.171 375.600 C 101.627 375.600,102.000 375.780,102.000 376.000 C 102.000 376.220,102.450 376.400,103.000 376.400 C 103.622 376.400,104.000 376.627,104.000 377.000 C 104.000 377.333,104.356 377.600,104.800 377.600 C 105.240 377.600,105.600 377.780,105.600 378.000 C 105.600 378.220,106.050 378.400,106.600 378.400 C 107.222 378.400,107.600 378.627,107.600 379.000 C 107.600 379.337,107.957 379.600,108.417 379.600 C 108.866 379.600,109.620 379.960,110.092 380.400 C 110.564 380.840,111.277 381.200,111.675 381.200 C 112.074 381.200,112.400 381.470,112.400 381.800 C 112.400 382.173,112.778 382.400,113.400 382.400 C 113.950 382.400,114.400 382.580,114.400 382.800 C 114.400 383.020,115.011 383.200,115.757 383.200 C 116.595 383.200,117.203 383.430,117.345 383.800 C 117.471 384.130,117.941 384.400,118.387 384.400 C 118.834 384.400,119.200 384.580,119.200 384.800 C 119.200 385.020,119.650 385.200,120.200 385.200 C 120.750 385.200,121.200 385.380,121.200 385.600 C 121.200 385.820,121.830 386.000,122.600 386.000 C 123.578 386.000,124.000 386.181,124.000 386.600 C 124.000 386.973,124.378 387.200,125.000 387.200 C 125.550 387.200,126.000 387.380,126.000 387.600 C 126.000 387.820,126.630 388.000,127.400 388.000 C 128.170 388.000,128.800 388.180,128.800 388.400 C 128.800 388.620,129.250 388.800,129.800 388.800 C 130.422 388.800,130.800 389.027,130.800 389.400 C 130.800 389.819,131.222 390.000,132.200 390.000 C 132.970 390.000,133.600 390.180,133.600 390.400 C 133.600 390.620,134.230 390.800,135.000 390.800 C 135.978 390.800,136.400 390.981,136.400 391.400 C 136.400 391.819,136.822 392.000,137.800 392.000 C 138.570 392.000,139.200 392.180,139.200 392.400 C 139.200 392.620,139.830 392.800,140.600 392.800 C 141.370 392.800,142.000 392.980,142.000 393.200 C 142.000 393.420,142.900 393.600,144.000 393.600 C 145.511 393.600,146.000 393.747,146.000 394.200 C 146.000 394.644,146.467 394.800,147.800 394.800 C 148.790 394.800,149.600 394.980,149.600 395.200 C 149.600 395.420,150.320 395.600,151.200 395.600 C 152.356 395.600,152.800 395.767,152.800 396.200 C 152.800 396.667,153.333 396.800,155.200 396.800 C 156.533 396.800,157.600 396.978,157.600 397.200 C 157.600 397.420,158.410 397.600,159.400 397.600 C 160.390 397.600,161.200 397.780,161.200 398.000 C 161.200 398.227,162.352 398.400,163.856 398.400 C 165.924 398.400,166.625 398.555,167.023 399.100 C 168.035 400.483,234.800 400.344,234.800 398.958 C 234.800 398.530,235.499 398.400,237.800 398.400 C 239.533 398.400,240.800 398.231,240.800 398.000 C 240.800 397.780,241.610 397.600,242.600 397.600 C 243.590 397.600,244.400 397.420,244.400 397.200 C 244.400 396.980,245.300 396.800,246.400 396.800 C 247.911 396.800,248.400 396.653,248.400 396.200 C 248.400 395.733,248.933 395.600,250.800 395.600 C 252.133 395.600,253.200 395.422,253.200 395.200 C 253.200 394.980,253.830 394.800,254.600 394.800 C 255.578 394.800,256.000 394.619,256.000 394.200 C 256.000 393.781,256.422 393.600,257.400 393.600 C 258.170 393.600,258.800 393.420,258.800 393.200 C 258.800 392.980,259.599 392.800,260.576 392.800 C 261.553 392.800,262.464 392.620,262.600 392.400 C 262.736 392.180,263.382 392.000,264.036 392.000 C 264.724 392.000,265.322 391.747,265.455 391.400 C 265.597 391.030,266.205 390.800,267.043 390.800 C 267.789 390.800,268.400 390.620,268.400 390.400 C 268.400 390.180,269.030 390.000,269.800 390.000 C 270.778 390.000,271.200 389.819,271.200 389.400 C 271.200 389.027,271.578 388.800,272.200 388.800 C 272.750 388.800,273.200 388.620,273.200 388.400 C 273.200 388.180,273.830 388.000,274.600 388.000 C 275.370 388.000,276.000 387.820,276.000 387.600 C 276.000 387.380,276.450 387.200,277.000 387.200 C 277.622 387.200,278.000 386.973,278.000 386.600 C 278.000 386.181,278.422 386.000,279.400 386.000 C 280.170 386.000,280.800 385.820,280.800 385.600 C 280.800 385.380,281.173 385.200,281.629 385.200 C 282.084 385.200,282.729 384.928,283.061 384.596 C 283.393 384.264,283.831 384.096,284.035 384.222 C 284.239 384.348,284.514 384.169,284.646 383.825 C 284.798 383.428,285.381 383.200,286.243 383.200 C 286.989 383.200,287.600 383.020,287.600 382.800 C 287.600 382.580,287.966 382.400,288.413 382.400 C 288.859 382.400,289.329 382.130,289.455 381.800 C 289.582 381.470,290.026 381.200,290.443 381.200 C 290.859 381.200,291.200 381.020,291.200 380.800 C 291.200 380.580,291.470 380.400,291.800 380.400 C 292.130 380.400,292.400 380.220,292.400 380.000 C 292.400 379.780,292.766 379.600,293.213 379.600 C 293.659 379.600,294.129 379.330,294.255 379.000 C 294.382 378.670,294.826 378.400,295.243 378.400 C 295.659 378.400,296.000 378.220,296.000 378.000 C 296.000 377.780,296.450 377.600,297.000 377.600 C 297.622 377.600,298.000 377.373,298.000 377.000 C 298.000 376.627,298.378 376.400,299.000 376.400 C 299.550 376.400,300.000 376.220,300.000 376.000 C 300.000 375.780,300.373 375.600,300.829 375.600 C 301.714 375.600,302.800 374.734,302.800 374.029 C 302.800 373.793,303.250 373.600,303.800 373.600 C 304.350 373.600,304.800 373.420,304.800 373.200 C 304.800 372.980,305.135 372.800,305.544 372.800 C 305.953 372.800,306.626 372.350,307.039 371.800 C 307.453 371.249,308.196 370.800,308.695 370.800 C 309.193 370.800,309.600 370.620,309.600 370.400 C 309.600 370.180,309.935 370.000,310.344 370.000 C 310.753 370.000,311.426 369.550,311.839 369.000 C 312.253 368.449,312.996 368.000,313.495 368.000 C 313.993 368.000,314.400 367.807,314.400 367.571 C 314.400 367.018,315.418 366.000,315.971 366.000 C 316.207 366.000,316.400 365.820,316.400 365.600 C 316.400 365.380,316.760 365.200,317.200 365.200 C 317.644 365.200,318.000 364.933,318.000 364.600 C 318.000 364.270,318.270 364.000,318.600 364.000 C 318.930 364.000,319.200 363.820,319.200 363.600 C 319.200 363.380,319.650 363.200,320.200 363.200 C 320.750 363.200,321.200 363.012,321.200 362.782 C 321.200 362.191,323.060 360.401,323.682 360.393 C 323.967 360.389,324.624 359.939,325.142 359.393 C 325.660 358.847,326.215 358.400,326.374 358.400 C 326.534 358.400,326.906 357.950,327.200 357.400 C 327.494 356.850,328.081 356.400,328.503 356.400 C 328.926 356.400,330.512 355.140,332.027 353.600 C 335.740 349.828,335.600 349.655,335.600 358.000 C 335.600 364.933,335.630 365.200,336.400 365.200 C 336.844 365.200,337.200 364.933,337.200 364.600 C 337.200 364.072,340.600 364.000,365.400 364.000 C 393.333 364.000,393.600 363.992,393.600 363.200 C 393.600 362.760,393.420 362.400,393.200 362.400 C 392.980 362.400,392.800 362.207,392.800 361.971 C 392.800 361.418,391.782 360.400,391.229 360.400 C 390.993 360.400,390.800 360.207,390.800 359.971 C 390.800 359.505,389.815 358.400,389.400 358.400 C 389.066 358.400,388.000 357.334,388.000 357.000 C 388.000 356.585,386.895 355.600,386.429 355.600 C 386.193 355.600,386.000 355.396,386.000 355.147 C 386.000 354.668,384.011 352.801,383.500 352.800 C 383.335 352.800,383.200 352.607,383.200 352.371 C 383.200 351.818,382.182 350.800,381.629 350.800 C 381.393 350.800,381.200 350.596,381.200 350.347 C 381.200 349.868,379.211 348.001,378.700 348.000 C 378.535 348.000,378.400 347.807,378.400 347.571 C 378.400 347.018,377.382 346.000,376.829 346.000 C 376.593 346.000,376.400 345.719,376.400 345.376 C 376.400 345.033,376.220 344.864,376.000 345.000 C 375.780 345.136,375.600 345.044,375.600 344.795 C 375.600 344.222,374.593 343.200,374.029 343.200 C 373.793 343.200,373.600 343.007,373.600 342.771 C 373.600 342.218,372.582 341.200,372.029 341.200 C 371.793 341.200,371.600 341.065,371.600 340.900 C 371.599 340.389,369.732 338.400,369.253 338.400 C 369.004 338.400,368.800 338.207,368.800 337.971 C 368.800 337.505,367.815 336.400,367.400 336.400 C 367.066 336.400,366.000 335.334,366.000 335.000 C 366.000 334.585,364.895 333.600,364.429 333.600 C 364.193 333.600,364.000 333.345,364.000 333.033 C 364.000 332.722,363.775 332.389,363.500 332.293 C 363.198 332.188,363.752 331.395,364.900 330.287 C 365.945 329.279,366.800 328.262,366.800 328.027 C 366.800 327.792,366.978 327.600,367.195 327.600 C 367.717 327.600,371.600 323.726,371.600 323.205 C 371.600 322.982,371.789 322.800,372.019 322.800 C 372.565 322.800,376.400 318.965,376.400 318.419 C 376.400 318.189,376.582 318.000,376.805 318.000 C 377.326 318.000,381.200 314.117,381.200 313.595 C 381.200 313.378,381.388 313.200,381.618 313.200 C 382.160 313.200,384.231 311.127,384.100 310.715 C 384.045 310.542,384.193 310.400,384.429 310.400 C 384.982 310.400,386.000 309.382,386.000 308.829 C 386.000 308.593,386.142 308.445,386.315 308.500 C 386.727 308.631,388.800 306.560,388.800 306.018 C 388.800 305.788,388.978 305.600,389.195 305.600 C 389.936 305.600,393.600 301.612,393.600 300.805 C 393.600 300.023,393.352 300.000,385.000 300.000 L 376.400 300.000 376.400 299.000 C 376.400 298.378,376.627 298.000,377.000 298.000 C 377.373 298.000,377.600 297.622,377.600 297.000 C 377.600 296.450,377.780 296.000,378.000 296.000 C 378.220 296.000,378.400 295.659,378.400 295.243 C 378.400 294.826,378.670 294.382,379.000 294.255 C 379.330 294.129,379.600 293.659,379.600 293.213 C 379.600 292.766,379.780 292.400,380.000 292.400 C 380.220 292.400,380.400 292.130,380.400 291.800 C 380.400 291.470,380.580 291.200,380.800 291.200 C 381.020 291.200,381.200 290.840,381.200 290.400 C 381.200 289.956,381.467 289.600,381.800 289.600 C 382.173 289.600,382.400 289.222,382.400 288.600 C 382.400 288.050,382.580 287.600,382.800 287.600 C 383.020 287.600,383.200 286.989,383.200 286.243 C 383.200 285.381,383.428 284.798,383.825 284.646 C 384.169 284.514,384.348 284.239,384.222 284.035 C 384.096 283.831,384.264 283.393,384.596 283.061 C 384.928 282.729,385.200 282.084,385.200 281.629 C 385.200 281.173,385.380 280.800,385.600 280.800 C 385.820 280.800,386.000 280.350,386.000 279.800 C 386.000 279.178,386.227 278.800,386.600 278.800 C 387.019 278.800,387.200 278.378,387.200 277.400 C 387.200 276.630,387.380 276.000,387.600 276.000 C 387.820 276.000,388.000 275.370,388.000 274.600 C 388.000 273.830,388.180 273.200,388.400 273.200 C 388.620 273.200,388.800 272.750,388.800 272.200 C 388.800 271.578,389.027 271.200,389.400 271.200 C 389.819 271.200,390.000 270.778,390.000 269.800 C 390.000 269.030,390.180 268.400,390.400 268.400 C 390.620 268.400,390.800 267.789,390.800 267.043 C 390.800 266.205,391.030 265.597,391.400 265.455 C 391.747 265.322,392.000 264.724,392.000 264.036 C 392.000 263.382,392.180 262.736,392.400 262.600 C 392.620 262.464,392.800 261.834,392.800 261.200 C 392.800 260.566,392.980 259.936,393.200 259.800 C 393.420 259.664,393.600 258.753,393.600 257.776 C 393.600 256.464,393.757 256.000,394.200 256.000 C 394.619 256.000,394.800 255.578,394.800 254.600 C 394.800 253.830,394.980 253.200,395.200 253.200 C 395.420 253.200,395.600 252.300,395.600 251.200 C 395.600 249.689,395.747 249.200,396.200 249.200 C 396.644 249.200,396.800 248.733,396.800 247.400 C 396.800 246.410,396.980 245.600,397.200 245.600 C 397.422 245.600,397.600 244.533,397.600 243.200 C 397.600 241.867,397.778 240.800,398.000 240.800 C 398.231 240.800,398.400 239.533,398.400 237.800 C 398.400 235.499,398.530 234.800,398.958 234.800 C 400.344 234.800,400.483 168.035,399.100 167.023 C 398.555 166.625,398.400 165.924,398.400 163.856 C 398.400 162.352,398.227 161.200,398.000 161.200 C 397.780 161.200,397.600 160.390,397.600 159.400 C 397.600 158.410,397.420 157.600,397.200 157.600 C 396.978 157.600,396.800 156.533,396.800 155.200 C 396.800 153.333,396.667 152.800,396.200 152.800 C 395.747 152.800,395.600 152.311,395.600 150.800 C 395.600 149.700,395.420 148.800,395.200 148.800 C 394.980 148.800,394.800 148.170,394.800 147.400 C 394.800 146.422,394.619 146.000,394.200 146.000 C 393.747 146.000,393.600 145.511,393.600 144.000 C 393.600 142.900,393.420 142.000,393.200 142.000 C 392.980 142.000,392.800 141.370,392.800 140.600 C 392.800 139.830,392.620 139.200,392.400 139.200 C 392.180 139.200,392.000 138.570,392.000 137.800 C 392.000 136.822,391.819 136.400,391.400 136.400 C 390.981 136.400,390.800 135.978,390.800 135.000 C 390.800 134.230,390.620 133.600,390.400 133.600 C 390.180 133.600,390.000 132.970,390.000 132.200 C 390.000 131.222,389.819 130.800,389.400 130.800 C 389.027 130.800,388.800 130.422,388.800 129.800 C 388.800 129.250,388.620 128.800,388.400 128.800 C 388.180 128.800,388.000 128.170,388.000 127.400 C 388.000 126.630,387.820 126.000,387.600 126.000 C 387.380 126.000,387.200 125.364,387.200 124.587 C 387.200 123.701,386.977 123.089,386.600 122.945 C 386.270 122.818,386.000 122.374,386.000 121.957 C 386.000 121.541,385.820 121.200,385.600 121.200 C 385.380 121.200,385.200 120.750,385.200 120.200 C 385.200 119.650,385.020 119.200,384.800 119.200 C 384.580 119.200,384.400 118.834,384.400 118.387 C 384.400 117.941,384.130 117.471,383.800 117.345 C 383.430 117.203,383.200 116.595,383.200 115.757 C 383.200 115.011,383.020 114.400,382.800 114.400 C 382.580 114.400,382.400 113.950,382.400 113.400 C 382.400 112.778,382.173 112.400,381.800 112.400 C 381.470 112.400,381.200 112.051,381.200 111.624 C 381.200 111.197,381.020 110.736,380.800 110.600 C 380.580 110.464,380.400 110.003,380.400 109.576 C 380.400 109.149,380.240 108.800,380.043 108.800 C 379.847 108.800,379.574 108.350,379.436 107.800 C 379.298 107.250,379.008 106.800,378.792 106.800 C 378.577 106.800,378.400 106.530,378.400 106.200 C 378.400 105.870,378.220 105.600,378.000 105.600 C 377.780 105.600,377.600 105.240,377.600 104.800 C 377.600 104.356,377.333 104.000,377.000 104.000 C 376.627 104.000,376.400 103.622,376.400 103.000 C 376.400 102.450,376.220 102.000,376.000 102.000 C 375.780 102.000,375.600 101.627,375.600 101.171 C 375.600 100.286,374.734 99.200,374.029 99.200 C 373.793 99.200,373.600 98.750,373.600 98.200 C 373.600 97.650,373.420 97.200,373.200 97.200 C 372.980 97.200,372.800 96.750,372.800 96.200 C 372.800 95.650,372.607 95.200,372.371 95.200 C 371.724 95.200,370.800 94.142,370.800 93.400 C 370.800 92.658,369.876 91.600,369.229 91.600 C 368.993 91.600,368.800 91.150,368.800 90.600 C 368.800 90.050,368.620 89.600,368.400 89.600 C 368.180 89.600,368.000 89.330,368.000 89.000 C 368.000 88.670,367.730 88.400,367.400 88.400 C 367.067 88.400,366.800 88.044,366.800 87.600 C 366.800 87.160,366.620 86.800,366.400 86.800 C 366.180 86.800,366.000 86.530,366.000 86.200 C 366.000 85.870,365.820 85.600,365.600 85.600 C 365.380 85.600,365.200 85.265,365.200 84.856 C 365.200 84.447,364.750 83.774,364.200 83.361 C 363.649 82.947,363.200 82.204,363.200 81.705 C 363.200 81.207,363.007 80.800,362.771 80.800 C 362.305 80.800,361.200 79.815,361.200 79.400 C 361.200 78.985,360.095 78.000,359.629 78.000 C 359.393 78.000,359.200 77.627,359.200 77.171 C 359.200 76.273,358.332 75.200,357.605 75.200 C 357.356 75.200,357.265 75.019,357.402 74.797 C 357.539 74.576,357.369 74.286,357.025 74.154 C 356.681 74.022,356.400 73.574,356.400 73.157 C 356.400 72.741,356.220 72.400,356.000 72.400 C 355.780 72.400,355.600 72.130,355.600 71.800 C 355.600 71.470,355.422 71.200,355.205 71.200 C 354.464 71.200,350.800 67.212,350.800 66.405 C 350.800 65.956,350.535 65.600,350.200 65.600 C 349.870 65.600,349.600 65.465,349.600 65.300 C 349.599 64.789,347.732 62.800,347.253 62.800 C 347.004 62.800,346.800 62.607,346.800 62.371 C 346.800 61.905,345.815 60.800,345.400 60.800 C 345.066 60.800,344.000 59.734,344.000 59.400 C 344.000 58.985,342.895 58.000,342.429 58.000 C 342.193 58.000,342.000 57.807,342.000 57.571 C 342.000 57.105,341.015 56.000,340.600 56.000 C 340.266 56.000,339.200 54.934,339.200 54.600 C 339.200 54.185,338.095 53.200,337.629 53.200 C 337.393 53.200,337.200 53.007,337.200 52.771 C 337.200 52.124,336.142 51.200,335.400 51.200 C 334.658 51.200,333.600 50.276,333.600 49.629 C 333.600 49.393,333.408 49.200,333.173 49.200 C 332.938 49.200,331.969 48.390,331.021 47.400 C 330.039 46.375,328.931 45.600,328.448 45.600 C 327.982 45.600,327.600 45.412,327.600 45.182 C 327.600 44.640,325.527 42.569,325.115 42.700 C 324.942 42.755,324.800 42.530,324.800 42.200 C 324.800 41.860,324.441 41.600,323.971 41.600 C 323.187 41.600,322.000 40.757,322.000 40.200 C 322.000 39.643,320.813 38.800,320.029 38.800 C 319.573 38.800,319.200 38.620,319.200 38.400 C 319.200 38.180,318.930 38.000,318.600 38.000 C 318.270 38.000,318.000 37.730,318.000 37.400 C 318.000 37.067,317.644 36.800,317.200 36.800 C 316.760 36.800,316.400 36.620,316.400 36.400 C 316.400 36.180,316.130 36.000,315.800 36.000 C 315.470 36.000,315.200 35.807,315.200 35.571 C 315.200 34.924,314.142 34.000,313.400 34.000 C 312.658 34.000,311.600 33.076,311.600 32.429 C 311.600 32.193,311.150 32.000,310.600 32.000 C 310.050 32.000,309.600 31.820,309.600 31.600 C 309.600 31.380,309.150 31.200,308.600 31.200 C 308.050 31.200,307.600 31.007,307.600 30.771 C 307.600 30.066,306.514 29.200,305.629 29.200 C 305.173 29.200,304.800 29.020,304.800 28.800 C 304.800 28.580,304.350 28.400,303.800 28.400 C 303.250 28.400,302.800 28.207,302.800 27.971 C 302.800 27.266,301.714 26.400,300.829 26.400 C 300.359 26.400,300.000 26.140,300.000 25.800 C 300.000 25.427,299.622 25.200,299.000 25.200 C 298.450 25.200,298.000 25.020,298.000 24.800 C 298.000 24.580,297.550 24.400,297.000 24.400 C 296.450 24.400,296.000 24.220,296.000 24.000 C 296.000 23.780,295.640 23.600,295.200 23.600 C 294.756 23.600,294.400 23.333,294.400 23.000 C 294.400 22.627,294.022 22.400,293.400 22.400 C 292.850 22.400,292.400 22.220,292.400 22.000 C 292.400 21.780,291.950 21.600,291.400 21.600 C 290.850 21.600,290.400 21.368,290.400 21.085 C 290.400 20.802,289.998 20.540,289.506 20.503 C 289.014 20.466,288.549 20.248,288.473 20.018 C 288.396 19.788,287.898 19.600,287.367 19.600 C 286.835 19.600,286.400 19.420,286.400 19.200 C 286.400 18.980,286.040 18.800,285.600 18.800 C 285.156 18.800,284.800 18.533,284.800 18.200 C 284.800 17.827,284.422 17.600,283.800 17.600 C 283.250 17.600,282.800 17.420,282.800 17.200 C 282.800 16.980,282.369 16.800,281.843 16.800 C 281.316 16.800,280.782 16.530,280.655 16.200 C 280.521 15.849,279.921 15.600,279.213 15.600 C 278.546 15.600,278.000 15.420,278.000 15.200 C 278.000 14.980,277.550 14.800,277.000 14.800 C 276.450 14.800,276.000 14.620,276.000 14.400 C 276.000 14.180,275.389 14.000,274.643 14.000 C 273.805 14.000,273.197 13.770,273.055 13.400 C 272.929 13.070,272.459 12.800,272.013 12.800 C 271.566 12.800,271.200 12.620,271.200 12.400 C 271.200 12.180,270.570 12.000,269.800 12.000 C 269.030 12.000,268.400 11.820,268.400 11.600 C 268.400 11.380,267.770 11.200,267.000 11.200 C 266.022 11.200,265.600 11.019,265.600 10.600 C 265.600 10.181,265.178 10.000,264.200 10.000 C 263.430 10.000,262.800 9.820,262.800 9.600 C 262.800 9.380,262.164 9.200,261.387 9.200 C 260.501 9.200,259.889 8.977,259.745 8.600 C 259.588 8.193,258.950 8.000,257.757 8.000 C 256.791 8.000,256.000 7.820,256.000 7.600 C 256.000 7.380,255.370 7.200,254.600 7.200 C 253.830 7.200,253.200 7.020,253.200 6.800 C 253.200 6.580,252.300 6.400,251.200 6.400 C 249.689 6.400,249.200 6.253,249.200 5.800 C 249.200 5.333,248.667 5.200,246.800 5.200 C 245.467 5.200,244.400 5.022,244.400 4.800 C 244.400 4.580,243.590 4.400,242.600 4.400 C 241.267 4.400,240.800 4.244,240.800 3.800 C 240.800 3.347,240.311 3.200,238.800 3.200 C 237.700 3.200,236.800 3.020,236.800 2.800 C 236.800 2.561,235.267 2.400,233.000 2.400 C 230.733 2.400,229.200 2.239,229.200 2.000 C 229.200 1.758,227.467 1.600,224.800 1.600 C 221.156 1.600,220.400 1.497,220.400 1.000 C 220.400 0.475,217.956 0.400,200.800 0.400 C 183.644 0.400,181.200 0.475,181.200 1.000 M200.239 132.245 C 201.139 132.672,202.715 134.379,204.899 137.291 C 209.830 143.865,210.740 145.072,219.050 156.073 C 226.767 166.289,227.239 167.081,229.613 173.800 C 230.001 174.900,230.839 177.150,231.474 178.800 L 232.628 181.800 242.614 182.000 C 253.219 182.212,254.082 182.361,255.546 184.222 C 258.436 187.896,256.802 193.539,252.479 194.818 C 251.508 195.106,246.925 195.212,239.128 195.128 C 223.981 194.965,225.142 195.646,221.000 184.483 C 219.680 180.925,218.360 177.920,218.066 177.806 C 217.600 177.625,214.814 179.659,205.199 187.200 C 203.937 188.190,202.206 189.537,201.352 190.193 C 198.253 192.576,196.000 194.532,196.000 194.840 C 196.000 195.013,198.642 199.440,201.872 204.677 C 205.102 209.915,208.790 215.901,210.069 217.979 C 215.134 226.215,213.609 229.221,202.942 232.020 C 200.334 232.704,196.220 233.796,193.800 234.447 C 187.951 236.019,178.358 238.562,173.360 239.864 C 167.735 241.330,164.802 240.064,163.616 235.659 C 162.293 230.745,164.577 228.623,173.817 226.187 C 176.887 225.377,181.020 224.276,183.000 223.740 C 184.980 223.204,188.219 222.358,190.199 221.860 C 195.051 220.641,195.064 220.703,188.525 213.893 C 171.426 196.087,170.964 195.471,171.036 190.535 C 171.084 187.276,172.421 184.587,175.687 181.179 C 195.276 160.741,201.600 153.984,201.600 153.493 C 201.600 153.055,196.636 146.294,195.428 145.085 C 194.814 144.471,193.587 144.400,183.671 144.399 C 173.329 144.397,172.514 144.345,171.296 143.602 C 167.420 141.239,167.137 135.759,170.739 132.790 L 172.182 131.600 185.531 131.600 C 196.984 131.600,199.072 131.692,200.239 132.245 M243.818 137.222 C 255.604 142.781,252.199 162.280,239.296 163.117 C 226.248 163.964,221.429 144.202,233.026 137.406 C 236.533 135.351,239.735 135.296,243.818 137.222 M174.752 157.243 C 177.306 158.134,178.010 161.651,176.031 163.631 L 174.862 164.800 158.237 164.800 L 141.613 164.800 140.369 163.689 C 138.324 161.862,138.864 158.195,141.323 157.204 C 142.654 156.668,173.205 156.704,174.752 157.243 M160.778 173.307 C 163.390 174.629,163.673 178.140,161.317 179.994 C 160.327 180.773,159.729 180.800,143.715 180.800 L 127.138 180.800 125.969 179.631 C 125.052 178.714,124.800 178.103,124.800 176.800 C 124.800 175.497,125.052 174.886,125.969 173.969 L 127.138 172.800 143.469 172.806 C 155.642 172.810,160.049 172.938,160.778 173.307 M146.562 189.255 C 148.989 190.361,149.308 193.965,147.140 195.789 L 145.939 196.800 129.788 196.800 C 112.430 196.800,112.011 196.754,110.970 194.742 C 110.065 192.992,110.261 191.433,111.560 190.042 L 112.721 188.800 129.142 188.800 C 140.569 188.800,145.866 188.938,146.562 189.255 M163.727 195.322 C 164.087 197.946,166.058 201.947,168.343 204.694 C 169.475 206.053,170.400 207.438,170.400 207.772 C 170.400 208.262,160.952 216.709,152.248 224.000 C 151.329 224.770,146.840 228.640,142.274 232.600 C 131.295 242.121,129.347 243.586,127.660 243.594 C 123.391 243.613,120.293 239.233,121.285 234.579 C 121.740 232.448,121.556 232.649,132.985 221.788 C 137.376 217.615,143.406 211.845,146.385 208.968 C 156.265 199.421,162.571 193.600,163.034 193.600 C 163.286 193.600,163.597 194.375,163.727 195.322 M351.400 311.000 L 351.400 341.800 199.600 341.800 L 47.800 341.800 47.697 311.400 C 47.640 294.680,47.679 280.775,47.784 280.499 C 47.937 280.100,78.528 280.019,199.688 280.099 L 351.400 280.200 351.400 311.000 M185.111 294.700 C 185.512 294.983,185.598 297.837,185.511 307.911 C 185.450 314.978,185.538 320.623,185.706 320.455 C 186.347 319.813,185.857 294.682,185.200 294.503 C 184.745 294.379,184.723 294.426,185.111 294.700 M87.300 295.487 C 87.905 295.578,88.895 295.578,89.500 295.487 C 90.105 295.395,89.610 295.320,88.400 295.320 C 87.190 295.320,86.695 295.395,87.300 295.487 M202.500 295.897 C 203.985 295.974,206.415 295.974,207.900 295.897 C 209.385 295.820,208.170 295.757,205.200 295.757 C 202.230 295.757,201.015 295.820,202.500 295.897 M87.700 301.476 C 88.085 301.576,88.715 301.576,89.100 301.476 C 89.485 301.375,89.170 301.293,88.400 301.293 C 87.630 301.293,87.315 301.375,87.700 301.476 M101.900 301.632 C 101.515 301.856,101.200 302.224,101.200 302.448 C 101.200 302.673,101.483 302.574,101.829 302.229 C 102.598 301.459,106.380 301.368,107.201 302.100 C 107.678 302.525,107.682 302.496,107.232 301.900 C 106.630 301.105,103.109 300.928,101.900 301.632 M224.707 301.490 C 225.426 301.579,226.506 301.577,227.107 301.486 C 227.708 301.395,227.120 301.322,225.800 301.324 C 224.480 301.326,223.988 301.401,224.707 301.490 M235.462 301.500 C 235.360 301.665,236.114 301.746,237.138 301.680 C 240.059 301.493,240.414 301.297,237.924 301.246 C 236.672 301.221,235.564 301.335,235.462 301.500 M246.400 301.427 C 247.744 301.727,250.711 301.780,250.538 301.500 C 250.436 301.335,249.328 301.221,248.076 301.246 C 246.824 301.272,246.070 301.353,246.400 301.427 M267.376 301.822 C 266.637 302.414,266.645 302.422,267.539 301.987 C 268.055 301.736,269.433 301.591,270.601 301.665 C 271.770 301.739,272.642 301.665,272.539 301.500 C 272.185 300.930,268.178 301.180,267.376 301.822 M311.376 301.822 C 310.626 302.423,310.630 302.430,311.474 302.022 C 312.941 301.313,316.296 301.489,316.768 302.300 C 316.992 302.685,317.181 302.811,317.188 302.580 C 317.229 301.166,312.900 300.602,311.376 301.822 M228.959 308.000 C 228.959 311.190,229.021 312.495,229.097 310.900 C 229.173 309.305,229.173 306.695,229.097 305.100 C 229.021 303.505,228.959 304.810,228.959 308.000 M117.600 302.925 C 117.600 302.994,118.185 303.579,118.900 304.225 L 120.200 305.400 119.025 304.100 C 117.930 302.888,117.600 302.616,117.600 302.925 M241.370 311.400 C 241.371 316.240,241.429 318.165,241.499 315.678 C 241.569 313.191,241.569 309.231,241.498 306.878 C 241.428 304.525,241.370 306.560,241.370 311.400 M44.304 324.300 L 44.407 345.200 52.433 345.200 C 59.861 345.200,60.449 345.252,60.324 345.900 C 60.203 346.529,59.493 346.611,53.295 346.709 L 46.400 346.819 46.400 347.810 C 46.400 348.553,47.814 350.207,52.039 354.411 C 55.758 358.110,57.601 360.221,57.451 360.610 C 57.107 361.508,15.690 361.499,15.345 360.601 C 15.189 360.193,19.404 355.719,28.558 346.574 C 39.550 335.593,42.000 332.950,42.000 332.071 C 42.000 331.192,39.555 328.551,28.600 317.600 C 21.230 310.232,15.200 303.976,15.200 303.697 C 15.200 303.295,18.201 303.212,29.700 303.295 L 44.200 303.400 44.304 324.300 M384.967 303.546 C 385.084 303.736,379.155 309.928,371.790 317.306 C 359.388 329.730,358.400 330.821,358.400 332.098 C 358.400 333.375,359.385 334.463,371.741 346.839 C 379.078 354.187,385.003 360.425,384.907 360.700 C 384.620 361.524,342.859 361.420,342.542 360.594 C 342.385 360.184,344.009 358.302,347.555 354.785 C 352.279 350.099,352.800 349.443,352.800 348.191 L 352.800 346.800 346.243 346.800 C 340.986 346.800,339.643 346.689,339.470 346.239 C 339.098 345.268,339.571 345.200,346.667 345.200 L 353.600 345.200 353.600 324.200 L 353.600 303.200 369.176 303.200 C 377.743 303.200,384.849 303.356,384.967 303.546 M263.364 313.800 C 263.363 317.540,263.423 319.124,263.497 317.320 C 263.571 315.515,263.572 312.455,263.498 310.520 C 263.425 308.584,263.364 310.060,263.364 313.800 M285.293 308.400 C 285.293 309.170,285.375 309.485,285.476 309.100 C 285.576 308.715,285.576 308.085,285.476 307.700 C 285.375 307.315,285.293 307.630,285.293 308.400 M320.100 307.476 C 320.485 307.576,321.115 307.576,321.500 307.476 C 321.885 307.375,321.570 307.293,320.800 307.293 C 320.030 307.293,319.715 307.375,320.100 307.476 M207.091 307.889 C 207.801 307.977,209.061 307.979,209.891 307.892 C 210.721 307.805,210.140 307.733,208.600 307.731 C 207.060 307.729,206.381 307.800,207.091 307.889 M165.324 311.000 C 165.326 312.320,165.401 312.812,165.490 312.093 C 165.579 311.374,165.577 310.294,165.486 309.693 C 165.395 309.092,165.322 309.680,165.324 311.000 M287.709 311.200 C 287.709 312.190,287.787 312.595,287.882 312.100 C 287.978 311.605,287.978 310.795,287.882 310.300 C 287.787 309.805,287.709 310.210,287.709 311.200 M98.368 313.700 C 98.249 314.560,98.310 315.050,98.512 314.848 C 98.705 314.655,98.798 313.981,98.719 313.349 C 98.587 312.291,98.559 312.319,98.368 313.700 M136.609 313.500 C 133.314 313.567,130.487 313.752,130.328 313.911 C 130.168 314.070,132.774 314.146,136.119 314.079 C 139.463 314.013,142.371 313.788,142.580 313.579 C 142.789 313.371,142.879 313.240,142.780 313.288 C 142.681 313.337,139.904 313.432,136.609 313.500 M151.376 314.038 C 151.227 314.279,151.396 314.730,151.751 315.040 C 152.106 315.349,152.218 315.386,151.999 315.121 C 151.183 314.137,151.736 314.018,157.700 313.899 L 163.800 313.778 157.724 313.689 C 153.659 313.629,151.558 313.745,151.376 314.038 M298.100 313.897 C 299.805 313.972,302.595 313.972,304.300 313.897 C 306.005 313.822,304.610 313.761,301.200 313.761 C 297.790 313.761,296.395 313.822,298.100 313.897 " stroke="none" fill="#548374" fill-rule="evenodd"></path><path id="path2" d="M47.784 280.499 C 47.679 280.775,47.640 294.680,47.697 311.400 L 47.800 341.800 199.600 341.800 L 351.400 341.800 351.400 311.000 L 351.400 280.200 199.688 280.099 C 78.528 280.019,47.937 280.100,47.784 280.499 M185.800 307.600 L 185.800 320.600 182.700 320.717 C 180.077 320.816,179.600 320.735,179.600 320.194 C 179.600 319.617,179.474 319.620,178.300 320.235 C 175.905 321.487,175.615 321.600,174.799 321.600 C 166.226 321.600,161.950 308.275,168.878 303.151 C 172.298 300.621,177.733 300.476,179.254 302.874 C 179.445 303.174,179.590 301.585,179.594 299.167 C 179.601 294.130,179.450 294.339,182.983 294.484 L 185.800 294.600 185.800 307.600 M92.542 295.982 C 92.772 296.212,93.256 296.400,93.619 296.400 C 94.542 296.400,96.538 297.447,97.373 298.371 C 98.082 299.154,97.279 301.600,96.314 301.600 C 96.141 301.600,96.000 301.827,96.000 302.104 C 96.000 303.397,94.434 303.652,92.899 302.609 C 90.642 301.075,86.400 301.106,86.400 302.656 C 86.400 303.825,87.371 304.766,88.600 304.790 C 89.040 304.798,89.916 305.074,90.546 305.402 C 91.176 305.731,91.896 305.997,92.146 305.994 C 94.234 305.965,98.000 309.274,98.000 311.138 C 98.000 311.586,98.180 312.064,98.400 312.200 C 98.620 312.336,98.800 312.966,98.800 313.600 C 98.800 314.234,98.620 314.864,98.400 315.000 C 98.180 315.136,98.000 315.649,98.000 316.140 C 98.000 317.163,95.502 320.000,94.601 320.000 C 94.270 320.000,94.000 320.160,94.000 320.356 C 94.000 320.818,91.540 321.274,89.000 321.283 C 82.754 321.306,76.962 317.731,79.100 315.171 C 79.485 314.710,80.206 313.853,80.703 313.266 L 81.606 312.200 82.903 312.962 C 87.297 315.545,89.488 316.115,90.900 315.043 C 92.781 313.615,90.405 311.200,87.119 311.200 C 86.530 311.200,85.936 311.020,85.800 310.800 C 85.664 310.580,85.248 310.399,84.876 310.398 C 82.302 310.392,79.200 306.452,79.200 303.190 C 79.200 300.254,81.693 296.400,83.592 296.400 C 83.948 296.400,84.411 296.237,84.620 296.039 C 85.556 295.150,91.666 295.106,92.542 295.982 M210.600 296.000 C 210.736 296.220,211.806 296.400,212.978 296.400 C 220.076 296.400,223.098 305.834,217.646 310.975 C 216.500 312.056,215.957 313.600,216.724 313.600 C 217.105 313.600,220.400 318.287,220.400 318.829 C 220.400 319.033,220.580 319.200,220.800 319.200 C 221.020 319.200,221.200 319.560,221.200 320.000 C 221.200 320.740,220.933 320.800,217.620 320.800 L 214.039 320.800 211.620 317.395 C 210.289 315.523,209.200 313.813,209.200 313.595 C 209.200 313.378,208.480 313.200,207.600 313.200 L 206.000 313.200 206.000 317.000 L 206.000 320.800 202.800 320.800 L 199.600 320.800 199.600 308.833 C 199.600 302.251,199.709 296.581,199.843 296.233 C 200.129 295.488,210.150 295.271,210.600 296.000 M107.265 301.955 C 107.727 302.695,107.763 302.695,109.080 301.955 C 112.366 300.110,120.000 302.571,120.000 305.475 C 120.000 305.764,120.180 306.000,120.400 306.000 C 120.620 306.000,120.800 306.439,120.800 306.976 C 120.800 307.513,120.980 308.064,121.200 308.200 C 121.420 308.336,121.600 309.686,121.600 311.200 C 121.600 312.714,121.420 314.064,121.200 314.200 C 120.980 314.336,120.800 314.887,120.800 315.424 C 120.800 316.781,116.794 320.800,115.441 320.800 C 114.894 320.800,114.336 320.980,114.200 321.200 C 114.064 321.420,113.344 321.600,112.600 321.600 C 111.856 321.600,111.136 321.420,111.000 321.200 C 110.864 320.980,110.391 320.800,109.948 320.800 C 109.505 320.800,108.841 320.497,108.471 320.126 C 107.843 319.495,107.787 319.705,107.600 323.426 L 107.400 327.400 104.400 327.400 L 101.400 327.400 101.294 314.800 C 101.173 300.425,100.980 301.200,104.673 301.200 C 106.318 301.200,106.899 301.369,107.265 301.955 M136.600 301.600 C 136.736 301.820,137.152 302.002,137.524 302.004 C 140.140 302.018,142.870 306.538,142.718 310.608 L 142.600 313.800 136.500 313.910 C 133.145 313.971,130.400 314.160,130.400 314.330 C 130.400 315.647,135.794 316.212,136.800 315.000 C 137.817 313.775,139.754 314.899,141.163 317.531 C 141.987 319.070,138.594 320.852,133.663 321.469 C 132.634 321.598,131.746 321.506,131.483 321.243 C 131.239 320.999,130.598 320.800,130.058 320.800 C 128.264 320.800,124.547 317.472,124.130 315.492 C 124.002 314.882,123.740 314.286,123.548 314.168 C 123.030 313.848,123.127 309.834,123.700 307.894 C 124.283 305.917,127.906 302.000,129.150 302.000 C 129.592 302.000,130.064 301.820,130.200 301.600 C 130.336 301.380,131.776 301.200,133.400 301.200 C 135.024 301.200,136.464 301.380,136.600 301.600 M157.800 301.600 C 157.936 301.820,158.352 302.000,158.724 302.000 C 161.058 302.000,164.000 306.542,164.000 310.147 C 164.000 314.228,164.381 314.000,157.557 314.000 C 151.744 314.000,151.093 314.133,152.080 315.120 C 152.656 315.696,157.600 315.774,157.600 315.208 C 157.600 314.080,159.610 314.350,160.691 315.624 C 162.713 318.005,162.470 319.039,159.600 320.263 C 155.569 321.981,153.591 321.980,149.600 320.258 C 148.217 319.661,145.200 316.445,145.200 315.568 C 145.200 315.172,145.020 314.736,144.800 314.600 C 144.580 314.464,144.400 313.024,144.400 311.400 C 144.400 309.776,144.580 308.336,144.800 308.200 C 145.020 308.064,145.200 307.596,145.200 307.160 C 145.200 305.741,148.355 302.469,150.050 302.130 C 150.682 302.004,151.200 301.743,151.200 301.550 C 151.200 301.061,157.497 301.109,157.800 301.600 M228.571 301.829 C 229.084 302.342,229.202 303.536,229.213 308.329 C 229.227 315.132,229.443 315.727,231.824 315.526 C 234.496 315.301,234.966 314.152,235.200 307.273 L 235.400 301.400 237.681 301.281 C 241.563 301.077,241.600 301.170,241.600 311.167 C 241.600 315.769,241.491 319.819,241.357 320.167 C 241.076 320.900,235.200 321.122,235.200 320.400 C 235.200 320.180,234.930 320.000,234.600 320.000 C 234.270 320.000,234.000 320.136,234.000 320.303 C 234.000 321.140,229.069 321.959,228.600 321.200 C 228.464 320.980,227.958 320.799,227.476 320.798 C 226.317 320.795,224.647 319.360,223.625 317.488 C 222.637 315.677,222.352 302.608,223.280 301.680 C 223.997 300.963,227.813 301.070,228.571 301.829 M250.794 301.989 C 251.214 302.774,251.223 302.774,252.620 301.989 C 255.943 300.122,262.400 302.256,262.400 305.221 C 262.400 305.613,262.625 306.008,262.900 306.100 C 263.275 306.224,263.400 308.055,263.400 313.433 L 263.400 320.600 260.300 320.717 L 257.200 320.834 257.200 314.671 C 257.200 307.701,256.758 306.400,254.391 306.400 C 251.947 306.400,251.239 308.219,251.111 314.823 L 251.000 320.600 247.900 320.717 L 244.800 320.834 244.800 311.437 C 244.800 300.730,244.628 301.233,248.286 301.212 C 249.960 301.202,250.455 301.356,250.794 301.989 M272.794 301.989 C 273.214 302.774,273.223 302.774,274.620 301.989 C 277.943 300.122,284.400 302.256,284.400 305.221 C 284.400 305.613,284.625 306.008,284.900 306.100 C 285.275 306.224,285.400 308.055,285.400 313.433 L 285.400 320.600 282.300 320.717 L 279.200 320.834 279.200 314.543 C 279.200 307.532,278.804 306.400,276.351 306.400 C 273.952 306.400,273.238 308.256,273.111 314.823 L 273.000 320.600 269.900 320.717 L 266.800 320.834 266.800 311.437 C 266.800 300.730,266.628 301.233,270.286 301.212 C 271.960 301.202,272.455 301.356,272.794 301.989 M301.400 301.600 C 301.536 301.820,302.002 302.000,302.436 302.000 C 302.870 302.000,303.329 302.270,303.455 302.600 C 303.582 302.930,303.855 303.200,304.061 303.200 C 305.650 303.200,307.600 307.017,307.600 310.129 C 307.600 314.241,308.018 314.000,300.895 314.000 C 294.701 314.000,294.679 314.003,295.400 314.800 C 296.170 315.651,301.200 316.021,301.200 315.227 C 301.200 313.453,305.182 315.558,305.720 317.617 C 306.021 318.765,303.277 320.800,301.429 320.800 C 300.889 320.800,300.336 320.980,300.200 321.200 C 299.683 322.036,296.250 321.574,293.200 320.258 C 289.318 318.582,286.471 311.973,288.202 308.654 C 288.531 308.024,288.800 307.169,288.800 306.754 C 288.800 306.339,288.980 306.000,289.200 306.000 C 289.420 306.000,289.600 305.761,289.600 305.470 C 289.600 302.930,300.095 299.488,301.400 301.600 M317.045 302.335 C 317.318 302.885,317.617 303.096,317.772 302.846 C 318.214 302.130,320.688 301.129,321.671 301.268 C 322.527 301.390,322.609 301.618,322.720 304.164 C 322.853 307.240,322.628 307.584,320.471 307.594 C 318.989 307.601,318.000 308.360,318.000 309.491 C 318.000 309.903,317.826 310.414,317.614 310.626 C 317.401 310.839,317.176 313.170,317.114 315.806 L 317.000 320.600 313.900 320.717 L 310.800 320.834 310.800 311.437 C 310.800 300.680,310.638 301.136,314.390 301.303 C 316.235 301.385,316.653 301.547,317.045 302.335 M206.000 304.600 L 206.000 307.600 208.581 307.600 C 212.396 307.600,213.200 307.112,213.200 304.798 C 213.200 302.135,212.475 301.600,208.869 301.600 L 206.000 301.600 206.000 304.600 M15.200 303.697 C 15.200 303.976,21.230 310.232,28.600 317.600 C 39.555 328.551,42.000 331.192,42.000 332.071 C 42.000 332.950,39.550 335.593,28.558 346.574 C 19.404 355.719,15.189 360.193,15.345 360.601 C 15.690 361.499,57.107 361.508,57.451 360.610 C 57.601 360.221,55.758 358.110,52.039 354.411 C 47.814 350.207,46.400 348.553,46.400 347.810 L 46.400 346.819 53.295 346.709 C 59.493 346.611,60.203 346.529,60.324 345.900 C 60.449 345.252,59.861 345.200,52.433 345.200 L 44.407 345.200 44.304 324.300 L 44.200 303.400 29.700 303.295 C 18.201 303.212,15.200 303.295,15.200 303.697 M353.600 324.200 L 353.600 345.200 346.667 345.200 C 339.571 345.200,339.098 345.268,339.470 346.239 C 339.643 346.689,340.986 346.800,346.243 346.800 L 352.800 346.800 352.800 348.191 C 352.800 349.443,352.279 350.099,347.555 354.785 C 344.009 358.302,342.385 360.184,342.542 360.594 C 342.859 361.420,384.620 361.524,384.907 360.700 C 385.003 360.425,379.078 354.187,371.741 346.839 C 359.385 334.463,358.400 333.375,358.400 332.098 C 358.400 330.821,359.388 329.730,371.790 317.306 C 379.155 309.928,385.084 303.736,384.967 303.546 C 384.849 303.356,377.743 303.200,369.176 303.200 L 353.600 303.200 353.600 324.200 M109.600 307.340 C 107.371 309.378,106.984 311.766,108.513 314.041 C 111.272 318.145,117.108 313.927,114.836 309.470 C 113.334 306.524,111.367 305.724,109.600 307.340 M131.509 307.098 C 129.386 308.415,129.771 308.800,133.213 308.800 C 136.659 308.800,137.036 308.507,135.238 307.227 C 133.839 306.231,132.956 306.200,131.509 307.098 M152.500 307.196 C 150.461 308.439,150.889 308.800,154.400 308.800 C 157.905 308.800,158.188 308.585,156.416 307.275 C 154.955 306.195,154.167 306.179,152.500 307.196 M173.877 307.348 C 172.030 308.859,170.673 312.800,172.000 312.800 C 172.220 312.800,172.400 313.070,172.400 313.400 C 172.400 314.553,173.923 315.600,175.600 315.600 C 177.277 315.600,178.800 314.553,178.800 313.400 C 178.800 313.070,178.980 312.800,179.200 312.800 C 180.562 312.800,179.037 308.508,177.214 307.210 C 175.777 306.187,175.270 306.208,173.877 307.348 M295.506 307.588 L 294.200 308.777 297.775 308.788 L 301.350 308.800 300.200 307.600 C 298.698 306.032,297.221 306.029,295.506 307.588 " stroke="none" fill="#646464" fill-rule="evenodd"></path><path id="path3" d="M170.739 132.790 C 167.137 135.759,167.420 141.239,171.296 143.602 C 172.514 144.345,173.329 144.397,183.671 144.399 C 193.587 144.400,194.814 144.471,195.428 145.085 C 196.636 146.294,201.600 153.055,201.600 153.493 C 201.600 153.984,195.276 160.741,175.687 181.179 C 172.421 184.587,171.084 187.276,171.036 190.535 C 170.964 195.471,171.426 196.087,188.525 213.893 C 195.064 220.703,195.051 220.641,190.199 221.860 C 188.219 222.358,184.980 223.204,183.000 223.740 C 181.020 224.276,176.887 225.377,173.817 226.187 C 164.577 228.623,162.293 230.745,163.616 235.659 C 164.802 240.064,167.735 241.330,173.360 239.864 C 178.358 238.562,187.951 236.019,193.800 234.447 C 196.220 233.796,200.334 232.704,202.942 232.020 C 213.609 229.221,215.134 226.215,210.069 217.979 C 208.790 215.901,205.102 209.915,201.872 204.677 C 198.642 199.440,196.000 195.013,196.000 194.840 C 196.000 194.532,198.253 192.576,201.352 190.193 C 202.206 189.537,203.937 188.190,205.199 187.200 C 214.814 179.659,217.600 177.625,218.066 177.806 C 218.360 177.920,219.680 180.925,221.000 184.483 C 225.142 195.646,223.981 194.965,239.128 195.128 C 246.925 195.212,251.508 195.106,252.479 194.818 C 256.802 193.539,258.436 187.896,255.546 184.222 C 254.082 182.361,253.219 182.212,242.614 182.000 L 232.628 181.800 231.474 178.800 C 230.839 177.150,230.001 174.900,229.613 173.800 C 227.239 167.081,226.767 166.289,219.050 156.073 C 210.740 145.072,209.830 143.865,204.899 137.291 C 200.341 131.213,201.657 131.600,185.531 131.600 L 172.182 131.600 170.739 132.790 M199.086 132.446 C 199.332 132.692,199.949 133.100,200.458 133.354 C 200.968 133.608,201.592 134.232,201.845 134.740 C 202.099 135.249,202.867 136.244,203.553 136.952 C 204.239 137.659,204.800 138.478,204.800 138.772 C 204.800 139.065,205.406 139.877,206.146 140.575 C 206.886 141.273,207.944 142.554,208.498 143.422 C 209.051 144.290,209.976 145.436,210.552 145.970 C 211.128 146.503,211.600 147.163,211.600 147.437 C 211.600 147.711,212.230 148.529,213.000 149.256 C 213.770 149.982,214.400 150.861,214.400 151.210 C 214.400 151.558,215.030 152.454,215.800 153.200 C 216.570 153.946,217.200 154.756,217.200 155.000 C 217.200 155.244,217.830 156.054,218.600 156.800 C 219.370 157.546,220.000 158.395,220.000 158.686 C 220.000 158.976,220.630 159.826,221.400 160.574 C 222.170 161.321,222.800 162.183,222.800 162.488 C 222.800 162.793,223.442 163.663,224.226 164.422 C 225.011 165.180,225.926 166.430,226.260 167.200 C 226.594 167.970,227.032 168.913,227.234 169.295 C 227.435 169.677,227.600 170.420,227.600 170.946 C 227.600 171.472,227.870 172.126,228.200 172.400 C 228.530 172.674,228.800 173.238,228.800 173.654 C 228.800 174.070,228.965 174.723,229.166 175.105 C 229.902 176.500,230.800 178.732,230.800 179.166 C 230.800 179.680,231.549 181.087,232.362 182.100 C 232.869 182.731,233.856 182.800,242.401 182.800 C 253.517 182.800,254.019 182.930,255.900 186.295 C 256.496 187.361,256.570 190.400,256.000 190.400 C 255.780 190.400,255.600 190.732,255.600 191.138 C 255.600 191.942,254.887 192.630,252.938 193.704 C 251.818 194.322,250.323 194.400,239.629 194.400 L 227.582 194.400 225.791 192.749 C 224.485 191.545,224.000 190.793,224.000 189.973 C 224.000 189.354,223.831 188.743,223.625 188.616 C 223.018 188.240,222.000 185.952,222.000 184.962 C 222.000 184.459,221.820 183.936,221.600 183.800 C 221.380 183.664,221.200 183.034,221.200 182.400 C 221.200 181.766,221.031 181.143,220.825 181.016 C 220.343 180.718,219.200 178.432,219.200 177.765 C 219.200 176.790,217.562 176.668,216.452 177.561 C 215.873 178.027,215.031 178.567,214.581 178.763 C 214.130 178.959,213.113 179.767,212.321 180.559 C 211.528 181.352,210.629 182.000,210.323 182.000 C 210.017 182.000,208.972 182.810,208.000 183.800 C 207.028 184.790,206.039 185.600,205.802 185.600 C 205.564 185.600,204.483 186.500,203.400 187.600 C 202.317 188.700,201.199 189.600,200.916 189.600 C 200.633 189.600,199.734 190.230,198.918 191.000 C 198.101 191.770,197.260 192.400,197.048 192.400 C 194.709 192.400,194.806 196.433,197.197 198.597 C 197.639 198.997,198.000 199.637,198.000 200.019 C 198.000 200.402,198.270 200.818,198.600 200.945 C 198.930 201.071,199.200 201.513,199.200 201.925 C 199.200 202.338,199.560 203.002,200.000 203.400 C 200.440 203.798,200.800 204.335,200.800 204.592 C 200.800 204.850,201.250 205.483,201.800 206.000 C 202.350 206.517,202.800 207.246,202.800 207.621 C 202.800 207.995,203.070 208.526,203.400 208.800 C 203.730 209.074,204.000 209.524,204.000 209.800 C 204.000 210.076,204.289 210.542,204.642 210.835 C 204.995 211.127,205.444 211.735,205.641 212.184 C 205.837 212.633,206.166 213.270,206.370 213.600 C 206.575 213.930,206.845 214.470,206.971 214.800 C 207.097 215.130,207.830 216.210,208.600 217.200 C 209.370 218.190,210.103 219.270,210.229 219.600 C 210.355 219.930,210.620 220.470,210.818 220.800 C 212.224 223.143,212.523 224.111,212.067 224.841 C 211.810 225.252,211.600 225.898,211.600 226.276 C 211.600 227.281,209.190 229.600,208.145 229.600 C 207.651 229.600,207.136 229.780,207.000 230.000 C 206.864 230.220,206.448 230.401,206.076 230.402 C 205.704 230.404,204.884 230.674,204.254 231.002 C 203.624 231.331,202.510 231.600,201.778 231.600 C 201.046 231.600,200.336 231.780,200.200 232.000 C 200.064 232.220,199.231 232.400,198.348 232.400 C 197.455 232.400,196.477 232.666,196.143 233.000 C 195.813 233.330,194.846 233.600,193.995 233.600 C 193.144 233.600,192.336 233.780,192.200 234.000 C 192.064 234.220,191.423 234.400,190.776 234.400 C 190.129 234.400,189.600 234.557,189.600 234.748 C 189.600 234.940,188.707 235.215,187.616 235.360 C 186.525 235.505,185.525 235.798,185.393 236.012 C 185.261 236.225,184.454 236.400,183.600 236.400 C 182.746 236.400,181.936 236.580,181.800 236.800 C 181.664 237.020,180.865 237.200,180.025 237.200 C 179.156 237.200,178.284 237.458,178.000 237.800 C 177.726 238.130,176.995 238.400,176.375 238.400 C 175.755 238.400,175.136 238.580,175.000 238.800 C 174.864 239.020,174.054 239.200,173.200 239.200 C 172.346 239.200,171.536 239.380,171.400 239.600 C 170.171 241.589,164.497 238.141,164.338 235.309 C 164.229 233.374,164.443 232.219,165.030 231.569 C 165.343 231.221,165.600 230.785,165.600 230.600 C 165.600 229.826,167.004 228.800,168.062 228.800 C 168.688 228.800,169.200 228.628,169.200 228.418 C 169.200 228.208,169.832 227.918,170.604 227.773 C 171.377 227.628,172.107 227.350,172.228 227.155 C 172.349 226.960,173.247 226.800,174.224 226.800 C 175.201 226.800,176.000 226.620,176.000 226.400 C 176.000 226.180,176.788 226.000,177.751 226.000 C 178.820 226.000,179.696 225.766,180.000 225.400 C 180.284 225.058,181.156 224.800,182.025 224.800 C 182.865 224.800,183.664 224.620,183.800 224.400 C 183.936 224.180,184.566 224.000,185.200 224.000 C 185.834 224.000,186.449 223.844,186.568 223.653 C 186.686 223.461,187.542 223.184,188.471 223.035 C 189.400 222.886,190.352 222.606,190.585 222.412 C 190.819 222.218,191.728 222.001,192.605 221.930 C 196.006 221.653,195.270 219.707,189.622 214.038 C 186.970 211.376,184.800 208.972,184.800 208.694 C 184.800 208.416,182.273 205.672,179.185 202.595 C 173.769 197.198,172.400 195.461,172.400 193.984 C 172.400 193.603,172.150 192.809,171.844 192.220 C 171.288 191.148,171.386 189.779,172.048 189.370 C 172.242 189.251,172.400 188.634,172.400 188.000 C 172.400 187.366,172.580 186.736,172.800 186.600 C 173.020 186.464,173.202 186.048,173.205 185.676 C 173.207 185.304,175.187 183.038,177.605 180.641 C 180.022 178.243,182.000 176.082,182.000 175.837 C 182.000 175.593,186.050 171.346,191.000 166.400 C 195.950 161.454,200.000 157.212,200.000 156.973 C 200.000 156.735,200.450 156.117,201.000 155.600 C 202.535 154.158,202.379 152.124,200.600 150.400 C 199.830 149.654,199.200 148.845,199.200 148.603 C 199.200 148.361,198.237 147.136,197.060 145.882 L 194.919 143.600 183.892 143.600 C 172.190 143.600,170.409 143.328,170.403 141.543 C 170.401 141.181,170.130 140.782,169.800 140.655 C 169.470 140.529,169.200 140.095,169.200 139.693 C 169.200 139.290,168.995 138.755,168.743 138.503 C 168.079 137.839,169.357 135.348,171.312 133.500 L 172.899 132.000 185.769 132.000 C 194.707 132.000,198.776 132.136,199.086 132.446 M236.510 136.013 C 224.658 138.412,222.771 156.600,233.810 162.035 C 239.830 164.999,246.768 162.169,249.846 155.494 C 254.296 145.844,246.220 134.047,236.510 136.013 M239.400 136.400 C 239.536 136.620,240.177 136.800,240.824 136.800 C 241.471 136.800,242.000 136.980,242.000 137.200 C 242.000 137.420,242.338 137.600,242.751 137.600 C 243.164 137.600,243.726 137.870,244.000 138.200 C 244.274 138.530,244.711 138.800,244.971 138.800 C 245.940 138.800,248.800 142.531,248.800 143.795 C 248.800 144.128,248.980 144.400,249.200 144.400 C 249.420 144.400,249.606 144.895,249.613 145.500 C 249.620 146.105,249.890 146.949,250.213 147.376 C 250.986 148.399,250.978 151.354,250.200 152.000 C 249.870 152.274,249.600 153.005,249.600 153.625 C 249.600 154.245,249.420 154.864,249.200 155.000 C 248.980 155.136,248.800 155.565,248.800 155.953 C 248.800 157.049,243.876 161.600,242.690 161.600 C 242.145 161.600,241.474 161.870,241.200 162.200 C 240.885 162.579,240.003 162.800,238.800 162.800 C 237.597 162.800,236.715 162.579,236.400 162.200 C 236.126 161.870,235.434 161.600,234.862 161.600 C 233.738 161.600,228.800 157.106,228.800 156.083 C 228.800 155.786,228.530 155.273,228.200 154.943 C 227.870 154.613,227.600 153.916,227.600 153.395 C 227.600 152.874,227.420 152.336,227.200 152.200 C 226.696 151.889,226.673 147.426,227.171 146.495 C 227.375 146.113,227.647 145.530,227.775 145.200 C 227.904 144.870,228.354 144.060,228.775 143.400 C 229.197 142.740,229.555 141.981,229.571 141.714 C 229.612 141.027,231.863 138.800,232.517 138.800 C 232.816 138.800,233.483 138.350,234.000 137.800 C 234.680 137.077,235.356 136.800,236.446 136.800 C 237.275 136.800,238.064 136.620,238.200 136.400 C 238.336 136.180,238.606 136.000,238.800 136.000 C 238.994 136.000,239.264 136.180,239.400 136.400 M141.323 157.204 C 138.864 158.195,138.324 161.862,140.369 163.689 L 141.613 164.800 158.237 164.800 L 174.862 164.800 176.031 163.631 C 178.010 161.651,177.306 158.134,174.752 157.243 C 173.205 156.704,142.654 156.668,141.323 157.204 M173.400 157.600 C 173.536 157.820,173.919 158.000,174.252 158.000 C 175.007 158.000,176.000 158.961,176.000 159.691 C 176.000 159.993,176.216 160.456,176.481 160.721 C 176.855 161.095,176.615 161.556,175.399 162.801 L 173.838 164.400 158.342 164.400 C 148.444 164.400,142.758 164.256,142.600 164.000 C 142.464 163.780,142.063 163.600,141.708 163.600 C 140.813 163.600,139.600 162.423,139.600 161.554 C 139.600 159.961,140.956 158.020,142.076 158.010 C 142.668 158.004,143.264 157.820,143.400 157.600 C 143.558 157.345,148.996 157.200,158.400 157.200 C 167.804 157.200,173.242 157.345,173.400 157.600 M125.969 173.969 C 125.052 174.886,124.800 175.497,124.800 176.800 C 124.800 178.103,125.052 178.714,125.969 179.631 L 127.138 180.800 143.715 180.800 C 159.729 180.800,160.327 180.773,161.317 179.994 C 162.940 178.717,163.437 176.680,162.511 175.095 C 161.173 172.803,161.248 172.812,143.469 172.806 L 127.138 172.800 125.969 173.969 M160.192 173.762 C 161.798 174.595,162.577 176.302,161.938 177.587 C 160.656 180.165,161.882 180.000,144.013 180.000 L 127.750 180.000 126.625 178.826 C 125.975 178.147,125.500 177.208,125.500 176.600 C 125.500 175.992,125.975 175.053,126.625 174.374 L 127.750 173.200 143.429 173.200 C 156.117 173.200,159.315 173.307,160.192 173.762 M111.560 190.042 C 110.261 191.433,110.065 192.992,110.970 194.742 C 112.011 196.754,112.430 196.800,129.788 196.800 L 145.939 196.800 147.140 195.789 C 148.680 194.493,149.052 192.852,148.208 191.074 C 147.134 188.811,147.044 188.800,129.142 188.800 L 112.721 188.800 111.560 190.042 M147.300 191.300 C 147.975 192.734,147.975 192.866,147.300 194.300 L 146.594 195.800 129.883 195.904 L 113.172 196.009 112.186 195.023 C 110.868 193.705,110.896 192.013,112.259 190.650 L 113.318 189.591 129.956 189.696 L 146.594 189.800 147.300 191.300 M157.189 198.668 C 154.225 201.455,149.363 206.090,146.385 208.968 C 143.406 211.845,137.376 217.615,132.985 221.788 C 121.556 232.649,121.740 232.448,121.285 234.579 C 120.293 239.233,123.391 243.613,127.660 243.594 C 129.347 243.586,131.295 242.121,142.274 232.600 C 146.840 228.640,151.329 224.770,152.248 224.000 C 160.952 216.709,170.400 208.262,170.400 207.772 C 170.400 207.438,169.475 206.053,168.343 204.694 C 166.058 201.947,164.087 197.946,163.727 195.322 C 163.396 192.908,163.214 193.001,157.189 198.668 M163.600 197.638 C 163.600 198.251,163.760 198.851,163.955 198.972 C 164.150 199.093,164.428 199.823,164.573 200.596 C 164.718 201.368,164.988 202.000,165.173 202.000 C 165.358 202.000,165.787 202.585,166.127 203.300 C 166.466 204.015,167.297 205.129,167.972 205.775 C 169.594 207.326,168.692 210.400,166.615 210.400 C 166.376 210.400,164.839 211.750,163.200 213.400 C 161.561 215.050,159.999 216.400,159.730 216.400 C 159.460 216.400,157.804 217.840,156.048 219.600 C 154.293 221.360,152.615 222.800,152.318 222.800 C 152.022 222.800,150.439 224.150,148.800 225.800 C 147.161 227.450,145.631 228.800,145.399 228.800 C 145.168 228.800,143.728 230.060,142.200 231.600 C 140.672 233.140,139.147 234.406,138.811 234.412 C 138.475 234.419,137.030 235.605,135.600 237.047 C 134.170 238.490,132.550 239.907,132.000 240.197 C 131.450 240.487,130.564 241.191,130.030 241.762 C 129.032 242.831,126.706 243.218,126.200 242.400 C 126.064 242.180,125.692 242.000,125.373 242.000 C 124.515 242.000,122.400 239.978,122.400 239.157 C 122.400 238.767,122.220 238.336,122.000 238.200 C 121.780 238.064,121.600 237.254,121.600 236.400 C 121.600 235.546,121.780 234.736,122.000 234.600 C 122.220 234.464,122.400 234.051,122.400 233.682 C 122.400 232.910,132.333 222.800,133.092 222.800 C 133.368 222.800,137.871 218.570,143.097 213.400 C 148.324 208.230,152.783 204.000,153.007 204.000 C 153.231 204.000,155.382 202.025,157.788 199.612 C 162.472 194.914,163.600 194.531,163.600 197.638 M179.867 294.667 C 179.720 294.813,179.600 296.821,179.600 299.129 C 179.600 303.072,179.558 303.290,178.900 302.762 C 172.275 297.443,163.665 305.461,166.100 314.682 C 167.090 318.430,173.309 322.724,175.639 321.269 C 176.051 321.011,176.589 320.800,176.833 320.800 C 177.077 320.800,177.779 320.442,178.393 320.005 C 179.509 319.210,179.509 319.210,179.722 320.024 C 179.914 320.758,180.203 320.826,182.668 320.719 L 185.400 320.600 185.506 307.827 C 185.588 297.875,185.500 294.983,185.106 294.733 C 184.495 294.345,180.242 294.291,179.867 294.667 M184.800 307.800 L 184.800 320.400 182.400 320.400 C 180.339 320.400,180.000 320.296,180.000 319.667 C 180.000 318.447,179.564 318.387,178.213 319.417 C 172.073 324.100,163.454 314.530,167.028 306.998 C 169.252 302.310,176.145 300.201,178.797 303.397 C 179.718 304.506,180.000 303.562,180.000 299.376 L 180.000 295.200 182.400 295.200 L 184.800 295.200 184.800 307.800 M85.000 296.000 C 84.864 296.220,84.465 296.400,84.114 296.400 C 83.062 296.400,80.847 298.340,79.996 300.007 C 78.055 303.812,79.760 308.087,83.927 309.868 C 84.737 310.214,85.713 310.656,86.095 310.849 C 86.477 311.042,87.235 311.200,87.781 311.200 C 90.588 311.200,92.636 313.604,91.120 315.120 C 90.143 316.097,85.026 315.159,84.467 313.900 C 84.393 313.735,84.078 313.600,83.767 313.600 C 83.455 313.600,83.200 313.441,83.200 313.247 C 83.200 312.035,81.504 312.612,80.010 314.332 C 78.108 316.521,78.126 316.417,79.414 317.705 C 84.355 322.645,94.351 322.361,97.380 317.193 C 99.920 312.858,96.421 306.000,91.669 306.000 C 91.217 306.000,90.736 305.820,90.600 305.600 C 90.464 305.380,89.986 305.200,89.537 305.200 C 86.803 305.200,84.882 302.627,86.835 301.581 C 87.961 300.979,91.506 301.489,92.862 302.448 C 94.434 303.561,95.033 303.387,96.381 301.428 C 98.358 298.555,98.182 298.299,92.681 296.056 C 91.303 295.494,85.340 295.451,85.000 296.000 M91.280 296.449 C 93.766 296.976,96.349 298.201,96.654 298.997 C 97.203 300.427,94.569 302.970,93.478 302.064 C 91.598 300.504,87.742 300.058,86.254 301.229 C 84.124 302.904,85.103 304.646,88.800 305.760 C 93.364 307.134,93.832 307.320,95.100 308.269 C 97.772 310.267,98.461 314.706,96.521 317.430 C 93.632 321.487,84.572 321.497,80.272 317.448 L 79.144 316.386 80.406 314.793 C 81.914 312.888,81.426 312.913,84.228 314.600 C 88.063 316.910,92.400 316.478,92.400 313.787 C 92.400 312.647,91.012 311.247,89.608 310.971 C 83.835 309.834,80.706 307.797,80.208 304.849 C 79.157 298.625,84.045 294.916,91.280 296.449 M199.811 296.839 C 199.681 297.368,199.626 302.930,199.688 309.200 L 199.800 320.600 202.800 320.600 L 205.800 320.600 205.915 316.900 L 206.030 313.200 207.524 313.200 C 208.821 313.200,209.117 313.384,209.772 314.600 C 210.187 315.370,210.678 316.000,210.863 316.000 C 211.048 316.000,211.200 316.227,211.200 316.504 C 211.200 316.781,211.605 317.466,212.100 318.025 C 212.595 318.585,213.199 319.393,213.442 319.821 C 213.971 320.753,221.200 321.255,221.200 320.361 C 221.200 320.103,220.157 318.431,218.882 316.646 C 217.607 314.861,216.422 313.168,216.249 312.885 C 216.044 312.549,216.483 311.837,217.511 310.840 C 220.985 307.469,221.223 302.121,218.051 298.685 C 216.124 296.598,215.157 296.366,207.323 296.113 L 200.046 295.878 199.811 296.839 M215.596 297.716 C 220.152 299.957,220.775 306.965,216.755 310.751 L 215.080 312.329 216.540 314.364 C 217.343 315.484,218.645 317.300,219.434 318.400 L 220.868 320.400 217.734 320.390 L 214.600 320.379 213.203 318.322 C 212.435 317.190,211.615 316.070,211.381 315.832 C 211.147 315.594,210.611 314.815,210.191 314.100 C 209.500 312.923,209.248 312.800,207.529 312.800 L 205.630 312.800 205.515 316.500 L 205.400 320.200 202.800 320.200 L 200.200 320.200 200.094 309.005 C 200.035 302.848,200.074 297.583,200.181 297.305 C 200.563 296.310,213.434 296.653,215.596 297.716 M109.400 301.905 C 108.740 302.245,108.136 302.689,108.057 302.890 C 107.979 303.091,107.654 302.883,107.335 302.428 C 106.870 301.765,106.325 301.600,104.606 301.600 C 101.064 301.600,101.200 301.075,101.200 314.780 C 101.200 328.473,100.979 327.704,104.865 327.520 L 107.400 327.400 107.515 323.464 L 107.630 319.528 108.515 320.085 C 110.293 321.204,112.806 321.789,113.628 321.275 C 114.047 321.014,114.668 320.800,115.009 320.800 C 116.804 320.800,120.800 316.719,120.800 314.886 C 120.800 314.425,120.980 313.936,121.200 313.800 C 121.420 313.664,121.600 312.494,121.600 311.200 C 121.600 309.906,121.420 308.736,121.200 308.600 C 120.980 308.464,120.800 307.939,120.800 307.433 C 120.800 303.641,113.187 299.949,109.400 301.905 M130.619 301.569 C 130.494 301.772,129.853 302.057,129.195 302.201 C 126.435 302.807,123.191 307.711,123.206 311.254 C 123.224 315.407,127.298 320.800,130.418 320.800 C 130.877 320.800,131.630 321.002,132.091 321.248 C 133.916 322.225,141.200 319.557,141.200 317.912 C 141.200 317.055,138.332 314.493,137.590 314.687 C 137.155 314.800,136.800 315.029,136.800 315.196 C 136.800 315.362,136.069 315.615,135.175 315.758 C 133.433 316.036,130.400 315.418,130.400 314.785 C 130.400 314.573,130.355 314.265,130.300 314.100 C 130.245 313.935,132.990 313.710,136.400 313.600 L 142.600 313.400 142.717 310.513 C 142.885 306.385,141.130 303.599,137.338 301.973 C 135.447 301.163,131.034 300.897,130.619 301.569 M150.108 302.241 C 147.749 303.383,145.200 306.087,145.200 307.448 C 145.200 307.946,145.020 308.464,144.800 308.600 C 143.407 309.461,144.771 315.380,146.930 317.844 C 149.173 320.404,153.808 322.180,155.835 321.257 C 156.387 321.005,157.243 320.800,157.739 320.800 C 158.985 320.800,162.000 318.772,162.000 317.933 C 162.000 316.245,159.504 314.354,158.200 315.053 C 156.541 315.944,152.621 315.993,151.763 315.134 C 150.483 313.854,151.446 313.600,157.581 313.600 C 164.313 313.600,164.000 313.768,164.000 310.151 C 164.000 303.492,156.431 299.182,150.108 302.241 M205.684 304.700 L 205.800 308.200 209.139 308.200 C 212.927 308.200,214.394 307.183,214.398 304.554 C 214.402 301.966,213.205 301.200,209.155 301.200 L 205.569 301.200 205.684 304.700 M253.000 301.904 C 252.340 302.245,251.684 302.700,251.543 302.916 C 251.402 303.132,251.080 302.924,250.829 302.454 C 250.273 301.415,246.042 301.186,245.241 302.150 C 244.921 302.536,244.817 305.385,244.892 311.650 L 245.000 320.600 247.764 320.720 C 251.269 320.872,251.186 321.027,251.194 314.262 C 251.201 307.620,251.696 306.400,254.381 306.400 C 256.854 306.400,257.159 307.246,257.289 314.470 L 257.400 320.600 260.300 320.718 L 263.200 320.835 263.200 313.641 C 263.200 309.277,263.043 306.350,262.800 306.200 C 262.580 306.064,262.400 305.680,262.400 305.346 C 262.400 302.600,256.112 300.298,253.000 301.904 M275.000 301.904 C 274.340 302.245,273.684 302.700,273.543 302.916 C 273.402 303.132,273.080 302.924,272.829 302.454 C 272.451 301.748,272.007 301.600,270.262 301.600 C 266.663 301.600,266.768 301.287,266.892 311.600 L 267.000 320.600 269.764 320.720 C 273.263 320.871,273.186 321.013,273.195 314.400 C 273.205 307.797,273.748 306.400,276.305 306.400 C 278.921 306.400,279.163 307.040,279.290 314.293 L 279.400 320.600 282.288 320.717 C 285.124 320.832,285.181 320.815,285.444 319.766 C 285.860 318.111,285.356 306.796,284.844 306.284 C 284.600 306.040,284.400 305.592,284.400 305.289 C 284.400 302.596,278.074 300.318,275.000 301.904 M293.695 302.248 C 289.348 304.351,286.528 310.717,288.353 314.305 C 288.548 314.687,288.934 315.488,289.213 316.085 C 290.764 319.409,296.794 322.460,299.435 321.257 C 299.987 321.005,300.769 320.800,301.173 320.800 C 302.539 320.800,305.603 318.862,305.594 318.004 C 305.574 316.194,302.394 314.166,301.297 315.263 C 300.551 316.009,296.142 315.913,295.363 315.134 C 294.081 313.853,295.046 313.600,301.216 313.600 L 307.185 313.600 307.445 312.564 C 309.324 305.077,300.905 298.760,293.695 302.248 M318.920 302.205 C 317.256 303.212,317.236 303.214,316.806 302.411 C 316.454 301.754,315.972 301.600,314.262 301.600 C 310.663 301.600,310.768 301.287,310.892 311.600 L 311.000 320.600 314.000 320.600 L 317.000 320.600 317.210 315.400 C 317.488 308.518,318.123 307.200,321.166 307.200 C 322.602 307.200,322.918 306.425,322.725 303.373 C 322.571 300.939,321.536 300.622,318.920 302.205 M117.585 303.880 C 125.349 310.525,117.445 324.814,108.890 319.599 C 108.170 319.159,107.501 318.800,107.404 318.800 C 107.307 318.800,107.177 320.645,107.114 322.900 L 107.000 327.000 104.600 327.000 L 102.200 327.000 102.200 314.800 L 102.200 302.600 104.388 302.476 C 106.121 302.378,106.684 302.500,107.098 303.066 C 107.559 303.696,107.724 303.714,108.510 303.221 C 111.469 301.362,114.938 301.614,117.585 303.880 M135.582 302.190 C 140.099 303.392,142.304 306.153,142.370 310.690 L 142.400 312.780 135.905 312.890 C 128.915 313.008,128.088 313.312,129.873 315.106 C 131.661 316.903,133.979 317.215,136.496 315.999 L 138.154 315.198 139.277 316.274 C 140.930 317.857,140.775 318.201,137.654 319.889 C 136.435 320.548,130.788 320.556,129.540 319.900 C 122.541 316.222,122.153 306.331,128.882 303.116 C 132.164 301.547,132.823 301.456,135.582 302.190 M156.668 302.201 C 160.903 303.304,163.088 305.932,163.495 310.413 L 163.711 312.800 157.029 312.800 L 150.347 312.800 150.473 313.887 C 150.766 316.400,154.347 317.444,157.600 315.964 L 159.400 315.145 160.500 316.457 C 161.918 318.149,161.935 318.091,159.646 319.336 C 154.281 322.256,147.024 319.662,145.571 314.305 C 144.078 308.799,146.474 304.154,151.731 302.362 C 154.318 301.479,153.945 301.492,156.668 302.201 M213.134 302.934 C 214.570 305.937,212.650 308.000,208.420 308.000 L 206.000 308.000 206.000 304.784 L 206.000 301.568 209.296 301.684 C 212.473 301.796,212.611 301.841,213.134 302.934 M223.083 301.850 C 222.328 302.606,222.784 315.546,223.621 317.088 C 224.602 318.896,226.689 320.800,227.690 320.800 C 228.087 320.800,228.753 321.014,229.172 321.275 C 230.012 321.800,232.830 321.136,234.031 320.129 C 234.860 319.435,235.200 319.461,235.200 320.218 C 235.200 320.728,235.702 320.815,238.100 320.718 L 241.000 320.600 241.108 311.650 C 241.234 301.209,241.334 301.514,237.837 301.683 L 235.400 301.800 235.200 307.400 C 234.948 314.456,234.479 315.600,231.839 315.600 C 229.183 315.600,229.030 315.220,228.800 308.040 L 228.600 301.800 225.983 301.684 C 224.544 301.620,223.239 301.695,223.083 301.850 M258.887 302.660 C 262.076 304.266,262.800 306.474,262.800 314.596 L 262.800 320.438 260.300 320.319 L 257.800 320.200 257.690 313.753 C 257.564 306.354,257.322 305.779,254.369 305.856 C 251.146 305.941,250.400 307.661,250.400 315.007 L 250.400 320.440 248.100 320.320 L 245.800 320.200 245.800 311.400 L 245.800 302.600 247.971 302.477 C 249.614 302.383,250.227 302.505,250.491 302.977 C 250.924 303.751,251.547 303.770,252.369 303.034 C 253.890 301.670,256.612 301.514,258.887 302.660 M280.609 302.414 C 283.771 303.575,284.800 306.567,284.800 314.596 L 284.800 320.438 282.300 320.319 L 279.800 320.200 279.690 313.753 C 279.564 306.354,279.322 305.779,276.369 305.856 C 273.146 305.941,272.400 307.661,272.400 315.007 L 272.400 320.440 270.100 320.320 L 267.800 320.200 267.800 311.400 L 267.800 302.600 270.105 302.480 C 271.895 302.387,272.463 302.498,272.648 302.980 C 272.944 303.752,273.547 303.771,274.369 303.034 C 275.750 301.796,278.249 301.548,280.609 302.414 M300.148 302.170 C 304.704 303.356,306.707 305.796,306.905 310.400 L 307.000 312.600 300.484 312.710 C 293.445 312.829,292.660 313.099,294.251 314.856 C 296.099 316.898,298.337 317.265,301.154 315.987 C 303.068 315.118,303.380 315.224,304.489 317.112 L 305.177 318.285 303.235 319.343 C 297.440 322.497,289.712 319.235,288.973 313.323 C 288.148 306.720,291.001 302.896,297.680 301.652 C 297.835 301.624,298.945 301.856,300.148 302.170 M321.918 304.251 L 322.036 306.239 320.352 306.619 C 317.329 307.303,316.425 309.527,316.410 316.320 L 316.400 320.440 314.100 320.320 L 311.800 320.200 311.800 311.400 L 311.800 302.600 314.132 302.479 C 316.201 302.372,316.488 302.451,316.679 303.179 C 316.797 303.631,316.917 303.999,316.947 303.998 C 316.976 303.997,317.891 303.544,318.981 302.992 C 321.500 301.713,321.774 301.831,321.918 304.251 M228.400 308.600 C 228.616 315.089,228.674 315.308,230.420 316.210 C 233.894 318.007,235.600 315.302,235.600 307.994 L 235.600 302.360 237.900 302.480 L 240.200 302.600 240.308 311.500 L 240.415 320.400 238.008 320.400 C 236.178 320.400,235.600 320.262,235.600 319.824 C 235.600 318.819,234.833 318.722,233.636 319.575 C 232.794 320.174,231.858 320.400,230.218 320.400 C 224.809 320.400,223.200 317.579,223.200 308.090 C 223.200 302.124,223.098 302.330,225.984 302.483 L 228.200 302.600 228.400 308.600 M108.560 307.360 C 104.863 311.057,108.352 318.116,112.929 316.204 C 117.839 314.153,116.456 306.000,111.198 306.000 C 110.278 306.000,109.539 306.381,108.560 307.360 M130.275 307.122 C 128.359 309.121,128.925 309.600,133.200 309.600 C 137.421 309.600,138.179 308.943,136.218 306.982 C 134.747 305.511,131.751 305.581,130.275 307.122 M151.188 307.274 C 149.434 309.028,150.231 309.600,154.427 309.600 C 158.266 309.600,158.919 309.078,157.376 307.245 C 155.845 305.425,153.024 305.438,151.188 307.274 M172.613 307.413 C 169.092 310.935,172.492 318.184,176.824 316.390 C 181.720 314.362,180.787 306.000,175.666 306.000 C 174.323 306.000,173.771 306.255,172.613 307.413 M294.788 307.274 C 292.968 309.093,293.845 309.670,298.192 309.515 C 301.814 309.385,302.449 308.755,300.766 306.964 C 299.338 305.444,296.469 305.592,294.788 307.274 M113.409 307.282 C 116.008 309.543,116.195 313.213,113.811 315.191 C 113.030 315.839,109.736 315.793,109.068 315.125 C 105.359 311.416,109.519 303.900,113.409 307.282 M135.704 307.416 C 137.215 308.818,137.246 308.801,133.100 308.788 L 129.400 308.777 130.706 307.588 C 132.382 306.064,134.179 306.002,135.704 307.416 M156.799 307.398 C 158.063 308.745,157.830 308.853,153.950 308.717 L 150.600 308.600 151.758 307.500 C 153.306 306.031,155.473 305.987,156.799 307.398 M177.497 307.205 C 181.056 310.005,179.784 315.709,175.600 315.709 C 173.798 315.709,173.078 315.239,172.208 313.496 C 170.192 309.454,174.237 304.641,177.497 307.205 M300.278 307.366 C 301.801 308.677,301.446 308.853,297.550 308.717 L 294.200 308.600 295.358 307.500 C 296.848 306.085,298.730 306.034,300.278 307.366 " stroke="none" fill="#8cac9c" fill-rule="evenodd"></path></g></svg>