<?xml version="1.0" standalone="no"?>
<!DOCTYPE svg PUBLIC "-//W3C//DTD SVG 20010904//EN"
 "http://www.w3.org/TR/2001/REC-SVG-20010904/DTD/svg10.dtd">
<svg version="1.0" xmlns="http://www.w3.org/2000/svg"
 width="418.000000pt" height="418.000000pt" viewBox="0 0 418.000000 418.000000"
 preserveAspectRatio="xMidYMid meet">

<g transform="translate(0.000000,418.000000) scale(0.100000,-0.100000)"
fill="#000000" stroke="none">
<path d="M1810 4155 c-52 -7 -150 -26 -216 -43 -850 -216 -1460 -907 -1575
-1786 -18 -137 -7 -483 20 -623 37 -199 130 -467 211 -610 l30 -53 -107 0
-108 0 165 -165 165 -165 -165 -165 -164 -164 297 -3 296 -3 3 87 3 87 89 -75
c282 -234 630 -395 996 -459 117 -21 582 -21 695 -1 346 62 646 192 921 398
50 37 99 77 109 88 10 11 22 20 27 20 4 0 8 -33 8 -72 l0 -73 302 3 302 3
-164 164 -165 165 165 165 165 165 -99 0 -98 0 40 72 c88 164 174 417 207 615
25 154 17 648 -13 783 -72 318 -220 630 -419 884 -124 157 -341 349 -524 463
-96 60 -270 145 -382 187 -126 47 -346 101 -469 115 -125 14 -427 12 -548 -4z
m653 -979 c67 -24 115 -65 141 -120 l25 -51 -18 -90 c-10 -49 -14 -91 -10 -93
4 -2 26 6 49 18 57 29 101 24 119 -15 22 -45 32 -104 25 -140 -3 -19 -26 -57
-51 -86 -84 -98 -92 -125 -108 -347 -12 -160 -18 -199 -31 -209 -13 -9 -17
-30 -18 -90 -1 -69 -3 -79 -22 -87 -18 -8 -22 -23 -31 -108 -5 -54 -15 -104
-21 -110 -7 -7 -50 -12 -109 -12 l-97 -1 -36 64 c-40 73 -150 196 -225 251
-131 96 -314 168 -497 196 -147 22 -146 22 -153 44 -9 28 -1 37 65 70 32 16
61 33 64 38 3 5 -19 19 -48 31 -60 24 -101 63 -93 85 3 8 36 31 74 52 199 109
243 140 277 193 41 66 129 156 181 187 22 13 70 31 105 40 84 21 100 32 190
128 178 193 174 190 253 162z m857 -2051 c34 -18 34 -16 19 -49 -10 -22 -14
-23 -36 -13 -19 9 -26 8 -34 -4 -15 -24 -10 -29 26 -29 32 0 35 -2 35 -30 0
-28 -3 -30 -35 -30 l-35 0 0 -100 0 -100 -40 0 -40 0 0 100 c0 82 -3 100 -15
100 -10 0 -15 10 -15 30 0 18 5 30 13 30 8 0 19 18 26 40 18 62 73 85 131 55z
m-210 -175 l0 -180 -40 0 -40 0 0 180 0 180 40 0 40 0 0 -180z m-2090 25 l0
-135 70 0 70 0 0 -35 0 -35 -110 0 -110 0 0 170 0 170 40 0 40 0 0 -135z
m1314 41 l32 -88 28 91 28 91 42 0 43 0 28 -92 28 -93 31 90 31 90 43 3 c23 2
42 -1 42 -7 0 -5 -25 -82 -56 -170 l-56 -161 -33 0 -32 0 -34 111 -35 111 -34
-111 -33 -111 -33 0 c-27 0 -34 5 -44 33 -42 119 -100 291 -100 299 0 5 19 8
41 6 l41 -3 32 -89z m-929 -2 c79 -52 80 -178 0 -230 -62 -41 -159 -21 -196
40 -24 39 -24 108 -1 148 35 62 135 83 197 42z m335 -9 c23 -23 25 -34 28
-130 l4 -105 -41 0 -41 0 0 88 c0 90 -8 112 -41 112 -37 0 -49 -27 -49 -116
l0 -84 -40 0 -40 0 0 130 0 130 40 0 c22 0 40 -4 40 -9 0 -6 12 -3 28 5 35 19
80 10 112 -21z m242 25 c53 -15 88 -61 88 -116 l0 -44 -90 0 c-89 0 -110 -9
-71 -30 26 -13 57 -13 81 2 17 11 23 9 42 -10 l23 -23 -23 -19 c-30 -25 -94
-34 -136 -20 -55 18 -86 62 -86 121 0 86 44 139 125 148 6 0 27 -4 47 -9z
m933 -16 c79 -52 80 -178 0 -230 -62 -41 -159 -21 -196 40 -24 39 -24 108 -1
148 35 62 135 83 197 42z m-2765 -4 c0 -5 -2 -10 -4 -10 -3 0 -8 5 -11 10 -3
6 -1 10 4 10 6 0 11 -4 11 -10z m0 -600 c0 -5 -5 -10 -11 -10 -5 0 -7 5 -4 10
3 6 8 10 11 10 2 0 4 -4 4 -10z m3420 0 c0 -5 -5 -10 -11 -10 -5 0 -7 5 -4 10
3 6 8 10 11 10 2 0 4 -4 4 -10z"/>
<path d="M1292 954 c-31 -21 -31 -87 0 -108 30 -21 51 -20 73 4 26 29 24 79
-4 102 -28 22 -40 23 -69 2z"/>
<path d="M1908 959 c-32 -18 -19 -29 32 -29 52 0 64 12 31 30 -24 12 -41 12
-63 -1z"/>
<path d="M2802 954 c-16 -11 -22 -25 -22 -54 0 -62 57 -92 95 -50 26 29 24 79
-4 102 -28 22 -40 23 -69 2z"/>
</g>
</svg>
