<svg id="svg" version="1.1" xmlns="http://www.w3.org/2000/svg" xmlns:xlink="http://www.w3.org/1999/xlink" width="400" height="400" viewBox="0, 0, 400,400"><g id="svgg"><path id="path0" d="M196.900 121.226 C 195.965 121.665,195.200 122.257,195.200 122.542 C 195.200 122.827,194.750 123.483,194.200 124.000 C 193.650 124.517,193.200 125.361,193.200 125.875 C 193.200 126.390,192.980 127.164,192.710 127.595 C 192.323 128.215,192.323 128.483,192.710 128.870 C 192.980 129.140,193.200 129.842,193.200 130.431 C 193.200 131.020,193.470 131.726,193.800 132.000 C 194.130 132.274,194.400 132.759,194.400 133.078 C 194.400 133.824,195.376 134.800,196.122 134.800 C 196.441 134.800,196.926 135.070,197.200 135.400 C 197.834 136.164,200.153 136.180,200.780 135.424 C 201.043 135.107,201.649 134.792,202.127 134.724 C 203.080 134.588,204.714 131.989,204.768 130.524 C 204.785 130.042,204.980 129.536,205.200 129.400 C 205.420 129.264,205.600 128.713,205.600 128.176 C 205.600 127.639,205.420 127.200,205.200 127.200 C 204.980 127.200,204.800 126.691,204.800 126.070 C 204.800 125.381,204.409 124.572,203.800 124.000 C 203.250 123.483,202.800 122.732,202.800 122.330 C 202.800 121.929,202.551 121.600,202.246 121.600 C 201.941 121.600,201.176 121.331,200.546 121.002 C 199.104 120.250,198.963 120.259,196.900 121.226 M134.222 139.165 C 134.074 139.404,133.641 139.600,133.260 139.600 C 132.148 139.600,129.200 142.862,129.200 144.092 C 129.200 144.675,129.020 145.264,128.800 145.400 C 127.049 146.482,130.661 154.000,132.931 154.000 C 133.273 154.000,133.664 154.180,133.800 154.400 C 134.708 155.870,138.476 153.633,139.992 150.725 C 141.002 148.789,141.131 144.372,140.200 143.600 C 139.870 143.326,139.600 142.833,139.600 142.504 C 139.600 141.670,137.173 139.614,136.180 139.606 C 135.729 139.603,135.164 139.404,134.925 139.165 C 134.612 138.852,134.415 138.852,134.222 139.165 M263.198 139.229 C 262.869 139.401,262.330 139.647,262.000 139.776 C 260.500 140.359,258.984 141.540,258.350 142.621 C 257.574 143.944,257.305 149.770,258.000 150.200 C 258.220 150.336,258.400 150.742,258.400 151.102 C 258.400 151.987,260.380 154.000,261.251 154.000 C 261.637 154.000,262.064 154.180,262.200 154.400 C 263.111 155.874,268.800 152.320,268.800 150.277 C 268.800 149.931,268.980 149.536,269.200 149.400 C 269.420 149.264,269.600 148.364,269.600 147.400 C 269.600 146.436,269.420 145.536,269.200 145.400 C 268.980 145.264,268.800 144.661,268.800 144.060 C 268.800 142.295,264.470 138.562,263.198 139.229 M195.923 143.375 C 195.525 143.802,195.200 144.556,195.200 145.052 C 195.200 145.547,195.020 146.064,194.800 146.200 C 194.580 146.336,194.400 146.775,194.400 147.175 C 194.400 147.575,194.130 148.126,193.800 148.400 C 193.470 148.674,193.200 149.405,193.200 150.025 C 193.200 150.645,193.020 151.264,192.800 151.400 C 192.580 151.536,192.400 151.976,192.400 152.378 C 192.400 152.780,192.131 153.624,191.802 154.254 C 191.474 154.884,191.204 155.704,191.202 156.076 C 191.201 156.448,191.020 156.864,190.800 157.000 C 190.580 157.136,190.400 157.597,190.400 158.024 C 190.400 158.451,190.220 158.800,190.000 158.800 C 189.780 158.800,189.594 159.295,189.587 159.900 C 189.580 160.505,189.310 161.349,188.987 161.776 C 188.664 162.204,188.400 162.958,188.400 163.453 C 188.400 163.948,188.220 164.464,188.000 164.600 C 187.780 164.736,187.600 165.259,187.600 165.762 C 187.600 166.752,186.582 169.040,185.975 169.416 C 185.769 169.543,185.600 170.166,185.600 170.800 C 185.600 171.434,185.420 172.064,185.200 172.200 C 184.980 172.336,184.800 172.955,184.800 173.575 C 184.800 174.195,184.530 174.926,184.200 175.200 C 183.870 175.474,183.600 176.216,183.600 176.849 C 183.600 177.482,183.420 178.000,183.200 178.000 C 182.980 178.000,182.800 178.349,182.800 178.776 C 182.800 179.203,182.620 179.664,182.400 179.800 C 182.180 179.936,182.000 180.555,182.000 181.175 C 182.000 181.795,181.730 182.526,181.400 182.800 C 181.070 183.074,180.800 183.724,180.800 184.244 C 180.800 188.012,176.932 187.796,172.825 183.800 C 171.130 182.150,169.558 180.800,169.333 180.800 C 169.108 180.800,167.200 179.090,165.093 177.000 C 162.986 174.910,161.019 173.200,160.723 173.200 C 160.427 173.200,158.481 171.490,156.400 169.400 C 154.319 167.310,152.429 165.600,152.200 165.600 C 151.971 165.600,150.081 163.890,148.000 161.800 C 143.852 157.635,143.656 157.545,141.927 159.000 C 141.273 159.550,140.482 160.000,140.169 160.000 C 139.856 160.000,139.600 160.180,139.600 160.400 C 139.600 160.620,139.240 160.800,138.800 160.800 C 137.914 160.800,137.550 166.075,138.400 166.600 C 138.634 166.745,138.800 169.063,138.800 172.200 C 138.800 175.144,138.952 177.647,139.138 177.762 C 139.324 177.877,139.599 180.268,139.749 183.077 C 139.900 185.885,140.197 188.357,140.411 188.571 C 140.625 188.785,140.800 191.163,140.800 193.856 C 140.800 196.689,140.969 198.857,141.200 199.000 C 141.431 199.143,141.600 201.311,141.600 204.144 C 141.600 207.113,141.770 209.210,142.031 209.471 C 142.273 209.713,142.564 212.310,142.692 215.365 C 142.818 218.370,143.074 220.922,143.260 221.037 C 143.447 221.153,143.600 222.199,143.600 223.362 C 143.600 227.159,137.801 226.800,199.070 226.800 C 260.807 226.800,254.400 227.246,254.400 222.949 C 254.400 221.635,254.607 220.353,254.861 220.099 C 255.136 219.824,255.399 217.616,255.515 214.609 C 255.622 211.843,255.864 209.484,256.054 209.366 C 256.244 209.249,256.400 206.913,256.400 204.176 C 256.400 201.439,256.554 199.200,256.743 199.200 C 256.931 199.200,257.181 196.844,257.297 193.965 C 257.420 190.942,257.698 188.542,257.955 188.285 C 258.237 188.003,258.400 185.899,258.400 182.544 C 258.400 179.444,258.566 177.145,258.800 177.000 C 259.031 176.857,259.200 174.689,259.200 171.856 C 259.200 169.163,259.357 166.789,259.548 166.580 C 259.740 166.371,260.007 165.078,260.142 163.707 L 260.386 161.214 258.493 160.352 C 257.452 159.878,256.309 159.155,255.953 158.745 C 254.841 157.464,254.022 157.889,250.066 161.800 C 247.952 163.890,246.034 165.600,245.803 165.600 C 245.573 165.600,243.681 167.310,241.600 169.400 C 239.519 171.490,237.619 173.200,237.378 173.200 C 237.138 173.200,235.200 174.910,233.072 177.000 C 230.945 179.090,228.991 180.800,228.731 180.800 C 228.470 180.800,226.870 182.150,225.175 183.800 C 221.151 187.716,217.200 187.864,217.200 184.098 C 217.200 183.630,217.020 183.136,216.800 183.000 C 216.580 182.864,216.400 182.386,216.400 181.938 C 216.400 181.490,216.104 180.556,215.743 179.862 C 214.526 177.526,214.400 177.213,214.387 176.505 C 214.380 176.117,214.110 175.451,213.787 175.024 C 213.464 174.596,213.200 173.842,213.200 173.347 C 213.200 172.852,213.020 172.336,212.800 172.200 C 212.580 172.064,212.400 171.541,212.400 171.038 C 212.400 170.048,211.382 167.760,210.775 167.384 C 210.569 167.257,210.400 166.634,210.400 166.000 C 210.400 165.366,210.220 164.736,210.000 164.600 C 209.780 164.464,209.594 163.868,209.587 163.276 C 209.580 162.684,209.310 161.851,208.987 161.424 C 208.664 160.996,208.400 160.327,208.400 159.936 C 208.400 159.544,208.040 158.583,207.600 157.800 C 207.160 157.017,206.800 155.953,206.800 155.437 C 206.800 154.920,206.530 154.274,206.200 154.000 C 205.870 153.726,205.600 152.995,205.600 152.375 C 205.600 151.755,205.420 151.136,205.200 151.000 C 204.980 150.864,204.800 150.413,204.800 149.998 C 204.800 149.582,204.350 148.396,203.800 147.362 C 203.250 146.327,202.800 145.080,202.800 144.589 C 202.800 142.594,197.522 141.662,195.923 143.375 M144.515 237.255 C 144.644 239.705,144.941 241.901,145.175 242.135 C 145.409 242.369,145.600 242.884,145.600 243.280 C 145.600 244.387,252.299 244.407,252.642 243.300 C 252.761 242.915,253.025 242.287,253.229 241.905 C 253.433 241.523,253.600 239.318,253.600 237.005 L 253.600 232.800 198.940 232.800 L 144.280 232.800 144.515 237.255 M162.667 298.267 C 162.520 298.413,162.400 304.083,162.400 310.867 L 162.400 323.200 164.800 323.200 L 167.200 323.200 167.200 310.600 L 167.200 298.000 165.067 298.000 C 163.893 298.000,162.813 298.120,162.667 298.267 M79.600 311.400 L 79.600 323.200 82.200 323.200 L 84.800 323.200 84.800 320.043 C 84.800 316.379,84.778 316.400,88.656 316.400 C 95.212 316.400,98.400 313.781,98.400 308.393 C 98.400 301.527,95.579 299.600,85.529 299.600 L 79.600 299.600 79.600 311.400 M203.200 311.400 L 203.200 323.200 205.800 323.200 L 208.400 323.200 208.400 316.624 C 208.400 308.252,208.564 308.196,212.027 315.372 L 214.839 321.200 216.380 321.200 L 217.922 321.200 220.566 315.900 C 223.180 310.659,224.046 309.200,224.544 309.200 C 224.685 309.200,224.800 312.350,224.800 316.200 L 224.800 323.200 227.200 323.200 L 229.600 323.200 229.600 311.400 L 229.600 299.600 226.192 299.600 L 222.785 299.600 219.992 305.388 C 218.457 308.571,217.200 311.374,217.200 311.617 C 217.200 312.239,215.953 311.923,215.556 311.200 C 215.375 310.870,214.577 309.160,213.783 307.400 C 212.989 305.640,211.858 303.169,211.270 301.910 L 210.200 299.619 206.700 299.610 L 203.200 299.600 203.200 311.400 M275.484 299.849 C 275.328 300.005,275.200 301.188,275.200 302.477 C 275.200 304.608,275.110 304.854,274.200 305.200 C 272.807 305.730,272.771 307.857,274.147 308.380 C 275.063 308.728,275.099 308.909,275.276 314.070 C 275.477 319.915,275.702 320.627,277.865 322.277 C 280.439 324.240,286.000 323.463,286.000 321.140 C 286.000 319.469,284.860 318.421,283.542 318.880 C 280.794 319.838,280.360 319.075,280.488 313.503 L 280.600 308.600 282.600 308.400 C 284.581 308.202,284.600 308.187,284.600 306.800 L 284.600 305.400 282.518 305.280 L 280.436 305.159 280.318 302.480 L 280.200 299.800 277.984 299.683 C 276.765 299.618,275.640 299.693,275.484 299.849 M91.636 304.685 C 92.939 305.455,93.447 307.155,93.034 309.361 C 92.647 311.421,91.363 312.058,87.888 311.917 L 85.000 311.800 84.883 308.433 C 84.818 306.582,84.858 304.827,84.970 304.533 C 85.285 303.713,90.179 303.824,91.636 304.685 M178.576 305.175 C 170.646 307.073,169.644 319.136,177.121 322.684 C 180.033 324.066,184.803 323.553,187.478 321.571 L 188.355 320.920 187.363 319.460 C 186.818 318.657,186.321 318.000,186.261 318.000 C 186.200 318.000,185.405 318.360,184.494 318.800 C 181.417 320.287,177.400 319.145,177.400 316.784 L 177.400 315.800 183.900 315.690 L 190.400 315.580 190.400 314.004 C 190.400 307.665,185.005 303.636,178.576 305.175 M240.756 305.151 C 236.834 305.980,235.670 307.292,237.213 309.144 C 237.982 310.067,238.034 310.073,239.608 309.444 C 243.024 308.077,246.616 308.882,246.321 310.950 C 246.212 311.719,245.875 311.822,242.800 312.032 C 237.494 312.394,235.683 313.591,235.300 316.991 C 234.745 321.917,241.012 325.382,245.149 322.437 C 246.433 321.522,247.169 321.688,247.194 322.900 C 247.197 323.065,248.190 323.200,249.400 323.200 L 251.600 323.200 251.600 316.685 C 251.600 306.371,248.844 303.440,240.756 305.151 M259.344 305.595 C 254.409 308.115,254.698 312.602,259.953 315.027 C 264.823 317.276,264.994 317.383,265.124 318.286 C 265.398 320.178,261.556 320.460,258.545 318.769 C 256.732 317.751,256.649 317.770,255.763 319.421 L 255.000 320.843 256.000 321.612 C 256.550 322.036,257.279 322.386,257.620 322.391 C 257.961 322.396,258.452 322.612,258.711 322.871 C 259.463 323.623,265.157 323.492,266.668 322.687 C 271.647 320.037,270.660 314.649,264.800 312.491 C 261.175 311.155,260.400 310.708,260.400 309.950 C 260.400 308.316,264.445 307.951,266.638 309.388 C 267.590 310.012,268.544 309.166,268.868 307.411 C 269.240 305.397,262.316 304.077,259.344 305.595 M295.400 305.148 C 287.239 307.277,286.306 318.894,293.991 322.691 C 297.933 324.637,306.236 322.478,304.495 319.959 C 303.158 318.024,303.009 317.971,301.263 318.815 C 298.472 320.164,295.293 319.436,293.852 317.119 C 293.136 315.968,293.844 315.807,300.532 315.600 C 308.008 315.369,307.748 315.558,306.627 311.182 C 305.421 306.475,300.484 303.822,295.400 305.148 M102.100 305.456 C 101.444 305.733,101.417 314.556,102.063 317.771 C 103.050 322.684,109.096 325.392,112.337 322.373 C 113.402 321.381,114.000 321.390,114.000 322.400 C 114.000 323.111,114.267 323.200,116.408 323.200 L 118.815 323.200 118.708 314.300 L 118.600 305.400 116.400 305.400 L 114.200 305.400 114.000 311.200 C 113.775 317.717,113.521 318.434,111.164 319.212 C 109.788 319.666,108.245 319.153,107.137 317.873 C 107.102 317.833,106.967 315.010,106.837 311.600 L 106.600 305.400 104.600 305.322 C 103.500 305.280,102.375 305.340,102.100 305.456 M124.100 305.460 C 123.820 305.576,123.600 306.357,123.600 307.233 L 123.600 308.800 127.100 308.806 C 130.894 308.813,132.252 309.244,131.200 310.108 C 130.870 310.378,129.611 311.770,128.402 313.200 C 127.194 314.630,126.114 315.890,126.002 316.000 C 123.858 318.110,123.200 319.335,123.200 321.214 L 123.200 323.200 131.022 323.200 L 138.844 323.200 138.722 321.300 L 138.600 319.400 134.500 319.286 C 129.636 319.151,129.396 318.312,133.216 314.800 C 136.057 312.188,138.432 308.589,138.321 307.065 L 138.200 305.400 131.400 305.327 C 127.660 305.287,124.375 305.347,124.100 305.460 M143.300 305.460 C 143.020 305.576,142.800 306.357,142.800 307.233 L 142.800 308.800 146.300 308.806 C 151.814 308.816,151.889 308.364,145.109 315.978 C 142.519 318.886,142.418 319.079,142.409 321.100 L 142.400 323.200 150.200 323.200 L 158.000 323.200 158.000 321.833 C 158.000 319.237,157.935 319.200,153.370 319.200 C 148.308 319.200,148.293 319.470,153.695 313.266 C 157.477 308.921,157.638 308.662,157.521 307.066 L 157.400 305.400 150.600 305.327 C 146.860 305.287,143.575 305.347,143.300 305.460 M311.067 305.467 C 310.920 305.613,310.800 309.663,310.800 314.467 L 310.800 323.200 313.200 323.200 L 315.600 323.200 315.600 318.387 C 315.600 311.902,316.942 309.200,320.162 309.200 C 321.141 309.200,321.200 309.086,321.200 307.200 C 321.200 304.860,320.146 304.504,317.676 306.010 C 316.303 306.847,315.600 306.768,315.600 305.776 C 315.600 305.175,311.630 304.904,311.067 305.467 M183.768 309.646 C 185.924 311.342,185.103 312.183,181.161 312.315 C 177.474 312.438,176.404 312.009,177.333 310.781 C 178.897 308.714,181.908 308.183,183.768 309.646 M300.568 309.646 C 302.767 311.376,301.914 312.184,297.748 312.314 C 293.940 312.434,293.141 312.090,294.144 310.765 C 295.698 308.713,298.714 308.188,300.568 309.646 M246.595 315.992 C 247.320 317.166,244.798 319.578,242.831 319.591 C 240.569 319.606,239.119 317.441,240.480 316.080 C 241.059 315.501,246.246 315.426,246.595 315.992 " stroke="none" fill="#fafafa" fill-rule="evenodd"></path><path id="path1" d="M181.200 1.000 C 181.200 1.495,180.467 1.600,177.000 1.600 C 174.467 1.600,172.800 1.759,172.800 2.000 C 172.800 2.239,171.267 2.400,169.000 2.400 C 166.733 2.400,165.200 2.561,165.200 2.800 C 165.200 3.020,164.300 3.200,163.200 3.200 C 161.689 3.200,161.200 3.347,161.200 3.800 C 161.200 4.244,160.733 4.400,159.400 4.400 C 158.410 4.400,157.600 4.580,157.600 4.800 C 157.600 5.022,156.533 5.200,155.200 5.200 C 153.333 5.200,152.800 5.333,152.800 5.800 C 152.800 6.253,152.311 6.400,150.800 6.400 C 149.700 6.400,148.800 6.580,148.800 6.800 C 148.800 7.020,148.170 7.200,147.400 7.200 C 146.630 7.200,146.000 7.380,146.000 7.600 C 146.000 7.820,145.100 8.000,144.000 8.000 C 142.489 8.000,142.000 8.147,142.000 8.600 C 142.000 9.019,141.578 9.200,140.600 9.200 C 139.830 9.200,139.200 9.380,139.200 9.600 C 139.200 9.820,138.570 10.000,137.800 10.000 C 136.822 10.000,136.400 10.181,136.400 10.600 C 136.400 11.019,135.978 11.200,135.000 11.200 C 134.230 11.200,133.600 11.380,133.600 11.600 C 133.600 11.820,132.970 12.000,132.200 12.000 C 131.430 12.000,130.800 12.180,130.800 12.400 C 130.800 12.620,130.350 12.800,129.800 12.800 C 129.178 12.800,128.800 13.027,128.800 13.400 C 128.800 13.819,128.378 14.000,127.400 14.000 C 126.630 14.000,126.000 14.180,126.000 14.400 C 126.000 14.620,125.550 14.800,125.000 14.800 C 124.450 14.800,124.000 14.980,124.000 15.200 C 124.000 15.420,123.370 15.600,122.600 15.600 C 121.622 15.600,121.200 15.781,121.200 16.200 C 121.200 16.573,120.822 16.800,120.200 16.800 C 119.650 16.800,119.200 16.980,119.200 17.200 C 119.200 17.420,118.834 17.600,118.387 17.600 C 117.941 17.600,117.471 17.870,117.345 18.200 C 117.218 18.530,116.684 18.800,116.157 18.800 C 115.631 18.800,115.200 18.980,115.200 19.200 C 115.200 19.420,114.840 19.600,114.400 19.600 C 113.960 19.600,113.600 19.780,113.600 20.000 C 113.600 20.220,113.150 20.400,112.600 20.400 C 111.978 20.400,111.600 20.627,111.600 21.000 C 111.600 21.373,111.222 21.600,110.600 21.600 C 110.050 21.600,109.600 21.780,109.600 22.000 C 109.600 22.220,109.234 22.400,108.787 22.400 C 108.341 22.400,107.871 22.670,107.745 23.000 C 107.618 23.330,107.084 23.600,106.557 23.600 C 106.031 23.600,105.600 23.780,105.600 24.000 C 105.600 24.220,105.240 24.400,104.800 24.400 C 104.360 24.400,104.000 24.580,104.000 24.800 C 104.000 25.020,103.550 25.200,103.000 25.200 C 102.378 25.200,102.000 25.427,102.000 25.800 C 102.000 26.140,101.641 26.400,101.171 26.400 C 100.286 26.400,99.200 27.266,99.200 27.971 C 99.200 28.207,98.750 28.400,98.200 28.400 C 97.650 28.400,97.200 28.580,97.200 28.800 C 97.200 29.020,96.827 29.200,96.371 29.200 C 95.486 29.200,94.400 30.066,94.400 30.771 C 94.400 31.007,93.950 31.200,93.400 31.200 C 92.850 31.200,92.400 31.380,92.400 31.600 C 92.400 31.820,92.065 32.000,91.656 32.000 C 91.247 32.000,90.574 32.450,90.161 33.000 C 89.748 33.550,89.080 34.000,88.676 34.000 C 87.871 34.000,86.800 34.897,86.800 35.571 C 86.800 35.807,86.530 36.000,86.200 36.000 C 85.870 36.000,85.600 36.180,85.600 36.400 C 85.600 36.620,85.265 36.800,84.856 36.800 C 84.447 36.800,83.774 37.250,83.361 37.800 C 82.948 38.350,82.280 38.800,81.876 38.800 C 81.152 38.800,80.000 39.676,80.000 40.227 C 80.000 40.653,78.679 41.573,78.047 41.587 C 77.743 41.594,76.900 42.230,76.174 43.000 C 75.448 43.770,74.662 44.400,74.427 44.400 C 74.192 44.400,74.000 44.670,74.000 45.000 C 74.000 45.333,73.644 45.600,73.200 45.600 C 72.760 45.600,72.400 45.780,72.400 46.000 C 72.400 46.220,72.207 46.400,71.971 46.400 C 71.418 46.400,70.400 47.418,70.400 47.971 C 70.400 48.207,70.207 48.400,69.971 48.400 C 69.505 48.400,68.400 49.385,68.400 49.800 C 68.400 50.293,67.252 51.200,66.629 51.200 C 65.942 51.200,62.800 54.154,62.800 54.800 C 62.800 55.020,62.612 55.200,62.382 55.200 C 61.839 55.200,60.000 57.039,60.000 57.582 C 60.000 57.812,59.807 58.000,59.571 58.000 C 59.018 58.000,58.000 59.018,58.000 59.571 C 58.000 59.807,57.812 60.000,57.582 60.000 C 57.039 60.000,55.200 61.839,55.200 62.382 C 55.200 62.612,55.020 62.800,54.800 62.800 C 54.154 62.800,51.200 65.942,51.200 66.629 C 51.200 67.252,50.293 68.400,49.800 68.400 C 49.385 68.400,48.400 69.505,48.400 69.971 C 48.400 70.207,48.207 70.400,47.971 70.400 C 47.418 70.400,46.400 71.418,46.400 71.971 C 46.400 72.207,46.220 72.400,46.000 72.400 C 45.780 72.400,45.600 72.760,45.600 73.200 C 45.600 73.644,45.333 74.000,45.000 74.000 C 44.670 74.000,44.400 74.192,44.400 74.427 C 44.400 74.662,43.770 75.448,43.000 76.174 C 42.230 76.900,41.594 77.743,41.587 78.047 C 41.573 78.679,40.653 80.000,40.227 80.000 C 39.676 80.000,38.800 81.152,38.800 81.876 C 38.800 82.280,38.350 82.948,37.800 83.361 C 37.250 83.774,36.800 84.447,36.800 84.856 C 36.800 85.265,36.620 85.600,36.400 85.600 C 36.180 85.600,36.000 85.870,36.000 86.200 C 36.000 86.530,35.730 86.800,35.400 86.800 C 35.067 86.800,34.800 87.156,34.800 87.600 C 34.800 88.040,34.620 88.400,34.400 88.400 C 34.180 88.400,34.000 88.670,34.000 89.000 C 34.000 89.330,33.820 89.600,33.600 89.600 C 33.380 89.600,33.200 90.061,33.200 90.624 C 33.200 91.187,33.052 91.556,32.871 91.444 C 32.388 91.145,31.200 92.681,31.200 93.605 C 31.200 94.042,31.007 94.400,30.771 94.400 C 30.066 94.400,29.200 95.486,29.200 96.371 C 29.200 96.827,29.020 97.200,28.800 97.200 C 28.580 97.200,28.400 97.650,28.400 98.200 C 28.400 98.750,28.207 99.200,27.971 99.200 C 27.266 99.200,26.400 100.286,26.400 101.171 C 26.400 101.641,26.140 102.000,25.800 102.000 C 25.427 102.000,25.200 102.378,25.200 103.000 C 25.200 103.550,25.020 104.000,24.800 104.000 C 24.580 104.000,24.400 104.360,24.400 104.800 C 24.400 105.240,24.220 105.600,24.000 105.600 C 23.780 105.600,23.600 106.031,23.600 106.557 C 23.600 107.084,23.330 107.618,23.000 107.745 C 22.670 107.871,22.400 108.341,22.400 108.787 C 22.400 109.234,22.220 109.600,22.000 109.600 C 21.780 109.600,21.600 110.050,21.600 110.600 C 21.600 111.222,21.373 111.600,21.000 111.600 C 20.627 111.600,20.400 111.978,20.400 112.600 C 20.400 113.150,20.220 113.600,20.000 113.600 C 19.780 113.600,19.600 113.960,19.600 114.400 C 19.600 114.840,19.420 115.200,19.200 115.200 C 18.980 115.200,18.800 115.631,18.800 116.157 C 18.800 116.684,18.530 117.218,18.200 117.345 C 17.870 117.471,17.600 117.941,17.600 118.387 C 17.600 118.834,17.420 119.200,17.200 119.200 C 16.980 119.200,16.800 119.650,16.800 120.200 C 16.800 120.822,16.573 121.200,16.200 121.200 C 15.867 121.200,15.600 121.556,15.600 122.000 C 15.600 122.440,15.420 122.800,15.200 122.800 C 14.980 122.800,14.800 123.520,14.800 124.400 C 14.800 125.280,14.620 126.000,14.400 126.000 C 14.180 126.000,14.000 126.630,14.000 127.400 C 14.000 128.378,13.819 128.800,13.400 128.800 C 13.027 128.800,12.800 129.178,12.800 129.800 C 12.800 130.350,12.620 130.800,12.400 130.800 C 12.180 130.800,12.000 131.430,12.000 132.200 C 12.000 132.970,11.820 133.600,11.600 133.600 C 11.380 133.600,11.200 134.230,11.200 135.000 C 11.200 135.978,11.019 136.400,10.600 136.400 C 10.181 136.400,10.000 136.822,10.000 137.800 C 10.000 138.570,9.820 139.200,9.600 139.200 C 9.380 139.200,9.200 139.830,9.200 140.600 C 9.200 141.578,9.019 142.000,8.600 142.000 C 8.147 142.000,8.000 142.489,8.000 144.000 C 8.000 145.100,7.820 146.000,7.600 146.000 C 7.380 146.000,7.200 146.630,7.200 147.400 C 7.200 148.170,7.020 148.800,6.800 148.800 C 6.580 148.800,6.400 149.700,6.400 150.800 C 6.400 152.311,6.253 152.800,5.800 152.800 C 5.356 152.800,5.200 153.267,5.200 154.600 C 5.200 155.590,5.020 156.400,4.800 156.400 C 4.578 156.400,4.400 157.467,4.400 158.800 C 4.400 160.667,4.267 161.200,3.800 161.200 C 3.320 161.200,3.200 161.800,3.200 164.200 C 3.200 165.933,3.031 167.200,2.800 167.200 C 2.571 167.200,2.400 168.400,2.400 170.000 C 2.400 171.600,2.229 172.800,2.000 172.800 C 1.761 172.800,1.600 174.333,1.600 176.600 C 1.600 179.711,1.491 180.400,1.000 180.400 C 0.475 180.400,0.400 182.889,0.400 200.400 C 0.400 217.911,0.475 220.400,1.000 220.400 C 1.497 220.400,1.600 221.156,1.600 224.800 C 1.600 227.467,1.758 229.200,2.000 229.200 C 2.229 229.200,2.400 230.400,2.400 232.000 C 2.400 233.600,2.571 234.800,2.800 234.800 C 3.031 234.800,3.200 236.067,3.200 237.800 C 3.200 240.200,3.320 240.800,3.800 240.800 C 4.260 240.800,4.400 241.308,4.400 242.976 C 4.400 244.173,4.580 245.264,4.800 245.400 C 5.020 245.536,5.200 246.447,5.200 247.424 C 5.200 248.736,5.357 249.200,5.800 249.200 C 6.253 249.200,6.400 249.689,6.400 251.200 C 6.400 252.300,6.580 253.200,6.800 253.200 C 7.020 253.200,7.200 253.830,7.200 254.600 C 7.200 255.370,7.380 256.000,7.600 256.000 C 7.820 256.000,8.000 256.791,8.000 257.757 C 8.000 258.950,8.193 259.588,8.600 259.745 C 8.977 259.889,9.200 260.501,9.200 261.387 C 9.200 262.164,9.380 262.800,9.600 262.800 C 9.820 262.800,10.000 263.430,10.000 264.200 C 10.000 265.178,10.181 265.600,10.600 265.600 C 11.019 265.600,11.200 266.022,11.200 267.000 C 11.200 267.770,11.380 268.400,11.600 268.400 C 11.820 268.400,12.000 269.030,12.000 269.800 C 12.000 270.570,12.180 271.200,12.400 271.200 C 12.620 271.200,12.800 271.566,12.800 272.013 C 12.800 272.459,13.070 272.929,13.400 273.055 C 13.770 273.197,14.000 273.805,14.000 274.643 C 14.000 275.389,14.180 276.000,14.400 276.000 C 14.620 276.000,14.800 276.630,14.800 277.400 C 14.800 278.170,14.980 278.800,15.200 278.800 C 15.420 278.800,15.600 279.166,15.600 279.613 C 15.600 280.059,15.870 280.529,16.200 280.655 C 16.530 280.782,16.800 281.316,16.800 281.843 C 16.800 282.369,16.980 282.800,17.200 282.800 C 17.420 282.800,17.600 283.250,17.600 283.800 C 17.600 284.422,17.827 284.800,18.200 284.800 C 18.619 284.800,18.800 285.222,18.800 286.200 C 18.800 286.970,18.980 287.600,19.200 287.600 C 19.420 287.600,19.600 288.050,19.600 288.600 C 19.600 289.150,19.780 289.600,20.000 289.600 C 20.220 289.600,20.400 289.876,20.400 290.213 C 20.400 290.549,20.670 290.929,21.000 291.055 C 21.330 291.182,21.600 291.716,21.600 292.243 C 21.600 292.769,21.780 293.200,22.000 293.200 C 22.220 293.200,22.400 293.650,22.400 294.200 C 22.400 294.822,22.627 295.200,23.000 295.200 C 23.358 295.200,23.600 295.568,23.600 296.112 C 23.600 296.613,23.960 297.283,24.400 297.600 C 24.840 297.917,25.200 298.587,25.200 299.088 L 25.200 300.000 15.800 300.000 C 6.646 300.000,6.400 300.021,6.400 300.805 C 6.400 301.612,10.064 305.600,10.805 305.600 C 11.022 305.600,11.200 305.788,11.200 306.018 C 11.200 306.560,13.273 308.631,13.685 308.500 C 13.858 308.445,14.000 308.593,14.000 308.829 C 14.000 309.382,15.018 310.400,15.571 310.400 C 15.807 310.400,15.955 310.542,15.900 310.715 C 15.769 311.127,17.840 313.200,18.382 313.200 C 18.612 313.200,18.800 313.378,18.800 313.595 C 18.800 314.117,22.674 318.000,23.195 318.000 C 23.418 318.000,23.600 318.189,23.600 318.419 C 23.600 318.965,27.435 322.800,27.981 322.800 C 28.211 322.800,28.400 322.982,28.400 323.205 C 28.400 323.726,32.283 327.600,32.805 327.600 C 33.022 327.600,33.200 327.792,33.200 328.027 C 33.200 328.262,34.055 329.279,35.100 330.287 C 36.248 331.395,36.802 332.188,36.500 332.293 C 36.225 332.389,36.000 332.722,36.000 333.033 C 36.000 333.345,35.807 333.600,35.571 333.600 C 35.105 333.600,34.000 334.585,34.000 335.000 C 34.000 335.334,32.934 336.400,32.600 336.400 C 32.185 336.400,31.200 337.505,31.200 337.971 C 31.200 338.207,30.996 338.400,30.747 338.400 C 30.268 338.400,28.401 340.389,28.400 340.900 C 28.400 341.065,28.207 341.200,27.971 341.200 C 27.418 341.200,26.400 342.218,26.400 342.771 C 26.400 343.007,26.207 343.200,25.971 343.200 C 25.407 343.200,24.400 344.222,24.400 344.795 C 24.400 345.044,24.220 345.136,24.000 345.000 C 23.780 344.864,23.600 345.033,23.600 345.376 C 23.600 345.719,23.407 346.000,23.171 346.000 C 22.618 346.000,21.600 347.018,21.600 347.571 C 21.600 347.807,21.465 348.000,21.300 348.000 C 20.789 348.001,18.800 349.868,18.800 350.347 C 18.800 350.596,18.607 350.800,18.371 350.800 C 17.818 350.800,16.800 351.818,16.800 352.371 C 16.800 352.607,16.665 352.800,16.500 352.800 C 15.989 352.801,14.000 354.668,14.000 355.147 C 14.000 355.396,13.807 355.600,13.571 355.600 C 13.105 355.600,12.000 356.585,12.000 357.000 C 12.000 357.334,10.934 358.400,10.600 358.400 C 10.185 358.400,9.200 359.505,9.200 359.971 C 9.200 360.207,9.007 360.400,8.771 360.400 C 8.218 360.400,7.200 361.418,7.200 361.971 C 7.200 362.207,7.020 362.400,6.800 362.400 C 6.580 362.400,6.400 362.760,6.400 363.200 C 6.400 363.992,6.667 364.000,34.000 364.000 C 58.810 364.000,61.600 364.063,61.600 364.628 C 61.600 365.050,61.895 365.214,62.500 365.128 C 63.395 365.001,63.401 364.958,63.508 356.900 C 63.568 352.445,63.748 348.806,63.908 348.813 C 64.444 348.836,65.600 349.882,65.600 350.344 C 65.600 350.595,65.962 350.800,66.405 350.800 C 67.212 350.800,71.200 354.464,71.200 355.205 C 71.200 355.422,71.470 355.600,71.800 355.600 C 72.130 355.600,72.400 355.780,72.400 356.000 C 72.400 356.220,72.741 356.400,73.157 356.400 C 73.574 356.400,74.022 356.681,74.154 357.025 C 74.286 357.369,74.576 357.539,74.797 357.402 C 75.019 357.265,75.200 357.356,75.200 357.605 C 75.200 358.178,76.207 359.200,76.771 359.200 C 77.007 359.200,77.200 359.470,77.200 359.800 C 77.200 360.133,77.556 360.400,78.000 360.400 C 78.440 360.400,78.800 360.580,78.800 360.800 C 78.800 361.020,78.993 361.200,79.229 361.200 C 79.782 361.200,80.800 362.218,80.800 362.771 C 80.800 363.007,81.207 363.200,81.705 363.200 C 82.204 363.200,82.947 363.649,83.361 364.200 C 83.774 364.750,84.447 365.200,84.856 365.200 C 85.265 365.200,85.600 365.380,85.600 365.600 C 85.600 365.820,85.793 366.000,86.029 366.000 C 86.582 366.000,87.600 367.018,87.600 367.571 C 87.600 367.807,87.973 368.000,88.429 368.000 C 89.314 368.000,90.400 368.866,90.400 369.571 C 90.400 369.807,90.850 370.000,91.400 370.000 C 91.950 370.000,92.400 370.180,92.400 370.400 C 92.400 370.620,92.773 370.800,93.229 370.800 C 94.114 370.800,95.200 371.666,95.200 372.371 C 95.200 372.607,95.650 372.800,96.200 372.800 C 96.750 372.800,97.200 372.980,97.200 373.200 C 97.200 373.420,97.650 373.600,98.200 373.600 C 98.750 373.600,99.200 373.793,99.200 374.029 C 99.200 374.734,100.286 375.600,101.171 375.600 C 101.627 375.600,102.000 375.780,102.000 376.000 C 102.000 376.220,102.450 376.400,103.000 376.400 C 103.622 376.400,104.000 376.627,104.000 377.000 C 104.000 377.333,104.356 377.600,104.800 377.600 C 105.240 377.600,105.600 377.780,105.600 378.000 C 105.600 378.220,106.050 378.400,106.600 378.400 C 107.222 378.400,107.600 378.627,107.600 379.000 C 107.600 379.337,107.957 379.600,108.417 379.600 C 108.866 379.600,109.620 379.960,110.092 380.400 C 110.564 380.840,111.277 381.200,111.675 381.200 C 112.074 381.200,112.400 381.470,112.400 381.800 C 112.400 382.173,112.778 382.400,113.400 382.400 C 113.950 382.400,114.400 382.580,114.400 382.800 C 114.400 383.020,115.011 383.200,115.757 383.200 C 116.595 383.200,117.203 383.430,117.345 383.800 C 117.471 384.130,117.941 384.400,118.387 384.400 C 118.834 384.400,119.200 384.580,119.200 384.800 C 119.200 385.020,119.650 385.200,120.200 385.200 C 120.750 385.200,121.200 385.380,121.200 385.600 C 121.200 385.820,121.830 386.000,122.600 386.000 C 123.578 386.000,124.000 386.181,124.000 386.600 C 124.000 386.973,124.378 387.200,125.000 387.200 C 125.550 387.200,126.000 387.380,126.000 387.600 C 126.000 387.820,126.630 388.000,127.400 388.000 C 128.170 388.000,128.800 388.180,128.800 388.400 C 128.800 388.620,129.250 388.800,129.800 388.800 C 130.422 388.800,130.800 389.027,130.800 389.400 C 130.800 389.819,131.222 390.000,132.200 390.000 C 132.970 390.000,133.600 390.180,133.600 390.400 C 133.600 390.620,134.230 390.800,135.000 390.800 C 135.978 390.800,136.400 390.981,136.400 391.400 C 136.400 391.819,136.822 392.000,137.800 392.000 C 138.570 392.000,139.200 392.180,139.200 392.400 C 139.200 392.620,139.830 392.800,140.600 392.800 C 141.370 392.800,142.000 392.980,142.000 393.200 C 142.000 393.420,142.900 393.600,144.000 393.600 C 145.511 393.600,146.000 393.747,146.000 394.200 C 146.000 394.644,146.467 394.800,147.800 394.800 C 148.790 394.800,149.600 394.980,149.600 395.200 C 149.600 395.420,150.320 395.600,151.200 395.600 C 152.356 395.600,152.800 395.767,152.800 396.200 C 152.800 396.667,153.333 396.800,155.200 396.800 C 156.533 396.800,157.600 396.978,157.600 397.200 C 157.600 397.420,158.410 397.600,159.400 397.600 C 160.390 397.600,161.200 397.780,161.200 398.000 C 161.200 398.227,162.352 398.400,163.856 398.400 C 165.924 398.400,166.625 398.555,167.023 399.100 C 168.035 400.483,234.800 400.344,234.800 398.958 C 234.800 398.530,235.499 398.400,237.800 398.400 C 239.533 398.400,240.800 398.231,240.800 398.000 C 240.800 397.780,241.610 397.600,242.600 397.600 C 243.590 397.600,244.400 397.420,244.400 397.200 C 244.400 396.980,245.300 396.800,246.400 396.800 C 247.911 396.800,248.400 396.653,248.400 396.200 C 248.400 395.733,248.933 395.600,250.800 395.600 C 252.133 395.600,253.200 395.422,253.200 395.200 C 253.200 394.980,253.830 394.800,254.600 394.800 C 255.578 394.800,256.000 394.619,256.000 394.200 C 256.000 393.781,256.422 393.600,257.400 393.600 C 258.170 393.600,258.800 393.420,258.800 393.200 C 258.800 392.980,259.599 392.800,260.576 392.800 C 261.553 392.800,262.464 392.620,262.600 392.400 C 262.736 392.180,263.382 392.000,264.036 392.000 C 264.724 392.000,265.322 391.747,265.455 391.400 C 265.597 391.030,266.205 390.800,267.043 390.800 C 267.789 390.800,268.400 390.620,268.400 390.400 C 268.400 390.180,269.030 390.000,269.800 390.000 C 270.778 390.000,271.200 389.819,271.200 389.400 C 271.200 389.027,271.578 388.800,272.200 388.800 C 272.750 388.800,273.200 388.620,273.200 388.400 C 273.200 388.180,273.830 388.000,274.600 388.000 C 275.370 388.000,276.000 387.820,276.000 387.600 C 276.000 387.380,276.450 387.200,277.000 387.200 C 277.622 387.200,278.000 386.973,278.000 386.600 C 278.000 386.181,278.422 386.000,279.400 386.000 C 280.170 386.000,280.800 385.820,280.800 385.600 C 280.800 385.380,281.173 385.200,281.629 385.200 C 282.084 385.200,282.729 384.928,283.061 384.596 C 283.393 384.264,283.831 384.096,284.035 384.222 C 284.239 384.348,284.514 384.169,284.646 383.825 C 284.798 383.428,285.381 383.200,286.243 383.200 C 286.989 383.200,287.600 383.020,287.600 382.800 C 287.600 382.580,287.966 382.400,288.413 382.400 C 288.859 382.400,289.329 382.130,289.455 381.800 C 289.582 381.470,290.026 381.200,290.443 381.200 C 290.859 381.200,291.200 381.020,291.200 380.800 C 291.200 380.580,291.470 380.400,291.800 380.400 C 292.130 380.400,292.400 380.220,292.400 380.000 C 292.400 379.780,292.766 379.600,293.213 379.600 C 293.659 379.600,294.129 379.330,294.255 379.000 C 294.382 378.670,294.826 378.400,295.243 378.400 C 295.659 378.400,296.000 378.220,296.000 378.000 C 296.000 377.780,296.450 377.600,297.000 377.600 C 297.622 377.600,298.000 377.373,298.000 377.000 C 298.000 376.627,298.378 376.400,299.000 376.400 C 299.550 376.400,300.000 376.220,300.000 376.000 C 300.000 375.780,300.373 375.600,300.829 375.600 C 301.714 375.600,302.800 374.734,302.800 374.029 C 302.800 373.793,303.250 373.600,303.800 373.600 C 304.350 373.600,304.800 373.420,304.800 373.200 C 304.800 372.980,305.135 372.800,305.544 372.800 C 305.953 372.800,306.626 372.350,307.039 371.800 C 307.453 371.249,308.196 370.800,308.695 370.800 C 309.193 370.800,309.600 370.620,309.600 370.400 C 309.600 370.180,309.935 370.000,310.344 370.000 C 310.753 370.000,311.426 369.550,311.839 369.000 C 312.253 368.449,312.996 368.000,313.495 368.000 C 313.993 368.000,314.400 367.807,314.400 367.571 C 314.400 367.018,315.418 366.000,315.971 366.000 C 316.207 366.000,316.400 365.820,316.400 365.600 C 316.400 365.380,316.760 365.200,317.200 365.200 C 317.644 365.200,318.000 364.933,318.000 364.600 C 318.000 364.270,318.270 364.000,318.600 364.000 C 318.930 364.000,319.200 363.820,319.200 363.600 C 319.200 363.380,319.650 363.200,320.200 363.200 C 320.750 363.200,321.200 363.012,321.200 362.782 C 321.200 362.191,323.060 360.401,323.682 360.393 C 323.967 360.389,324.624 359.939,325.142 359.393 C 325.660 358.847,326.215 358.400,326.374 358.400 C 326.534 358.400,326.906 357.950,327.200 357.400 C 327.494 356.850,328.081 356.400,328.503 356.400 C 328.926 356.400,330.512 355.140,332.027 353.600 C 335.740 349.828,335.600 349.655,335.600 358.000 C 335.600 364.933,335.630 365.200,336.400 365.200 C 336.844 365.200,337.200 364.933,337.200 364.600 C 337.200 364.072,340.600 364.000,365.400 364.000 C 393.333 364.000,393.600 363.992,393.600 363.200 C 393.600 362.760,393.420 362.400,393.200 362.400 C 392.980 362.400,392.800 362.207,392.800 361.971 C 392.800 361.418,391.782 360.400,391.229 360.400 C 390.993 360.400,390.800 360.207,390.800 359.971 C 390.800 359.505,389.815 358.400,389.400 358.400 C 389.066 358.400,388.000 357.334,388.000 357.000 C 388.000 356.585,386.895 355.600,386.429 355.600 C 386.193 355.600,386.000 355.396,386.000 355.147 C 386.000 354.668,384.011 352.801,383.500 352.800 C 383.335 352.800,383.200 352.607,383.200 352.371 C 383.200 351.818,382.182 350.800,381.629 350.800 C 381.393 350.800,381.200 350.596,381.200 350.347 C 381.200 349.868,379.211 348.001,378.700 348.000 C 378.535 348.000,378.400 347.807,378.400 347.571 C 378.400 347.018,377.382 346.000,376.829 346.000 C 376.593 346.000,376.400 345.719,376.400 345.376 C 376.400 345.033,376.220 344.864,376.000 345.000 C 375.780 345.136,375.600 345.044,375.600 344.795 C 375.600 344.222,374.593 343.200,374.029 343.200 C 373.793 343.200,373.600 343.007,373.600 342.771 C 373.600 342.218,372.582 341.200,372.029 341.200 C 371.793 341.200,371.600 341.065,371.600 340.900 C 371.599 340.389,369.732 338.400,369.253 338.400 C 369.004 338.400,368.800 338.207,368.800 337.971 C 368.800 337.505,367.815 336.400,367.400 336.400 C 367.066 336.400,366.000 335.334,366.000 335.000 C 366.000 334.585,364.895 333.600,364.429 333.600 C 364.193 333.600,364.000 333.345,364.000 333.033 C 364.000 332.722,363.775 332.389,363.500 332.293 C 363.198 332.188,363.752 331.395,364.900 330.287 C 365.945 329.279,366.800 328.262,366.800 328.027 C 366.800 327.792,366.978 327.600,367.195 327.600 C 367.717 327.600,371.600 323.726,371.600 323.205 C 371.600 322.982,371.789 322.800,372.019 322.800 C 372.565 322.800,376.400 318.965,376.400 318.419 C 376.400 318.189,376.582 318.000,376.805 318.000 C 377.326 318.000,381.200 314.117,381.200 313.595 C 381.200 313.378,381.388 313.200,381.618 313.200 C 382.160 313.200,384.231 311.127,384.100 310.715 C 384.045 310.542,384.193 310.400,384.429 310.400 C 384.982 310.400,386.000 309.382,386.000 308.829 C 386.000 308.593,386.142 308.445,386.315 308.500 C 386.727 308.631,388.800 306.560,388.800 306.018 C 388.800 305.788,388.978 305.600,389.195 305.600 C 389.936 305.600,393.600 301.612,393.600 300.805 C 393.600 300.023,393.352 300.000,385.000 300.000 L 376.400 300.000 376.400 299.000 C 376.400 298.378,376.627 298.000,377.000 298.000 C 377.373 298.000,377.600 297.622,377.600 297.000 C 377.600 296.450,377.780 296.000,378.000 296.000 C 378.220 296.000,378.400 295.659,378.400 295.243 C 378.400 294.826,378.670 294.382,379.000 294.255 C 379.330 294.129,379.600 293.659,379.600 293.213 C 379.600 292.766,379.780 292.400,380.000 292.400 C 380.220 292.400,380.400 292.130,380.400 291.800 C 380.400 291.470,380.580 291.200,380.800 291.200 C 381.020 291.200,381.200 290.840,381.200 290.400 C 381.200 289.956,381.467 289.600,381.800 289.600 C 382.173 289.600,382.400 289.222,382.400 288.600 C 382.400 288.050,382.580 287.600,382.800 287.600 C 383.020 287.600,383.200 286.989,383.200 286.243 C 383.200 285.381,383.428 284.798,383.825 284.646 C 384.169 284.514,384.348 284.239,384.222 284.035 C 384.096 283.831,384.264 283.393,384.596 283.061 C 384.928 282.729,385.200 282.084,385.200 281.629 C 385.200 281.173,385.380 280.800,385.600 280.800 C 385.820 280.800,386.000 280.350,386.000 279.800 C 386.000 279.178,386.227 278.800,386.600 278.800 C 387.019 278.800,387.200 278.378,387.200 277.400 C 387.200 276.630,387.380 276.000,387.600 276.000 C 387.820 276.000,388.000 275.370,388.000 274.600 C 388.000 273.830,388.180 273.200,388.400 273.200 C 388.620 273.200,388.800 272.750,388.800 272.200 C 388.800 271.578,389.027 271.200,389.400 271.200 C 389.819 271.200,390.000 270.778,390.000 269.800 C 390.000 269.030,390.180 268.400,390.400 268.400 C 390.620 268.400,390.800 267.789,390.800 267.043 C 390.800 266.205,391.030 265.597,391.400 265.455 C 391.747 265.322,392.000 264.724,392.000 264.036 C 392.000 263.382,392.180 262.736,392.400 262.600 C 392.620 262.464,392.800 261.834,392.800 261.200 C 392.800 260.566,392.980 259.936,393.200 259.800 C 393.420 259.664,393.600 258.753,393.600 257.776 C 393.600 256.464,393.757 256.000,394.200 256.000 C 394.619 256.000,394.800 255.578,394.800 254.600 C 394.800 253.830,394.980 253.200,395.200 253.200 C 395.420 253.200,395.600 252.300,395.600 251.200 C 395.600 249.689,395.747 249.200,396.200 249.200 C 396.644 249.200,396.800 248.733,396.800 247.400 C 396.800 246.410,396.980 245.600,397.200 245.600 C 397.422 245.600,397.600 244.533,397.600 243.200 C 397.600 241.867,397.778 240.800,398.000 240.800 C 398.231 240.800,398.400 239.533,398.400 237.800 C 398.400 235.499,398.530 234.800,398.958 234.800 C 400.344 234.800,400.483 168.035,399.100 167.023 C 398.555 166.625,398.400 165.924,398.400 163.856 C 398.400 162.352,398.227 161.200,398.000 161.200 C 397.780 161.200,397.600 160.390,397.600 159.400 C 397.600 158.410,397.420 157.600,397.200 157.600 C 396.978 157.600,396.800 156.533,396.800 155.200 C 396.800 153.333,396.667 152.800,396.200 152.800 C 395.747 152.800,395.600 152.311,395.600 150.800 C 395.600 149.700,395.420 148.800,395.200 148.800 C 394.980 148.800,394.800 148.170,394.800 147.400 C 394.800 146.422,394.619 146.000,394.200 146.000 C 393.747 146.000,393.600 145.511,393.600 144.000 C 393.600 142.900,393.420 142.000,393.200 142.000 C 392.980 142.000,392.800 141.370,392.800 140.600 C 392.800 139.830,392.620 139.200,392.400 139.200 C 392.180 139.200,392.000 138.570,392.000 137.800 C 392.000 136.822,391.819 136.400,391.400 136.400 C 390.981 136.400,390.800 135.978,390.800 135.000 C 390.800 134.230,390.620 133.600,390.400 133.600 C 390.180 133.600,390.000 132.970,390.000 132.200 C 390.000 131.222,389.819 130.800,389.400 130.800 C 389.027 130.800,388.800 130.422,388.800 129.800 C 388.800 129.250,388.620 128.800,388.400 128.800 C 388.180 128.800,388.000 128.170,388.000 127.400 C 388.000 126.630,387.820 126.000,387.600 126.000 C 387.380 126.000,387.200 125.364,387.200 124.587 C 387.200 123.701,386.977 123.089,386.600 122.945 C 386.270 122.818,386.000 122.374,386.000 121.957 C 386.000 121.541,385.820 121.200,385.600 121.200 C 385.380 121.200,385.200 120.750,385.200 120.200 C 385.200 119.650,385.020 119.200,384.800 119.200 C 384.580 119.200,384.400 118.834,384.400 118.387 C 384.400 117.941,384.130 117.471,383.800 117.345 C 383.430 117.203,383.200 116.595,383.200 115.757 C 383.200 115.011,383.020 114.400,382.800 114.400 C 382.580 114.400,382.400 113.950,382.400 113.400 C 382.400 112.778,382.173 112.400,381.800 112.400 C 381.470 112.400,381.200 112.051,381.200 111.624 C 381.200 111.197,381.020 110.736,380.800 110.600 C 380.580 110.464,380.400 110.003,380.400 109.576 C 380.400 109.149,380.240 108.800,380.043 108.800 C 379.847 108.800,379.574 108.350,379.436 107.800 C 379.298 107.250,379.008 106.800,378.792 106.800 C 378.577 106.800,378.400 106.530,378.400 106.200 C 378.400 105.870,378.220 105.600,378.000 105.600 C 377.780 105.600,377.600 105.240,377.600 104.800 C 377.600 104.356,377.333 104.000,377.000 104.000 C 376.627 104.000,376.400 103.622,376.400 103.000 C 376.400 102.450,376.220 102.000,376.000 102.000 C 375.780 102.000,375.600 101.627,375.600 101.171 C 375.600 100.286,374.734 99.200,374.029 99.200 C 373.793 99.200,373.600 98.750,373.600 98.200 C 373.600 97.650,373.420 97.200,373.200 97.200 C 372.980 97.200,372.800 96.750,372.800 96.200 C 372.800 95.650,372.607 95.200,372.371 95.200 C 371.724 95.200,370.800 94.142,370.800 93.400 C 370.800 92.658,369.876 91.600,369.229 91.600 C 368.993 91.600,368.800 91.150,368.800 90.600 C 368.800 90.050,368.620 89.600,368.400 89.600 C 368.180 89.600,368.000 89.330,368.000 89.000 C 368.000 88.670,367.730 88.400,367.400 88.400 C 367.067 88.400,366.800 88.044,366.800 87.600 C 366.800 87.160,366.620 86.800,366.400 86.800 C 366.180 86.800,366.000 86.530,366.000 86.200 C 366.000 85.870,365.820 85.600,365.600 85.600 C 365.380 85.600,365.200 85.265,365.200 84.856 C 365.200 84.447,364.750 83.774,364.200 83.361 C 363.649 82.947,363.200 82.204,363.200 81.705 C 363.200 81.207,363.007 80.800,362.771 80.800 C 362.305 80.800,361.200 79.815,361.200 79.400 C 361.200 78.985,360.095 78.000,359.629 78.000 C 359.393 78.000,359.200 77.627,359.200 77.171 C 359.200 76.273,358.332 75.200,357.605 75.200 C 357.356 75.200,357.265 75.019,357.402 74.797 C 357.539 74.576,357.369 74.286,357.025 74.154 C 356.681 74.022,356.400 73.574,356.400 73.157 C 356.400 72.741,356.220 72.400,356.000 72.400 C 355.780 72.400,355.600 72.130,355.600 71.800 C 355.600 71.470,355.422 71.200,355.205 71.200 C 354.464 71.200,350.800 67.212,350.800 66.405 C 350.800 65.956,350.535 65.600,350.200 65.600 C 349.870 65.600,349.600 65.465,349.600 65.300 C 349.599 64.789,347.732 62.800,347.253 62.800 C 347.004 62.800,346.800 62.607,346.800 62.371 C 346.800 61.905,345.815 60.800,345.400 60.800 C 345.066 60.800,344.000 59.734,344.000 59.400 C 344.000 58.985,342.895 58.000,342.429 58.000 C 342.193 58.000,342.000 57.807,342.000 57.571 C 342.000 57.105,341.015 56.000,340.600 56.000 C 340.266 56.000,339.200 54.934,339.200 54.600 C 339.200 54.185,338.095 53.200,337.629 53.200 C 337.393 53.200,337.200 53.007,337.200 52.771 C 337.200 52.124,336.142 51.200,335.400 51.200 C 334.658 51.200,333.600 50.276,333.600 49.629 C 333.600 49.393,333.408 49.200,333.173 49.200 C 332.938 49.200,331.969 48.390,331.021 47.400 C 330.039 46.375,328.931 45.600,328.448 45.600 C 327.982 45.600,327.600 45.412,327.600 45.182 C 327.600 44.640,325.527 42.569,325.115 42.700 C 324.942 42.755,324.800 42.530,324.800 42.200 C 324.800 41.860,324.441 41.600,323.971 41.600 C 323.187 41.600,322.000 40.757,322.000 40.200 C 322.000 39.643,320.813 38.800,320.029 38.800 C 319.573 38.800,319.200 38.620,319.200 38.400 C 319.200 38.180,318.930 38.000,318.600 38.000 C 318.270 38.000,318.000 37.730,318.000 37.400 C 318.000 37.067,317.644 36.800,317.200 36.800 C 316.760 36.800,316.400 36.620,316.400 36.400 C 316.400 36.180,316.130 36.000,315.800 36.000 C 315.470 36.000,315.200 35.807,315.200 35.571 C 315.200 34.924,314.142 34.000,313.400 34.000 C 312.658 34.000,311.600 33.076,311.600 32.429 C 311.600 32.193,311.150 32.000,310.600 32.000 C 310.050 32.000,309.600 31.820,309.600 31.600 C 309.600 31.380,309.150 31.200,308.600 31.200 C 308.050 31.200,307.600 31.007,307.600 30.771 C 307.600 30.066,306.514 29.200,305.629 29.200 C 305.173 29.200,304.800 29.020,304.800 28.800 C 304.800 28.580,304.350 28.400,303.800 28.400 C 303.250 28.400,302.800 28.207,302.800 27.971 C 302.800 27.266,301.714 26.400,300.829 26.400 C 300.359 26.400,300.000 26.140,300.000 25.800 C 300.000 25.427,299.622 25.200,299.000 25.200 C 298.450 25.200,298.000 25.020,298.000 24.800 C 298.000 24.580,297.550 24.400,297.000 24.400 C 296.450 24.400,296.000 24.220,296.000 24.000 C 296.000 23.780,295.640 23.600,295.200 23.600 C 294.756 23.600,294.400 23.333,294.400 23.000 C 294.400 22.627,294.022 22.400,293.400 22.400 C 292.850 22.400,292.400 22.220,292.400 22.000 C 292.400 21.780,291.950 21.600,291.400 21.600 C 290.850 21.600,290.400 21.368,290.400 21.085 C 290.400 20.802,289.998 20.540,289.506 20.503 C 289.014 20.466,288.549 20.248,288.473 20.018 C 288.396 19.788,287.898 19.600,287.367 19.600 C 286.835 19.600,286.400 19.420,286.400 19.200 C 286.400 18.980,286.040 18.800,285.600 18.800 C 285.156 18.800,284.800 18.533,284.800 18.200 C 284.800 17.827,284.422 17.600,283.800 17.600 C 283.250 17.600,282.800 17.420,282.800 17.200 C 282.800 16.980,282.369 16.800,281.843 16.800 C 281.316 16.800,280.782 16.530,280.655 16.200 C 280.521 15.849,279.921 15.600,279.213 15.600 C 278.546 15.600,278.000 15.420,278.000 15.200 C 278.000 14.980,277.550 14.800,277.000 14.800 C 276.450 14.800,276.000 14.620,276.000 14.400 C 276.000 14.180,275.389 14.000,274.643 14.000 C 273.805 14.000,273.197 13.770,273.055 13.400 C 272.929 13.070,272.459 12.800,272.013 12.800 C 271.566 12.800,271.200 12.620,271.200 12.400 C 271.200 12.180,270.570 12.000,269.800 12.000 C 269.030 12.000,268.400 11.820,268.400 11.600 C 268.400 11.380,267.770 11.200,267.000 11.200 C 266.022 11.200,265.600 11.019,265.600 10.600 C 265.600 10.181,265.178 10.000,264.200 10.000 C 263.430 10.000,262.800 9.820,262.800 9.600 C 262.800 9.380,262.164 9.200,261.387 9.200 C 260.501 9.200,259.889 8.977,259.745 8.600 C 259.588 8.193,258.950 8.000,257.757 8.000 C 256.791 8.000,256.000 7.820,256.000 7.600 C 256.000 7.380,255.370 7.200,254.600 7.200 C 253.830 7.200,253.200 7.020,253.200 6.800 C 253.200 6.580,252.300 6.400,251.200 6.400 C 249.689 6.400,249.200 6.253,249.200 5.800 C 249.200 5.333,248.667 5.200,246.800 5.200 C 245.467 5.200,244.400 5.022,244.400 4.800 C 244.400 4.580,243.590 4.400,242.600 4.400 C 241.267 4.400,240.800 4.244,240.800 3.800 C 240.800 3.347,240.311 3.200,238.800 3.200 C 237.700 3.200,236.800 3.020,236.800 2.800 C 236.800 2.561,235.267 2.400,233.000 2.400 C 230.733 2.400,229.200 2.239,229.200 2.000 C 229.200 1.758,227.467 1.600,224.800 1.600 C 221.156 1.600,220.400 1.497,220.400 1.000 C 220.400 0.475,217.956 0.400,200.800 0.400 C 183.644 0.400,181.200 0.475,181.200 1.000 M201.429 120.414 C 208.108 123.647,206.916 135.291,199.768 136.632 C 197.754 137.010,194.990 135.528,193.589 133.318 C 189.393 126.702,195.081 117.341,201.429 120.414 M136.200 138.839 C 142.824 140.640,143.424 151.602,137.071 154.755 C 130.400 158.067,124.737 147.056,130.018 141.041 C 132.050 138.726,133.667 138.151,136.200 138.839 M265.313 138.952 C 271.540 141.624,271.938 151.415,265.956 154.777 C 260.133 158.049,254.002 149.169,257.503 142.534 C 259.189 139.337,262.583 137.781,265.313 138.952 M203.677 144.800 C 204.324 146.450,205.091 148.520,205.382 149.400 C 205.672 150.280,206.576 152.800,207.390 155.000 C 208.203 157.200,209.381 160.440,210.007 162.200 C 210.633 163.960,212.339 168.640,213.798 172.600 C 215.258 176.560,216.911 181.117,217.471 182.727 C 219.259 187.862,220.314 187.555,229.076 179.350 C 229.341 179.103,233.382 175.503,238.058 171.350 C 242.734 167.198,248.332 162.225,250.499 160.300 C 254.984 156.316,254.814 156.378,256.718 158.050 C 257.501 158.738,258.740 159.550,259.471 159.855 C 260.965 160.480,261.238 162.698,260.428 167.644 C 260.226 168.877,259.778 173.467,259.432 177.844 C 258.701 187.115,258.109 193.710,257.607 198.200 C 257.410 199.960,257.152 202.660,257.032 204.200 C 255.415 225.095,255.267 226.241,254.120 226.764 C 252.485 227.508,144.817 227.367,143.748 226.619 C 143.084 226.154,142.871 225.453,142.680 223.119 C 142.548 221.513,142.170 217.320,141.839 213.800 C 141.507 210.280,140.954 203.800,140.608 199.400 C 140.263 195.000,139.888 191.040,139.776 190.600 C 139.664 190.160,139.399 187.640,139.188 185.000 C 138.348 174.498,137.602 165.677,137.356 163.345 L 137.097 160.890 139.249 159.511 C 140.432 158.753,141.647 157.833,141.949 157.466 C 143.048 156.133,142.871 155.993,165.103 175.863 C 180.025 189.200,178.377 189.074,182.615 177.200 C 184.825 171.007,192.308 150.442,194.187 145.400 C 194.760 143.860,195.295 142.407,195.375 142.170 C 195.465 141.905,196.855 141.752,199.011 141.770 L 202.500 141.800 203.677 144.800 M253.936 232.352 C 254.643 232.800,254.019 242.813,253.225 243.770 C 252.447 244.707,145.578 244.737,144.801 243.801 C 144.032 242.875,143.388 232.781,144.070 232.348 C 144.766 231.907,253.239 231.910,253.936 232.352 M351.400 311.000 L 351.400 341.800 199.600 341.800 L 47.800 341.800 47.697 311.400 C 47.640 294.680,47.679 280.775,47.784 280.499 C 47.937 280.100,78.528 280.019,199.688 280.099 L 351.400 280.200 351.400 311.000 M79.462 298.700 C 79.360 298.865,81.582 299.000,84.400 299.000 C 87.218 299.000,89.440 298.865,89.338 298.700 C 89.236 298.535,87.014 298.400,84.400 298.400 C 81.786 298.400,79.564 298.535,79.462 298.700 M167.778 310.800 C 167.778 317.730,167.833 320.565,167.899 317.100 C 167.966 313.635,167.966 307.965,167.899 304.500 C 167.833 301.035,167.778 303.870,167.778 310.800 M202.880 298.880 C 202.616 299.144,202.400 299.538,202.400 299.756 C 202.400 299.975,202.633 299.834,202.918 299.445 C 203.358 298.842,203.950 298.756,206.881 298.868 C 208.776 298.941,210.242 298.865,210.140 298.700 C 209.824 298.193,203.408 298.352,202.880 298.880 M226.264 298.697 C 230.727 298.880,230.442 297.965,230.312 311.717 C 230.250 318.211,230.335 323.441,230.500 323.339 C 230.665 323.236,230.800 317.881,230.800 311.438 C 230.800 297.516,231.100 298.355,226.169 298.481 L 223.000 298.563 226.264 298.697 M276.700 298.689 C 277.415 298.778,278.585 298.778,279.300 298.689 C 280.015 298.601,279.430 298.528,278.000 298.528 C 276.570 298.528,275.985 298.601,276.700 298.689 M44.304 324.300 L 44.407 345.200 52.433 345.200 C 59.861 345.200,60.449 345.252,60.324 345.900 C 60.203 346.529,59.493 346.611,53.295 346.709 L 46.400 346.819 46.400 347.810 C 46.400 348.553,47.814 350.207,52.039 354.411 C 55.758 358.110,57.601 360.221,57.451 360.610 C 57.107 361.508,15.690 361.499,15.345 360.601 C 15.189 360.193,19.404 355.719,28.558 346.574 C 39.550 335.593,42.000 332.950,42.000 332.071 C 42.000 331.192,39.555 328.551,28.600 317.600 C 21.230 310.232,15.200 303.976,15.200 303.697 C 15.200 303.295,18.201 303.212,29.700 303.295 L 44.200 303.400 44.304 324.300 M384.967 303.546 C 385.084 303.736,379.155 309.928,371.790 317.306 C 359.388 329.730,358.400 330.821,358.400 332.098 C 358.400 333.375,359.385 334.463,371.741 346.839 C 379.078 354.187,385.003 360.425,384.907 360.700 C 384.620 361.524,342.859 361.420,342.542 360.594 C 342.385 360.184,344.009 358.302,347.555 354.785 C 352.279 350.099,352.800 349.443,352.800 348.191 L 352.800 346.800 346.243 346.800 C 340.986 346.800,339.643 346.689,339.470 346.239 C 339.098 345.268,339.571 345.200,346.667 345.200 L 353.600 345.200 353.600 324.200 L 353.600 303.200 369.176 303.200 C 377.743 303.200,384.849 303.356,384.967 303.546 M103.500 304.282 C 103.995 304.378,104.805 304.378,105.300 304.282 C 105.795 304.187,105.390 304.109,104.400 304.109 C 103.410 304.109,103.005 304.187,103.500 304.282 M115.300 304.287 C 115.905 304.378,116.895 304.378,117.500 304.287 C 118.105 304.195,117.610 304.120,116.400 304.120 C 115.190 304.120,114.695 304.195,115.300 304.287 M127.900 304.298 C 129.715 304.372,132.685 304.372,134.500 304.298 C 136.315 304.223,134.830 304.163,131.200 304.163 C 127.570 304.163,126.085 304.223,127.900 304.298 M147.100 304.298 C 148.915 304.372,151.885 304.372,153.700 304.298 C 155.515 304.223,154.030 304.163,150.400 304.163 C 146.770 304.163,145.285 304.223,147.100 304.298 M281.500 304.282 C 281.995 304.378,282.805 304.378,283.300 304.282 C 283.795 304.187,283.390 304.109,282.400 304.109 C 281.410 304.109,281.005 304.187,281.500 304.282 M312.100 304.287 C 312.705 304.378,313.695 304.378,314.300 304.287 C 314.905 304.195,314.410 304.120,313.200 304.120 C 311.990 304.120,311.495 304.195,312.100 304.287 M86.700 304.689 C 87.415 304.778,88.585 304.778,89.300 304.689 C 90.015 304.601,89.430 304.528,88.000 304.528 C 86.570 304.528,85.985 304.601,86.700 304.689 M119.092 304.832 C 119.440 305.278,119.618 308.098,119.700 314.432 L 119.816 323.400 119.908 314.349 C 119.991 306.139,119.935 305.247,119.300 304.749 C 118.682 304.264,118.658 304.274,119.092 304.832 M321.724 307.000 C 321.726 308.320,321.801 308.812,321.890 308.093 C 321.979 307.374,321.977 306.294,321.886 305.693 C 321.795 305.092,321.722 305.680,321.724 307.000 M138.920 307.200 C 138.920 308.410,138.995 308.905,139.087 308.300 C 139.178 307.695,139.178 306.705,139.087 306.100 C 138.995 305.495,138.920 305.990,138.920 307.200 M158.109 307.200 C 158.109 308.190,158.187 308.595,158.282 308.100 C 158.378 307.605,158.378 306.795,158.282 306.300 C 158.187 305.805,158.109 306.210,158.109 307.200 M309.680 314.276 C 309.636 319.158,309.735 323.237,309.900 323.339 C 310.065 323.441,310.154 320.797,310.097 317.463 C 309.909 306.415,309.762 305.289,309.680 314.276 M124.800 309.448 C 127.122 309.746,130.801 309.777,130.801 309.500 C 130.800 309.335,129.225 309.227,127.300 309.260 C 125.375 309.293,124.250 309.378,124.800 309.448 M143.800 309.453 C 146.669 309.751,150.001 309.776,150.001 309.500 C 150.000 309.335,148.335 309.229,146.300 309.264 C 144.265 309.299,143.140 309.384,143.800 309.453 M180.500 309.476 C 180.885 309.576,181.515 309.576,181.900 309.476 C 182.285 309.375,181.970 309.293,181.200 309.293 C 180.430 309.293,180.115 309.375,180.500 309.476 M242.105 309.487 C 242.714 309.579,243.614 309.577,244.105 309.482 C 244.597 309.387,244.100 309.311,243.000 309.314 C 241.900 309.317,241.497 309.395,242.105 309.487 M297.300 309.476 C 297.685 309.576,298.315 309.576,298.700 309.476 C 299.085 309.375,298.770 309.293,298.000 309.293 C 297.230 309.293,296.915 309.375,297.300 309.476 M319.300 310.276 C 319.685 310.376,320.315 310.376,320.700 310.276 C 321.085 310.175,320.770 310.093,320.000 310.093 C 319.230 310.093,318.915 310.175,319.300 310.276 M241.852 311.116 C 241.744 311.290,242.318 311.370,243.128 311.293 C 245.602 311.059,245.893 310.895,243.924 310.846 C 242.892 310.821,241.959 310.942,241.852 311.116 M223.599 317.119 L 223.797 323.000 223.910 317.432 C 223.973 314.369,223.883 311.723,223.712 311.550 C 223.540 311.378,223.489 313.884,223.599 317.119 M287.709 314.000 C 287.709 314.990,287.787 315.395,287.882 314.900 C 287.978 314.405,287.978 313.595,287.882 313.100 C 287.787 312.605,287.709 313.010,287.709 314.000 M180.705 318.683 C 181.202 318.779,181.922 318.775,182.305 318.675 C 182.687 318.575,182.280 318.496,181.400 318.501 C 180.520 318.505,180.207 318.587,180.705 318.683 M242.100 318.676 C 242.485 318.776,243.115 318.776,243.500 318.676 C 243.885 318.575,243.570 318.493,242.800 318.493 C 242.030 318.493,241.715 318.575,242.100 318.676 M297.505 318.683 C 298.002 318.779,298.722 318.775,299.105 318.675 C 299.487 318.575,299.080 318.496,298.200 318.501 C 297.320 318.505,297.007 318.587,297.505 318.683 M141.246 321.076 C 141.221 322.218,141.338 323.238,141.507 323.343 C 141.676 323.447,141.757 322.783,141.686 321.866 C 141.479 319.175,141.296 318.847,141.246 321.076 M139.590 321.681 C 139.484 322.716,139.545 323.415,139.726 323.234 C 139.907 323.053,139.993 322.207,139.919 321.353 L 139.783 319.800 139.590 321.681 M80.900 323.887 C 81.505 323.978,82.495 323.978,83.100 323.887 C 83.705 323.795,83.210 323.720,82.000 323.720 C 80.790 323.720,80.295 323.795,80.900 323.887 M115.300 323.887 C 115.905 323.978,116.895 323.978,117.500 323.887 C 118.105 323.795,117.610 323.720,116.400 323.720 C 115.190 323.720,114.695 323.795,115.300 323.887 M127.321 323.898 C 129.477 323.971,132.897 323.970,134.921 323.898 C 136.944 323.825,135.180 323.766,131.000 323.767 C 126.820 323.767,125.164 323.826,127.321 323.898 M146.521 323.898 C 148.677 323.971,152.097 323.970,154.121 323.898 C 156.144 323.825,154.380 323.766,150.200 323.767 C 146.020 323.767,144.364 323.826,146.521 323.898 M164.100 323.887 C 164.705 323.978,165.695 323.978,166.300 323.887 C 166.905 323.795,166.410 323.720,165.200 323.720 C 163.990 323.720,163.495 323.795,164.100 323.887 M204.307 323.890 C 205.026 323.979,206.106 323.977,206.707 323.886 C 207.308 323.795,206.720 323.722,205.400 323.724 C 204.080 323.726,203.588 323.801,204.307 323.890 M226.100 323.887 C 226.705 323.978,227.695 323.978,228.300 323.887 C 228.905 323.795,228.410 323.720,227.200 323.720 C 225.990 323.720,225.495 323.795,226.100 323.887 M248.100 323.887 C 248.705 323.978,249.695 323.978,250.300 323.887 C 250.905 323.795,250.410 323.720,249.200 323.720 C 247.990 323.720,247.495 323.795,248.100 323.887 M312.100 323.887 C 312.705 323.978,313.695 323.978,314.300 323.887 C 314.905 323.795,314.410 323.720,313.200 323.720 C 311.990 323.720,311.495 323.795,312.100 323.887 " stroke="none" fill="#548374" fill-rule="evenodd"></path><path id="path2" d="M47.784 280.499 C 47.679 280.775,47.640 294.680,47.697 311.400 L 47.800 341.800 199.600 341.800 L 351.400 341.800 351.400 311.000 L 351.400 280.200 199.688 280.099 C 78.528 280.019,47.937 280.100,47.784 280.499 M167.748 298.100 C 168.235 299.919,168.028 323.012,167.520 323.520 C 166.999 324.041,164.838 324.148,162.850 323.750 L 161.600 323.500 161.600 310.617 C 161.600 303.531,161.720 297.613,161.867 297.467 C 162.654 296.679,167.507 297.202,167.748 298.100 M89.400 298.800 C 89.536 299.020,90.540 299.200,91.632 299.200 C 96.366 299.200,98.800 302.215,98.800 308.081 L 98.800 312.287 97.166 314.144 C 96.267 315.165,95.202 316.000,94.799 316.000 C 94.396 316.000,93.994 316.217,93.906 316.483 C 93.799 316.803,92.371 317.021,89.672 317.129 L 85.600 317.293 85.600 320.256 C 85.600 323.598,85.214 324.000,82.007 324.000 C 79.004 324.000,79.200 324.891,79.200 311.224 C 79.200 304.464,79.320 298.813,79.467 298.667 C 79.900 298.233,89.126 298.357,89.400 298.800 M210.706 299.500 C 211.585 300.772,213.600 304.800,213.600 305.286 C 213.600 305.468,214.050 306.329,214.600 307.200 C 215.150 308.071,215.600 309.128,215.600 309.549 C 215.600 310.737,216.685 310.914,216.971 309.773 C 217.105 309.238,217.392 308.800,217.608 308.800 C 217.823 308.800,218.000 308.528,218.000 308.195 C 218.000 307.862,218.208 307.187,218.462 306.695 C 218.717 306.203,219.045 305.530,219.192 305.200 C 219.339 304.870,219.739 304.060,220.081 303.400 C 220.423 302.740,220.942 301.660,221.235 301.000 C 222.175 298.880,223.088 298.419,226.369 298.409 C 231.070 298.395,230.800 297.598,230.800 311.472 L 230.800 323.220 229.700 323.645 C 228.243 324.208,224.427 323.888,223.969 323.164 C 223.773 322.854,223.585 320.080,223.552 317.000 C 223.518 313.920,223.413 311.805,223.318 312.300 C 223.222 312.795,222.977 313.200,222.772 313.200 C 222.567 313.200,222.400 313.474,222.400 313.808 C 222.400 314.142,221.950 315.129,221.400 316.000 C 220.850 316.871,220.394 317.813,220.387 318.092 C 220.284 322.037,213.259 323.414,213.209 319.500 C 213.204 319.115,213.032 318.800,212.827 318.800 C 212.622 318.800,212.339 318.395,212.199 317.900 C 212.059 317.405,211.282 315.650,210.472 314.000 L 209.000 311.000 208.890 317.256 C 208.783 323.341,208.756 323.518,207.890 323.750 C 206.364 324.160,203.383 324.023,202.880 323.520 C 202.194 322.834,202.194 299.566,202.880 298.880 C 203.957 297.803,209.856 298.271,210.706 299.500 M280.557 299.033 C 280.691 299.381,280.800 300.618,280.800 301.782 L 280.800 303.898 282.843 304.094 C 285.091 304.311,285.585 304.772,285.594 306.667 C 285.605 308.924,285.318 309.200,282.957 309.200 L 280.800 309.200 280.800 313.320 C 280.800 315.991,280.969 317.609,281.280 317.920 C 281.886 318.526,283.299 318.541,283.893 317.947 C 284.590 317.250,285.315 317.740,286.291 319.570 C 287.214 321.302,286.942 322.800,285.704 322.800 C 285.427 322.800,285.200 322.980,285.200 323.200 C 285.200 323.420,284.851 323.600,284.424 323.600 C 283.997 323.600,283.536 323.780,283.400 324.000 C 282.336 325.721,275.200 322.553,275.200 320.359 C 275.200 319.968,275.020 319.536,274.800 319.400 C 274.568 319.257,274.400 317.072,274.400 314.204 C 274.400 309.377,274.378 309.253,273.500 309.128 C 272.032 308.919,271.931 304.959,273.379 304.408 C 274.316 304.052,274.400 303.824,274.400 301.630 C 274.400 298.766,274.782 298.430,278.057 298.412 C 279.754 298.403,280.375 298.557,280.557 299.033 M15.200 303.697 C 15.200 303.976,21.230 310.232,28.600 317.600 C 39.555 328.551,42.000 331.192,42.000 332.071 C 42.000 332.950,39.550 335.593,28.558 346.574 C 19.404 355.719,15.189 360.193,15.345 360.601 C 15.690 361.499,57.107 361.508,57.451 360.610 C 57.601 360.221,55.758 358.110,52.039 354.411 C 47.814 350.207,46.400 348.553,46.400 347.810 L 46.400 346.819 53.295 346.709 C 59.493 346.611,60.203 346.529,60.324 345.900 C 60.449 345.252,59.861 345.200,52.433 345.200 L 44.407 345.200 44.304 324.300 L 44.200 303.400 29.700 303.295 C 18.201 303.212,15.200 303.295,15.200 303.697 M353.600 324.200 L 353.600 345.200 346.667 345.200 C 339.571 345.200,339.098 345.268,339.470 346.239 C 339.643 346.689,340.986 346.800,346.243 346.800 L 352.800 346.800 352.800 348.191 C 352.800 349.443,352.279 350.099,347.555 354.785 C 344.009 358.302,342.385 360.184,342.542 360.594 C 342.859 361.420,384.620 361.524,384.907 360.700 C 385.003 360.425,379.078 354.187,371.741 346.839 C 359.385 334.463,358.400 333.375,358.400 332.098 C 358.400 330.821,359.388 329.730,371.790 317.306 C 379.155 309.928,385.084 303.736,384.967 303.546 C 384.849 303.356,377.743 303.200,369.176 303.200 L 353.600 303.200 353.600 324.200 M107.237 304.845 C 107.430 305.150,107.596 308.010,107.607 311.200 C 107.628 317.900,107.816 318.400,110.305 318.400 C 112.986 318.400,113.600 316.883,113.600 310.257 C 113.600 304.223,113.700 304.000,116.391 304.000 C 120.018 304.000,120.000 303.950,120.000 314.233 L 120.000 323.220 118.974 323.610 C 116.814 324.431,113.600 324.004,113.600 322.895 C 113.600 322.349,113.517 322.345,112.900 322.861 C 111.245 324.243,107.587 324.950,107.000 324.000 C 106.864 323.780,106.327 323.600,105.807 323.600 C 104.723 323.600,102.749 321.782,101.828 319.936 C 100.696 317.666,100.919 304.894,102.100 304.391 C 103.343 303.861,106.807 304.168,107.237 304.845 M138.809 304.800 C 140.148 306.922,139.052 309.788,135.598 313.200 C 135.486 313.310,134.433 314.525,133.258 315.900 L 131.121 318.400 134.938 318.400 C 139.304 318.400,140.000 318.854,140.000 321.699 C 140.000 323.816,139.281 324.001,131.074 323.995 C 122.065 323.987,122.400 324.099,122.400 321.100 C 122.400 319.309,122.581 318.528,123.108 318.047 C 123.497 317.691,125.303 315.645,127.122 313.500 L 130.430 309.600 127.448 309.600 C 123.309 309.600,123.200 309.532,123.200 306.944 C 123.200 305.072,123.323 304.723,124.100 304.399 C 125.667 303.746,138.362 304.092,138.809 304.800 M157.646 304.846 C 158.338 305.538,158.459 306.040,158.311 307.586 C 158.124 309.528,157.768 310.056,153.900 314.120 C 153.075 314.987,152.400 315.800,152.400 315.926 C 152.400 316.053,151.916 316.661,151.325 317.278 L 150.250 318.400 154.045 318.400 C 158.502 318.400,158.800 318.590,158.800 321.433 C 158.800 323.245,158.687 323.537,157.900 323.748 C 156.415 324.146,143.332 324.031,142.226 323.610 C 140.687 323.025,140.731 319.798,142.300 318.082 C 142.905 317.421,143.677 316.547,144.017 316.140 C 144.356 315.733,145.753 314.102,147.122 312.516 L 149.611 309.631 146.105 309.516 L 142.600 309.400 142.480 307.095 C 142.324 304.104,142.445 304.058,150.500 304.025 C 156.400 304.002,156.854 304.054,157.646 304.846 M185.266 304.677 C 186.110 305.049,186.800 305.499,186.800 305.677 C 186.800 305.855,187.004 306.000,187.253 306.000 C 187.784 306.000,188.911 307.238,190.035 309.057 C 190.691 310.117,190.813 310.913,190.717 313.475 L 190.600 316.600 184.500 316.710 C 181.145 316.771,178.400 316.960,178.400 317.130 C 178.400 318.495,183.207 318.938,185.034 317.741 C 186.134 317.020,188.455 318.639,188.932 320.460 C 189.147 321.282,187.845 322.800,186.925 322.800 C 186.636 322.800,186.400 322.939,186.400 323.109 C 186.400 323.473,182.630 324.400,181.148 324.400 C 180.094 324.400,178.175 323.873,176.400 323.097 C 175.027 322.496,172.000 319.239,172.000 318.363 C 172.000 317.969,171.820 317.536,171.600 317.400 C 171.380 317.264,171.200 315.824,171.200 314.200 C 171.200 312.576,171.380 311.136,171.600 311.000 C 171.820 310.864,172.000 310.313,172.000 309.776 C 172.000 309.239,172.168 308.800,172.373 308.800 C 172.578 308.800,172.850 308.474,172.976 308.075 C 173.239 307.247,176.536 304.800,177.388 304.800 C 177.699 304.800,178.064 304.620,178.200 304.400 C 178.610 303.736,183.574 303.931,185.266 304.677 M248.120 304.766 C 251.710 306.304,252.000 307.138,252.000 315.895 C 252.000 324.390,252.139 324.000,249.099 324.000 C 248.199 324.000,247.167 323.732,246.806 323.405 C 246.221 322.876,245.974 322.901,244.574 323.627 C 243.019 324.433,242.181 324.456,238.925 323.781 C 237.624 323.511,235.200 321.653,235.200 320.926 C 235.200 320.704,234.913 319.947,234.561 319.243 C 232.995 316.103,236.233 311.600,240.056 311.600 C 240.879 311.600,241.664 311.420,241.800 311.200 C 241.936 310.980,242.862 310.800,243.857 310.800 C 245.126 310.800,245.618 310.651,245.502 310.300 C 245.150 309.228,239.818 309.640,238.165 310.867 C 237.574 311.306,235.050 307.769,235.365 306.946 C 235.497 306.604,235.963 306.230,236.402 306.115 C 236.841 306.001,237.200 305.756,237.200 305.571 C 237.200 305.387,237.832 305.118,238.604 304.973 C 239.377 304.828,240.107 304.550,240.228 304.355 C 240.653 303.668,246.237 303.958,248.120 304.766 M267.695 305.099 C 270.282 306.340,270.476 306.877,269.100 309.001 C 268.101 310.543,267.154 310.745,265.346 309.802 C 263.607 308.896,261.600 309.002,261.600 310.000 C 261.600 310.533,261.867 310.800,262.400 310.800 C 262.840 310.800,263.200 310.980,263.200 311.200 C 263.200 311.420,263.640 311.600,264.179 311.600 C 265.203 311.600,268.413 313.144,269.305 314.065 C 271.332 316.159,270.168 322.800,267.773 322.800 C 267.458 322.800,267.200 322.951,267.200 323.136 C 267.200 325.570,254.960 323.524,254.462 321.007 C 254.011 318.726,256.483 316.779,258.495 317.832 C 260.962 319.122,261.193 319.200,262.546 319.200 C 263.292 319.200,264.102 318.959,264.346 318.665 C 264.824 318.090,264.566 317.908,261.400 316.586 C 258.170 315.238,257.775 315.017,256.500 313.841 C 255.322 312.755,255.200 312.427,255.200 310.335 C 255.200 305.029,261.790 302.267,267.695 305.099 M302.039 304.676 C 302.787 305.048,303.634 305.584,303.920 305.867 C 304.206 306.151,304.670 306.521,304.951 306.691 C 306.500 307.626,307.600 310.187,307.600 312.860 C 307.600 317.042,307.998 316.800,301.128 316.800 C 295.642 316.800,295.153 316.859,295.275 317.500 C 295.423 318.278,300.701 318.792,301.164 318.074 C 302.064 316.678,304.918 318.173,305.713 320.457 C 306.234 321.953,301.379 324.400,297.890 324.400 C 296.509 324.400,295.890 324.217,292.925 322.937 C 289.204 321.330,286.491 314.735,288.202 311.454 C 288.531 310.824,288.800 309.969,288.800 309.554 C 288.800 309.139,288.980 308.800,289.200 308.800 C 289.420 308.800,289.600 308.587,289.600 308.326 C 289.600 307.760,291.188 306.000,291.698 306.000 C 291.896 306.000,292.327 305.730,292.657 305.400 C 292.987 305.070,293.594 304.800,294.005 304.800 C 294.416 304.800,294.864 304.620,295.000 304.400 C 295.417 303.725,300.527 303.925,302.039 304.676 M315.367 304.243 C 315.715 304.376,316.000 304.812,316.000 305.211 C 316.000 305.876,316.152 305.856,317.821 304.968 C 321.093 303.229,322.000 303.682,322.000 307.059 C 322.000 309.610,321.470 310.400,319.757 310.400 C 318.160 310.400,317.361 311.019,316.975 312.555 C 316.830 313.134,316.551 313.706,316.356 313.827 C 316.160 313.948,316.000 316.177,316.000 318.781 C 316.000 322.728,315.895 323.555,315.367 323.757 C 314.401 324.128,311.774 324.046,310.626 323.610 L 309.600 323.220 309.600 314.410 C 309.600 306.133,309.648 305.552,310.400 304.800 C 311.202 303.998,313.932 303.692,315.367 304.243 M85.600 308.200 L 85.600 311.600 87.900 311.600 C 91.063 311.599,92.400 310.493,92.400 307.876 C 92.400 305.445,91.500 304.800,88.111 304.800 L 85.600 304.800 85.600 308.200 M178.875 310.416 C 177.624 311.581,177.662 311.600,181.270 311.600 L 184.539 311.600 183.600 310.600 C 182.402 309.325,180.141 309.237,178.875 310.416 M295.700 310.270 C 294.183 311.328,294.667 311.600,298.070 311.600 L 301.339 311.600 300.400 310.600 C 299.299 309.428,297.126 309.275,295.700 310.270 M241.067 316.725 C 240.151 317.738,240.915 318.400,243.000 318.400 C 244.768 318.400,245.600 317.862,245.600 316.720 C 245.600 315.683,242.007 315.687,241.067 316.725 " stroke="none" fill="#646464" fill-rule="evenodd"></path><path id="path3" d="M196.495 120.505 C 190.675 123.618,190.720 133.154,196.568 135.984 C 203.192 139.191,208.815 129.459,204.192 122.789 C 202.184 119.891,199.264 119.024,196.495 120.505 M200.546 121.002 C 201.176 121.331,201.941 121.600,202.246 121.600 C 202.551 121.600,202.800 121.929,202.800 122.330 C 202.800 122.732,203.250 123.483,203.800 124.000 C 204.409 124.572,204.800 125.381,204.800 126.070 C 204.800 126.691,204.980 127.200,205.200 127.200 C 205.420 127.200,205.600 127.639,205.600 128.176 C 205.600 128.713,205.420 129.264,205.200 129.400 C 204.980 129.536,204.785 130.042,204.768 130.524 C 204.714 131.989,203.080 134.588,202.127 134.724 C 201.649 134.792,201.043 135.107,200.780 135.424 C 200.153 136.180,197.834 136.164,197.200 135.400 C 196.926 135.070,196.441 134.800,196.122 134.800 C 195.376 134.800,194.400 133.824,194.400 133.078 C 194.400 132.759,194.130 132.274,193.800 132.000 C 193.470 131.726,193.200 131.020,193.200 130.431 C 193.200 129.842,192.980 129.140,192.710 128.870 C 192.323 128.483,192.323 128.215,192.710 127.595 C 192.980 127.164,193.200 126.390,193.200 125.875 C 193.200 125.361,193.650 124.517,194.200 124.000 C 194.750 123.483,195.200 122.827,195.200 122.542 C 195.200 121.242,198.940 120.165,200.546 121.002 M132.496 139.061 C 125.944 142.291,126.681 153.174,133.591 155.245 C 134.974 155.659,135.360 155.605,137.071 154.755 C 143.424 151.602,142.824 140.640,136.200 138.839 C 134.161 138.285,134.057 138.291,132.496 139.061 M261.917 138.795 C 254.211 141.118,255.018 154.182,262.947 155.469 C 265.484 155.881,268.275 153.642,269.913 149.881 C 271.456 146.339,269.015 140.541,265.313 138.952 C 263.884 138.339,263.490 138.321,261.917 138.795 M136.180 139.606 C 137.173 139.614,139.600 141.670,139.600 142.504 C 139.600 142.833,139.870 143.326,140.200 143.600 C 141.131 144.372,141.002 148.789,139.992 150.725 C 138.476 153.633,134.708 155.870,133.800 154.400 C 133.664 154.180,133.273 154.000,132.931 154.000 C 130.661 154.000,127.049 146.482,128.800 145.400 C 129.020 145.264,129.200 144.675,129.200 144.092 C 129.200 142.862,132.148 139.600,133.260 139.600 C 133.641 139.600,134.074 139.404,134.222 139.165 C 134.415 138.852,134.612 138.852,134.925 139.165 C 135.164 139.404,135.729 139.603,136.180 139.606 M267.100 141.382 C 268.299 142.500,268.800 143.289,268.800 144.060 C 268.800 144.661,268.980 145.264,269.200 145.400 C 269.420 145.536,269.600 146.436,269.600 147.400 C 269.600 148.364,269.420 149.264,269.200 149.400 C 268.980 149.536,268.800 149.931,268.800 150.277 C 268.800 152.320,263.111 155.874,262.200 154.400 C 262.064 154.180,261.637 154.000,261.251 154.000 C 260.380 154.000,258.400 151.987,258.400 151.102 C 258.400 150.742,258.220 150.336,258.000 150.200 C 257.305 149.770,257.574 143.944,258.350 142.621 C 258.984 141.540,260.500 140.359,262.000 139.776 C 262.330 139.647,262.869 139.401,263.198 139.229 C 263.955 138.832,264.957 139.385,267.100 141.382 M195.375 142.170 C 195.295 142.407,194.760 143.860,194.187 145.400 C 192.308 150.442,184.825 171.007,182.615 177.200 C 178.377 189.074,180.025 189.200,165.103 175.863 C 142.871 155.993,143.048 156.133,141.949 157.466 C 141.647 157.833,140.432 158.753,139.249 159.511 L 137.097 160.890 137.356 163.345 C 137.602 165.677,138.348 174.498,139.188 185.000 C 139.399 187.640,139.664 190.160,139.776 190.600 C 139.888 191.040,140.263 195.000,140.608 199.400 C 140.954 203.800,141.507 210.280,141.839 213.800 C 142.170 217.320,142.548 221.513,142.680 223.119 C 142.871 225.453,143.084 226.154,143.748 226.619 C 144.817 227.367,252.485 227.508,254.120 226.764 C 255.267 226.241,255.415 225.095,257.032 204.200 C 257.152 202.660,257.410 199.960,257.607 198.200 C 258.109 193.710,258.701 187.115,259.432 177.844 C 259.778 173.467,260.226 168.877,260.428 167.644 C 261.238 162.698,260.965 160.480,259.471 159.855 C 258.740 159.550,257.501 158.738,256.718 158.050 C 254.814 156.378,254.984 156.316,250.499 160.300 C 248.332 162.225,242.734 167.198,238.058 171.350 C 233.382 175.503,229.341 179.103,229.076 179.350 C 220.314 187.555,219.259 187.862,217.471 182.727 C 216.911 181.117,215.258 176.560,213.798 172.600 C 212.339 168.640,210.633 163.960,210.007 162.200 C 209.381 160.440,208.203 157.200,207.390 155.000 C 206.576 152.800,205.672 150.280,205.382 149.400 C 205.091 148.520,204.324 146.450,203.677 144.800 L 202.500 141.800 199.011 141.770 C 196.855 141.752,195.465 141.905,195.375 142.170 M202.171 143.176 C 202.517 143.463,202.800 144.099,202.800 144.589 C 202.800 145.080,203.250 146.327,203.800 147.362 C 204.350 148.396,204.800 149.582,204.800 149.998 C 204.800 150.413,204.980 150.864,205.200 151.000 C 205.420 151.136,205.600 151.755,205.600 152.375 C 205.600 152.995,205.870 153.726,206.200 154.000 C 206.530 154.274,206.800 154.920,206.800 155.437 C 206.800 155.953,207.160 157.017,207.600 157.800 C 208.040 158.583,208.400 159.544,208.400 159.936 C 208.400 160.327,208.664 160.996,208.987 161.424 C 209.310 161.851,209.580 162.684,209.587 163.276 C 209.594 163.868,209.780 164.464,210.000 164.600 C 210.220 164.736,210.400 165.366,210.400 166.000 C 210.400 166.634,210.569 167.257,210.775 167.384 C 211.382 167.760,212.400 170.048,212.400 171.038 C 212.400 171.541,212.580 172.064,212.800 172.200 C 213.020 172.336,213.200 172.852,213.200 173.347 C 213.200 173.842,213.464 174.596,213.787 175.024 C 214.110 175.451,214.380 176.117,214.387 176.505 C 214.400 177.213,214.526 177.526,215.743 179.862 C 216.104 180.556,216.400 181.490,216.400 181.938 C 216.400 182.386,216.580 182.864,216.800 183.000 C 217.020 183.136,217.200 183.630,217.200 184.098 C 217.200 187.864,221.151 187.716,225.175 183.800 C 226.870 182.150,228.470 180.800,228.731 180.800 C 228.991 180.800,230.945 179.090,233.072 177.000 C 235.200 174.910,237.138 173.200,237.378 173.200 C 237.619 173.200,239.519 171.490,241.600 169.400 C 243.681 167.310,245.573 165.600,245.803 165.600 C 246.034 165.600,247.952 163.890,250.066 161.800 C 254.022 157.889,254.841 157.464,255.953 158.745 C 256.309 159.155,257.452 159.878,258.493 160.352 L 260.386 161.214 260.142 163.707 C 260.007 165.078,259.740 166.371,259.548 166.580 C 259.357 166.789,259.200 169.163,259.200 171.856 C 259.200 174.689,259.031 176.857,258.800 177.000 C 258.566 177.145,258.400 179.444,258.400 182.544 C 258.400 185.899,258.237 188.003,257.955 188.285 C 257.698 188.542,257.420 190.942,257.297 193.965 C 257.181 196.844,256.931 199.200,256.743 199.200 C 256.554 199.200,256.400 201.439,256.400 204.176 C 256.400 206.913,256.244 209.249,256.054 209.366 C 255.864 209.484,255.622 211.843,255.515 214.609 C 255.399 217.616,255.136 219.824,254.861 220.099 C 254.607 220.353,254.400 221.635,254.400 222.949 C 254.400 227.246,260.807 226.800,199.070 226.800 C 137.801 226.800,143.600 227.159,143.600 223.362 C 143.600 222.199,143.447 221.153,143.260 221.037 C 143.074 220.922,142.818 218.370,142.692 215.365 C 142.564 212.310,142.273 209.713,142.031 209.471 C 141.770 209.210,141.600 207.113,141.600 204.144 C 141.600 201.311,141.431 199.143,141.200 199.000 C 140.969 198.857,140.800 196.689,140.800 193.856 C 140.800 191.163,140.625 188.785,140.411 188.571 C 140.197 188.357,139.900 185.885,139.749 183.077 C 139.599 180.268,139.324 177.877,139.138 177.762 C 138.952 177.647,138.800 175.144,138.800 172.200 C 138.800 169.063,138.634 166.745,138.400 166.600 C 137.550 166.075,137.914 160.800,138.800 160.800 C 139.240 160.800,139.600 160.620,139.600 160.400 C 139.600 160.180,139.856 160.000,140.169 160.000 C 140.482 160.000,141.273 159.550,141.927 159.000 C 143.656 157.545,143.852 157.635,148.000 161.800 C 150.081 163.890,151.971 165.600,152.200 165.600 C 152.429 165.600,154.319 167.310,156.400 169.400 C 158.481 171.490,160.427 173.200,160.723 173.200 C 161.019 173.200,162.986 174.910,165.093 177.000 C 167.200 179.090,169.108 180.800,169.333 180.800 C 169.558 180.800,171.130 182.150,172.825 183.800 C 176.932 187.796,180.800 188.012,180.800 184.244 C 180.800 183.724,181.070 183.074,181.400 182.800 C 181.730 182.526,182.000 181.795,182.000 181.175 C 182.000 180.555,182.180 179.936,182.400 179.800 C 182.620 179.664,182.800 179.203,182.800 178.776 C 182.800 178.349,182.980 178.000,183.200 178.000 C 183.420 178.000,183.600 177.482,183.600 176.849 C 183.600 176.216,183.870 175.474,184.200 175.200 C 184.530 174.926,184.800 174.195,184.800 173.575 C 184.800 172.955,184.980 172.336,185.200 172.200 C 185.420 172.064,185.600 171.434,185.600 170.800 C 185.600 170.166,185.769 169.543,185.975 169.416 C 186.582 169.040,187.600 166.752,187.600 165.762 C 187.600 165.259,187.780 164.736,188.000 164.600 C 188.220 164.464,188.400 163.948,188.400 163.453 C 188.400 162.958,188.664 162.204,188.987 161.776 C 189.310 161.349,189.580 160.505,189.587 159.900 C 189.594 159.295,189.780 158.800,190.000 158.800 C 190.220 158.800,190.400 158.451,190.400 158.024 C 190.400 157.597,190.580 157.136,190.800 157.000 C 191.020 156.864,191.201 156.448,191.202 156.076 C 191.204 155.704,191.474 154.884,191.802 154.254 C 192.131 153.624,192.400 152.780,192.400 152.378 C 192.400 151.976,192.580 151.536,192.800 151.400 C 193.020 151.264,193.200 150.645,193.200 150.025 C 193.200 149.405,193.470 148.674,193.800 148.400 C 194.130 148.126,194.400 147.575,194.400 147.175 C 194.400 146.775,194.580 146.336,194.800 146.200 C 195.020 146.064,195.200 145.547,195.200 145.052 C 195.200 142.872,200.188 141.530,202.171 143.176 M144.070 232.348 C 143.388 232.781,144.032 242.875,144.801 243.801 C 145.578 244.737,252.447 244.707,253.225 243.770 C 254.019 242.813,254.643 232.800,253.936 232.352 C 253.239 231.910,144.766 231.907,144.070 232.348 M253.600 237.005 C 253.600 239.318,253.433 241.523,253.229 241.905 C 253.025 242.287,252.761 242.915,252.642 243.300 C 252.299 244.407,145.600 244.387,145.600 243.280 C 145.600 242.884,145.409 242.369,145.175 242.135 C 144.941 241.901,144.644 239.705,144.515 237.255 L 144.280 232.800 198.940 232.800 L 253.600 232.800 253.600 237.005 M162.293 297.683 C 161.641 298.161,161.596 299.150,161.694 310.800 L 161.800 323.400 164.705 323.518 L 167.611 323.635 167.505 310.518 L 167.400 297.400 165.200 297.283 C 163.856 297.212,162.725 297.367,162.293 297.683 M167.200 310.600 L 167.200 323.200 164.800 323.200 L 162.400 323.200 162.400 310.867 C 162.400 297.036,162.200 298.000,165.067 298.000 L 167.200 298.000 167.200 310.600 M79.500 299.017 C 79.335 299.191,79.200 304.793,79.200 311.467 L 79.200 323.600 82.157 323.600 C 85.587 323.600,85.600 323.586,85.600 319.826 L 85.600 317.318 89.403 317.051 C 96.399 316.559,98.800 314.247,98.800 308.000 C 98.800 303.359,97.931 301.814,94.259 299.932 C 92.624 299.093,80.160 298.321,79.500 299.017 M202.808 299.585 C 202.535 300.096,202.425 304.401,202.494 311.885 L 202.600 323.400 205.690 323.517 L 208.780 323.633 208.890 317.146 L 209.000 310.659 210.735 314.230 C 214.034 321.020,214.235 321.345,215.354 321.718 C 217.385 322.395,220.400 319.805,220.400 317.384 C 220.400 317.063,220.580 316.800,220.800 316.800 C 221.020 316.800,221.200 316.526,221.200 316.192 C 221.200 315.858,221.650 314.871,222.200 314.000 C 222.750 313.129,223.200 312.106,223.200 311.728 C 223.200 311.283,223.337 311.177,223.588 311.428 C 223.802 311.642,224.027 314.423,224.088 317.608 L 224.200 323.400 227.200 323.400 L 230.200 323.400 230.306 311.648 C 230.381 303.311,230.280 299.737,229.957 299.348 C 229.465 298.756,223.376 298.556,222.569 299.106 C 222.027 299.475,220.800 301.942,220.800 302.661 C 220.800 302.958,220.620 303.200,220.400 303.200 C 220.180 303.200,220.000 303.377,220.000 303.592 C 220.000 304.357,216.756 310.800,216.371 310.800 C 216.156 310.800,215.826 310.395,215.636 309.900 C 215.447 309.405,214.462 307.271,213.446 305.157 C 212.431 303.043,211.600 301.108,211.600 300.857 C 211.600 300.606,211.420 300.400,211.200 300.400 C 210.980 300.400,210.800 300.149,210.800 299.843 C 210.800 298.486,203.522 298.252,202.808 299.585 M274.880 299.280 C 274.616 299.544,274.400 300.761,274.400 301.985 C 274.400 303.909,274.278 304.264,273.500 304.605 C 271.952 305.284,272.044 309.200,273.608 309.200 C 274.349 309.200,274.400 309.481,274.400 313.567 C 274.400 319.966,275.727 322.580,279.650 323.906 C 282.628 324.913,287.221 322.783,286.573 320.695 C 286.030 318.947,284.769 317.528,284.187 318.011 C 283.893 318.255,283.056 318.397,282.326 318.327 L 281.000 318.200 280.887 313.721 L 280.774 309.243 282.874 309.121 C 286.796 308.895,286.734 304.400,282.809 304.400 L 280.800 304.400 280.800 302.233 C 280.800 298.927,280.690 298.800,277.837 298.800 C 276.444 298.800,275.150 299.010,274.880 299.280 M93.303 300.229 C 96.811 301.424,98.400 303.969,98.400 308.393 C 98.400 313.781,95.212 316.400,88.656 316.400 C 84.778 316.400,84.800 316.379,84.800 320.043 L 84.800 323.200 82.200 323.200 L 79.600 323.200 79.600 311.400 L 79.600 299.600 85.529 299.600 C 89.870 299.600,91.952 299.768,93.303 300.229 M211.270 301.910 C 211.858 303.169,212.989 305.640,213.783 307.400 C 214.577 309.160,215.375 310.870,215.556 311.200 C 215.953 311.923,217.200 312.239,217.200 311.617 C 217.200 311.374,218.457 308.571,219.992 305.388 L 222.785 299.600 226.192 299.600 L 229.600 299.600 229.600 311.400 L 229.600 323.200 227.200 323.200 L 224.800 323.200 224.800 316.200 C 224.800 312.350,224.685 309.200,224.544 309.200 C 224.046 309.200,223.180 310.659,220.566 315.900 L 217.922 321.200 216.380 321.200 L 214.839 321.200 212.027 315.372 C 208.564 308.196,208.400 308.252,208.400 316.624 L 208.400 323.200 205.800 323.200 L 203.200 323.200 203.200 311.400 L 203.200 299.600 206.700 299.610 L 210.200 299.619 211.270 301.910 M280.318 302.480 L 280.436 305.159 282.518 305.280 L 284.600 305.400 284.600 306.800 C 284.600 308.187,284.581 308.202,282.600 308.400 L 280.600 308.600 280.488 313.503 C 280.360 319.075,280.794 319.838,283.542 318.880 C 284.860 318.421,286.000 319.469,286.000 321.140 C 286.000 323.463,280.439 324.240,277.865 322.277 C 275.702 320.627,275.477 319.915,275.276 314.070 C 275.099 308.909,275.063 308.728,274.147 308.380 C 272.771 307.857,272.807 305.730,274.200 305.200 C 275.110 304.854,275.200 304.608,275.200 302.477 C 275.200 299.590,275.252 299.538,277.984 299.683 L 280.200 299.800 280.318 302.480 M84.970 304.533 C 84.858 304.827,84.818 306.582,84.883 308.433 L 85.000 311.800 87.888 311.917 C 92.259 312.095,93.770 310.562,93.042 306.685 C 92.615 304.406,85.724 302.570,84.970 304.533 M177.600 304.729 C 175.309 305.583,172.000 308.790,172.000 310.157 C 172.000 310.705,171.820 311.264,171.600 311.400 C 169.407 312.755,173.516 322.800,176.264 322.800 C 176.559 322.800,176.800 322.943,176.800 323.117 C 176.800 323.791,181.500 324.513,182.841 324.046 C 183.544 323.801,184.456 323.600,184.868 323.600 C 185.957 323.600,188.801 321.605,188.794 320.847 C 188.776 319.058,185.615 316.945,184.549 318.011 C 183.871 318.689,180.309 318.895,179.232 318.318 C 176.902 317.071,177.734 316.800,183.887 316.800 C 190.784 316.800,190.800 316.792,190.800 313.507 C 190.800 306.729,184.134 302.296,177.600 304.729 M239.727 304.731 C 235.364 306.159,234.675 307.168,236.587 309.332 L 237.940 310.864 239.821 310.032 C 242.659 308.776,245.600 308.959,245.600 310.391 C 245.600 310.985,245.078 311.142,242.312 311.384 C 238.049 311.755,236.156 312.707,234.911 315.106 C 234.304 316.276,234.232 319.049,234.800 319.400 C 235.020 319.536,235.200 319.983,235.200 320.394 C 235.200 321.353,237.911 323.600,239.068 323.600 C 239.554 323.600,240.064 323.780,240.200 324.000 C 240.707 324.820,244.314 324.052,245.573 322.856 C 246.057 322.395,246.219 322.411,246.617 322.956 C 246.962 323.427,247.748 323.600,249.544 323.600 L 252.000 323.600 252.000 316.380 C 252.000 308.702,251.835 307.881,249.938 306.138 C 247.617 304.006,243.625 303.456,239.727 304.731 M259.600 304.669 C 255.920 306.255,253.955 310.700,255.913 313.010 C 257.099 314.409,259.441 316.000,260.314 316.000 C 260.775 316.000,261.255 316.166,261.381 316.369 C 261.506 316.572,262.135 316.854,262.777 316.995 C 264.318 317.333,265.177 318.317,264.374 318.824 C 263.644 319.286,261.005 319.306,260.095 318.857 C 259.713 318.669,258.845 318.226,258.166 317.873 C 256.805 317.167,255.200 317.789,255.200 319.023 C 255.200 319.340,255.020 319.600,254.800 319.600 C 254.580 319.600,254.400 320.024,254.400 320.543 C 254.400 321.600,257.683 323.600,259.418 323.600 C 259.937 323.600,260.821 323.809,261.381 324.064 C 263.047 324.823,266.540 323.780,268.522 321.932 C 271.359 319.286,270.376 312.867,267.122 312.787 C 266.835 312.780,266.251 312.510,265.824 312.187 C 265.396 311.864,264.749 311.600,264.385 311.600 C 263.327 311.600,261.145 310.365,261.311 309.861 C 261.567 309.079,264.481 309.070,265.930 309.846 C 267.649 310.767,269.836 309.176,269.971 306.908 C 270.080 305.061,262.491 303.423,259.600 304.669 M294.400 304.729 C 292.109 305.583,288.800 308.790,288.800 310.157 C 288.800 310.705,288.620 311.264,288.400 311.400 C 287.116 312.193,288.546 319.176,290.326 320.807 C 294.548 324.675,299.594 325.247,304.230 322.381 C 305.895 321.353,305.940 320.600,304.441 318.900 C 303.286 317.591,302.108 317.252,301.349 318.011 C 300.671 318.689,297.109 318.895,296.032 318.318 C 293.697 317.069,294.532 316.800,300.753 316.800 C 307.821 316.800,307.837 316.790,307.502 312.612 C 306.995 306.297,300.570 302.431,294.400 304.729 M318.232 304.996 C 315.881 306.196,316.139 306.173,315.884 305.200 C 315.624 304.206,311.226 304.004,310.441 304.950 C 310.121 305.336,310.017 308.185,310.092 314.450 L 310.200 323.400 313.100 323.518 L 316.000 323.635 316.000 319.051 C 316.000 312.405,317.167 310.000,320.391 310.000 L 321.635 310.000 321.518 307.104 C 321.379 303.690,321.119 303.523,318.232 304.996 M91.238 305.086 C 94.472 306.997,92.276 311.600,88.130 311.600 L 85.600 311.600 85.600 308.000 L 85.600 304.400 87.838 304.400 C 89.235 304.400,90.513 304.658,91.238 305.086 M101.680 304.880 C 100.810 305.750,101.038 317.555,101.966 319.720 C 103.776 323.944,108.801 325.429,112.700 322.893 C 113.503 322.371,113.600 322.377,113.600 322.954 C 113.600 323.491,114.105 323.600,116.600 323.600 L 119.600 323.600 119.600 314.449 C 119.600 303.929,119.727 304.293,116.134 304.479 L 113.800 304.600 113.689 310.354 C 113.554 317.340,113.101 318.400,110.253 318.400 C 107.691 318.400,107.600 318.170,107.600 311.694 C 107.600 304.614,107.508 304.400,104.466 304.400 C 103.198 304.400,101.944 304.616,101.680 304.880 M123.689 304.871 C 123.420 305.140,123.200 306.224,123.200 307.280 L 123.200 309.200 127.000 309.200 C 130.236 309.200,131.658 309.552,130.500 310.067 C 130.335 310.140,129.210 311.365,128.000 312.789 C 126.790 314.214,125.031 316.194,124.091 317.189 C 122.459 318.919,122.387 319.099,122.491 321.200 L 122.600 323.400 131.000 323.400 L 139.400 323.400 139.520 321.549 C 139.699 318.781,139.123 318.400,134.757 318.400 C 130.808 318.400,130.727 318.295,132.895 316.000 C 133.415 315.450,134.964 313.758,136.338 312.240 L 138.835 309.481 138.718 307.040 L 138.600 304.600 131.389 304.491 C 126.117 304.412,124.046 304.514,123.689 304.871 M142.889 304.871 C 142.620 305.140,142.400 306.224,142.400 307.280 L 142.400 309.200 146.200 309.200 C 150.562 309.200,150.474 309.122,148.500 311.256 C 147.675 312.147,146.665 313.292,146.256 313.800 C 145.847 314.308,144.624 315.670,143.538 316.827 C 141.605 318.885,141.566 318.976,141.682 321.165 L 141.800 323.400 150.200 323.400 L 158.600 323.400 158.720 321.549 C 158.899 318.778,158.325 318.400,153.938 318.400 C 151.955 318.400,150.393 318.242,150.467 318.049 C 150.603 317.689,153.819 313.948,156.500 311.032 C 157.922 309.484,157.995 309.276,157.900 307.000 L 157.800 304.600 150.589 304.491 C 145.317 304.412,143.246 304.514,142.889 304.871 M184.247 305.253 C 187.742 306.134,190.400 309.914,190.400 314.004 L 190.400 315.580 183.900 315.690 L 177.400 315.800 177.400 316.784 C 177.400 319.145,181.417 320.287,184.494 318.800 C 185.405 318.360,186.200 318.000,186.261 318.000 C 186.321 318.000,186.818 318.657,187.363 319.460 L 188.355 320.920 187.478 321.571 C 181.804 325.776,172.991 322.667,172.180 316.175 C 171.197 308.313,176.682 303.349,184.247 305.253 M248.482 305.862 C 251.041 307.331,251.600 309.270,251.600 316.685 L 251.600 323.200 249.400 323.200 C 248.190 323.200,247.197 323.065,247.194 322.900 C 247.169 321.688,246.433 321.522,245.149 322.437 C 241.012 325.382,234.745 321.917,235.300 316.991 C 235.683 313.591,237.494 312.394,242.800 312.032 C 245.875 311.822,246.212 311.719,246.321 310.950 C 246.616 308.882,243.024 308.077,239.608 309.444 C 237.873 310.138,236.448 309.279,236.413 307.519 C 236.369 305.267,245.308 304.040,248.482 305.862 M267.484 305.901 C 269.105 306.751,269.232 307.369,268.132 309.048 C 267.578 309.894,267.453 309.922,266.638 309.388 C 264.445 307.951,260.400 308.316,260.400 309.950 C 260.400 310.708,261.175 311.155,264.800 312.491 C 270.660 314.649,271.647 320.037,266.668 322.687 C 265.157 323.492,259.463 323.623,258.711 322.871 C 258.452 322.612,257.961 322.396,257.620 322.391 C 257.279 322.386,256.550 322.036,256.000 321.612 L 255.000 320.843 255.763 319.421 C 256.649 317.770,256.732 317.751,258.545 318.769 C 261.556 320.460,265.398 320.178,265.124 318.286 C 264.994 317.383,264.823 317.276,259.953 315.027 C 256.498 313.433,255.740 312.353,256.114 309.561 C 256.670 305.422,262.807 303.446,267.484 305.901 M302.420 305.810 C 304.745 307.013,305.954 308.557,306.627 311.182 C 307.748 315.558,308.008 315.369,300.532 315.600 C 293.844 315.807,293.136 315.968,293.852 317.119 C 295.293 319.436,298.472 320.164,301.263 318.815 C 303.009 317.971,303.158 318.024,304.495 319.959 C 306.236 322.478,297.933 324.637,293.991 322.691 C 286.306 318.894,287.239 307.277,295.400 305.148 C 297.210 304.676,300.899 305.024,302.420 305.810 M106.837 311.600 C 106.967 315.010,107.102 317.833,107.137 317.873 C 108.245 319.153,109.788 319.666,111.164 319.212 C 113.521 318.434,113.775 317.717,114.000 311.200 L 114.200 305.400 116.400 305.400 L 118.600 305.400 118.708 314.300 L 118.815 323.200 116.408 323.200 C 114.267 323.200,114.000 323.111,114.000 322.400 C 114.000 321.390,113.402 321.381,112.337 322.373 C 110.383 324.194,105.931 323.687,103.773 321.398 C 102.150 319.678,101.600 316.936,101.600 310.567 C 101.600 305.071,101.524 305.203,104.600 305.322 L 106.600 305.400 106.837 311.600 M138.321 307.065 C 138.432 308.589,136.057 312.188,133.216 314.800 C 129.396 318.312,129.636 319.151,134.500 319.286 L 138.600 319.400 138.722 321.300 L 138.844 323.200 131.022 323.200 L 123.200 323.200 123.200 321.214 C 123.200 319.335,123.858 318.110,126.002 316.000 C 126.114 315.890,127.194 314.630,128.402 313.200 C 129.611 311.770,130.870 310.378,131.200 310.108 C 132.252 309.244,130.894 308.813,127.100 308.806 L 123.600 308.800 123.600 307.233 C 123.600 305.205,123.450 305.241,131.400 305.327 L 138.200 305.400 138.321 307.065 M157.521 307.066 C 157.638 308.662,157.477 308.921,153.695 313.266 C 148.293 319.470,148.308 319.200,153.370 319.200 C 157.935 319.200,158.000 319.237,158.000 321.833 L 158.000 323.200 150.200 323.200 L 142.400 323.200 142.409 321.100 C 142.418 319.079,142.519 318.886,145.109 315.978 C 151.889 308.364,151.814 308.816,146.300 308.806 L 142.800 308.800 142.800 307.233 C 142.800 305.205,142.650 305.241,150.600 305.327 L 157.400 305.400 157.521 307.066 M315.600 305.776 C 315.600 306.768,316.303 306.847,317.676 306.010 C 320.146 304.504,321.200 304.860,321.200 307.200 C 321.200 309.086,321.141 309.200,320.162 309.200 C 316.942 309.200,315.600 311.902,315.600 318.387 L 315.600 323.200 313.200 323.200 L 310.800 323.200 310.800 314.467 C 310.800 309.663,310.920 305.613,311.067 305.467 C 311.630 304.904,315.600 305.175,315.600 305.776 M178.789 309.482 C 175.780 311.556,176.544 312.469,181.161 312.315 C 184.325 312.209,184.610 312.132,184.722 311.346 C 185.015 309.293,180.927 308.008,178.789 309.482 M295.589 309.482 C 292.520 311.597,293.176 312.458,297.748 312.314 C 301.130 312.208,301.409 312.137,301.522 311.346 C 301.815 309.293,297.727 308.008,295.589 309.482 M183.346 310.029 C 185.014 311.341,184.629 311.600,181.013 311.600 C 177.366 311.600,176.956 311.233,179.109 309.898 C 180.583 308.984,182.077 309.030,183.346 310.029 M300.146 310.029 C 301.814 311.341,301.429 311.600,297.813 311.600 C 294.166 311.600,293.756 311.233,295.909 309.898 C 297.383 308.984,298.877 309.030,300.146 310.029 M240.480 316.080 C 239.119 317.441,240.569 319.606,242.831 319.591 C 244.798 319.578,247.320 317.166,246.595 315.992 C 246.246 315.426,241.059 315.501,240.480 316.080 M245.729 316.300 C 246.209 317.114,245.163 318.371,243.790 318.628 C 241.349 319.086,239.580 317.780,240.880 316.480 C 241.400 315.960,245.441 315.810,245.729 316.300 " stroke="none" fill="#8cac9c" fill-rule="evenodd"></path></g></svg>