<svg id="svg" version="1.1" xmlns="http://www.w3.org/2000/svg" xmlns:xlink="http://www.w3.org/1999/xlink" width="400" height="400" viewBox="0, 0, 400,400"><g id="svgg"><path id="path0" d="M199.200 94.800 L 199.200 97.600 201.000 97.600 L 202.800 97.600 202.800 94.800 L 202.800 92.000 201.000 92.000 L 199.200 92.000 199.200 94.800 M181.500 99.233 C 180.331 100.514,181.184 102.400,182.931 102.400 C 183.299 102.400,183.600 102.580,183.600 102.800 C 183.600 103.344,186.285 103.310,186.624 102.762 C 186.917 102.287,183.297 98.379,182.615 98.433 C 182.387 98.452,181.885 98.812,181.500 99.233 M216.932 100.160 L 215.264 101.879 216.470 103.085 L 217.676 104.291 219.838 102.180 C 222.214 99.860,222.356 99.600,221.249 99.600 C 220.836 99.600,220.274 99.330,220.000 99.000 C 219.248 98.094,218.755 98.281,216.932 100.160 M196.200 109.600 C 196.064 109.820,195.631 110.000,195.238 110.000 C 193.261 110.000,193.200 110.465,193.200 125.489 C 193.200 141.445,193.583 140.000,189.349 140.000 C 185.033 140.000,184.844 140.361,184.710 148.872 L 184.600 155.800 183.600 155.923 C 182.386 156.073,180.124 157.075,179.793 157.611 C 179.661 157.825,179.141 158.000,178.638 158.000 C 177.524 158.000,175.697 158.878,174.511 159.982 C 174.029 160.432,173.474 160.800,173.278 160.800 C 172.608 160.800,170.529 161.994,169.803 162.797 C 169.403 163.239,168.825 163.600,168.518 163.600 C 167.744 163.600,158.804 172.456,158.802 173.225 C 158.801 173.569,158.262 174.365,157.605 174.995 C 156.387 176.162,152.000 184.551,152.000 185.713 C 152.000 186.065,151.820 186.464,151.600 186.600 C 151.380 186.736,151.200 187.546,151.200 188.400 C 151.200 189.254,151.020 190.064,150.800 190.200 C 150.556 190.351,150.400 193.396,150.400 198.000 C 150.400 202.604,150.556 205.649,150.800 205.800 C 151.020 205.936,151.200 206.746,151.200 207.600 C 151.200 208.454,151.380 209.264,151.600 209.400 C 151.820 209.536,152.001 209.952,152.002 210.324 C 152.004 210.696,152.274 211.516,152.602 212.146 C 152.931 212.776,153.200 213.541,153.200 213.846 C 153.200 214.151,153.380 214.400,153.600 214.400 C 153.820 214.400,154.000 214.738,154.000 215.151 C 154.000 215.564,154.270 216.126,154.600 216.400 C 154.930 216.674,155.200 217.118,155.200 217.387 C 155.200 217.656,155.560 218.202,156.000 218.600 C 156.440 218.998,156.800 219.625,156.800 219.992 C 156.800 220.360,157.250 221.083,157.800 221.600 C 158.350 222.117,158.800 222.730,158.800 222.963 C 158.800 223.504,166.850 231.599,167.393 231.603 C 167.617 231.605,168.463 232.235,169.273 233.003 C 170.084 233.772,171.007 234.400,171.324 234.400 C 171.642 234.400,172.126 234.670,172.400 235.000 C 172.674 235.330,173.118 235.600,173.387 235.600 C 173.656 235.600,174.202 235.960,174.600 236.400 C 174.998 236.840,175.634 237.200,176.013 237.200 C 176.392 237.200,176.926 237.470,177.200 237.800 C 177.474 238.130,178.038 238.400,178.454 238.400 C 178.870 238.400,179.613 238.608,180.105 238.862 C 181.765 239.720,182.222 239.897,183.509 240.180 C 184.214 240.335,184.894 240.628,185.019 240.831 C 185.145 241.034,185.946 241.200,186.800 241.200 C 187.654 241.200,188.464 241.380,188.600 241.600 C 188.736 241.820,189.701 242.000,190.744 242.000 C 191.787 242.000,192.865 242.225,193.140 242.500 C 193.504 242.864,195.663 243.000,201.087 243.000 C 206.688 243.000,208.575 242.876,208.700 242.500 C 208.810 242.170,209.731 242.000,211.410 242.000 C 212.808 242.000,214.064 241.820,214.200 241.600 C 214.336 241.380,214.866 241.200,215.378 241.200 C 215.890 241.200,216.824 240.931,217.454 240.602 C 218.084 240.274,218.904 240.004,219.276 240.002 C 219.648 240.001,220.064 239.820,220.200 239.600 C 220.336 239.380,220.859 239.200,221.362 239.200 C 222.352 239.200,224.640 238.182,225.016 237.575 C 225.143 237.369,225.597 237.200,226.024 237.200 C 226.451 237.200,226.800 237.020,226.800 236.800 C 226.800 236.580,227.129 236.400,227.530 236.400 C 227.932 236.400,228.683 235.950,229.200 235.400 C 229.717 234.850,230.425 234.400,230.775 234.400 C 231.124 234.400,231.748 233.950,232.161 233.400 C 232.574 232.850,233.205 232.400,233.562 232.400 C 234.323 232.400,244.000 222.831,244.000 222.077 C 244.000 221.796,244.374 221.169,244.831 220.683 C 245.287 220.197,246.011 219.080,246.438 218.200 C 246.865 217.320,247.369 216.330,247.557 216.000 C 248.696 214.009,249.600 211.801,249.600 211.011 C 249.600 210.509,249.870 209.874,250.200 209.600 C 250.530 209.326,250.800 208.595,250.800 207.975 C 250.800 207.355,250.980 206.736,251.200 206.600 C 251.420 206.464,251.600 205.024,251.600 203.400 C 251.600 201.776,251.780 200.336,252.000 200.200 C 252.220 200.064,252.400 199.063,252.400 197.976 C 252.400 196.889,252.220 196.000,252.000 196.000 C 251.767 196.000,251.600 194.675,251.600 192.824 C 251.600 191.077,251.420 189.536,251.200 189.400 C 250.980 189.264,250.800 188.645,250.800 188.025 C 250.800 187.405,250.530 186.674,250.200 186.400 C 249.870 186.126,249.600 185.384,249.600 184.751 C 249.600 184.118,249.420 183.600,249.200 183.600 C 248.980 183.600,248.800 183.358,248.800 183.061 C 248.800 182.374,247.667 180.088,247.175 179.784 C 246.969 179.657,246.800 179.203,246.800 178.776 C 246.800 178.349,246.620 178.000,246.400 178.000 C 246.180 178.000,246.000 177.671,246.000 177.270 C 246.000 176.868,245.550 176.117,245.000 175.600 C 244.450 175.083,244.000 174.441,244.000 174.173 C 244.000 173.905,241.731 171.417,238.957 168.643 C 236.183 165.869,233.695 163.600,233.427 163.600 C 233.159 163.600,232.517 163.150,232.000 162.600 C 231.483 162.050,230.856 161.600,230.606 161.600 C 230.356 161.600,229.799 161.285,229.370 160.900 C 228.453 160.079,224.403 157.985,223.749 157.994 C 223.501 157.997,223.074 157.730,222.800 157.400 C 222.526 157.070,221.885 156.800,221.375 156.800 C 220.865 156.800,220.336 156.620,220.200 156.400 C 220.064 156.180,219.631 156.000,219.238 156.000 C 217.456 156.000,217.200 154.952,217.200 147.669 C 217.200 141.136,217.162 140.800,216.424 140.800 C 215.997 140.800,215.536 140.620,215.400 140.400 C 215.264 140.180,214.128 139.998,212.876 139.995 C 211.624 139.992,210.195 139.881,209.700 139.748 L 208.800 139.507 208.795 125.653 C 208.789 110.906,208.718 110.000,207.577 110.000 C 207.176 110.000,206.736 109.820,206.600 109.600 C 206.457 109.368,204.270 109.200,201.400 109.200 C 198.530 109.200,196.343 109.368,196.200 109.600 M204.557 113.833 C 205.638 116.648,203.674 119.600,200.720 119.600 C 200.412 119.600,199.965 119.795,199.726 120.034 C 198.004 121.756,196.453 117.831,197.386 114.112 C 197.683 112.930,204.115 112.680,204.557 113.833 M173.482 115.051 C 173.327 115.206,173.200 116.023,173.200 116.867 L 173.200 118.400 176.623 118.400 L 180.046 118.400 179.923 116.700 L 179.800 115.000 176.782 114.885 C 175.122 114.821,173.637 114.896,173.482 115.051 M222.267 115.067 C 220.688 116.645,222.596 118.400,225.891 118.400 C 229.455 118.400,230.728 117.144,228.869 115.462 C 228.125 114.789,222.860 114.474,222.267 115.067 M204.557 123.433 C 205.580 126.098,204.633 128.007,201.614 129.362 C 198.296 130.850,197.600 130.583,197.600 127.822 C 197.600 125.394,197.882 125.049,200.959 123.716 C 203.407 122.656,204.234 122.591,204.557 123.433 M204.800 136.334 C 204.800 139.763,204.548 140.000,200.910 140.000 C 196.169 140.000,195.517 136.299,199.905 134.294 C 204.304 132.284,204.800 132.491,204.800 136.334 M202.974 173.900 C 203.515 174.725,204.901 176.750,206.054 178.400 C 208.830 182.371,211.720 186.537,213.408 189.000 C 214.162 190.100,216.178 193.024,217.889 195.497 C 226.720 208.264,227.642 209.703,227.523 210.538 L 227.400 211.400 202.600 211.504 C 174.251 211.623,174.892 211.726,178.242 207.600 C 178.867 206.830,189.200 190.386,189.200 190.161 C 189.200 190.068,189.809 189.126,190.553 188.067 C 191.297 187.008,192.242 185.546,192.653 184.819 C 193.743 182.888,196.288 178.881,198.054 176.316 C 198.464 175.720,198.800 175.128,198.800 175.000 C 198.800 172.714,201.695 171.951,202.974 173.900 M199.300 185.865 C 198.945 186.008,198.800 187.271,198.800 190.219 C 198.800 194.864,199.105 195.377,201.718 195.124 L 203.000 195.000 203.114 190.632 C 203.199 187.407,203.094 186.179,202.714 185.939 C 202.156 185.584,200.105 185.540,199.300 185.865 M198.800 202.720 C 198.800 204.518,199.363 205.200,200.847 205.200 C 202.828 205.200,203.200 204.845,203.200 202.957 L 203.200 201.200 201.000 201.200 L 198.800 201.200 198.800 202.720 M137.862 297.531 C 136.341 299.213,137.787 302.400,140.072 302.400 C 141.131 302.400,142.800 300.630,142.800 299.507 C 142.800 297.071,139.481 295.743,137.862 297.531 M165.643 297.348 C 165.320 297.738,165.219 301.415,165.294 310.048 L 165.400 322.200 167.700 322.320 L 170.000 322.440 170.000 320.380 C 170.000 318.320,170.953 315.600,171.674 315.600 C 172.231 315.600,172.776 316.259,174.903 319.500 L 176.806 322.400 179.337 322.400 C 182.748 322.400,182.761 322.597,178.962 316.908 C 174.928 310.867,174.967 311.859,178.608 307.966 C 182.052 304.283,182.058 304.000,178.693 304.000 L 176.232 304.000 173.492 306.885 C 170.073 310.486,170.014 310.415,170.006 302.700 L 170.000 296.800 168.049 296.800 C 166.885 296.800,165.914 297.021,165.643 297.348 M234.667 297.067 C 234.520 297.213,234.400 302.982,234.400 309.887 L 234.400 322.440 236.700 322.320 L 239.000 322.200 239.121 319.608 C 239.235 317.186,239.918 315.600,240.848 315.600 C 241.026 315.600,242.190 317.130,243.434 319.000 L 245.697 322.400 248.448 322.400 C 251.789 322.400,251.824 322.918,248.100 317.290 C 243.891 310.929,243.973 311.675,247.111 308.296 C 248.590 306.703,249.935 305.340,250.100 305.267 C 251.421 304.679,250.155 304.000,247.738 304.000 L 245.076 304.000 242.430 306.825 C 239.179 310.295,239.200 310.316,239.200 303.566 C 239.200 300.541,239.091 297.781,238.957 297.433 C 238.709 296.786,235.243 296.490,234.667 297.067 M113.200 310.358 L 113.200 322.438 115.700 322.319 L 118.200 322.200 118.315 318.500 L 118.430 314.800 120.338 314.800 L 122.245 314.800 124.834 318.500 L 127.423 322.200 129.969 322.321 C 133.521 322.489,133.898 322.285,132.735 320.824 C 128.022 314.905,127.740 314.239,129.402 312.972 C 132.829 310.358,133.427 303.936,130.515 301.024 C 128.603 299.112,127.120 298.761,119.900 298.511 L 113.200 298.278 113.200 310.358 M193.600 300.776 L 193.600 303.168 196.900 303.284 L 200.200 303.400 200.400 312.800 L 200.600 322.200 203.000 322.200 L 205.400 322.200 205.507 312.700 L 205.614 303.200 208.800 303.200 C 212.351 303.200,212.616 302.956,212.329 299.955 L 212.200 298.600 202.900 298.493 L 193.600 298.385 193.600 300.776 M126.554 304.186 C 128.731 307.508,126.766 310.000,121.971 310.000 L 118.400 310.000 118.400 306.600 L 118.400 303.200 122.154 303.200 C 125.703 303.200,125.943 303.254,126.554 304.186 M152.372 304.121 C 145.202 306.524,146.268 312.662,154.294 315.190 C 156.547 315.900,157.414 316.854,156.818 317.967 C 156.203 319.115,152.990 319.117,150.745 317.972 C 148.844 317.002,148.260 317.137,147.431 318.740 C 146.449 320.639,149.835 322.400,154.469 322.400 C 162.454 322.400,164.617 314.419,157.327 311.850 C 153.017 310.332,151.373 308.897,152.861 307.954 C 153.720 307.410,156.296 307.546,157.912 308.221 C 159.557 308.908,160.800 308.095,160.800 306.333 C 160.800 304.666,155.162 303.186,152.372 304.121 M219.000 304.179 C 214.437 305.345,213.565 306.119,214.872 307.843 C 215.354 308.480,215.794 309.064,215.849 309.142 C 215.905 309.220,216.529 308.995,217.237 308.642 C 219.167 307.679,223.445 307.762,223.986 308.774 C 224.881 310.446,224.567 310.676,220.999 310.966 C 214.987 311.454,213.400 312.633,213.400 316.610 C 213.400 321.453,218.825 324.211,223.158 321.569 C 224.476 320.766,225.172 320.955,225.194 322.121 C 225.197 322.297,226.145 322.387,227.300 322.321 L 229.400 322.200 229.522 316.000 C 229.730 305.368,226.881 302.166,219.000 304.179 M260.400 304.382 C 255.635 306.018,253.479 310.496,254.646 316.332 C 255.624 321.219,263.176 324.048,268.400 321.484 C 270.529 320.439,270.735 319.806,269.463 318.226 C 268.527 317.065,268.504 317.059,267.159 317.696 C 264.090 319.147,261.812 318.928,260.008 317.009 C 258.186 315.069,258.913 314.800,265.987 314.800 L 272.400 314.800 272.400 312.449 C 272.400 306.075,266.676 302.226,260.400 304.382 M283.422 304.969 C 281.580 305.901,281.501 305.909,281.308 305.169 C 281.138 304.520,280.738 304.400,278.746 304.400 L 276.385 304.400 276.492 313.300 L 276.600 322.200 278.900 322.320 L 281.200 322.440 281.207 317.320 C 281.215 310.903,281.886 309.274,284.810 308.568 L 286.600 308.136 286.721 306.068 C 286.865 303.596,286.424 303.449,283.422 304.969 M137.692 313.300 L 137.800 322.200 140.100 322.320 L 142.400 322.440 142.400 313.420 L 142.400 304.400 139.992 304.400 L 137.585 304.400 137.692 313.300 M266.274 308.870 C 268.222 310.699,267.609 311.200,263.424 311.200 C 259.124 311.200,258.602 310.868,260.231 309.167 C 261.693 307.641,264.804 307.488,266.274 308.870 M224.005 314.802 C 225.593 315.653,223.086 318.800,220.820 318.800 C 219.624 318.800,218.000 317.540,218.000 316.612 C 218.000 314.770,221.803 313.624,224.005 314.802 " stroke="none" fill="#f8f8f8" fill-rule="evenodd"></path><path id="path1" d="M181.200 1.000 C 181.200 1.495,180.467 1.600,177.000 1.600 C 174.467 1.600,172.800 1.759,172.800 2.000 C 172.800 2.239,171.267 2.400,169.000 2.400 C 166.733 2.400,165.200 2.561,165.200 2.800 C 165.200 3.020,164.300 3.200,163.200 3.200 C 161.689 3.200,161.200 3.347,161.200 3.800 C 161.200 4.244,160.733 4.400,159.400 4.400 C 158.410 4.400,157.600 4.580,157.600 4.800 C 157.600 5.022,156.533 5.200,155.200 5.200 C 153.333 5.200,152.800 5.333,152.800 5.800 C 152.800 6.253,152.311 6.400,150.800 6.400 C 149.700 6.400,148.800 6.580,148.800 6.800 C 148.800 7.020,148.170 7.200,147.400 7.200 C 146.630 7.200,146.000 7.380,146.000 7.600 C 146.000 7.820,145.100 8.000,144.000 8.000 C 142.489 8.000,142.000 8.147,142.000 8.600 C 142.000 9.019,141.578 9.200,140.600 9.200 C 139.830 9.200,139.200 9.380,139.200 9.600 C 139.200 9.820,138.570 10.000,137.800 10.000 C 136.822 10.000,136.400 10.181,136.400 10.600 C 136.400 11.019,135.978 11.200,135.000 11.200 C 134.230 11.200,133.600 11.380,133.600 11.600 C 133.600 11.820,132.970 12.000,132.200 12.000 C 131.430 12.000,130.800 12.180,130.800 12.400 C 130.800 12.620,130.350 12.800,129.800 12.800 C 129.178 12.800,128.800 13.027,128.800 13.400 C 128.800 13.819,128.378 14.000,127.400 14.000 C 126.630 14.000,126.000 14.180,126.000 14.400 C 126.000 14.620,125.550 14.800,125.000 14.800 C 124.450 14.800,124.000 14.980,124.000 15.200 C 124.000 15.420,123.370 15.600,122.600 15.600 C 121.622 15.600,121.200 15.781,121.200 16.200 C 121.200 16.573,120.822 16.800,120.200 16.800 C 119.650 16.800,119.200 16.980,119.200 17.200 C 119.200 17.420,118.834 17.600,118.387 17.600 C 117.941 17.600,117.471 17.870,117.345 18.200 C 117.218 18.530,116.684 18.800,116.157 18.800 C 115.631 18.800,115.200 18.980,115.200 19.200 C 115.200 19.420,114.840 19.600,114.400 19.600 C 113.960 19.600,113.600 19.780,113.600 20.000 C 113.600 20.220,113.150 20.400,112.600 20.400 C 111.978 20.400,111.600 20.627,111.600 21.000 C 111.600 21.373,111.222 21.600,110.600 21.600 C 110.050 21.600,109.600 21.780,109.600 22.000 C 109.600 22.220,109.234 22.400,108.787 22.400 C 108.341 22.400,107.871 22.670,107.745 23.000 C 107.618 23.330,107.084 23.600,106.557 23.600 C 106.031 23.600,105.600 23.780,105.600 24.000 C 105.600 24.220,105.240 24.400,104.800 24.400 C 104.360 24.400,104.000 24.580,104.000 24.800 C 104.000 25.020,103.550 25.200,103.000 25.200 C 102.378 25.200,102.000 25.427,102.000 25.800 C 102.000 26.140,101.641 26.400,101.171 26.400 C 100.286 26.400,99.200 27.266,99.200 27.971 C 99.200 28.207,98.750 28.400,98.200 28.400 C 97.650 28.400,97.200 28.580,97.200 28.800 C 97.200 29.020,96.827 29.200,96.371 29.200 C 95.486 29.200,94.400 30.066,94.400 30.771 C 94.400 31.007,93.950 31.200,93.400 31.200 C 92.850 31.200,92.400 31.380,92.400 31.600 C 92.400 31.820,92.065 32.000,91.656 32.000 C 91.247 32.000,90.574 32.450,90.161 33.000 C 89.748 33.550,89.080 34.000,88.676 34.000 C 87.871 34.000,86.800 34.897,86.800 35.571 C 86.800 35.807,86.530 36.000,86.200 36.000 C 85.870 36.000,85.600 36.180,85.600 36.400 C 85.600 36.620,85.265 36.800,84.856 36.800 C 84.447 36.800,83.774 37.250,83.361 37.800 C 82.948 38.350,82.280 38.800,81.876 38.800 C 81.152 38.800,80.000 39.676,80.000 40.227 C 80.000 40.653,78.679 41.573,78.047 41.587 C 77.743 41.594,76.900 42.230,76.174 43.000 C 75.448 43.770,74.662 44.400,74.427 44.400 C 74.192 44.400,74.000 44.670,74.000 45.000 C 74.000 45.333,73.644 45.600,73.200 45.600 C 72.760 45.600,72.400 45.780,72.400 46.000 C 72.400 46.220,72.207 46.400,71.971 46.400 C 71.418 46.400,70.400 47.418,70.400 47.971 C 70.400 48.207,70.207 48.400,69.971 48.400 C 69.505 48.400,68.400 49.385,68.400 49.800 C 68.400 50.293,67.252 51.200,66.629 51.200 C 65.942 51.200,62.800 54.154,62.800 54.800 C 62.800 55.020,62.612 55.200,62.382 55.200 C 61.839 55.200,60.000 57.039,60.000 57.582 C 60.000 57.812,59.807 58.000,59.571 58.000 C 59.018 58.000,58.000 59.018,58.000 59.571 C 58.000 59.807,57.812 60.000,57.582 60.000 C 57.039 60.000,55.200 61.839,55.200 62.382 C 55.200 62.612,55.020 62.800,54.800 62.800 C 54.154 62.800,51.200 65.942,51.200 66.629 C 51.200 67.252,50.293 68.400,49.800 68.400 C 49.385 68.400,48.400 69.505,48.400 69.971 C 48.400 70.207,48.207 70.400,47.971 70.400 C 47.418 70.400,46.400 71.418,46.400 71.971 C 46.400 72.207,46.220 72.400,46.000 72.400 C 45.780 72.400,45.600 72.760,45.600 73.200 C 45.600 73.644,45.333 74.000,45.000 74.000 C 44.670 74.000,44.400 74.192,44.400 74.427 C 44.400 74.662,43.770 75.448,43.000 76.174 C 42.230 76.900,41.594 77.743,41.587 78.047 C 41.573 78.679,40.653 80.000,40.227 80.000 C 39.676 80.000,38.800 81.152,38.800 81.876 C 38.800 82.280,38.350 82.948,37.800 83.361 C 37.250 83.774,36.800 84.447,36.800 84.856 C 36.800 85.265,36.620 85.600,36.400 85.600 C 36.180 85.600,36.000 85.870,36.000 86.200 C 36.000 86.530,35.730 86.800,35.400 86.800 C 35.067 86.800,34.800 87.156,34.800 87.600 C 34.800 88.040,34.620 88.400,34.400 88.400 C 34.180 88.400,34.000 88.670,34.000 89.000 C 34.000 89.330,33.820 89.600,33.600 89.600 C 33.380 89.600,33.200 90.061,33.200 90.624 C 33.200 91.187,33.052 91.556,32.871 91.444 C 32.388 91.145,31.200 92.681,31.200 93.605 C 31.200 94.042,31.007 94.400,30.771 94.400 C 30.066 94.400,29.200 95.486,29.200 96.371 C 29.200 96.827,29.020 97.200,28.800 97.200 C 28.580 97.200,28.400 97.650,28.400 98.200 C 28.400 98.750,28.207 99.200,27.971 99.200 C 27.266 99.200,26.400 100.286,26.400 101.171 C 26.400 101.641,26.140 102.000,25.800 102.000 C 25.427 102.000,25.200 102.378,25.200 103.000 C 25.200 103.550,25.020 104.000,24.800 104.000 C 24.580 104.000,24.400 104.360,24.400 104.800 C 24.400 105.240,24.220 105.600,24.000 105.600 C 23.780 105.600,23.600 106.031,23.600 106.557 C 23.600 107.084,23.330 107.618,23.000 107.745 C 22.670 107.871,22.400 108.341,22.400 108.787 C 22.400 109.234,22.220 109.600,22.000 109.600 C 21.780 109.600,21.600 110.050,21.600 110.600 C 21.600 111.222,21.373 111.600,21.000 111.600 C 20.627 111.600,20.400 111.978,20.400 112.600 C 20.400 113.150,20.220 113.600,20.000 113.600 C 19.780 113.600,19.600 113.960,19.600 114.400 C 19.600 114.840,19.420 115.200,19.200 115.200 C 18.980 115.200,18.800 115.631,18.800 116.157 C 18.800 116.684,18.530 117.218,18.200 117.345 C 17.870 117.471,17.600 117.941,17.600 118.387 C 17.600 118.834,17.420 119.200,17.200 119.200 C 16.980 119.200,16.800 119.650,16.800 120.200 C 16.800 120.822,16.573 121.200,16.200 121.200 C 15.867 121.200,15.600 121.556,15.600 122.000 C 15.600 122.440,15.420 122.800,15.200 122.800 C 14.980 122.800,14.800 123.520,14.800 124.400 C 14.800 125.280,14.620 126.000,14.400 126.000 C 14.180 126.000,14.000 126.630,14.000 127.400 C 14.000 128.378,13.819 128.800,13.400 128.800 C 13.027 128.800,12.800 129.178,12.800 129.800 C 12.800 130.350,12.620 130.800,12.400 130.800 C 12.180 130.800,12.000 131.430,12.000 132.200 C 12.000 132.970,11.820 133.600,11.600 133.600 C 11.380 133.600,11.200 134.230,11.200 135.000 C 11.200 135.978,11.019 136.400,10.600 136.400 C 10.181 136.400,10.000 136.822,10.000 137.800 C 10.000 138.570,9.820 139.200,9.600 139.200 C 9.380 139.200,9.200 139.830,9.200 140.600 C 9.200 141.578,9.019 142.000,8.600 142.000 C 8.147 142.000,8.000 142.489,8.000 144.000 C 8.000 145.100,7.820 146.000,7.600 146.000 C 7.380 146.000,7.200 146.630,7.200 147.400 C 7.200 148.170,7.020 148.800,6.800 148.800 C 6.580 148.800,6.400 149.700,6.400 150.800 C 6.400 152.311,6.253 152.800,5.800 152.800 C 5.356 152.800,5.200 153.267,5.200 154.600 C 5.200 155.590,5.020 156.400,4.800 156.400 C 4.578 156.400,4.400 157.467,4.400 158.800 C 4.400 160.667,4.267 161.200,3.800 161.200 C 3.320 161.200,3.200 161.800,3.200 164.200 C 3.200 165.933,3.031 167.200,2.800 167.200 C 2.571 167.200,2.400 168.400,2.400 170.000 C 2.400 171.600,2.229 172.800,2.000 172.800 C 1.761 172.800,1.600 174.333,1.600 176.600 C 1.600 179.711,1.491 180.400,1.000 180.400 C 0.475 180.400,0.400 182.889,0.400 200.400 C 0.400 217.911,0.475 220.400,1.000 220.400 C 1.497 220.400,1.600 221.156,1.600 224.800 C 1.600 227.467,1.758 229.200,2.000 229.200 C 2.229 229.200,2.400 230.400,2.400 232.000 C 2.400 233.600,2.571 234.800,2.800 234.800 C 3.031 234.800,3.200 236.067,3.200 237.800 C 3.200 240.200,3.320 240.800,3.800 240.800 C 4.260 240.800,4.400 241.308,4.400 242.976 C 4.400 244.173,4.580 245.264,4.800 245.400 C 5.020 245.536,5.200 246.447,5.200 247.424 C 5.200 248.736,5.357 249.200,5.800 249.200 C 6.253 249.200,6.400 249.689,6.400 251.200 C 6.400 252.300,6.580 253.200,6.800 253.200 C 7.020 253.200,7.200 253.830,7.200 254.600 C 7.200 255.370,7.380 256.000,7.600 256.000 C 7.820 256.000,8.000 256.791,8.000 257.757 C 8.000 258.950,8.193 259.588,8.600 259.745 C 8.977 259.889,9.200 260.501,9.200 261.387 C 9.200 262.164,9.380 262.800,9.600 262.800 C 9.820 262.800,10.000 263.430,10.000 264.200 C 10.000 265.178,10.181 265.600,10.600 265.600 C 11.019 265.600,11.200 266.022,11.200 267.000 C 11.200 267.770,11.380 268.400,11.600 268.400 C 11.820 268.400,12.000 269.030,12.000 269.800 C 12.000 270.570,12.180 271.200,12.400 271.200 C 12.620 271.200,12.800 271.566,12.800 272.013 C 12.800 272.459,13.070 272.929,13.400 273.055 C 13.770 273.197,14.000 273.805,14.000 274.643 C 14.000 275.389,14.180 276.000,14.400 276.000 C 14.620 276.000,14.800 276.630,14.800 277.400 C 14.800 278.170,14.980 278.800,15.200 278.800 C 15.420 278.800,15.600 279.166,15.600 279.613 C 15.600 280.059,15.870 280.529,16.200 280.655 C 16.530 280.782,16.800 281.316,16.800 281.843 C 16.800 282.369,16.980 282.800,17.200 282.800 C 17.420 282.800,17.600 283.250,17.600 283.800 C 17.600 284.422,17.827 284.800,18.200 284.800 C 18.619 284.800,18.800 285.222,18.800 286.200 C 18.800 286.970,18.980 287.600,19.200 287.600 C 19.420 287.600,19.600 288.050,19.600 288.600 C 19.600 289.150,19.780 289.600,20.000 289.600 C 20.220 289.600,20.400 289.876,20.400 290.213 C 20.400 290.549,20.670 290.929,21.000 291.055 C 21.330 291.182,21.600 291.716,21.600 292.243 C 21.600 292.769,21.780 293.200,22.000 293.200 C 22.220 293.200,22.400 293.650,22.400 294.200 C 22.400 294.822,22.627 295.200,23.000 295.200 C 23.358 295.200,23.600 295.568,23.600 296.112 C 23.600 296.613,23.960 297.283,24.400 297.600 C 24.840 297.917,25.200 298.587,25.200 299.088 L 25.200 300.000 15.800 300.000 C 6.646 300.000,6.400 300.021,6.400 300.805 C 6.400 301.612,10.064 305.600,10.805 305.600 C 11.022 305.600,11.200 305.788,11.200 306.018 C 11.200 306.560,13.273 308.631,13.685 308.500 C 13.858 308.445,14.000 308.593,14.000 308.829 C 14.000 309.382,15.018 310.400,15.571 310.400 C 15.807 310.400,15.955 310.542,15.900 310.715 C 15.769 311.127,17.840 313.200,18.382 313.200 C 18.612 313.200,18.800 313.378,18.800 313.595 C 18.800 314.117,22.674 318.000,23.195 318.000 C 23.418 318.000,23.600 318.189,23.600 318.419 C 23.600 318.965,27.435 322.800,27.981 322.800 C 28.211 322.800,28.400 322.982,28.400 323.205 C 28.400 323.726,32.283 327.600,32.805 327.600 C 33.022 327.600,33.200 327.792,33.200 328.027 C 33.200 328.262,34.055 329.279,35.100 330.287 C 36.248 331.395,36.802 332.188,36.500 332.293 C 36.225 332.389,36.000 332.722,36.000 333.033 C 36.000 333.345,35.807 333.600,35.571 333.600 C 35.105 333.600,34.000 334.585,34.000 335.000 C 34.000 335.334,32.934 336.400,32.600 336.400 C 32.185 336.400,31.200 337.505,31.200 337.971 C 31.200 338.207,30.996 338.400,30.747 338.400 C 30.268 338.400,28.401 340.389,28.400 340.900 C 28.400 341.065,28.207 341.200,27.971 341.200 C 27.418 341.200,26.400 342.218,26.400 342.771 C 26.400 343.007,26.207 343.200,25.971 343.200 C 25.407 343.200,24.400 344.222,24.400 344.795 C 24.400 345.044,24.220 345.136,24.000 345.000 C 23.780 344.864,23.600 345.033,23.600 345.376 C 23.600 345.719,23.407 346.000,23.171 346.000 C 22.618 346.000,21.600 347.018,21.600 347.571 C 21.600 347.807,21.465 348.000,21.300 348.000 C 20.789 348.001,18.800 349.868,18.800 350.347 C 18.800 350.596,18.607 350.800,18.371 350.800 C 17.818 350.800,16.800 351.818,16.800 352.371 C 16.800 352.607,16.665 352.800,16.500 352.800 C 15.989 352.801,14.000 354.668,14.000 355.147 C 14.000 355.396,13.807 355.600,13.571 355.600 C 13.105 355.600,12.000 356.585,12.000 357.000 C 12.000 357.334,10.934 358.400,10.600 358.400 C 10.185 358.400,9.200 359.505,9.200 359.971 C 9.200 360.207,9.007 360.400,8.771 360.400 C 8.218 360.400,7.200 361.418,7.200 361.971 C 7.200 362.207,7.020 362.400,6.800 362.400 C 6.580 362.400,6.400 362.760,6.400 363.200 C 6.400 363.992,6.667 364.000,34.000 364.000 C 58.810 364.000,61.600 364.063,61.600 364.628 C 61.600 365.050,61.895 365.214,62.500 365.128 C 63.395 365.001,63.401 364.958,63.508 356.900 C 63.568 352.445,63.748 348.806,63.908 348.813 C 64.444 348.836,65.600 349.882,65.600 350.344 C 65.600 350.595,65.962 350.800,66.405 350.800 C 67.212 350.800,71.200 354.464,71.200 355.205 C 71.200 355.422,71.470 355.600,71.800 355.600 C 72.130 355.600,72.400 355.780,72.400 356.000 C 72.400 356.220,72.741 356.400,73.157 356.400 C 73.574 356.400,74.022 356.681,74.154 357.025 C 74.286 357.369,74.576 357.539,74.797 357.402 C 75.019 357.265,75.200 357.356,75.200 357.605 C 75.200 358.178,76.207 359.200,76.771 359.200 C 77.007 359.200,77.200 359.470,77.200 359.800 C 77.200 360.133,77.556 360.400,78.000 360.400 C 78.440 360.400,78.800 360.580,78.800 360.800 C 78.800 361.020,78.993 361.200,79.229 361.200 C 79.782 361.200,80.800 362.218,80.800 362.771 C 80.800 363.007,81.207 363.200,81.705 363.200 C 82.204 363.200,82.947 363.649,83.361 364.200 C 83.774 364.750,84.447 365.200,84.856 365.200 C 85.265 365.200,85.600 365.380,85.600 365.600 C 85.600 365.820,85.793 366.000,86.029 366.000 C 86.582 366.000,87.600 367.018,87.600 367.571 C 87.600 367.807,87.973 368.000,88.429 368.000 C 89.314 368.000,90.400 368.866,90.400 369.571 C 90.400 369.807,90.850 370.000,91.400 370.000 C 91.950 370.000,92.400 370.180,92.400 370.400 C 92.400 370.620,92.773 370.800,93.229 370.800 C 94.114 370.800,95.200 371.666,95.200 372.371 C 95.200 372.607,95.650 372.800,96.200 372.800 C 96.750 372.800,97.200 372.980,97.200 373.200 C 97.200 373.420,97.650 373.600,98.200 373.600 C 98.750 373.600,99.200 373.793,99.200 374.029 C 99.200 374.734,100.286 375.600,101.171 375.600 C 101.627 375.600,102.000 375.780,102.000 376.000 C 102.000 376.220,102.450 376.400,103.000 376.400 C 103.622 376.400,104.000 376.627,104.000 377.000 C 104.000 377.333,104.356 377.600,104.800 377.600 C 105.240 377.600,105.600 377.780,105.600 378.000 C 105.600 378.220,106.050 378.400,106.600 378.400 C 107.222 378.400,107.600 378.627,107.600 379.000 C 107.600 379.337,107.957 379.600,108.417 379.600 C 108.866 379.600,109.620 379.960,110.092 380.400 C 110.564 380.840,111.277 381.200,111.675 381.200 C 112.074 381.200,112.400 381.470,112.400 381.800 C 112.400 382.173,112.778 382.400,113.400 382.400 C 113.950 382.400,114.400 382.580,114.400 382.800 C 114.400 383.020,115.011 383.200,115.757 383.200 C 116.595 383.200,117.203 383.430,117.345 383.800 C 117.471 384.130,117.941 384.400,118.387 384.400 C 118.834 384.400,119.200 384.580,119.200 384.800 C 119.200 385.020,119.650 385.200,120.200 385.200 C 120.750 385.200,121.200 385.380,121.200 385.600 C 121.200 385.820,121.830 386.000,122.600 386.000 C 123.578 386.000,124.000 386.181,124.000 386.600 C 124.000 386.973,124.378 387.200,125.000 387.200 C 125.550 387.200,126.000 387.380,126.000 387.600 C 126.000 387.820,126.630 388.000,127.400 388.000 C 128.170 388.000,128.800 388.180,128.800 388.400 C 128.800 388.620,129.250 388.800,129.800 388.800 C 130.422 388.800,130.800 389.027,130.800 389.400 C 130.800 389.819,131.222 390.000,132.200 390.000 C 132.970 390.000,133.600 390.180,133.600 390.400 C 133.600 390.620,134.230 390.800,135.000 390.800 C 135.978 390.800,136.400 390.981,136.400 391.400 C 136.400 391.819,136.822 392.000,137.800 392.000 C 138.570 392.000,139.200 392.180,139.200 392.400 C 139.200 392.620,139.830 392.800,140.600 392.800 C 141.370 392.800,142.000 392.980,142.000 393.200 C 142.000 393.420,142.900 393.600,144.000 393.600 C 145.511 393.600,146.000 393.747,146.000 394.200 C 146.000 394.644,146.467 394.800,147.800 394.800 C 148.790 394.800,149.600 394.980,149.600 395.200 C 149.600 395.420,150.320 395.600,151.200 395.600 C 152.356 395.600,152.800 395.767,152.800 396.200 C 152.800 396.667,153.333 396.800,155.200 396.800 C 156.533 396.800,157.600 396.978,157.600 397.200 C 157.600 397.420,158.410 397.600,159.400 397.600 C 160.390 397.600,161.200 397.780,161.200 398.000 C 161.200 398.227,162.352 398.400,163.856 398.400 C 165.924 398.400,166.625 398.555,167.023 399.100 C 168.035 400.483,234.800 400.344,234.800 398.958 C 234.800 398.530,235.499 398.400,237.800 398.400 C 239.533 398.400,240.800 398.231,240.800 398.000 C 240.800 397.780,241.610 397.600,242.600 397.600 C 243.590 397.600,244.400 397.420,244.400 397.200 C 244.400 396.980,245.300 396.800,246.400 396.800 C 247.911 396.800,248.400 396.653,248.400 396.200 C 248.400 395.733,248.933 395.600,250.800 395.600 C 252.133 395.600,253.200 395.422,253.200 395.200 C 253.200 394.980,253.830 394.800,254.600 394.800 C 255.578 394.800,256.000 394.619,256.000 394.200 C 256.000 393.781,256.422 393.600,257.400 393.600 C 258.170 393.600,258.800 393.420,258.800 393.200 C 258.800 392.980,259.599 392.800,260.576 392.800 C 261.553 392.800,262.464 392.620,262.600 392.400 C 262.736 392.180,263.382 392.000,264.036 392.000 C 264.724 392.000,265.322 391.747,265.455 391.400 C 265.597 391.030,266.205 390.800,267.043 390.800 C 267.789 390.800,268.400 390.620,268.400 390.400 C 268.400 390.180,269.030 390.000,269.800 390.000 C 270.778 390.000,271.200 389.819,271.200 389.400 C 271.200 389.027,271.578 388.800,272.200 388.800 C 272.750 388.800,273.200 388.620,273.200 388.400 C 273.200 388.180,273.830 388.000,274.600 388.000 C 275.370 388.000,276.000 387.820,276.000 387.600 C 276.000 387.380,276.450 387.200,277.000 387.200 C 277.622 387.200,278.000 386.973,278.000 386.600 C 278.000 386.181,278.422 386.000,279.400 386.000 C 280.170 386.000,280.800 385.820,280.800 385.600 C 280.800 385.380,281.173 385.200,281.629 385.200 C 282.084 385.200,282.729 384.928,283.061 384.596 C 283.393 384.264,283.831 384.096,284.035 384.222 C 284.239 384.348,284.514 384.169,284.646 383.825 C 284.798 383.428,285.381 383.200,286.243 383.200 C 286.989 383.200,287.600 383.020,287.600 382.800 C 287.600 382.580,287.966 382.400,288.413 382.400 C 288.859 382.400,289.329 382.130,289.455 381.800 C 289.582 381.470,290.026 381.200,290.443 381.200 C 290.859 381.200,291.200 381.020,291.200 380.800 C 291.200 380.580,291.470 380.400,291.800 380.400 C 292.130 380.400,292.400 380.220,292.400 380.000 C 292.400 379.780,292.766 379.600,293.213 379.600 C 293.659 379.600,294.129 379.330,294.255 379.000 C 294.382 378.670,294.826 378.400,295.243 378.400 C 295.659 378.400,296.000 378.220,296.000 378.000 C 296.000 377.780,296.450 377.600,297.000 377.600 C 297.622 377.600,298.000 377.373,298.000 377.000 C 298.000 376.627,298.378 376.400,299.000 376.400 C 299.550 376.400,300.000 376.220,300.000 376.000 C 300.000 375.780,300.373 375.600,300.829 375.600 C 301.714 375.600,302.800 374.734,302.800 374.029 C 302.800 373.793,303.250 373.600,303.800 373.600 C 304.350 373.600,304.800 373.420,304.800 373.200 C 304.800 372.980,305.135 372.800,305.544 372.800 C 305.953 372.800,306.626 372.350,307.039 371.800 C 307.453 371.249,308.196 370.800,308.695 370.800 C 309.193 370.800,309.600 370.620,309.600 370.400 C 309.600 370.180,309.935 370.000,310.344 370.000 C 310.753 370.000,311.426 369.550,311.839 369.000 C 312.253 368.449,312.996 368.000,313.495 368.000 C 313.993 368.000,314.400 367.807,314.400 367.571 C 314.400 367.018,315.418 366.000,315.971 366.000 C 316.207 366.000,316.400 365.820,316.400 365.600 C 316.400 365.380,316.760 365.200,317.200 365.200 C 317.644 365.200,318.000 364.933,318.000 364.600 C 318.000 364.270,318.270 364.000,318.600 364.000 C 318.930 364.000,319.200 363.820,319.200 363.600 C 319.200 363.380,319.650 363.200,320.200 363.200 C 320.750 363.200,321.200 363.012,321.200 362.782 C 321.200 362.191,323.060 360.401,323.682 360.393 C 323.967 360.389,324.624 359.939,325.142 359.393 C 325.660 358.847,326.215 358.400,326.374 358.400 C 326.534 358.400,326.906 357.950,327.200 357.400 C 327.494 356.850,328.081 356.400,328.503 356.400 C 328.926 356.400,330.512 355.140,332.027 353.600 C 335.740 349.828,335.600 349.655,335.600 358.000 C 335.600 364.933,335.630 365.200,336.400 365.200 C 336.844 365.200,337.200 364.933,337.200 364.600 C 337.200 364.072,340.600 364.000,365.400 364.000 C 393.333 364.000,393.600 363.992,393.600 363.200 C 393.600 362.760,393.420 362.400,393.200 362.400 C 392.980 362.400,392.800 362.207,392.800 361.971 C 392.800 361.418,391.782 360.400,391.229 360.400 C 390.993 360.400,390.800 360.207,390.800 359.971 C 390.800 359.505,389.815 358.400,389.400 358.400 C 389.066 358.400,388.000 357.334,388.000 357.000 C 388.000 356.585,386.895 355.600,386.429 355.600 C 386.193 355.600,386.000 355.396,386.000 355.147 C 386.000 354.668,384.011 352.801,383.500 352.800 C 383.335 352.800,383.200 352.607,383.200 352.371 C 383.200 351.818,382.182 350.800,381.629 350.800 C 381.393 350.800,381.200 350.596,381.200 350.347 C 381.200 349.868,379.211 348.001,378.700 348.000 C 378.535 348.000,378.400 347.807,378.400 347.571 C 378.400 347.018,377.382 346.000,376.829 346.000 C 376.593 346.000,376.400 345.719,376.400 345.376 C 376.400 345.033,376.220 344.864,376.000 345.000 C 375.780 345.136,375.600 345.044,375.600 344.795 C 375.600 344.222,374.593 343.200,374.029 343.200 C 373.793 343.200,373.600 343.007,373.600 342.771 C 373.600 342.218,372.582 341.200,372.029 341.200 C 371.793 341.200,371.600 341.065,371.600 340.900 C 371.599 340.389,369.732 338.400,369.253 338.400 C 369.004 338.400,368.800 338.207,368.800 337.971 C 368.800 337.505,367.815 336.400,367.400 336.400 C 367.066 336.400,366.000 335.334,366.000 335.000 C 366.000 334.585,364.895 333.600,364.429 333.600 C 364.193 333.600,364.000 333.345,364.000 333.033 C 364.000 332.722,363.775 332.389,363.500 332.293 C 363.198 332.188,363.752 331.395,364.900 330.287 C 365.945 329.279,366.800 328.262,366.800 328.027 C 366.800 327.792,366.978 327.600,367.195 327.600 C 367.717 327.600,371.600 323.726,371.600 323.205 C 371.600 322.982,371.789 322.800,372.019 322.800 C 372.565 322.800,376.400 318.965,376.400 318.419 C 376.400 318.189,376.582 318.000,376.805 318.000 C 377.326 318.000,381.200 314.117,381.200 313.595 C 381.200 313.378,381.388 313.200,381.618 313.200 C 382.160 313.200,384.231 311.127,384.100 310.715 C 384.045 310.542,384.193 310.400,384.429 310.400 C 384.982 310.400,386.000 309.382,386.000 308.829 C 386.000 308.593,386.142 308.445,386.315 308.500 C 386.727 308.631,388.800 306.560,388.800 306.018 C 388.800 305.788,388.978 305.600,389.195 305.600 C 389.936 305.600,393.600 301.612,393.600 300.805 C 393.600 300.023,393.352 300.000,385.000 300.000 L 376.400 300.000 376.400 299.000 C 376.400 298.378,376.627 298.000,377.000 298.000 C 377.373 298.000,377.600 297.622,377.600 297.000 C 377.600 296.450,377.780 296.000,378.000 296.000 C 378.220 296.000,378.400 295.659,378.400 295.243 C 378.400 294.826,378.670 294.382,379.000 294.255 C 379.330 294.129,379.600 293.659,379.600 293.213 C 379.600 292.766,379.780 292.400,380.000 292.400 C 380.220 292.400,380.400 292.130,380.400 291.800 C 380.400 291.470,380.580 291.200,380.800 291.200 C 381.020 291.200,381.200 290.840,381.200 290.400 C 381.200 289.956,381.467 289.600,381.800 289.600 C 382.173 289.600,382.400 289.222,382.400 288.600 C 382.400 288.050,382.580 287.600,382.800 287.600 C 383.020 287.600,383.200 286.989,383.200 286.243 C 383.200 285.381,383.428 284.798,383.825 284.646 C 384.169 284.514,384.348 284.239,384.222 284.035 C 384.096 283.831,384.264 283.393,384.596 283.061 C 384.928 282.729,385.200 282.084,385.200 281.629 C 385.200 281.173,385.380 280.800,385.600 280.800 C 385.820 280.800,386.000 280.350,386.000 279.800 C 386.000 279.178,386.227 278.800,386.600 278.800 C 387.019 278.800,387.200 278.378,387.200 277.400 C 387.200 276.630,387.380 276.000,387.600 276.000 C 387.820 276.000,388.000 275.370,388.000 274.600 C 388.000 273.830,388.180 273.200,388.400 273.200 C 388.620 273.200,388.800 272.750,388.800 272.200 C 388.800 271.578,389.027 271.200,389.400 271.200 C 389.819 271.200,390.000 270.778,390.000 269.800 C 390.000 269.030,390.180 268.400,390.400 268.400 C 390.620 268.400,390.800 267.789,390.800 267.043 C 390.800 266.205,391.030 265.597,391.400 265.455 C 391.747 265.322,392.000 264.724,392.000 264.036 C 392.000 263.382,392.180 262.736,392.400 262.600 C 392.620 262.464,392.800 261.834,392.800 261.200 C 392.800 260.566,392.980 259.936,393.200 259.800 C 393.420 259.664,393.600 258.753,393.600 257.776 C 393.600 256.464,393.757 256.000,394.200 256.000 C 394.619 256.000,394.800 255.578,394.800 254.600 C 394.800 253.830,394.980 253.200,395.200 253.200 C 395.420 253.200,395.600 252.300,395.600 251.200 C 395.600 249.689,395.747 249.200,396.200 249.200 C 396.644 249.200,396.800 248.733,396.800 247.400 C 396.800 246.410,396.980 245.600,397.200 245.600 C 397.422 245.600,397.600 244.533,397.600 243.200 C 397.600 241.867,397.778 240.800,398.000 240.800 C 398.231 240.800,398.400 239.533,398.400 237.800 C 398.400 235.499,398.530 234.800,398.958 234.800 C 400.344 234.800,400.483 168.035,399.100 167.023 C 398.555 166.625,398.400 165.924,398.400 163.856 C 398.400 162.352,398.227 161.200,398.000 161.200 C 397.780 161.200,397.600 160.390,397.600 159.400 C 397.600 158.410,397.420 157.600,397.200 157.600 C 396.978 157.600,396.800 156.533,396.800 155.200 C 396.800 153.333,396.667 152.800,396.200 152.800 C 395.747 152.800,395.600 152.311,395.600 150.800 C 395.600 149.700,395.420 148.800,395.200 148.800 C 394.980 148.800,394.800 148.170,394.800 147.400 C 394.800 146.422,394.619 146.000,394.200 146.000 C 393.747 146.000,393.600 145.511,393.600 144.000 C 393.600 142.900,393.420 142.000,393.200 142.000 C 392.980 142.000,392.800 141.370,392.800 140.600 C 392.800 139.830,392.620 139.200,392.400 139.200 C 392.180 139.200,392.000 138.570,392.000 137.800 C 392.000 136.822,391.819 136.400,391.400 136.400 C 390.981 136.400,390.800 135.978,390.800 135.000 C 390.800 134.230,390.620 133.600,390.400 133.600 C 390.180 133.600,390.000 132.970,390.000 132.200 C 390.000 131.222,389.819 130.800,389.400 130.800 C 389.027 130.800,388.800 130.422,388.800 129.800 C 388.800 129.250,388.620 128.800,388.400 128.800 C 388.180 128.800,388.000 128.170,388.000 127.400 C 388.000 126.630,387.820 126.000,387.600 126.000 C 387.380 126.000,387.200 125.364,387.200 124.587 C 387.200 123.701,386.977 123.089,386.600 122.945 C 386.270 122.818,386.000 122.374,386.000 121.957 C 386.000 121.541,385.820 121.200,385.600 121.200 C 385.380 121.200,385.200 120.750,385.200 120.200 C 385.200 119.650,385.020 119.200,384.800 119.200 C 384.580 119.200,384.400 118.834,384.400 118.387 C 384.400 117.941,384.130 117.471,383.800 117.345 C 383.430 117.203,383.200 116.595,383.200 115.757 C 383.200 115.011,383.020 114.400,382.800 114.400 C 382.580 114.400,382.400 113.950,382.400 113.400 C 382.400 112.778,382.173 112.400,381.800 112.400 C 381.470 112.400,381.200 112.051,381.200 111.624 C 381.200 111.197,381.020 110.736,380.800 110.600 C 380.580 110.464,380.400 110.003,380.400 109.576 C 380.400 109.149,380.240 108.800,380.043 108.800 C 379.847 108.800,379.574 108.350,379.436 107.800 C 379.298 107.250,379.008 106.800,378.792 106.800 C 378.577 106.800,378.400 106.530,378.400 106.200 C 378.400 105.870,378.220 105.600,378.000 105.600 C 377.780 105.600,377.600 105.240,377.600 104.800 C 377.600 104.356,377.333 104.000,377.000 104.000 C 376.627 104.000,376.400 103.622,376.400 103.000 C 376.400 102.450,376.220 102.000,376.000 102.000 C 375.780 102.000,375.600 101.627,375.600 101.171 C 375.600 100.286,374.734 99.200,374.029 99.200 C 373.793 99.200,373.600 98.750,373.600 98.200 C 373.600 97.650,373.420 97.200,373.200 97.200 C 372.980 97.200,372.800 96.750,372.800 96.200 C 372.800 95.650,372.607 95.200,372.371 95.200 C 371.724 95.200,370.800 94.142,370.800 93.400 C 370.800 92.658,369.876 91.600,369.229 91.600 C 368.993 91.600,368.800 91.150,368.800 90.600 C 368.800 90.050,368.620 89.600,368.400 89.600 C 368.180 89.600,368.000 89.330,368.000 89.000 C 368.000 88.670,367.730 88.400,367.400 88.400 C 367.067 88.400,366.800 88.044,366.800 87.600 C 366.800 87.160,366.620 86.800,366.400 86.800 C 366.180 86.800,366.000 86.530,366.000 86.200 C 366.000 85.870,365.820 85.600,365.600 85.600 C 365.380 85.600,365.200 85.265,365.200 84.856 C 365.200 84.447,364.750 83.774,364.200 83.361 C 363.649 82.947,363.200 82.204,363.200 81.705 C 363.200 81.207,363.007 80.800,362.771 80.800 C 362.305 80.800,361.200 79.815,361.200 79.400 C 361.200 78.985,360.095 78.000,359.629 78.000 C 359.393 78.000,359.200 77.627,359.200 77.171 C 359.200 76.273,358.332 75.200,357.605 75.200 C 357.356 75.200,357.265 75.019,357.402 74.797 C 357.539 74.576,357.369 74.286,357.025 74.154 C 356.681 74.022,356.400 73.574,356.400 73.157 C 356.400 72.741,356.220 72.400,356.000 72.400 C 355.780 72.400,355.600 72.130,355.600 71.800 C 355.600 71.470,355.422 71.200,355.205 71.200 C 354.464 71.200,350.800 67.212,350.800 66.405 C 350.800 65.956,350.535 65.600,350.200 65.600 C 349.870 65.600,349.600 65.465,349.600 65.300 C 349.599 64.789,347.732 62.800,347.253 62.800 C 347.004 62.800,346.800 62.607,346.800 62.371 C 346.800 61.905,345.815 60.800,345.400 60.800 C 345.066 60.800,344.000 59.734,344.000 59.400 C 344.000 58.985,342.895 58.000,342.429 58.000 C 342.193 58.000,342.000 57.807,342.000 57.571 C 342.000 57.105,341.015 56.000,340.600 56.000 C 340.266 56.000,339.200 54.934,339.200 54.600 C 339.200 54.185,338.095 53.200,337.629 53.200 C 337.393 53.200,337.200 53.007,337.200 52.771 C 337.200 52.124,336.142 51.200,335.400 51.200 C 334.658 51.200,333.600 50.276,333.600 49.629 C 333.600 49.393,333.408 49.200,333.173 49.200 C 332.938 49.200,331.969 48.390,331.021 47.400 C 330.039 46.375,328.931 45.600,328.448 45.600 C 327.982 45.600,327.600 45.412,327.600 45.182 C 327.600 44.640,325.527 42.569,325.115 42.700 C 324.942 42.755,324.800 42.530,324.800 42.200 C 324.800 41.860,324.441 41.600,323.971 41.600 C 323.187 41.600,322.000 40.757,322.000 40.200 C 322.000 39.643,320.813 38.800,320.029 38.800 C 319.573 38.800,319.200 38.620,319.200 38.400 C 319.200 38.180,318.930 38.000,318.600 38.000 C 318.270 38.000,318.000 37.730,318.000 37.400 C 318.000 37.067,317.644 36.800,317.200 36.800 C 316.760 36.800,316.400 36.620,316.400 36.400 C 316.400 36.180,316.130 36.000,315.800 36.000 C 315.470 36.000,315.200 35.807,315.200 35.571 C 315.200 34.924,314.142 34.000,313.400 34.000 C 312.658 34.000,311.600 33.076,311.600 32.429 C 311.600 32.193,311.150 32.000,310.600 32.000 C 310.050 32.000,309.600 31.820,309.600 31.600 C 309.600 31.380,309.150 31.200,308.600 31.200 C 308.050 31.200,307.600 31.007,307.600 30.771 C 307.600 30.066,306.514 29.200,305.629 29.200 C 305.173 29.200,304.800 29.020,304.800 28.800 C 304.800 28.580,304.350 28.400,303.800 28.400 C 303.250 28.400,302.800 28.207,302.800 27.971 C 302.800 27.266,301.714 26.400,300.829 26.400 C 300.359 26.400,300.000 26.140,300.000 25.800 C 300.000 25.427,299.622 25.200,299.000 25.200 C 298.450 25.200,298.000 25.020,298.000 24.800 C 298.000 24.580,297.550 24.400,297.000 24.400 C 296.450 24.400,296.000 24.220,296.000 24.000 C 296.000 23.780,295.640 23.600,295.200 23.600 C 294.756 23.600,294.400 23.333,294.400 23.000 C 294.400 22.627,294.022 22.400,293.400 22.400 C 292.850 22.400,292.400 22.220,292.400 22.000 C 292.400 21.780,291.950 21.600,291.400 21.600 C 290.850 21.600,290.400 21.368,290.400 21.085 C 290.400 20.802,289.998 20.540,289.506 20.503 C 289.014 20.466,288.549 20.248,288.473 20.018 C 288.396 19.788,287.898 19.600,287.367 19.600 C 286.835 19.600,286.400 19.420,286.400 19.200 C 286.400 18.980,286.040 18.800,285.600 18.800 C 285.156 18.800,284.800 18.533,284.800 18.200 C 284.800 17.827,284.422 17.600,283.800 17.600 C 283.250 17.600,282.800 17.420,282.800 17.200 C 282.800 16.980,282.369 16.800,281.843 16.800 C 281.316 16.800,280.782 16.530,280.655 16.200 C 280.521 15.849,279.921 15.600,279.213 15.600 C 278.546 15.600,278.000 15.420,278.000 15.200 C 278.000 14.980,277.550 14.800,277.000 14.800 C 276.450 14.800,276.000 14.620,276.000 14.400 C 276.000 14.180,275.389 14.000,274.643 14.000 C 273.805 14.000,273.197 13.770,273.055 13.400 C 272.929 13.070,272.459 12.800,272.013 12.800 C 271.566 12.800,271.200 12.620,271.200 12.400 C 271.200 12.180,270.570 12.000,269.800 12.000 C 269.030 12.000,268.400 11.820,268.400 11.600 C 268.400 11.380,267.770 11.200,267.000 11.200 C 266.022 11.200,265.600 11.019,265.600 10.600 C 265.600 10.181,265.178 10.000,264.200 10.000 C 263.430 10.000,262.800 9.820,262.800 9.600 C 262.800 9.380,262.164 9.200,261.387 9.200 C 260.501 9.200,259.889 8.977,259.745 8.600 C 259.588 8.193,258.950 8.000,257.757 8.000 C 256.791 8.000,256.000 7.820,256.000 7.600 C 256.000 7.380,255.370 7.200,254.600 7.200 C 253.830 7.200,253.200 7.020,253.200 6.800 C 253.200 6.580,252.300 6.400,251.200 6.400 C 249.689 6.400,249.200 6.253,249.200 5.800 C 249.200 5.333,248.667 5.200,246.800 5.200 C 245.467 5.200,244.400 5.022,244.400 4.800 C 244.400 4.580,243.590 4.400,242.600 4.400 C 241.267 4.400,240.800 4.244,240.800 3.800 C 240.800 3.347,240.311 3.200,238.800 3.200 C 237.700 3.200,236.800 3.020,236.800 2.800 C 236.800 2.561,235.267 2.400,233.000 2.400 C 230.733 2.400,229.200 2.239,229.200 2.000 C 229.200 1.758,227.467 1.600,224.800 1.600 C 221.156 1.600,220.400 1.497,220.400 1.000 C 220.400 0.475,217.956 0.400,200.800 0.400 C 183.644 0.400,181.200 0.475,181.200 1.000 M203.600 94.819 L 203.600 98.438 201.100 98.319 L 198.600 98.200 198.481 95.237 C 198.320 91.221,198.334 91.200,201.187 91.200 L 203.600 91.200 203.600 94.819 M221.378 98.626 L 222.956 100.019 220.590 102.410 C 218.004 105.023,217.431 105.212,215.851 103.969 C 213.682 102.263,213.750 101.862,216.622 99.425 C 219.702 96.813,219.384 96.866,221.378 98.626 M185.800 99.763 L 188.200 101.924 186.822 103.362 C 185.054 105.206,184.727 105.177,182.107 102.938 C 179.369 100.599,179.236 100.224,180.623 98.776 C 182.201 97.128,183.056 97.291,185.800 99.763 M208.836 109.944 C 209.556 110.834,209.600 111.709,209.600 125.044 L 209.600 139.200 212.300 139.201 C 214.069 139.201,215.483 139.442,216.400 139.901 L 217.800 140.600 218.000 147.600 L 218.200 154.600 219.600 155.271 C 220.370 155.640,222.692 156.684,224.759 157.590 C 255.967 171.274,262.282 209.522,236.865 230.914 C 220.110 245.016,192.913 247.923,175.082 237.519 C 174.028 236.903,173.075 236.400,172.964 236.400 C 172.149 236.400,165.926 231.614,162.870 228.635 C 139.258 205.627,147.595 169.722,179.600 156.585 L 183.800 154.861 184.000 148.130 C 184.252 139.645,184.541 139.200,189.804 139.200 L 192.371 139.200 192.485 125.042 C 192.630 107.225,191.680 108.842,201.936 108.941 C 207.869 108.998,208.098 109.031,208.836 109.944 M180.320 114.480 C 180.584 114.744,180.800 115.728,180.800 116.666 C 180.800 118.814,180.161 119.200,176.600 119.200 C 172.953 119.200,172.400 118.838,172.400 116.453 C 172.400 115.397,172.520 114.413,172.667 114.267 C 173.149 113.784,179.810 113.970,180.320 114.480 M229.610 115.026 C 230.929 118.496,227.516 120.384,222.860 118.761 C 221.625 118.331,220.934 115.200,221.867 114.267 C 222.756 113.377,229.224 114.012,229.610 115.026 M198.128 116.800 C 198.128 118.230,198.201 118.815,198.289 118.100 C 198.378 117.385,198.378 116.215,198.289 115.500 C 198.201 114.785,198.128 115.370,198.128 116.800 M203.701 115.800 C 203.705 116.680,203.787 116.993,203.883 116.495 C 203.979 115.998,203.975 115.278,203.875 114.895 C 203.775 114.513,203.696 114.920,203.701 115.800 M203.720 136.400 C 203.720 137.610,203.795 138.105,203.887 137.500 C 203.978 136.895,203.978 135.905,203.887 135.300 C 203.795 134.695,203.720 135.190,203.720 136.400 M200.100 200.687 C 200.705 200.778,201.695 200.778,202.300 200.687 C 202.905 200.595,202.410 200.520,201.200 200.520 C 199.990 200.520,199.495 200.595,200.100 200.687 M190.300 210.700 C 196.955 210.761,207.845 210.761,214.500 210.700 C 221.155 210.638,215.710 210.588,202.400 210.588 C 189.090 210.588,183.645 210.638,190.300 210.700 M351.400 311.000 L 351.400 341.800 199.600 341.800 L 47.800 341.800 47.697 311.400 C 47.640 294.680,47.679 280.775,47.784 280.499 C 47.937 280.100,78.528 280.019,199.688 280.099 L 351.400 280.200 351.400 311.000 M192.928 300.800 C 192.928 302.230,193.001 302.815,193.089 302.100 C 193.178 301.385,193.178 300.215,193.089 299.500 C 193.001 298.785,192.928 299.370,192.928 300.800 M112.577 310.600 C 112.577 317.200,112.632 319.956,112.699 316.725 C 112.766 313.493,112.766 308.093,112.699 304.725 C 112.632 301.356,112.577 304.000,112.577 310.600 M44.304 324.300 L 44.407 345.200 52.433 345.200 C 59.861 345.200,60.449 345.252,60.324 345.900 C 60.203 346.529,59.493 346.611,53.295 346.709 L 46.400 346.819 46.400 347.810 C 46.400 348.553,47.814 350.207,52.039 354.411 C 55.758 358.110,57.601 360.221,57.451 360.610 C 57.107 361.508,15.690 361.499,15.345 360.601 C 15.189 360.193,19.404 355.719,28.558 346.574 C 39.550 335.593,42.000 332.950,42.000 332.071 C 42.000 331.192,39.555 328.551,28.600 317.600 C 21.230 310.232,15.200 303.976,15.200 303.697 C 15.200 303.295,18.201 303.212,29.700 303.295 L 44.200 303.400 44.304 324.300 M137.462 303.500 C 137.360 303.665,138.502 303.800,140.000 303.800 C 141.498 303.800,142.640 303.665,142.538 303.500 C 142.436 303.335,141.294 303.200,140.000 303.200 C 138.706 303.200,137.564 303.335,137.462 303.500 M276.262 303.500 C 276.160 303.665,277.302 303.800,278.800 303.800 C 280.298 303.800,281.440 303.665,281.338 303.500 C 281.236 303.335,280.094 303.200,278.800 303.200 C 277.506 303.200,276.364 303.335,276.262 303.500 M384.967 303.546 C 385.084 303.736,379.155 309.928,371.790 317.306 C 359.388 329.730,358.400 330.821,358.400 332.098 C 358.400 333.375,359.385 334.463,371.741 346.839 C 379.078 354.187,385.003 360.425,384.907 360.700 C 384.620 361.524,342.859 361.420,342.542 360.594 C 342.385 360.184,344.009 358.302,347.555 354.785 C 352.279 350.099,352.800 349.443,352.800 348.191 L 352.800 346.800 346.243 346.800 C 340.986 346.800,339.643 346.689,339.470 346.239 C 339.098 345.268,339.571 345.200,346.667 345.200 L 353.600 345.200 353.600 324.200 L 353.600 303.200 369.176 303.200 C 377.743 303.200,384.849 303.356,384.967 303.546 M275.281 313.276 C 275.237 318.268,275.335 322.437,275.500 322.539 C 275.665 322.641,275.754 319.997,275.697 316.663 C 275.504 305.326,275.363 304.180,275.281 313.276 M287.314 306.200 C 287.317 307.300,287.395 307.703,287.487 307.095 C 287.579 306.486,287.577 305.586,287.482 305.095 C 287.387 304.603,287.311 305.100,287.314 306.200 M126.109 306.400 C 126.109 307.390,126.187 307.795,126.282 307.300 C 126.378 306.805,126.378 305.995,126.282 305.500 C 126.187 305.005,126.109 305.410,126.109 306.400 M136.570 313.400 C 136.571 318.240,136.629 320.165,136.699 317.678 C 136.769 315.191,136.769 311.231,136.698 308.878 C 136.628 306.525,136.570 308.560,136.570 313.400 M248.000 308.200 C 247.028 309.190,246.323 310.000,246.433 310.000 C 246.543 310.000,247.428 309.190,248.400 308.200 C 249.372 307.210,250.077 306.400,249.967 306.400 C 249.857 306.400,248.972 307.210,248.000 308.200 M265.634 309.447 C 266.165 310.133,266.680 310.623,266.779 310.535 C 266.877 310.447,266.443 309.886,265.813 309.288 L 264.669 308.200 265.634 309.447 M253.320 313.200 C 253.320 314.410,253.395 314.905,253.487 314.300 C 253.578 313.695,253.578 312.705,253.487 312.100 C 253.395 311.495,253.320 311.990,253.320 313.200 M266.400 315.600 L 260.200 315.832 266.276 315.916 C 269.989 315.967,272.449 315.844,272.600 315.600 C 272.736 315.380,272.792 315.238,272.724 315.284 C 272.656 315.330,269.810 315.473,266.400 315.600 M153.160 323.320 C 153.346 323.506,154.106 323.596,154.849 323.519 C 156.167 323.383,156.158 323.375,154.510 323.180 C 153.581 323.071,152.973 323.133,153.160 323.320 M218.360 323.320 C 218.546 323.506,219.306 323.596,220.049 323.519 C 221.367 323.383,221.358 323.375,219.710 323.180 C 218.781 323.071,218.173 323.133,218.360 323.320 M261.863 323.300 C 262.099 323.685,264.855 323.680,265.462 323.294 C 265.716 323.132,264.969 323.000,263.802 323.000 C 262.635 323.000,261.762 323.135,261.863 323.300 " stroke="none" fill="#548374" fill-rule="evenodd"></path><path id="path2" d="M198.400 116.805 L 198.400 119.611 199.900 118.989 C 203.766 117.388,203.600 117.535,203.600 115.702 L 203.600 114.000 201.000 114.000 L 198.400 114.000 198.400 116.805 M200.702 124.731 L 198.405 125.800 198.402 127.700 C 198.400 129.823,198.345 129.770,199.881 129.144 C 203.780 127.554,203.600 127.727,203.600 125.581 C 203.600 123.299,203.711 123.332,200.702 124.731 M201.200 134.645 C 200.430 134.990,199.530 135.409,199.200 135.576 C 197.219 136.582,198.464 139.584,200.867 139.594 C 203.411 139.604,203.600 139.395,203.600 136.557 C 203.600 133.731,203.471 133.628,201.200 134.645 M200.900 173.498 C 200.625 173.591,200.400 173.844,200.400 174.060 C 200.400 174.276,199.950 175.043,199.400 175.764 C 198.850 176.486,198.400 177.206,198.400 177.364 C 198.400 177.523,197.950 178.243,197.400 178.964 C 196.850 179.686,196.400 180.484,196.400 180.738 C 196.400 180.992,196.220 181.200,196.000 181.200 C 195.780 181.200,195.600 181.392,195.600 181.627 C 195.600 181.861,195.150 182.643,194.600 183.364 C 194.050 184.086,193.600 184.822,193.600 185.000 C 193.600 185.178,193.150 185.914,192.600 186.636 C 192.050 187.357,191.600 188.139,191.600 188.373 C 191.600 188.608,191.420 188.800,191.200 188.800 C 190.980 188.800,190.800 188.992,190.800 189.227 C 190.800 189.461,190.385 190.226,189.877 190.927 C 189.370 191.627,188.605 192.887,188.177 193.727 C 187.750 194.567,187.085 195.594,186.700 196.010 C 186.315 196.426,186.000 196.876,186.000 197.010 C 186.000 197.144,185.550 197.843,185.000 198.564 C 184.450 199.286,184.000 199.997,184.000 200.146 C 184.000 200.407,182.020 203.591,181.604 204.000 C 181.492 204.110,181.054 204.830,180.630 205.600 C 180.207 206.370,179.757 207.090,179.630 207.200 C 179.317 207.472,178.000 209.865,178.000 210.162 C 178.000 210.293,188.980 210.400,202.400 210.400 C 217.149 210.400,226.800 210.253,226.800 210.029 C 226.800 209.824,226.558 209.415,226.263 209.120 C 225.967 208.824,225.225 207.790,224.614 206.822 C 224.003 205.855,223.345 204.869,223.151 204.631 C 222.314 203.608,216.000 194.383,216.000 194.184 C 216.000 194.064,215.550 193.480,215.000 192.887 C 214.450 192.293,214.000 191.581,214.000 191.304 C 214.000 191.027,213.820 190.800,213.600 190.800 C 213.380 190.800,213.200 190.612,213.200 190.383 C 213.200 190.153,212.750 189.480,212.200 188.887 C 211.650 188.293,211.200 187.581,211.200 187.304 C 211.200 187.027,211.048 186.800,210.863 186.800 C 210.678 186.800,210.187 186.170,209.772 185.400 C 209.357 184.630,208.879 184.000,208.709 184.000 C 208.539 184.000,208.400 183.730,208.400 183.400 C 208.400 183.070,208.232 182.800,208.027 182.800 C 207.822 182.800,207.550 182.472,207.422 182.071 C 207.295 181.669,206.875 180.994,206.489 180.571 C 206.103 180.147,205.214 178.900,204.513 177.800 C 202.395 174.475,201.425 173.320,200.900 173.498 M203.800 190.400 L 203.800 195.400 201.000 195.400 L 198.200 195.400 198.086 190.824 C 197.939 184.903,197.812 185.138,201.095 185.282 L 203.800 185.400 203.800 190.400 M203.522 200.743 C 203.880 200.970,204.005 201.818,203.922 203.437 L 203.800 205.800 201.000 205.800 L 198.200 205.800 198.082 203.333 C 197.981 201.236,198.071 200.838,198.682 200.679 C 199.922 200.357,202.977 200.398,203.522 200.743 M47.784 280.499 C 47.679 280.775,47.640 294.680,47.697 311.400 L 47.800 341.800 199.600 341.800 L 351.400 341.800 351.400 311.000 L 351.400 280.200 199.688 280.099 C 78.528 280.019,47.937 280.100,47.784 280.499 M141.377 296.154 C 143.676 297.347,144.243 299.573,142.773 301.638 C 141.681 303.172,138.850 303.309,137.363 301.900 C 134.580 299.262,137.981 294.392,141.377 296.154 M170.800 302.600 L 171.000 308.600 172.200 307.217 C 175.585 303.314,175.792 303.200,179.456 303.200 C 183.795 303.200,183.816 303.478,179.800 307.785 C 176.169 311.679,175.921 312.454,177.900 313.720 C 178.175 313.896,178.400 314.200,178.400 314.396 C 178.400 314.592,179.508 316.391,180.861 318.395 C 183.776 322.709,183.713 322.877,179.236 322.717 C 176.048 322.604,175.926 322.563,175.273 321.400 C 174.903 320.740,174.492 320.110,174.360 320.000 C 174.228 319.890,173.632 319.022,173.036 318.071 C 171.578 315.743,170.877 316.306,170.717 319.934 L 170.600 322.600 167.600 322.600 L 164.600 322.600 164.494 310.004 C 164.368 295.004,164.053 296.335,167.694 296.482 L 170.600 296.600 170.800 302.600 M239.511 302.740 L 239.621 308.880 241.111 307.163 C 244.533 303.217,244.563 303.200,248.236 303.200 C 251.973 303.200,252.393 303.459,251.034 304.926 C 250.511 305.490,250.019 306.131,249.941 306.349 C 249.864 306.568,248.746 307.841,247.457 309.180 L 245.115 311.613 246.157 312.980 C 246.731 313.732,247.200 314.539,247.200 314.773 C 247.200 315.008,247.380 315.200,247.600 315.200 C 247.820 315.200,248.000 315.455,248.000 315.767 C 248.000 316.078,248.135 316.393,248.300 316.467 C 249.015 316.784,252.045 321.707,251.845 322.227 C 251.678 322.661,250.815 322.800,248.276 322.800 L 244.926 322.800 244.172 321.400 C 243.757 320.630,243.279 320.000,243.109 320.000 C 242.939 320.000,242.800 319.730,242.800 319.400 C 242.800 319.070,242.665 318.799,242.500 318.797 C 242.335 318.796,241.886 318.243,241.501 317.567 C 240.418 315.664,239.600 316.791,239.600 320.188 L 239.600 322.834 236.500 322.717 L 233.400 322.600 233.294 310.004 C 233.168 295.004,232.853 296.335,236.494 296.482 L 239.400 296.600 239.511 302.740 M126.000 298.194 C 129.028 298.617,132.400 300.862,132.400 302.455 C 132.400 302.839,132.580 303.264,132.800 303.400 C 133.020 303.536,133.200 304.886,133.200 306.400 C 133.200 307.914,133.020 309.264,132.800 309.400 C 132.580 309.536,132.400 309.969,132.400 310.361 C 132.400 310.754,131.645 311.823,130.721 312.738 L 129.042 314.400 130.795 316.900 C 131.758 318.275,132.694 319.460,132.873 319.533 C 133.053 319.607,133.200 319.862,133.200 320.102 C 133.200 320.341,133.502 320.870,133.871 321.278 C 134.964 322.486,134.052 322.844,130.206 322.716 C 127.206 322.617,126.619 322.485,126.242 321.821 C 125.999 321.393,125.395 320.585,124.900 320.025 C 124.405 319.466,124.000 318.781,124.000 318.504 C 124.000 318.227,123.820 318.000,123.600 318.000 C 123.380 318.000,123.200 317.730,123.200 317.400 C 123.200 317.070,123.032 316.800,122.827 316.800 C 122.622 316.800,122.340 316.440,122.200 316.000 C 122.003 315.379,121.595 315.200,120.373 315.200 L 118.800 315.200 118.800 319.017 L 118.800 322.834 115.700 322.717 L 112.600 322.600 112.484 311.400 C 112.420 305.240,112.476 299.602,112.608 298.871 L 112.847 297.542 118.524 297.742 C 121.646 297.853,125.010 298.056,126.000 298.194 M212.600 300.600 L 212.600 303.400 209.300 303.516 L 206.000 303.632 206.000 313.233 L 206.000 322.834 202.900 322.717 L 199.800 322.600 199.693 313.116 L 199.586 303.632 196.293 303.516 L 193.000 303.400 192.875 301.427 C 192.806 300.341,192.856 299.033,192.984 298.519 L 193.219 297.586 202.909 297.693 L 212.600 297.800 212.600 300.600 M15.200 303.697 C 15.200 303.976,21.230 310.232,28.600 317.600 C 39.555 328.551,42.000 331.192,42.000 332.071 C 42.000 332.950,39.550 335.593,28.558 346.574 C 19.404 355.719,15.189 360.193,15.345 360.601 C 15.690 361.499,57.107 361.508,57.451 360.610 C 57.601 360.221,55.758 358.110,52.039 354.411 C 47.814 350.207,46.400 348.553,46.400 347.810 L 46.400 346.819 53.295 346.709 C 59.493 346.611,60.203 346.529,60.324 345.900 C 60.449 345.252,59.861 345.200,52.433 345.200 L 44.407 345.200 44.304 324.300 L 44.200 303.400 29.700 303.295 C 18.201 303.212,15.200 303.295,15.200 303.697 M142.707 313.100 L 142.814 322.800 139.850 322.800 C 136.154 322.800,136.400 323.481,136.400 313.256 C 136.400 303.138,136.413 303.103,140.135 303.282 L 142.600 303.400 142.707 313.100 M158.305 303.556 C 158.687 303.751,159.675 304.242,160.500 304.647 C 162.281 305.520,162.334 305.913,160.947 308.009 C 159.839 309.683,158.856 309.999,157.857 309.000 C 157.098 308.241,153.195 308.157,153.210 308.900 C 153.223 309.499,155.907 310.800,157.131 310.800 C 157.609 310.800,158.000 310.980,158.000 311.200 C 158.000 311.420,158.315 311.603,158.700 311.606 C 159.085 311.610,160.011 312.152,160.759 312.810 C 163.971 315.642,161.911 322.068,157.500 322.977 C 154.553 323.585,153.284 323.659,153.023 323.238 C 152.874 322.997,152.136 322.800,151.382 322.800 C 148.529 322.800,144.850 319.575,146.500 318.520 C 146.775 318.344,147.199 317.840,147.443 317.400 C 148.154 316.116,151.675 316.620,152.333 318.100 C 152.582 318.660,155.492 318.412,156.010 317.787 C 156.631 317.040,155.548 316.033,154.100 316.013 C 153.605 316.006,153.200 315.820,153.200 315.600 C 153.200 315.380,152.834 315.200,152.386 315.200 C 148.888 315.200,145.584 309.111,147.700 306.564 C 148.971 305.034,150.250 304.000,150.872 304.000 C 151.247 304.000,151.664 303.820,151.800 303.600 C 152.106 303.105,157.355 303.069,158.305 303.556 M225.400 303.600 C 225.536 303.820,225.952 304.006,226.324 304.013 C 227.153 304.030,228.367 305.038,229.300 306.486 C 229.904 307.423,230.000 308.616,230.000 315.186 L 230.000 322.800 227.420 322.800 C 225.496 322.800,224.751 322.641,224.490 322.175 C 224.173 321.608,224.092 321.608,223.621 322.175 C 223.336 322.519,222.674 322.800,222.151 322.800 C 221.628 322.800,221.200 322.980,221.200 323.200 C 221.200 323.420,220.581 323.600,219.824 323.600 C 219.067 323.600,218.336 323.420,218.200 323.200 C 218.064 322.980,217.575 322.800,217.114 322.800 C 214.101 322.800,211.279 317.700,212.576 314.597 C 213.818 311.623,215.653 310.705,221.500 310.132 C 222.655 310.019,223.600 309.799,223.600 309.643 C 223.600 308.248,220.179 307.987,217.800 309.200 C 216.133 310.050,215.200 310.216,215.200 309.662 C 215.200 309.476,214.750 308.801,214.200 308.162 C 212.656 306.366,214.212 304.000,216.938 304.000 C 217.522 304.000,218.000 303.820,218.000 303.600 C 218.000 303.363,219.459 303.200,221.576 303.200 C 223.543 303.200,225.264 303.380,225.400 303.600 M267.000 303.600 C 267.136 303.820,267.552 304.005,267.924 304.011 C 270.183 304.046,273.200 308.722,273.200 312.187 C 273.200 316.058,273.305 316.000,266.324 316.000 C 260.301 316.000,260.279 316.003,261.000 316.800 C 261.894 317.787,265.423 317.921,266.624 317.013 C 268.180 315.835,270.254 316.995,271.270 319.612 C 271.611 320.490,268.851 322.561,266.800 322.968 C 263.609 323.600,262.313 323.673,261.885 323.245 C 261.640 323.000,261.020 322.800,260.506 322.800 C 257.112 322.800,252.839 316.795,253.318 312.700 C 253.772 308.824,257.010 304.000,259.157 304.000 C 259.595 304.000,260.064 303.820,260.200 303.600 C 260.336 303.380,261.866 303.200,263.600 303.200 C 265.334 303.200,266.864 303.380,267.000 303.600 M281.484 304.000 C 281.599 304.440,281.757 304.800,281.834 304.800 C 281.912 304.800,282.617 304.440,283.400 304.000 C 286.302 302.370,287.589 303.046,287.589 306.200 C 287.589 308.602,287.219 309.200,285.735 309.200 C 284.161 309.200,282.400 310.669,282.400 311.982 C 282.400 312.432,282.220 312.800,282.000 312.800 C 281.755 312.800,281.600 314.739,281.600 317.817 L 281.600 322.834 278.500 322.717 L 275.400 322.600 275.292 313.640 C 275.165 303.034,275.107 303.200,278.899 303.200 C 280.938 303.200,281.305 303.313,281.484 304.000 M353.600 324.200 L 353.600 345.200 346.667 345.200 C 339.571 345.200,339.098 345.268,339.470 346.239 C 339.643 346.689,340.986 346.800,346.243 346.800 L 352.800 346.800 352.800 348.191 C 352.800 349.443,352.279 350.099,347.555 354.785 C 344.009 358.302,342.385 360.184,342.542 360.594 C 342.859 361.420,384.620 361.524,384.907 360.700 C 385.003 360.425,379.078 354.187,371.741 346.839 C 359.385 334.463,358.400 333.375,358.400 332.098 C 358.400 330.821,359.388 329.730,371.790 317.306 C 379.155 309.928,385.084 303.736,384.967 303.546 C 384.849 303.356,377.743 303.200,369.176 303.200 L 353.600 303.200 353.600 324.200 M119.067 303.867 C 118.920 304.013,118.800 305.363,118.800 306.867 L 118.800 309.600 121.320 309.600 C 125.156 309.600,125.993 309.060,125.997 306.580 C 125.999 305.469,125.784 304.344,125.520 304.080 C 125.014 303.574,119.541 303.393,119.067 303.867 M261.300 309.070 C 259.545 310.294,260.160 310.800,263.400 310.800 C 266.636 310.800,266.898 310.607,265.474 309.270 C 264.391 308.252,262.596 308.166,261.300 309.070 M218.832 315.871 C 218.337 316.429,218.360 316.581,219.009 317.056 C 220.547 318.180,223.600 317.469,223.600 315.986 C 223.600 314.945,219.736 314.851,218.832 315.871 " stroke="none" fill="#646464" fill-rule="evenodd"></path><path id="path3" d="M198.569 91.737 C 198.455 92.033,198.416 93.608,198.481 95.237 L 198.600 98.200 201.100 98.319 L 203.600 98.438 203.600 94.819 L 203.600 91.200 201.187 91.200 C 199.537 91.200,198.710 91.370,198.569 91.737 M202.800 94.800 L 202.800 97.600 201.000 97.600 L 199.200 97.600 199.200 94.800 L 199.200 92.000 201.000 92.000 L 202.800 92.000 202.800 94.800 M216.622 99.425 C 213.750 101.862,213.682 102.263,215.851 103.969 C 217.431 105.212,218.004 105.023,220.590 102.410 L 222.956 100.019 221.378 98.626 C 219.384 96.866,219.702 96.813,216.622 99.425 M180.623 98.776 C 179.236 100.224,179.369 100.599,182.107 102.938 C 184.727 105.177,185.054 105.206,186.822 103.362 L 188.200 101.924 185.800 99.763 C 183.056 97.291,182.201 97.128,180.623 98.776 M184.962 100.362 C 186.025 101.441,186.773 102.521,186.624 102.762 C 186.285 103.310,183.600 103.344,183.600 102.800 C 183.600 102.580,183.299 102.400,182.931 102.400 C 181.184 102.400,180.331 100.514,181.500 99.233 C 182.530 98.106,182.839 98.206,184.962 100.362 M220.000 99.000 C 220.274 99.330,220.836 99.600,221.249 99.600 C 222.356 99.600,222.214 99.860,219.838 102.180 L 217.676 104.291 216.470 103.085 L 215.264 101.879 216.932 100.160 C 218.755 98.281,219.248 98.094,220.000 99.000 M194.942 109.063 C 192.622 109.554,192.610 109.628,192.485 125.042 L 192.371 139.200 189.804 139.200 C 184.541 139.200,184.252 139.645,184.000 148.130 L 183.800 154.861 179.600 156.585 C 147.595 169.722,139.258 205.627,162.870 228.635 C 165.926 231.614,172.149 236.400,172.964 236.400 C 173.075 236.400,174.028 236.903,175.082 237.519 C 192.913 247.923,220.110 245.016,236.865 230.914 C 262.282 209.522,255.967 171.274,224.759 157.590 C 222.692 156.684,220.370 155.640,219.600 155.271 L 218.200 154.600 218.000 147.600 L 217.800 140.600 216.400 139.901 C 215.483 139.442,214.069 139.201,212.300 139.201 L 209.600 139.200 209.600 125.044 C 209.600 107.349,210.397 109.022,201.936 108.941 C 198.561 108.909,195.414 108.964,194.942 109.063 M206.600 109.600 C 206.736 109.820,207.176 110.000,207.577 110.000 C 208.718 110.000,208.789 110.906,208.795 125.653 L 208.800 139.507 209.700 139.748 C 210.195 139.881,211.624 139.992,212.876 139.995 C 214.128 139.998,215.264 140.180,215.400 140.400 C 215.536 140.620,215.997 140.800,216.424 140.800 C 217.162 140.800,217.200 141.136,217.200 147.669 C 217.200 154.952,217.456 156.000,219.238 156.000 C 219.631 156.000,220.064 156.180,220.200 156.400 C 220.336 156.620,220.865 156.800,221.375 156.800 C 221.885 156.800,222.526 157.070,222.800 157.400 C 223.074 157.730,223.501 157.997,223.749 157.994 C 224.403 157.985,228.453 160.079,229.370 160.900 C 229.799 161.285,230.356 161.600,230.606 161.600 C 230.856 161.600,231.483 162.050,232.000 162.600 C 232.517 163.150,233.159 163.600,233.427 163.600 C 234.063 163.600,244.000 173.537,244.000 174.173 C 244.000 174.441,244.450 175.083,245.000 175.600 C 245.550 176.117,246.000 176.868,246.000 177.270 C 246.000 177.671,246.180 178.000,246.400 178.000 C 246.620 178.000,246.800 178.349,246.800 178.776 C 246.800 179.203,246.969 179.657,247.175 179.784 C 247.667 180.088,248.800 182.374,248.800 183.061 C 248.800 183.358,248.980 183.600,249.200 183.600 C 249.420 183.600,249.600 184.118,249.600 184.751 C 249.600 185.384,249.870 186.126,250.200 186.400 C 250.530 186.674,250.800 187.405,250.800 188.025 C 250.800 188.645,250.980 189.264,251.200 189.400 C 251.420 189.536,251.600 191.077,251.600 192.824 C 251.600 194.675,251.767 196.000,252.000 196.000 C 252.220 196.000,252.400 196.889,252.400 197.976 C 252.400 199.063,252.220 200.064,252.000 200.200 C 251.780 200.336,251.600 201.776,251.600 203.400 C 251.600 205.024,251.420 206.464,251.200 206.600 C 250.980 206.736,250.800 207.355,250.800 207.975 C 250.800 208.595,250.530 209.326,250.200 209.600 C 249.870 209.874,249.600 210.509,249.600 211.011 C 249.600 211.801,248.696 214.009,247.557 216.000 C 247.369 216.330,246.865 217.320,246.438 218.200 C 246.011 219.080,245.287 220.197,244.831 220.683 C 244.374 221.169,244.000 221.796,244.000 222.077 C 244.000 222.831,234.323 232.400,233.562 232.400 C 233.205 232.400,232.574 232.850,232.161 233.400 C 231.748 233.950,231.124 234.400,230.775 234.400 C 230.425 234.400,229.717 234.850,229.200 235.400 C 228.683 235.950,227.932 236.400,227.530 236.400 C 227.129 236.400,226.800 236.580,226.800 236.800 C 226.800 237.020,226.451 237.200,226.024 237.200 C 225.597 237.200,225.143 237.369,225.016 237.575 C 224.640 238.182,222.352 239.200,221.362 239.200 C 220.859 239.200,220.336 239.380,220.200 239.600 C 220.064 239.820,219.648 240.001,219.276 240.002 C 218.904 240.004,218.084 240.274,217.454 240.602 C 216.824 240.931,215.890 241.200,215.378 241.200 C 214.866 241.200,214.336 241.380,214.200 241.600 C 214.064 241.820,212.808 242.000,211.410 242.000 C 209.731 242.000,208.810 242.170,208.700 242.500 C 208.575 242.876,206.688 243.000,201.087 243.000 C 195.663 243.000,193.504 242.864,193.140 242.500 C 192.865 242.225,191.787 242.000,190.744 242.000 C 189.701 242.000,188.736 241.820,188.600 241.600 C 188.464 241.380,187.654 241.200,186.800 241.200 C 185.946 241.200,185.145 241.034,185.019 240.831 C 184.894 240.628,184.214 240.335,183.509 240.180 C 182.222 239.897,181.765 239.720,180.105 238.862 C 179.613 238.608,178.870 238.400,178.454 238.400 C 178.038 238.400,177.474 238.130,177.200 237.800 C 176.926 237.470,176.392 237.200,176.013 237.200 C 175.634 237.200,174.998 236.840,174.600 236.400 C 174.202 235.960,173.656 235.600,173.387 235.600 C 173.118 235.600,172.674 235.330,172.400 235.000 C 172.126 234.670,171.642 234.400,171.324 234.400 C 171.007 234.400,170.084 233.772,169.273 233.003 C 168.463 232.235,167.617 231.605,167.393 231.603 C 166.850 231.599,158.800 223.504,158.800 222.963 C 158.800 222.730,158.350 222.117,157.800 221.600 C 157.250 221.083,156.800 220.360,156.800 219.992 C 156.800 219.625,156.440 218.998,156.000 218.600 C 155.560 218.202,155.200 217.656,155.200 217.387 C 155.200 217.118,154.930 216.674,154.600 216.400 C 154.270 216.126,154.000 215.564,154.000 215.151 C 154.000 214.738,153.820 214.400,153.600 214.400 C 153.380 214.400,153.200 214.151,153.200 213.846 C 153.200 213.541,152.931 212.776,152.602 212.146 C 152.274 211.516,152.004 210.696,152.002 210.324 C 152.001 209.952,151.820 209.536,151.600 209.400 C 151.380 209.264,151.200 208.454,151.200 207.600 C 151.200 206.746,151.020 205.936,150.800 205.800 C 150.556 205.649,150.400 202.604,150.400 198.000 C 150.400 193.396,150.556 190.351,150.800 190.200 C 151.020 190.064,151.200 189.254,151.200 188.400 C 151.200 187.546,151.380 186.736,151.600 186.600 C 151.820 186.464,152.000 186.065,152.000 185.713 C 152.000 184.551,156.387 176.162,157.605 174.995 C 158.262 174.365,158.801 173.569,158.802 173.225 C 158.804 172.456,167.744 163.600,168.518 163.600 C 168.825 163.600,169.403 163.239,169.803 162.797 C 170.529 161.994,172.608 160.800,173.278 160.800 C 173.474 160.800,174.029 160.432,174.511 159.982 C 175.697 158.878,177.524 158.000,178.638 158.000 C 179.141 158.000,179.661 157.825,179.793 157.611 C 180.124 157.075,182.386 156.073,183.600 155.923 L 184.600 155.800 184.710 148.872 C 184.844 140.361,185.033 140.000,189.349 140.000 C 193.583 140.000,193.200 141.445,193.200 125.489 C 193.200 110.465,193.261 110.000,195.238 110.000 C 195.631 110.000,196.064 109.820,196.200 109.600 C 196.343 109.368,198.530 109.200,201.400 109.200 C 204.270 109.200,206.457 109.368,206.600 109.600 M197.386 114.112 C 196.453 117.831,198.004 121.756,199.726 120.034 C 199.965 119.795,200.412 119.600,200.720 119.600 C 203.674 119.600,205.638 116.648,204.557 113.833 C 204.115 112.680,197.683 112.930,197.386 114.112 M172.667 114.267 C 172.520 114.413,172.400 115.397,172.400 116.453 C 172.400 118.838,172.953 119.200,176.600 119.200 C 180.161 119.200,180.800 118.814,180.800 116.666 C 180.800 115.728,180.584 114.744,180.320 114.480 C 179.810 113.970,173.149 113.784,172.667 114.267 M203.800 115.775 C 203.800 117.296,203.722 117.388,201.461 118.503 C 198.403 120.011,198.000 119.822,198.000 116.879 C 198.000 113.952,198.011 113.943,201.183 114.084 L 203.800 114.200 203.800 115.775 M221.867 114.267 C 220.934 115.200,221.625 118.331,222.860 118.761 C 227.516 120.384,230.929 118.496,229.610 115.026 C 229.224 114.012,222.756 113.377,221.867 114.267 M179.923 116.700 L 180.046 118.400 176.623 118.400 L 173.200 118.400 173.200 116.867 C 173.200 114.811,173.307 114.752,176.782 114.885 L 179.800 115.000 179.923 116.700 M228.869 115.462 C 230.728 117.144,229.455 118.400,225.891 118.400 C 222.596 118.400,220.688 116.645,222.267 115.067 C 222.860 114.474,228.125 114.789,228.869 115.462 M200.959 123.716 C 197.882 125.049,197.600 125.394,197.600 127.822 C 197.600 130.583,198.296 130.850,201.614 129.362 C 204.286 128.162,204.800 127.533,204.800 125.459 C 204.800 122.538,204.252 122.290,200.959 123.716 M203.597 125.700 L 203.594 127.800 200.997 128.876 L 198.400 129.951 198.400 127.822 L 198.400 125.692 200.500 124.670 C 203.479 123.221,203.600 123.261,203.597 125.700 M202.800 133.077 C 198.343 134.330,196.573 136.300,197.564 138.904 C 198.028 140.126,203.239 140.601,204.320 139.520 C 205.870 137.970,204.596 132.572,202.800 133.077 M203.988 136.200 C 203.990 139.402,203.813 139.600,200.953 139.600 L 198.400 139.600 198.400 137.671 L 198.400 135.741 200.900 134.714 C 203.721 133.555,203.987 133.683,203.988 136.200 M199.675 173.584 C 199.194 174.235,198.800 174.872,198.800 175.000 C 198.800 175.128,198.464 175.720,198.054 176.316 C 196.288 178.881,193.743 182.888,192.653 184.819 C 192.242 185.546,191.297 187.008,190.553 188.067 C 189.809 189.126,189.200 190.068,189.200 190.161 C 189.200 190.386,178.867 206.830,178.242 207.600 C 174.892 211.726,174.251 211.623,202.600 211.504 L 227.400 211.400 227.523 210.538 C 227.642 209.703,226.720 208.264,217.889 195.497 C 216.178 193.024,214.162 190.100,213.408 189.000 C 211.720 186.537,208.830 182.371,206.054 178.400 C 204.901 176.750,203.515 174.725,202.974 173.900 C 201.788 172.092,200.845 172.002,199.675 173.584 M203.496 175.829 C 204.429 177.133,205.319 178.466,205.474 178.791 C 205.629 179.116,208.658 183.526,212.205 188.591 C 215.752 193.656,218.996 198.385,219.413 199.100 C 219.831 199.815,220.314 200.400,220.486 200.400 C 220.659 200.400,220.800 200.574,220.800 200.786 C 220.800 200.999,222.162 203.087,223.828 205.426 C 225.507 207.785,226.759 209.929,226.640 210.239 C 226.399 210.869,179.082 211.094,178.099 210.470 C 177.733 210.237,178.282 209.075,180.138 206.158 C 181.536 203.961,182.751 201.992,182.840 201.782 C 182.929 201.572,183.991 199.862,185.201 197.982 C 186.410 196.102,187.626 194.212,187.903 193.782 C 188.179 193.352,188.526 192.730,188.673 192.400 C 188.821 192.070,189.063 191.710,189.212 191.600 C 189.437 191.433,191.327 188.405,193.329 185.000 C 193.588 184.560,193.903 184.110,194.029 184.000 C 194.155 183.890,194.386 183.530,194.543 183.200 C 194.699 182.870,195.545 181.520,196.424 180.200 C 197.302 178.880,198.127 177.485,198.257 177.100 C 198.387 176.715,198.652 176.400,198.847 176.400 C 199.041 176.400,199.200 176.213,199.200 175.984 C 199.200 175.290,200.931 173.177,201.380 173.322 C 201.611 173.397,202.563 174.524,203.496 175.829 M198.700 185.476 C 197.474 185.796,197.661 195.016,198.900 195.348 C 200.070 195.661,202.561 195.667,203.367 195.357 C 204.309 194.996,204.309 185.804,203.367 185.443 C 202.663 185.172,199.783 185.193,198.700 185.476 M202.714 185.939 C 203.094 186.179,203.199 187.407,203.114 190.632 L 203.000 195.000 201.718 195.124 C 199.105 195.377,198.800 194.864,198.800 190.219 C 198.800 187.271,198.945 186.008,199.300 185.865 C 200.105 185.540,202.156 185.584,202.714 185.939 M198.283 201.050 C 196.515 202.818,198.442 206.004,201.274 205.994 C 203.776 205.985,204.066 205.675,203.923 203.162 L 203.800 201.000 201.183 200.884 C 199.744 200.820,198.439 200.895,198.283 201.050 M203.200 202.957 C 203.200 204.845,202.828 205.200,200.847 205.200 C 199.363 205.200,198.800 204.518,198.800 202.720 L 198.800 201.200 201.000 201.200 L 203.200 201.200 203.200 202.957 M137.931 296.769 C 135.273 298.860,136.630 302.800,140.008 302.800 C 141.688 302.800,143.602 300.967,143.598 299.362 C 143.592 296.895,139.911 295.211,137.931 296.769 M164.900 296.665 C 164.515 296.820,164.400 299.786,164.400 309.591 C 164.400 324.007,164.072 322.800,167.990 322.800 C 170.658 322.800,170.793 322.640,170.813 319.467 C 170.836 315.664,171.514 315.638,174.033 319.346 L 176.245 322.600 179.523 322.716 C 182.229 322.812,182.800 322.727,182.800 322.229 C 182.800 321.579,179.267 315.888,178.726 315.667 C 178.547 315.593,178.400 315.356,178.400 315.140 C 178.400 314.924,177.917 314.114,177.327 313.340 C 176.041 311.654,176.172 311.338,179.636 307.729 C 183.609 303.590,183.576 303.200,179.249 303.200 L 176.231 303.200 173.516 306.003 L 170.800 308.806 170.795 303.503 C 170.787 296.213,170.862 296.393,167.853 296.432 C 166.504 296.449,165.175 296.554,164.900 296.665 M233.624 297.156 C 232.922 298.468,233.052 321.780,233.765 322.371 C 234.105 322.653,235.341 322.792,236.865 322.720 L 239.400 322.600 239.517 319.934 C 239.712 315.522,240.406 315.515,243.343 319.900 L 245.285 322.800 248.419 322.800 C 250.143 322.800,251.654 322.636,251.778 322.435 C 252.031 322.027,250.768 319.606,250.300 319.603 C 250.135 319.601,250.000 319.330,250.000 319.000 C 250.000 318.670,249.820 318.400,249.600 318.400 C 249.380 318.400,249.200 318.217,249.200 317.994 C 249.200 317.771,248.300 316.350,247.200 314.838 C 244.735 311.448,244.701 311.865,247.700 308.560 C 249.075 307.045,250.518 305.452,250.906 305.021 C 252.048 303.752,251.519 303.407,248.249 303.283 L 245.162 303.166 242.392 306.065 L 239.622 308.964 239.511 302.782 L 239.400 296.600 236.724 296.482 C 234.397 296.380,233.992 296.468,233.624 297.156 M142.177 297.689 C 143.073 298.968,142.946 300.291,141.818 301.418 C 139.323 303.913,135.493 300.149,137.862 297.531 C 138.839 296.452,141.376 296.545,142.177 297.689 M170.006 302.700 C 170.014 310.415,170.073 310.486,173.492 306.885 L 176.232 304.000 178.693 304.000 C 182.058 304.000,182.052 304.283,178.608 307.966 C 174.967 311.859,174.928 310.867,178.962 316.908 C 182.761 322.597,182.748 322.400,179.337 322.400 L 176.806 322.400 174.903 319.500 C 172.776 316.259,172.231 315.600,171.674 315.600 C 170.953 315.600,170.000 318.320,170.000 320.380 L 170.000 322.440 167.700 322.320 L 165.400 322.200 165.294 310.048 C 165.175 296.383,165.088 296.800,168.049 296.800 L 170.000 296.800 170.006 302.700 M238.957 297.433 C 239.091 297.781,239.200 300.541,239.200 303.566 C 239.200 310.316,239.179 310.295,242.430 306.825 L 245.076 304.000 247.738 304.000 C 250.155 304.000,251.421 304.679,250.100 305.267 C 249.935 305.340,248.590 306.703,247.111 308.296 C 243.973 311.675,243.891 310.929,248.100 317.290 C 251.824 322.918,251.789 322.400,248.448 322.400 L 245.697 322.400 243.434 319.000 C 242.190 317.130,241.026 315.600,240.848 315.600 C 239.918 315.600,239.235 317.186,239.121 319.608 L 239.000 322.200 236.700 322.320 L 234.400 322.440 234.400 309.887 C 234.400 302.982,234.520 297.213,234.667 297.067 C 235.243 296.490,238.709 296.786,238.957 297.433 M113.088 297.846 C 112.929 298.004,112.800 303.691,112.800 310.484 L 112.800 322.835 115.700 322.718 L 118.600 322.600 118.715 318.900 L 118.830 315.200 120.324 315.200 C 121.755 315.200,121.928 315.357,124.413 318.900 L 127.009 322.600 130.505 322.716 C 133.793 322.824,134.000 322.783,134.000 322.016 C 134.000 321.567,133.820 321.200,133.600 321.200 C 133.380 321.200,133.200 321.004,133.200 320.763 C 133.200 320.523,132.220 318.968,131.022 317.307 L 128.844 314.286 130.622 312.558 C 131.600 311.608,132.400 310.474,132.400 310.039 C 132.400 309.603,132.580 309.136,132.800 309.000 C 133.020 308.864,133.200 307.694,133.200 306.400 C 133.200 305.106,133.020 303.936,132.800 303.800 C 132.580 303.664,132.397 303.248,132.394 302.876 C 132.386 302.044,130.552 299.923,129.200 299.182 C 127.365 298.177,113.875 297.058,113.088 297.846 M193.467 297.867 C 193.320 298.013,193.200 299.363,193.200 300.867 L 193.200 303.600 196.400 303.600 L 199.600 303.600 199.606 312.700 C 199.613 323.385,199.439 322.876,203.036 322.720 L 205.800 322.600 205.907 313.116 L 206.014 303.632 209.307 303.516 L 212.600 303.400 212.721 301.066 C 212.907 297.475,213.263 297.600,202.818 297.600 C 197.821 297.600,193.613 297.720,193.467 297.867 M128.016 299.342 C 133.195 301.531,134.002 309.463,129.402 312.972 C 127.740 314.239,128.022 314.905,132.735 320.824 C 133.898 322.285,133.521 322.489,129.969 322.321 L 127.423 322.200 124.834 318.500 L 122.245 314.800 120.338 314.800 L 118.430 314.800 118.315 318.500 L 118.200 322.200 115.700 322.319 L 113.200 322.438 113.200 310.358 L 113.200 298.278 119.900 298.511 C 124.490 298.670,127.046 298.932,128.016 299.342 M212.329 299.955 C 212.616 302.956,212.351 303.200,208.800 303.200 L 205.614 303.200 205.507 312.700 L 205.400 322.200 203.000 322.200 L 200.600 322.200 200.400 312.800 L 200.200 303.400 196.900 303.284 L 193.600 303.168 193.600 300.776 L 193.600 298.385 202.900 298.493 L 212.200 298.600 212.329 299.955 M118.400 306.600 L 118.400 310.000 121.971 310.000 C 126.052 310.000,127.200 309.239,127.200 306.532 C 127.200 303.732,126.394 303.200,122.154 303.200 L 118.400 303.200 118.400 306.600 M150.800 304.048 C 144.884 307.391,146.153 313.265,153.268 315.470 C 155.756 316.240,156.604 316.891,156.267 317.769 C 155.879 318.780,153.173 318.555,150.781 317.314 L 148.688 316.229 147.544 317.599 C 145.059 320.577,148.121 322.931,154.537 322.977 C 162.602 323.033,165.340 314.922,158.421 311.470 C 157.682 311.102,156.772 310.800,156.400 310.800 C 155.312 310.800,153.200 309.592,153.200 308.971 C 153.200 308.193,156.727 308.202,158.233 308.983 C 159.578 309.681,160.095 309.365,161.220 307.161 L 161.982 305.668 160.568 304.834 C 159.790 304.375,158.905 304.000,158.601 304.000 C 158.296 304.000,157.936 303.820,157.800 303.600 C 157.345 302.864,152.327 303.185,150.800 304.048 M218.000 303.590 C 217.670 303.779,216.793 304.160,216.052 304.435 C 213.392 305.425,213.045 306.254,214.464 308.230 C 215.772 310.050,216.028 310.083,218.621 308.767 C 219.905 308.114,223.367 308.462,223.518 309.258 C 223.613 309.760,223.235 309.970,221.921 310.145 C 217.545 310.728,216.573 310.943,215.427 311.580 C 211.337 313.855,211.506 319.455,215.749 322.210 C 217.337 323.241,221.774 323.277,223.267 322.271 C 224.239 321.615,224.365 321.609,224.695 322.198 C 224.978 322.704,225.573 322.818,227.428 322.722 L 229.800 322.600 229.909 315.306 C 230.030 307.180,229.631 305.710,226.957 304.451 C 226.321 304.152,225.487 303.748,225.105 303.553 C 224.225 303.105,218.798 303.134,218.000 303.590 M260.600 303.600 C 260.464 303.820,260.077 304.000,259.740 304.000 C 254.353 304.000,251.748 314.838,255.932 319.843 C 259.405 323.999,271.200 323.968,271.200 319.802 C 271.200 318.028,268.259 316.041,267.137 317.057 C 265.688 318.368,260.400 317.685,260.400 316.186 C 260.400 315.697,261.396 315.600,266.386 315.600 C 273.415 315.600,273.480 315.561,273.028 311.570 C 272.623 307.991,269.700 304.000,267.482 304.000 C 267.133 304.000,266.736 303.820,266.600 303.600 C 266.464 303.380,265.114 303.200,263.600 303.200 C 262.086 303.200,260.736 303.380,260.600 303.600 M283.400 304.180 C 281.859 305.089,281.789 305.096,281.513 304.362 C 281.276 303.733,280.824 303.601,278.913 303.606 C 275.383 303.615,275.570 303.044,275.692 313.428 L 275.800 322.600 278.600 322.600 L 281.400 322.600 281.600 317.600 C 281.859 311.120,282.559 309.504,285.237 309.200 L 287.000 309.000 287.000 306.200 C 287.000 302.897,286.270 302.488,283.400 304.180 M125.986 304.374 C 127.633 307.452,125.882 309.600,121.725 309.600 L 118.800 309.600 118.800 306.600 L 118.800 303.600 122.186 303.600 C 125.124 303.600,125.627 303.702,125.986 304.374 M137.292 303.925 C 136.901 304.181,136.809 306.362,136.892 313.428 L 137.000 322.600 139.800 322.600 L 142.600 322.600 142.600 313.200 L 142.600 303.800 140.200 303.697 C 138.880 303.640,137.572 303.742,137.292 303.925 M159.036 304.775 C 162.010 306.090,160.907 309.472,157.912 308.221 C 156.296 307.546,153.720 307.410,152.861 307.954 C 151.373 308.897,153.017 310.332,157.327 311.850 C 164.617 314.419,162.454 322.400,154.469 322.400 C 149.835 322.400,146.449 320.639,147.431 318.740 C 148.260 317.137,148.844 317.002,150.745 317.972 C 152.990 319.117,156.203 319.115,156.818 317.967 C 157.414 316.854,156.547 315.900,154.294 315.190 C 150.294 313.930,147.600 311.768,147.600 309.818 C 147.600 304.943,153.517 302.333,159.036 304.775 M224.323 304.053 C 228.727 305.118,229.692 307.333,229.522 316.000 L 229.400 322.200 227.300 322.321 C 226.145 322.387,225.197 322.297,225.194 322.121 C 225.172 320.955,224.476 320.766,223.158 321.569 C 218.825 324.211,213.400 321.453,213.400 316.610 C 213.400 312.633,214.987 311.454,220.999 310.966 C 224.567 310.676,224.881 310.446,223.986 308.774 C 223.445 307.762,219.167 307.679,217.237 308.642 C 216.529 308.995,215.905 309.220,215.849 309.142 C 215.794 309.064,215.354 308.480,214.872 307.843 C 213.565 306.119,214.437 305.345,219.000 304.179 C 221.580 303.520,222.067 303.508,224.323 304.053 M266.151 304.203 C 270.317 305.414,272.400 308.163,272.400 312.449 L 272.400 314.800 265.987 314.800 C 258.913 314.800,258.186 315.069,260.008 317.009 C 261.812 318.928,264.090 319.147,267.159 317.696 C 268.504 317.059,268.527 317.065,269.463 318.226 C 270.735 319.806,270.529 320.439,268.400 321.484 C 263.176 324.048,255.624 321.219,254.646 316.332 C 253.002 308.108,258.747 302.050,266.151 304.203 M286.721 306.068 L 286.600 308.136 284.810 308.568 C 281.886 309.274,281.215 310.903,281.207 317.320 L 281.200 322.440 278.900 322.320 L 276.600 322.200 276.492 313.300 L 276.385 304.400 278.746 304.400 C 280.738 304.400,281.138 304.520,281.308 305.169 C 281.501 305.909,281.580 305.901,283.422 304.969 C 286.424 303.449,286.865 303.596,286.721 306.068 M142.400 313.420 L 142.400 322.440 140.100 322.320 L 137.800 322.200 137.692 313.300 L 137.585 304.400 139.992 304.400 L 142.400 304.400 142.400 313.420 M260.231 309.167 C 258.602 310.868,259.124 311.200,263.424 311.200 C 266.813 311.200,267.200 311.125,267.200 310.470 C 267.200 307.940,262.287 307.022,260.231 309.167 M265.999 309.398 C 267.262 310.743,267.028 310.853,263.189 310.717 L 259.879 310.600 260.839 309.507 C 262.157 308.009,264.644 307.956,265.999 309.398 M218.889 315.023 C 217.171 316.226,218.486 318.800,220.820 318.800 C 223.086 318.800,225.593 315.653,224.005 314.802 C 222.865 314.193,219.891 314.321,218.889 315.023 M223.701 316.183 C 223.448 317.505,221.460 318.188,219.676 317.567 C 217.165 316.691,218.392 315.200,221.625 315.200 C 223.814 315.200,223.883 315.233,223.701 316.183 " stroke="none" fill="#8cac9c" fill-rule="evenodd"></path></g></svg>